<svg id="Layer_13" data-name="Layer 13" xmlns="http://www.w3.org/2000/svg" xmlns:xlink="http://www.w3.org/1999/xlink" viewBox="0 0 2880 1800"><defs><style>.cls-1{fill:#fde1ff;}.cls-2{fill:url(#linear-gradient);}.cls-3{opacity:0.09;}</style><linearGradient id="linear-gradient" x1="1436.08" y1="116.12" x2="1436.08" y2="1948.1" gradientUnits="userSpaceOnUse"><stop offset="0" stop-color="#acc7e2"/><stop offset="0.34" stop-color="#ccdded" stop-opacity="0.62"/><stop offset="0.66" stop-color="#e7eff7" stop-opacity="0.28"/><stop offset="0.89" stop-color="#f8fbfd" stop-opacity="0.08"/><stop offset="1" stop-color="#fff" stop-opacity="0"/></linearGradient></defs><rect class="cls-1" x="-3.59" y="9" width="2881.35" height="1798.01" transform="translate(2874.16 1816.01) rotate(180)"/><rect class="cls-2" x="-4.6" y="9" width="2881.35" height="1798.01"/><path class="cls-3" d="M2392.91,434.37c0,2.74,0,5.48,0,8.22.32,14.42-2.51,28.38-7.11,41.88-7.52,22-18.16,42.73-29.65,62.92-3.07,5.39-7.32,10.2-11.48,14.87-10.34,11.59-20.55,23.34-31.55,34.29-12.75,12.71-26.29,24.63-39.49,36.89-.77.71-1.56,1.95-2.37,2-6.37.2-9.79,5-14.11,8.52-6.44,5.3-13.6,9.77-19.76,15.36C2224,671.44,2211,684,2198,696.54c-7,6.69-13.77,13.6-20.62,20.44-13.11,13.1-8.34,36.82,8.95,43.31a16,16,0,0,0,9.9.09,212.84,212.84,0,0,0,21.35-8.79c2-.92,3.4-3.06,5.15-4.55,4-3.37,8.71-6.13,11.86-10.14,6.36-8.11,16.63-14.45,14.55-27-.47-2.82-2.46-5.5-4.19-7.91-.62-.86-2.57-.75-3.92-1.08-.31,1.53-1.41,3.6-.8,4.51,2.6,3.86,2,6.85-1.87,8.94-3.27,1.76-7.57-.67-9.57-5-4.58-9.82.36-17.84,11.16-17.84a35.6,35.6,0,0,1,9.94,1.15c8.83,2.57,12.07,9.68,8.88,18.4a12.23,12.23,0,0,0-.87,4.31c.27,13.18-7.72,22.74-14.53,32.68-3.74,5.45-7.6,11.56-12.94,15-9.28,6-15.33,14.79-22.18,22.77-5.77,6.73-8.87,15.26-7.34,24.71,1.15,7.12,11.14,14.15,19.36,12.76,9.62-1.63,19.42-2.93,28.14-7.87q16.77-9.51,33.48-19.1,9.77-5.62,19.41-11.46a26.49,26.49,0,0,0,5-3.77c8.94-8.86,18.55-17.19,26.43-26.91,6.4-7.89,10.72-17.48,15.91-26.35.94-1.61,1.61-3.39,2.5-5,4.9-9,3.64-18.33.69-27.39-3.05-9.37-12.17-12.36-21.42-9.14-6.85,2.38-12.5,5.2-14,12.73a27.52,27.52,0,0,0,.05,9.87c.24,1.33,2.6,3.28,3.85,3.17s3-2.08,3.66-3.61.36-3.72.46-5.61c.27-5.36,2.2-7.38,7.19-7.56,5.85-.22,6.08.9,7.86,6.45,4.2,13.17-4.28,19.73-12.75,26.36-3.5,2.74-7.33,2.49-11-.39-7.9-6.17-10-15.79-14.17-24.09-.71-1.42,1.51-4.14,1.95-6.34,2.6-12.84,10.77-21.06,22.09-26.49a39.53,39.53,0,0,1,11.2-3.5c10.93-1.61,19.38,5.2,24.28,15.28,6.27,12.9,4.77,26.16,5,39.48a5.23,5.23,0,0,1-.26,2.49c-6.64,12-10,25.61-18.24,37-5.92,8.19-9.94,17.73-15,26.54-4,6.86-8.39,13.49-12.51,20.28-1.28,2.12-2.29,4.42-3.37,6.66-5.72,11.88-11.4,23.77-17.16,35.63-.91,1.88-2.07,3.64-3.15,5.43-5.69,9.42-8.87,19.79-11.9,30.27-1.84,6.35-4.58,12.42-6.76,18.67-1.66,4.74-3.13,9.54-4.58,14.35-1.92,6.4-3.81,12.81-5.56,19.25-1.42,5.21-2.57,10.49-3.91,15.72-.82,3.22-1.87,6.38-2.64,9.61-1,4.23-2.38,8.47-2.59,12.75-.48,9.68-4.24,18.28-7.76,27-1.87,4.64-3.5,9.38-5.44,14-4.13,9.83-10.79,17.8-18.82,24.66-17.74,15.15-38.51,25.09-59.57,34.52a37.1,37.1,0,0,0-8,4.91c-1.57,1.26-3.83,3.94-3.39,4.95.95,2.2,3.19,4.94,5.32,5.36,17.22,3.43,34.47,7.06,52.19,6.12,12.81-.68,25.68-1,38.38-2.69,7.08-.91,14-3.91,20.78-6.37,4.91-1.77,9.42-4.77,14.4-6.21,6.19-1.78,10.46-5.78,14.74-10.12,5.45-5.54,11.82-10.36,16.4-16.53,6.8-9.17,14.49-18.58,17.85-29.14,3.09-9.69,2.1-20.82-2.23-31.41-3.8-9.3-12.35-12-18.82-17.48-2.54-2.17-7.22.88-9.93,5.59-2.22,3.85.29,5.24,3.17,6.64,1.31.63,2.44,1.64,3.72,2.35a13.44,13.44,0,0,1,5.79,17.66c-2.57,5.3-6.35,6.89-11.87,5-8.93-3.06-12.88-8.78-13.55-18.17a38.57,38.57,0,0,1,4-20.12,17,17,0,0,1,8.6-7.67c16.59-6,31.87,2.51,37.33,18.06,4.26,12.16,8.83,24.88,6.38,38.09-2.18,11.71-2.78,24-11.4,33.9-5,5.76-7.85,13.58-13.23,18.88-9.5,9.38-20.8,16.94-30.23,26.37-11.35,11.36-26.67,14.65-40,21.82-4.14,2.23-9.31,2.47-13.93,3.9-12.49,3.88-24.85,8.18-37.42,11.78-9,2.59-18.45,3.8-27.4,6.59-12.92,4-25.83,8.29-38.28,13.55a134.44,134.44,0,0,0-46.46,33c-2.19,2.37-4.21,4.91-6.3,7.36,2.64,1.63,5.43,3.07,7.91,4.92,8.91,6.61,16,14.79,20.3,25.1,1.15,2.8,1.18,6.22,1.08,9.34a126.63,126.63,0,0,1-1.43,16.64c-1.49,8.74-8.5,13-15.22,17.31-1.94,1.25-4,2.33-5.83,3.71-7.05,5.33-14.65,8.41-23.78,8.65-6.68.17-13.34,1.34-19.88-.68-3.14-1-6.54-2-9-4-6-4.87-11.18-10.66-12.9-18.63a13.48,13.48,0,0,1-.29-4.38c1.19-9.59,14.27-22.51,23.88-22.78,3.75-.11,7.87,1.44,11.21,3.32,1.36.77,1.87,4.57,1.43,6.72-1.18,5.75-5.69,9-11.87,9.35-1,.06-2.34-.25-3.11.24-1.77,1.13-4.52,2.59-4.61,4-.11,1.91,1.64,4.27,3.18,5.85a8.25,8.25,0,0,0,5.09,2.3c8.34.27,16.8,1.06,25,0,6.86-.93,8.33-8.82,12.28-13.5,5-5.92,4.32-11.93.54-18.91-6.82-12.57-16.64-18.9-30.82-18.73a97.39,97.39,0,0,1-10.11,0c-6.57-.61-12.37,1.57-18.07,4.35-11.76,5.72-23.38,11.72-35.27,17.14-15.41,7-30.88,13.92-46.59,20.21A318.45,318.45,0,0,1,1912,1272c-8.45,2.3-17.31,3.15-26,4.32-3.41.45-6.85,1.37-7.23,4.72-.2,1.84,2.38,5,4.44,5.91,8.32,3.83,16.9,7.1,25.43,10.46,9.9,3.9,19.83,7.69,29.76,11.49,8.59,3.29,17.31,6.28,25.77,9.85,18.49,7.81,36.89,15.83,55.26,23.9q12.63,5.56,25,11.65c24.09,11.76,48.12,23.67,72.23,35.4,2,1,4.43,1,6.66,1.55q4.85,1.13,9.67,2.28c1.63.38,3.23.89,4.87,1.14,4.95.74,9.91,1.38,14.86,2.06a6.82,6.82,0,0,0,1.88.21c9-1.57,18-3.14,26.91-4.8a37.09,37.09,0,0,0,6.69-1.71c16.28-6.37,27.59-18.87,37.48-32.37,7.6-10.38,7.09-22.56,3.91-34.92-1.91-7.45-6-13.1-10.39-19-4.73-6.29-11.72-8.8-18.41-9.49a22.71,22.71,0,0,0-18.76,6.49c-1.13,1.18-2,4.08-1.38,5.13,1.37,2.19,3.65,4.22,6.91,2.65a24.4,24.4,0,0,1,18.29-1.42c2.31.73,4.32,3.36,5.75,5.58,1.05,1.63.83,4.05,1.35,6.07,2.31,8.86-2.12,16.17-11.35,16.7-13.33.77-26.1-2.5-33.6-14.31-6.88-10.84-4.84-30.41,12.39-38.35,10.07-4.64,20.09-4.79,30.5-1.2,7.09,2.44,14.72,3.47,21.55,6.44,14,6.07,23.25,17.38,27.63,31.49,3.66,11.79,7.72,23.73,6.52,36.77a67.15,67.15,0,0,1-11.62,32c-5.34,7.89-12.66,14.42-18.71,21.87-11.48,14.14-27.54,21-43.68,27.45-5.88,2.37-12.58,2.61-18.86,4a58.07,58.07,0,0,0-11.34,3.34c-3,1.37-3.48,4.25-1,6.76,12.26,12.39,19.72,27.77,27.29,43.12a52.28,52.28,0,0,0,5.26,7.8c8.59,11.51,9.66,26,14.93,38.78,4.33,10.54,5.62,22.3,9.64,33,5.26,14,10.08,28.81,18.43,41,7.83,11.4,17.27,22.86,31.18,28.56a28.09,28.09,0,0,1,7.44,4.65c5.7,4.88,12.31,7.52,19.53,9.13a87,87,0,0,1,10.13,3.46c1,.35,1.89,1.18,2.86,1.24,12.51.78,24.79,4.44,37.48,2.91,8.08-1,16.43-.84,24.19-2.93,11.69-3.16,24.57-3.86,33.77-13.59,1.93-2,4.71-3.42,7.3-4.65,9.71-4.61,13.1-13.73,16.29-22.85q5.46-15.63,10.11-31.54a51.62,51.62,0,0,0,1.9-13c.33-12.63,1.2-25.35.13-37.88-1.43-16.83-11.41-29.31-27.12-33.77-14.41-4.08-30-7.06-45-.35-7.66,3.42-10.7,6.55-10.24,14.59.44,7.71-1,15.64,3.61,22.67a38.09,38.09,0,0,0,2.38,3.69c4.92,5.92,6.89,5.7,10.78-1.1,4.35-7.62,9.85-14,18.76-16.26a20.79,20.79,0,0,1,7.38-.35c2.68.32,5.25,1.38,7.89,2,5.86,1.41,7.64,5.32,5,10.93-1.86,4-3.7,7.92-5.43,11.93-4.54,10.56-16.33,14.56-28,11.1-18.38-5.47-23.65-20-27.77-36.2-1.52-6-.31-11.51.21-17.2.84-9,13.12-19.45,22.23-20,5.35-.32,10.61-2,16-2.67,13.12-1.61,25,3.26,37.08,7.26,11.48,3.78,20.44,10.9,27.62,19.94,6.17,7.77,10.36,17,14,26.35,4,10.12,4.48,20.43,4.09,31-.47,13-.08,26.17-2.06,39-1.64,10.55-6.09,20.68-9.47,30.94-1.31,4-3.06,7.78-4.74,11.6-.92,2.11-1.75,4.44-3.27,6.06-7.5,8-13.72,17.15-24.88,21.28-6.95,2.58-12.67,8.34-19.54,11.29-15.52,6.67-31.39,12.37-48.79,11.9-19.16-.52-38.35,0-57.47-1.15-7.31-.42-14.43-4-21.64-6.18-4.94-1.47-10-2.64-14.8-4.45-5.46-2.06-10.53-5.26-16.08-7-17.61-5.43-28.86-19.51-42.51-30.34q-17.43-13.83-35.13-27.29c-8.15-6.15-16.41-12.18-24.94-17.8-8.78-5.78-18.54-9.36-28.78-12-8.24-2.08-15.73-.49-23.24,2.53-6.56,2.63-9.9,8.21-12.54,14.24-2.16,4.92-4,10-5.75,15.09a18.11,18.11,0,0,0-.6,5.62c-.05,12.86-.14,25.72.07,38.58,0,2.82,1.22,5.63,1.93,8.43,1.21,4.82,2.66,9.59,3.67,14.46,3.09,14.77,9.46,28.21,16.86,41.18,3.91,6.85,9,13,12.84,19.94,5.15,9.31,14.22,14.56,21.53,21.55,4.48,4.29,11.1,6.36,16.8,9.35,1.46.78,3.11,1.2,4.59,1.94,14.37,7.11,29.16,9.45,44.83,4.69,5.57-1.7,11.68-1.81,17.06-3.9,8.7-3.38,17.16-7.54,23.33-15.05q5.58-6.79,11.15-13.62a7.83,7.83,0,0,0,1-1.61c5.26-11,0-32.44-9.85-40-5.72-4.4-11-10-17.4-12.74-7.33-3.12-15.7-4.18-23.75-5.12-5.14-.61-8,3.8-6.76,8.81,2.28,9.69-1.35,15.55-11.43,18.36-1.61.45-3.3.68-4.88,1.22-7.56,2.56-13.93-.27-16-8a77.35,77.35,0,0,1-2.47-17.21,9.4,9.4,0,0,1,3.41-6.88c3.88-2.78,8.29-5.92,12.79-6.5,9.24-1.18,17.9-6,27.63-4.23,3.27.6,6.74.23,10.1.06a12.49,12.49,0,0,1,10.22,3.81c1.93,2,4.78,3.11,7.38,4.26,10.65,4.69,18,13.29,26.16,21.13,9.61,9.25,14.26,20.86,18.62,33,3.6,10,3,19.14.39,29.33-2.72,10.41-6.61,19.17-15.05,26-11.82,9.52-24.61,17-39.44,20.82a61.65,61.65,0,0,0-6.35,2.58c-15,5.81-30.09,3.48-45.39,1a157.43,157.43,0,0,1-24.79-6.3c-15.19-5-30.36-9.47-45-16.7-13.59-6.7-27.5-13.23-41.33-19.69-12.89-6-25.47-12.7-38.29-18.88-8.65-4.18-17.44-8.09-26.26-11.92-9.78-4.25-19.76-8-29.47-12.44-17.21-7.8-35-12.42-54-11.62-11.35.48-22.72.3-34.06.9a109.39,109.39,0,0,0-19.85,2.64,311.35,311.35,0,0,0-33.34,9.61c-4.42,1.6-8.33,5.58-11.52,9.3-3,3.56-1,10.82,2.94,14.92a77.59,77.59,0,0,0,31.7,20.58c19.43,6.54,39.33,10.19,59.92,8.22a92,92,0,0,0,28.79-8.1,10.61,10.61,0,0,0,6.49-9.37c.75-11.12-.78-14.14-10.24-17.13a12.57,12.57,0,0,0-7.81.53c-3,1.21-4.56,3.44-1.51,6.79,2.85,3.14,2,6.43-1.84,6.53-5.92.15-11.91,3.45-17.92-1.51-4.22-3.47-7.46-7.62-5.55-12.95,1.36-3.79,3.15-7.42,7.35-9.7,14.73-8,28.69-7,42.3,2.41,3.74,2.59,7.32,5.47,11.25,7.73,3.43,2,4.46,4.77,4.41,8.39a94.87,94.87,0,0,0,0,10.12c1.28,13.93-7.28,21.83-17.78,27.88a52.86,52.86,0,0,1-25.56,7.31c-14.26.33-28.49,2.38-42.74,2.51-9.38.09-19.39-.22-28-3.36-16.15-5.88-32.27-12.24-46.26-23-11.92-9.15-24.87-16.94-36.9-26-12.57-9.42-24.58-19.6-36.86-29.42-1.28-1-2.7-1.86-4.06-2.78-4.11-2.81-8.45-5.34-12.28-8.48-5.73-4.71-9.89-3.59-12,3.55s-3.72,14.25-6.73,20.85c-2.74,6-6.19,12.21-10.94,16.56-4.94,4.52-11.81,6.94-17.85,10.23q-6.79,3.71-13.66,7.29a8.5,8.5,0,0,1-2.88,1.17c-17.37,1.9-33-1.73-46.82-13.2-6.69-5.53-12.93-11-16.14-19.14-3.76-9.51-6.61-18.78-3-29.61,2.48-7.38,4.83-14.6,9-21.19,4.94-7.87,13.66-10.77,22.34-7.56a22.34,22.34,0,0,0,4.26,1.07c12.33,1.84,19,8.4,22.76,20.21a32.89,32.89,0,0,1,.13,20.82c-2.92,9.51-15.59,13.54-22.9,6.77-1.39-1.28-2.72-2.62-4.05-4-5.23-5.32-5.39-10.47-.5-16,.83-1,1.78-1.79,2.62-2.74,4.59-5.14,4.64-8,.25-12.42s-9-5-13.24-.53c-3.3,3.55-5.55,8.22-7.72,12.67-8.09,16.58-.07,34.49,11.58,43,11,8,23.5,9.06,36.16,3.68,7.1-3,14.1-6.1,19.06-12.65,8.16-10.76,10.29-22.83,7.67-35.58-1.92-9.35-5.06-18.46-8-27.56a22.49,22.49,0,0,0-4.81-8.42c-8.13-8.48-17-16.3-24.87-25-11.09-12.19-21.55-24.95-32.36-37.4-2.34-2.68-5.08-5-7.56-7.57a208.3,208.3,0,0,1-33.27-45.42c-4.9-9-11-17.29-15.94-26.21-3.23-5.79-5.47-12.15-8.15-18.25-3.26-7.47-6.92-14.8-9.65-22.46-2.38-6.65-3.74-13.67-5.47-20.55-1.68-6.65-3.26-13.32-4.9-20a19.6,19.6,0,0,1-.76-2.4c-1-9.54-1.09-19.28-3.1-28.61-3.36-15.59-3-31.28-2.4-46.91.44-11,3-21.82,4.57-32.72.27-1.87.33-3.77.68-5.62.76-4,1.65-8.09,2.51-12.12.21-1,.61-2,.73-3.06,2.2-18.93,4.18-37.89,6.63-56.79,1.07-8.23,3.17-16.31,4.68-24.49.42-2.26.21-4.63.64-6.89.69-3.62,1.67-7.18,2.55-10.76a23.61,23.61,0,0,0,1.09-4.24c.94-20.38,1.88-40.76,2.64-61.15.31-8.21-1.63-17,.64-24.54,4.32-14.4.16-29.11,3.18-43,2.88-13.28.19-26.61,2.68-39.43,2.13-10.89.78-21.83,2.75-32.4,2.64-14.21,4.06-28.53,6.31-42.74,1.43-9,4.86-17.64,7.6-26.38s5.37-17.23,8.55-25.66c4.71-12.47,9.95-24.74,14.78-37.16,1.87-4.82,2.88-10,4.91-14.72,8.14-19,16.6-37.86,24.76-56.86,3.35-7.81,6-15.93,9.39-23.71,4.94-11.24,10.44-22.24,15.45-33.45,5.11-11.41,9.91-23,14.86-34.45a6.6,6.6,0,0,1,.56-1.13c9.7-14.72,14.21-32,23.6-47,5.72-9.09,10.16-19.09,14.3-29,4.38-10.55,7.71-21.54,11.56-32.31a49.86,49.86,0,0,1,3-6.91c6.42-11.82,4.5-24.91,5.94-37.49.32-2.82,1.39-5.55,2-8.34a33.82,33.82,0,0,0,1.21-6.7c.15-8.43.27-16.87,0-25.3-.11-3-1.38-6-2.17-9-.32-1.21-.89-2.38-1.09-3.6-1.17-7.24-2.25-14.49-3.39-21.73a8.58,8.58,0,0,0-.79-3c-7.2-12.25-14.59-24.06-25.43-33.94-12-10.88-25.61-13.12-40.19-11.83a34.62,34.62,0,0,0-27.22,17c-4.15,7.11-4,16.16-1.11,24.33,2.16,6.05,4.21,12.45,7.88,17.57,3.14,4.38,8,8.52,13,10.3s11.22.7,16.89.54c1,0,2.7-1.81,2.64-2.67-.1-1.33-1.39-3.64-2.27-3.68-9.19-.47-8.54-8.87-11.17-14.19-1.51-3.07,2-5.45,5.06-5.76a55,55,0,0,1,13.86,0c6.18,1,6.58,7.52,9.46,11.66.54.79.33,2.06.6,3.08,3.35,12.44.37,18.27-11.72,22.44-3.9,1.35-8.16,3.81-11.84,3.21-6.17-1-12.07-3.88-18-6.29a56.72,56.72,0,0,1-10.39-5.43c-7.31-5-11-12.55-14.53-20.51-2.82-6.35-2.18-12.68-3-19.07-1.73-13.09,2.2-23.35,12.85-31.23,3.17-2.35,5.29-6.32,8.65-8.13a36.1,36.1,0,0,1,13.75-4.27c8.17-.67,16.55-1.08,24.62.06,7.47,1.05,15.26,2,22,6.55,10.5,7.14,21.87,13,30.06,23.25,9.6,12,15.17,25.86,19.66,40.31a6.89,6.89,0,0,1,.3,1.86c.62,16.94,4.64,33.66,3,50.74-.36,3.76.32,7.63-.12,11.38-1.31,10.95-3,21.85-4.42,32.78-.64,5-.68,10.1-1.48,15.07-1.82,11.3-3.5,22.64-6.06,33.78-3.62,15.81-7.93,31.46-12,47.15-1.47,5.62-3.22,11.15-4.72,16.76-.23.88-.15,2.49.36,2.77a4.36,4.36,0,0,0,3.51.48,14.59,14.59,0,0,0,4.29-3.63c9.72-11.78,19.65-23.42,29-35.54,8.51-11.09,16.24-22.79,24.47-34.11,5-6.9,10.37-13.55,15.47-20.39,8.32-11.18,16.56-22.43,24.84-33.65,8.55-11.59,17.24-23.09,25.63-34.8,5.47-7.63,10.45-15.6,15.77-23.35,3.88-5.66,8-11.13,11.9-16.79,2.24-3.28,4-6.91,6.26-10.14,1.9-2.67,4.61-4.79,6.4-7.51,5.51-8.34,10.52-17,16.14-25.27,8.09-11.9,16.76-23.42,24.78-35.37,5.58-8.31,10.84-16.89,15.59-25.7,7.14-13.27,14-26.69,20.38-40.35,3.49-7.54,5.48-15.76,8.4-23.58,1.82-4.86,4.64-9.4,6.12-14.35,3.4-11.38,6.29-22.91,9.32-34.39,2.72-10.28,5.52-20.53,7.94-30.87,1.52-6.47,1.36-13.53,3.83-19.55,4.55-11.13,4-23.2,7.77-34.49,2-6.12.27-13.41,1-20.07,2.89-25,.91-50,1.38-75,.16-8.79-2.54-17.66-4.07-26.47a117.38,117.38,0,0,0-3.1-14.61c-6.68-21.61-15.61-42.14-34-56.44-6-4.7-14-7.32-21.34-9.94-5.39-1.9-11.47-3.53-17-3a49.31,49.31,0,0,0-26,10.06c-2.28,1.81-3.87,5.06-4.73,8-3.3,11.18,2,26,11.73,32.41,1.45,1,5,.55,6.42-.63a24.7,24.7,0,0,0,6-8A14.29,14.29,0,0,1,1928,53.4a24.69,24.69,0,0,1,12.15,16.12c1.43,5.6-2.71,10.56-7.18,13.7-5,3.54-10.77,6.15-16.35,8.84a12.1,12.1,0,0,1-12-.51,103.12,103.12,0,0,0-10.64-5.27c-6.87-3.1-10.86-8.84-14.6-15-5.91-9.77-8.36-20.82-11.89-31.44-.82-2.45,1.23-6,2.24-8.89,3.29-9.47,6.5-18.89,14.21-26.12,7.46-7,16.32-11.57,26-12.51,10.06-1,20.53-2.07,30.5,2.15,10.74,4.54,22,8.1,32.36,13.29,6,3,11,8.11,16,12.69A227.67,227.67,0,0,1,2007,38.29c10,11.28,19.6,22.87,26.44,36.44,4.78,9.49,9.68,18.93,14,28.62,5,11.18,9.06,22.8,14.27,33.88,4.48,9.55,7.3,19.42,9.55,29.68,1.62,7.43,5.26,14.4,7.56,21.71a147.65,147.65,0,0,1,3.66,15.76c1.66,8.43,3.15,16.9,4.64,25.36s2.14,17.47,4.64,25.77c3.2,10.58.29,21.73,3.1,31.76,4.23,15.1,1.72,30.11,2.76,45.11.83,11.92,1.89,23.83,2.71,35.75.34,5,.35,10.11.45,15.17s-.69,10.12,2.6,14.6A5.28,5.28,0,0,1,2104,401c-.56,13.35,5.51,24.52,11.4,35.85,4.42,8.49,12.7,11.82,20.17,16.28,4.42,2.64,9.25,3.38,14.45,3.29,3.65-.06,7.35,1.17,11,2.07,5.06,1.26,9.77,1.82,14.27-2,2.15-1.81,5.21-2.47,7.75-3.85,8.92-4.88,14.31-12.8,18-21.92,1.68-4.17,3.72-8.86,3.29-13.08-1.08-10.48-4.73-20.12-14.25-26.32-1.4-.91-2.64-2.09-4-3.1-3.12-2.34-8.47-1.33-10.17,2a2.49,2.49,0,0,0,.28,2.18,40.13,40.13,0,0,0,3.16,3.09c3.81,3.87,4.18,8.44,1,11.65a9.32,9.32,0,0,1-12.55.43c-5.47-4.57-7.13-9.63-5.09-15.57,3.15-9.14,7.8-12.94,15.63-13.06,13.14-.21,28.15,7.56,33.64,22.71,2.63,7.27,4.23,14.9,6.26,22.38,1.2,4.39,2.71,8.74,3.37,13.22,1.23,8.48-.86,16.5-4,24.42-5.13,13-9.49,26.32-14.87,39.21-2.21,5.31-5.93,10.08-9.46,14.72-9.09,12-17.3,24.74-29,34.52-7.19,6.05-14.81,11.58-22.07,17.55-5,4.12-9.7,8.66-14.64,12.88-7,6-14.22,11.74-21.07,17.89-1.58,1.42-2.06,4.07-3,6.15,2.52,1,5.35,3.31,7.52,2.8,8.09-1.92,16-4.64,23.91-7.27,11.08-3.69,22.14-7.46,33.13-11.42q16.17-5.82,32.18-12.09c12.05-4.7,24.25-9.12,36-14.54,14.78-6.82,29.45-14,43.58-22.05,7.91-4.5,14.63-11.08,21.9-16.7,4.14-3.2,8.25-6.43,12.45-9.54,9.5-7.06,14.46-17.77,21.63-26.69,10.89-13.55,18.31-29,24.7-44.84,4.28-10.65,7-22,6.09-33.69-1.56-21.14-12-36.5-31.18-45.91-11.13-5.45-21.67-2.7-31.31,2.95-9.07,5.31-17.15,12.25-20.58,22.94a30.28,30.28,0,0,0-1.74,7.22c-.27,4.84-.12,9.7-.1,14.55,0,12,12.33,22.93,24.22,21.59,9-1,14.71-6.58,18.94-14.05a20.66,20.66,0,0,0,2.63-5.62c.28-1.4-.63-3.05-1-4.59a37.2,37.2,0,0,0-4.94,1.52c-.61.28-.72,1.51-1.26,2.13a7.24,7.24,0,0,1-12.07-1.43c-3.12-6.5-1.09-16.1,3.95-20.76,2.44-2.25,4.58-2.57,7.36-1.06,2.39,1.3,4.89,2.41,7.33,3.62,11.74,5.86,16.3,13.59,15,26.48-.3,2.93-2,5.75-3.38,8.51-.71,1.48-2.35,2.56-2.87,4.07-3.59,10.3-12.34,11.59-21.31,12.26-4.83.37-9.7.12-14.54.07-12.54-.11-20.87-5.57-26.76-17.22-5-9.93-6.51-19.83-6.18-30.42.28-9,.63-18.09,1.5-27.08.27-2.86,2.1-5.67,3.59-8.3,5.93-10.44,15.59-16.22,26.54-19.71,12.33-3.93,25-7.29,37.84-2.25,10.58,4.15,21.34,8.2,31.15,13.81,4.67,2.66,8,8.49,10.73,13.55,4.31,8.09,7.6,16.73,11.27,25.17a10.17,10.17,0,0,1,.74,3.05q1.89,20.29,3.73,40.6ZM1682.55,1034l-.89.29c0,2.74-.35,5.54.09,8.2.68,4.09,4.84,6.08,7.32,3.55,3.81-3.87,7.78-7.77,10.69-12.29,11.4-17.71,22.39-35.67,33.57-53.51,4.62-7.37,9.5-14.56,13.92-22,2.54-4.3,4.19-9.12,6.63-13.48s5.67-8.22,7.94-12.62c1.91-3.68,2.74-7.89,4.37-11.74,3.42-8.06,7.58-15.85,10.42-24.11,2.72-7.89,3.56-16.43,6.27-24.33,4.53-13.22,9.46-26.24,10-40.43a60.16,60.16,0,0,1,1.59-11.16c2.63-11.29,5.47-22.54,8.25-33.8,1.09-4.43,2.74-8.8,3.23-13.3,1.33-12,2.17-24.15,3.22-36.22a26,26,0,0,1,.57-3.73c1.77-7.23,4-14.38,5.26-21.69,1.46-8.4,2.06-17,3.1-25.42.15-1.23.84-2.39,1-3.62.71-4.95,1.52-9.89,1.89-14.87.27-3.57-2.37-4.2-5.13-3.5a9.21,9.21,0,0,0-4.24,2.58c-6,6.43-12.05,12.83-17.69,19.57-6.38,7.62-12.31,15.62-18.5,23.41-8.06,10.15-16.69,19.88-24.14,30.44-10.7,15.16-21,30.65-30.62,46.5a339.22,339.22,0,0,0-18.27,35.15c-3.46,7.55-5.39,15.81-7.94,23.77-3.67,11.47-7.47,22.9-10.82,34.46-1.08,3.72-.71,7.84-1.37,11.72-1.17,7-3.09,13.8-3.82,20.78-1.06,10.16-1.23,20.33-2.52,30.57-3.2,25.28,1.81,50.64,2.49,76a10.67,10.67,0,0,0,.56,2.46Q1680.77,1027.78,1682.55,1034Zm354.28,37.9c0,.39.07.79.11,1.18q25.35-2.14,50.68-4.3c5.43-.47,11-.38,16.24-1.67,7.65-1.88,14.95-5.21,22.6-7.14a99.21,99.21,0,0,0,35.11-17c9.39-7,19.58-13,27.07-23.07,10.68-14.32,20.16-29.15,27.71-45.21,5.23-11.11,9.89-22.52,14.37-34,2.58-6.58,4.26-13.51,6.43-20.26,1.58-4.92,3.36-9.78,4.9-14.72.53-1.69,1.41-4,.69-5.13s-3.44-1.89-4.93-1.5a107,107,0,0,0-16.6,5.41c-13.31,6-26.36,12.56-39.62,18.65-12.87,5.92-25.85,11.6-38.84,17.26-6.9,3-14.08,5.43-20.88,8.67-14.88,7.11-29.54,14.7-44.4,21.84-16.93,8.13-34,16-51,24-20.83,9.73-41.47,19.7-60.46,32.91-8.07,5.61-15.12,11.94-20.36,20.06a29.22,29.22,0,0,0-3.84,11.82c-.74,5.72,1.81,8,7.55,8.28,6.52.26,13,.46,19.55.84,17,1,33.9,2.16,50.86,3.07C2025.44,1072.14,2031.14,1071.88,2036.83,1071.88Zm-71.5-87.32c6.28-2.21,13.2-4,19.57-7,14.94-7,29.61-14.58,44.4-21.88,10.5-5.18,21-10.37,31.58-15.37,3.39-1.59,7.22-2.26,10.58-3.91,14.45-7.12,28.69-14.69,43.24-21.62,11.09-5.29,21.78-11.32,33.43-15.66,10.59-4,20-10.9,30.17-16.19,9.28-4.85,18.83-9.16,28.18-13.86,9-4.52,18-9.14,26.81-13.94,1.37-.75,3.25-3.29,2.91-3.94a7.27,7.27,0,0,0-4.41-3.48,15.62,15.62,0,0,0-8.1.32,37.58,37.58,0,0,1-28-.26c-14.82-5.72-27.29-13.65-31.51-30.28q-1.23-4.82-2.28-9.67c-1.15-5.3-2-10.66-3.39-15.9-1.6-6.19-4.57-12.17-5.19-18.42-1.08-10.88-7.08-18.43-14.21-25.71-2.53-2.58-4.54-2.5-6.88-.08-1,1.06-2.15,2-3.18,3.07-21.12,21.64-42.54,43-63.23,65-13.35,14.23-28.61,26.61-40.29,42.51-7.88,10.74-17,20.59-25.5,30.86A149.65,149.65,0,0,0,1975.29,932c-3,8-4.89,16.48-7.44,24.69-2.21,7.12-4.34,14.28-7.08,21.19C1958.92,982.59,1959.74,984.5,1965.33,984.56Zm-159.23,562c0-5.27,0-10.55,0-15.82a36.91,36.91,0,0,0-.46-5.65c-.87-5.1-1.87-10.18-2.8-15.27-.23-1.23-.37-2.48-.58-3.72-1.64-9.37-4-18.69-4.72-28.13a39.5,39.5,0,0,0-5.76-18.23,131.28,131.28,0,0,0-15.85-20.3c-15.59-16.42-31-33-50-45.78-5.34-3.58-10-8.2-15.27-11.86-5.66-3.91-12.19-6.66-17.49-11-12.91-10.52-27.6-18-42-25.89-8-4.34-15.64-9.66-25.59-9.19-6.11.28-8.82,3.41-6.65,9.29a44.28,44.28,0,0,1,2.15,6.41c1.56,7.78,2.42,15.73,4.5,23.36,4.46,16.38,11.57,31.83,19.24,46.86,6.9,13.51,12.93,27.54,23.3,39.26,8.22,9.29,14.33,20.39,22,30.25,6.89,8.93,14.25,17.53,22,25.76a231.7,231.7,0,0,0,21.9,20.84c10.53,8.64,21.69,16.51,32.62,24.65,8.76,6.52,17.53,13,26.38,19.38,3.85,2.77,8.29,1.5,9.42-3.09A194.74,194.74,0,0,0,1806,1558C1806.51,1554.24,1806.1,1550.39,1806.1,1546.6Zm244.05,57.15-.85-.12c1.24-10.18,2.55-20.36,3.72-30.55a22.23,22.23,0,0,1,8-15.16c4.39-3.65,9.11-4.48,14.73-2.41,1.74.65,4.82-1,6.62-2.39.81-.65.68-3.93-.22-5a56.2,56.2,0,0,0-9-8.81c-5.71-4.41-11.87-8.22-17.61-12.59s-11.2-9.43-17-13.83c-15.34-11.57-30.82-23-46.27-34.41-8.08-6-16.13-12-24.31-17.84-9.84-7-19.81-13.82-29.71-20.72-7.37-5.14-14.53-10.61-22.13-15.37-14.85-9.3-29.71-18.64-45-27.18-18-10.07-36.56-19.34-54.9-28.89a69.62,69.62,0,0,0-10.28-4.64c-14.09-4.62-28.11-9.55-42.43-13.32-10.65-2.79-21.71-4-32.61-5.81-2.89-.48-5.86-.37-8.76-.73-4.35-.54-8.65-1.41-13-1.85-3.55-.35-7.31.18-7.65,4.56-.3,3.78,2,6.44,5.62,8.26,12.49,6.25,25,12.56,37.17,19.3,9.63,5.3,18.88,11.29,28.31,16.94q11.82,7.1,23.69,14.12c9.54,5.65,19.07,11.32,28.64,16.92,5.6,3.26,11.41,6.19,16.88,9.64,8.6,5.42,17,11.21,25.5,16.74,15.78,10.21,31.72,20.18,47.38,30.56,11.18,7.4,22.05,15.27,33,23,6.61,4.68,13.61,9,19.55,14.44,10.3,9.45,19.62,20,29.88,29.45,10.81,10,17.17,23,25.06,35,3.32,5,5.75,10.69,8.39,16.15,4,8.27,10.79,15.41,10.2,25.58-.07,1.19,1.52,3.35,2.58,3.52a6,6,0,0,0,4.86-1.59,10.24,10.24,0,0,0,1.93-5.78C2050.32,1613.88,2050.15,1608.81,2050.15,1603.75ZM1807.33,908.81l.78.18a8.46,8.46,0,0,0,0,2.52c.66,2,1.51,4,2.29,6,1.73-1.13,4-1.89,5.09-3.45,5-7,9.88-14.12,14.61-21.32,7.67-11.69,15-23.57,22.85-35.16,12.86-19.08,26-38,39-57,2.59-3.8,5-7.71,7.77-11.4,3.7-5,7.75-9.74,11.43-14.76,5.54-7.55,10.74-15.35,16.34-22.85,6.87-9.21,14-18.24,21-27.32q7.83-10.1,15.75-20.11c1.43-1.8,3.12-3.4,4.54-5.2,5.19-6.55,10.1-13.33,15.52-19.68,6.37-7.46,13.36-14.4,19.73-21.87,14.49-17,28.53-34.33,43.21-51.13,10.86-12.42,22.45-24.21,33.72-36.27,1.3-1.39,3.11-2.47,3.91-4.08s.7-3.81,1-5.74c-1.85-.28-3.88-1.17-5.51-.7-3.79,1.11-7.36,2.94-11.08,4.35-9.5,3.59-19.31,6.53-28.5,10.79-19,8.82-37.35,18.94-53.92,31.88-11.48,9-22.8,18.21-33.61,28-14.62,13.23-27.25,28.33-39.1,44.08-7.66,10.18-15.53,20.19-23.24,30.33-2.64,3.48-4.33,8.43-7.77,10.33-4,2.22-6.17,5.5-8.36,8.77-5.93,8.86-11.6,17.92-16.93,27.16a204.19,204.19,0,0,0-9.74,19.67c-2.77,6.28-5,12.78-7.45,19.21-2.62,7-5.39,14-7.69,21.08-2.57,7.93-4.67,16-7,24-1.83,6.33-3.72,12.64-5.55,19-1.16,4-2.32,8-3.38,12-1.33,5-2.56,10.11-3.83,15.16Q1810.3,897.05,1807.33,908.81Zm203.85,800.32a8.18,8.18,0,0,0-.52-2.6c-7-13.76-14-27.56-21.28-41.19-2.23-4.17-6.28-7.5-7.93-11.82-4.82-12.63-15-21.52-21.84-32.71-3.87-6.33-9.29-11.7-14-17.51-7.06-8.7-13.81-17.68-21.27-26-6.83-7.67-14.37-14.71-21.7-21.92-6.58-6.48-12.9-13.3-20-19.1a312.19,312.19,0,0,0-25.87-18.42,109.4,109.4,0,0,0-18-9.84c-6.85-2.84-11,.13-12,7.61a33.23,33.23,0,0,0-.19,6.31c1.24,19-2.27,38.16,2.71,57.15,2.07,7.9,1,16.5,2.3,24.88,1.44,9.17,5.38,17.1,8.41,25.39,6.42,17.52,21.17,28.5,35.58,38.67,10.08,7.12,22.23,11.54,33.83,16.23,11.15,4.51,22.79,7.82,34.22,11.65,5.77,1.94,11.52,3.95,17.33,5.77,10.85,3.4,21.74,6.69,32.61,10,3.62,1.11,7.19,2.47,10.87,3.29C2008.46,1715.86,2011,1713.61,2011.18,1709.13ZM2042.79,286l-1.2-.2c0-4.63.41-9.32-.18-13.88a9,9,0,0,0-4-5.63c-.89-.55-3.74,1.16-5.05,2.49-1.56,1.57-2.52,3.79-3.55,5.82-1.59,3.13-3,6.34-4.53,9.51-.71,1.5-1.52,3-2.1,4.51-1.28,3.46-2.3,7-3.7,10.44-1.11,2.72-2.85,5.18-3.92,7.91-4.7,12-9.07,24.11-13.92,36-4.15,10.22-9.09,20.13-13.16,30.38-6.54,16.46-12.57,33.12-19,49.63-2.87,7.39-6.25,14.58-9.18,21.94-4.47,11.23-8.62,22.59-13.14,33.8s-9.56,22.2-14,33.43c-5.67,14.32-10.88,28.83-16.5,43.17-3.41,8.72-7.45,17.19-10.8,25.92-4.33,11.27-8.18,22.73-12.39,34.06-6.4,17.2-12.84,34.38-19.51,51.48-1.16,3-.83,5.3,1.67,6.39,1.71.76,4.93.65,6.14-.49A100.42,100.42,0,0,0,1891,660.93c2.55-3.31,4.47-7.11,7-10.4,6.29-8,13.09-15.64,19.12-23.84s11.08-16.65,16.68-24.93c6.19-9.16,12.54-18.2,18.73-27.36,2-2.91,3.58-6.06,5.47-9,4.6-7.21,9.5-14.24,13.84-21.6,4.46-7.58,8.51-15.4,12.52-23.23,4.85-9.48,9.63-19,14.12-28.66,2.7-5.8,4.69-11.92,7.17-17.83,3.31-7.89,7.13-15.58,10.09-23.59a166,166,0,0,0,6.51-22.16c2-9.18,1.89-19,5-27.73,4.65-13.17,8.27-26.25,8-40.28a17.89,17.89,0,0,1,.73-3.68c.9-4.45,2.4-8.88,2.57-13.35.37-10,2.28-20.07.24-30.14a14.47,14.47,0,0,1,.25-5C2040.22,300.73,2041.52,293.36,2042.79,286ZM1924.47,1378.73h0q-13.9,0-27.81,0c-3.58,0-7.67.64-7.91,4.48-.15,2.37,2.54,5.79,4.89,7.3,8.94,5.74,18.26,10.87,27.42,16.27,4.65,2.73,9.33,5.43,13.88,8.34,6,3.82,11.67,8.07,17.74,11.72,12.32,7.41,24.84,14.49,37.21,21.83,2.69,1.59,5,3.86,7.67,5.49,11.41,6.93,23.1,13.42,34.28,20.71,10.62,6.93,20.81,14.54,31,22.05,11.92,8.75,23.89,17.45,35.44,26.68,8.93,7.13,17.28,15,25.8,22.62,2.65,2.38,4.86,5.24,7.5,7.62,7.77,7,15.68,13.88,23.47,20.87,2.5,2.25,4.52,5.15,7.3,6.9,1.55,1,4.45.78,6.26,0,1.09-.47,2.12-3.37,1.68-4.68-1.92-5.7-4.38-11.22-6.66-16.8-2.66-6.51-5.39-13-8-19.53-2.76-7-5.14-14.13-8.11-21-2.81-6.51-6.95-12.52-9.13-19.2a131,131,0,0,0-18.64-36.06,77.56,77.56,0,0,0-6-7.16c-4.62-5.05-9-10.4-14.09-14.92-5.62-5-11.9-9.18-18-13.61-6.42-4.69-12.52-10-19.5-13.7-13.81-7.23-28.27-13.21-42.2-20.22a124,124,0,0,0-39.33-12.65c-10.85-1.44-21.94-1.67-32.9-3.1C1940.16,1377.92,1932.26,1378.73,1924.47,1378.73Zm18.68-486.59-1.46-.17c.74-7.89.2-15.37-4-22.53-4.81-8.21-13.32-11.91-21.92-7.82-10.9,5.19-17.72,15.14-25.63,23.68-5.51,6-10.18,12.7-15.14,19.17a28.59,28.59,0,0,0-3.56,5.8c-4.77,10.86-9.29,21.83-14.14,32.66-2.92,6.5-6.59,12.67-9.38,19.21-3.67,8.63-6.55,17.59-10.24,26.2-3.87,9-8.79,17.58-12.34,26.7s-10.18,16.5-13.24,26.09c-3.31,10.35-9.21,19.86-13.74,29.84a65.81,65.81,0,0,0-4,11.81c-.64,2.67-.33,5.56-.45,8.36,2.74,0,5.72.68,8.18-.15,6.69-2.24,13.21-5,19.7-7.79,8.59-3.68,17.3-7.16,25.55-11.49s15.5-10,23.65-14.21c11.64-6,21.49-14.37,31.67-22.33a17.27,17.27,0,0,0,4.54-5.21c3-5.65,6.26-11.28,8.37-17.29,5.09-14.5,10-29.08,14.17-43.87,3-10.61,4.76-21.56,6.61-32.43C1938.84,921.66,1940.9,906.88,1943.15,892.14Zm-257.93,705.34q0-16.76,0-33.51a25.62,25.62,0,0,0-.22-5c-2.13-10.38-4.27-20.77-6.64-31.1a50.8,50.8,0,0,0-3.45-10.1c-2.39-5.11-5.17-10-7.85-15-6.66-12.33-13.12-24.72-22-35.75-7.83-9.75-14.88-20.11-22.37-30.13-7.11-9.5-14.2-19-21.63-28.29-2.22-2.77-4.7-7.06-9.09-5.52-5.06,1.78-3.92,6.86-3.92,11,0,15.5,0,30.94,2.41,46.4,2.34,15-3,30.63,3.5,45.39a3.59,3.59,0,0,1,.1,1.88c-1.85,13.54,2.11,26.64,3.23,39.95,1.28,15.07,6.36,29.24,13.47,42.76a134.07,134.07,0,0,0,21.73,30.4c13.3,13.87,27.9,26.49,41.94,39.64a16.78,16.78,0,0,0,1.35,1.32c3.68,2.64,8.8.5,8.79-4,0-4-1-8-1.44-12a24.17,24.17,0,0,1,.18-5.57c.53-3.9,1.7-7.77,1.8-11.66C1685.39,1618.14,1685.22,1607.81,1685.22,1597.48Zm-56-369.44.75.24c0,1.06-.07,2.12,0,3.17.51,5.88,3.12,7,8.13,3.64,10.14-6.83,20.39-13.5,30.41-20.5,3.58-2.5,6.18-6.95,10-8.44,8.13-3.17,13.09-9.76,18.6-15.53,12.51-13.1,27.92-23.55,36.65-40.15,2.42-4.6,6-8.58,8.56-13.11,2.15-3.77,3.46-8,5.46-11.88,7.61-14.71,14-29.73,15.71-46.5.81-8.08,2.53-16.09,4-24.1.89-4.91,2-9.79,3.15-14.65,1.68-7.25,3.8-14.42,5.11-21.74,1.74-9.67,2.89-19.45,4.24-29.19.24-1.72.22-3.47.32-5.2-2.23-.05-4.9-.91-6.61,0a45.19,45.19,0,0,0-11.28,7.89c-11.76,12.16-22.94,24.87-34.72,37-11.28,11.63-20.24,25-29.06,38.38-11,16.71-21.2,34-30.87,51.58a329.6,329.6,0,0,0-17.78,38c-6,15.1-12,30.27-14.08,46.64-.67,5.31-2.47,10.48-3.88,15.68C1631.28,1222.23,1630.2,1225.12,1629.24,1228Zm216.69,485.38v.16c11,0,21.91.14,32.86-.1a20.12,20.12,0,0,0,8.36-2.12c3.52-1.79,4-4.72,1.06-7.7-2.79-2.82-5.41-5.91-8.57-8.27-14.39-10.74-29-21.25-43.45-31.86-3.88-2.83-7.85-5.56-11.56-8.61-6.44-5.3-12.72-10.82-19.05-16.25q-14.76-12.64-29.51-25.32c-1.11-.95-2.12-2-3.22-3-13-11.39-26.14-22.67-39-34.21-6.24-5.59-11.91-11.82-18.08-17.49-3.71-3.41-9.27-1.78-9.65,2.72-.34,3.89.26,7.86.2,11.79a27.65,27.65,0,0,1-.94,6.58c-.84,3.12-2.76,6.12-2.9,9.23-.4,8.84-.21,17.7-.08,26.55a38,38,0,0,0,1.11,6.8c.68,3.44,1.54,6.84,2.14,10.29,1.14,6.55,1.37,13.38,3.38,19.64,2.79,8.71,6.13,17.5,12.36,24.45a94.43,94.43,0,0,0,14.74,13.37,83,83,0,0,0,32.59,14.12c6,1.23,12,3,18,4.27,5.47,1.15,11,1.94,16.52,2.87,4.11.7,8.21,1.86,12.34,2C1825.7,1713.62,1835.82,1713.42,1845.93,1713.42Zm125.15-866.26c1,1.51,1.61,3.67,2.94,4.26a5.58,5.58,0,0,0,4.93-.87c6.5-5.92,14-11.29,18.81-18.43,8.1-12,18.74-21.53,28.48-31.94,7.75-8.3,15.76-16.35,23.51-24.64,8.42-9,16.45-18.42,25.09-27.22,5.25-5.35,11.48-9.71,17-14.8,13.66-12.59,27.16-25.35,40.74-38,.61-.57,1.39-1,2.05-1.47,7.22-5.65,14.55-11.17,21.61-17,10.18-8.42,20.12-17.13,30.24-25.61,4.32-3.63,8.77-7.12,13.31-10.48,5.65-4.18,11.6-8,17.13-12.28,7.74-6,15.22-12.45,22.81-18.68,2.37-1.94,4.85-4,2.78-7.38-1.84-3-4.66-2.13-7.3-.94-5.46,2.49-10.84,5.21-16.42,7.41-13.36,5.27-26.85,10.23-40.23,15.45-10.67,4.16-21.51,8-31.83,12.93-12.45,5.92-24.47,12.72-36.58,19.31-5.85,3.18-11.54,6.67-17.2,10.19-5.49,3.42-11.23,6.6-16.16,10.71-8.55,7.11-16.82,14.59-24.71,22.43s-15.71,16.29-23,24.94a115.59,115.59,0,0,0-11.39,17c-5,8.79-12.23,16.31-15.58,26.13a66.76,66.76,0,0,1-2.91,6.93c-3.66,7.74-7.63,15.34-11,23.2q-5.67,13.24-10.45,26.85C1975.26,832.24,1973.38,839.52,1971.08,847.16Zm-150.35,396.75c0,.34.06.67.1,1,16-1.69,32-3.31,48-5.13a80.19,80.19,0,0,0,12.94-2.52c9.57-2.75,19-6,28.59-8.76,5.62-1.65,11.47-2.56,17-4.41,7.28-2.42,14.39-5.4,21.54-8.22,15.92-6.3,32-12.31,47.68-19.09,15.14-6.54,30.29-13.23,44.78-21.06,20.57-11.12,42.42-19.6,62.72-31.3,6.95-4,8.76-9.36,9.63-16.15.93-7.19-2.53-11.45-8.92-14-2.5-1-4.69-2.86-7.23-3.6-4.37-1.28-9.57-3.86-13.25-2.56-10.28,3.64-21,.81-31.56,4.18-10.05,3.2-20.49,5.73-30.2,9.91-8.39,3.62-16.06,8.93-24.08,13.46-2.33,1.32-4.88,2.3-7.08,3.79-9.18,6.23-18.24,12.6-27.37,18.89-9.6,6.63-19.33,13-28.79,19.87-11.35,8.17-22.41,16.65-35.37,22.36-8,3.53-15.24,8.88-23.29,12.31-10.53,4.48-21.53,7.86-32.33,11.71-5.71,2-11.34,4.35-17.16,6-8.59,2.46-17.35,4.29-25.94,6.75-1.73.5-3,2.63-4.46,4,1.68.86,3.32,2.37,5,2.45C1808.08,1244.09,1814.41,1243.91,1820.73,1243.91Zm-105.31-14.59c3.8-.58,6.39-.62,8.73-1.39,11.66-3.87,23.19-8.11,34.87-11.87,15.86-5.11,31.85-9.78,47.72-14.85,10.54-3.36,20.9-7.17,30.22-13.39s19.1-11.94,28.32-18.38c8.37-5.84,16.74-11.84,24.25-18.72,10-9.21,19.32-19.25,28.73-29.13,1.6-1.67,2.2-4.29,3.26-6.47-2.26-.7-4.53-2-6.77-2-12.13.33-24.34,2.14-36.33,1.13-7-.59-12.93,2.09-19.34,2.85-8.07,1-15.93,4.71-23.62,7.9-12.81,5.32-25.53,10.88-38,16.88-5.42,2.6-9.88,7.2-15.3,9.75-13.09,6.16-24.08,15.37-34.31,25-13.36,12.6-27.42,24.92-36.61,41.3-1.42,2.53-2.88,6.06-2.13,8.44C1709.62,1228.1,1713.81,1228.65,1715.42,1229.32Zm-87.24-239.5q0-21.83,0-43.65a19.9,19.9,0,0,0-.29-5,3.73,3.73,0,0,0-2.27-2.44c-1.26-.18-3.38.17-3.88,1a74.23,74.23,0,0,0-6.48,12.83c-2.61,7.5-4.38,15.29-6.81,22.86-3.76,11.7-7.82,23.3-11.65,35-1.56,4.74-2.76,9.59-4.25,14.35-2.55,8.14-5.45,16.17-7.73,24.37-1.73,6.25-2.51,12.76-4.09,19.05-2.42,9.7-5.23,19.3-7.74,29a99.17,99.17,0,0,0-2.54,12.26c-1,7.62-1.62,15.29-2.46,22.93-1.3,11.78-3.31,23.54-3.82,35.36-.67,15.36-.1,30.78-.22,46.17,0,3.52.91,7,4.14,7.56,2.21.36,6.22-1.66,7.17-3.67,4.23-9,11.65-16.14,13.91-26.33a44.33,44.33,0,0,1,7.52-16.42c3.79-5.09,5.77-10.54,7.45-16.37,1.16-4,2.52-8,3.77-12,3.72-11.9,7.75-23.71,11-35.74,1.71-6.34,2.12-13.05,3-19.61,1.21-9.32,2.49-18.64,3.31-28,.53-6.07-1.14-12.71.77-18.19,2.49-7.13,2.07-14,2.18-21.11C1628.31,1012.6,1628.18,1001.21,1628.18,989.82Zm380.15-441.91c2,2.71,3.3,5.7,5.55,6.94,1.52.84,4.74-.24,6.61-1.41,5.87-3.68,11.17-8.32,17.21-11.65,15.37-8.47,30.74-17,46.64-24.41,13.61-6.31,27.78-11.63,42.95-13.29a5.81,5.81,0,0,0,3-.82c5.43-4.63,12-6.32,18.62-8.51,3.72-1.23,7.07-4.93,9.45-8.32,1.26-1.81-5.27-6.31-10.82-6.93a115.62,115.62,0,0,1-37.64-10.74c-5.5-2.67-11.22-7.67-13.77-13.06-5.22-11-8.94-22.89-12.16-34.72-2.23-8.18-2.48-16.88-3.8-25.33a26.49,26.49,0,0,0-2.28-8.37c-1.38-2.6-3.8-4.64-5.77-6.92-2.21,2.32-4.45,4.62-6.59,7a4.18,4.18,0,0,0-.54,1.8c-2,8.91-4.43,17.74-5.91,26.73-3,18.14-6.63,36.1-12.73,53.48q-4.57,13-9.62,25.85a101.8,101.8,0,0,1-5.68,11.88c-4.12,7.44-8.55,14.71-12.7,22.14C2015,535.22,2011.85,541.33,2008.33,547.91Zm-434.61,852.63q0-24,0-48.08c0-7.59.26-15.2-.21-22.76a10.76,10.76,0,0,0-3.67-6.78c-.69-.59-4,1.73-6,2.91-6.28,3.74-7,11.2-11,16.54-11.42,15.43-16.78,33.52-18.79,52a194.74,194.74,0,0,0,2.68,57c2.93,15.61,8,30.61,12.8,45.65,2.75,8.58,6.13,17,9.48,25.32a36.74,36.74,0,0,0,5.28,9.75c3.41,4.12,6.73,7.85,6.25,13.82-.26,3.24,1.12,6.64,5.29,6.35,3.83-.25,4.48-3.39,4.14-6.56-.67-6.22-1.89-12.4-2.19-18.62-.65-13.23-.6-26.49-1.33-39.7-.41-7.47-2.48-14.88-2.61-22.33C1573.49,1443.56,1573.73,1422.05,1573.72,1400.54Zm287.57,85.91c-1.5.9-4,1.55-4.28,2.78a6.56,6.56,0,0,0,1.32,5.54c4.83,4.57,10,8.85,15.19,13,10.32,8.12,21.11,15.66,31.08,24.18,8.1,6.92,15.46,14.74,22.83,22.47,14.26,15,29,29.54,42.2,45.41,9.95,12,18.18,25.46,26.43,38.74,8.14,13.11,16.44,26.25,20.74,41.37a7.38,7.38,0,0,0,3.68,4.06c1.62.75,4.42,1.16,5.53.27,1.51-1.22,3.17-4.44,2.55-5.73-3.64-7.52-1.29-15.39-2.08-23-.41-3.93-.22-8.19-1.72-11.69-7.36-17.33-15.5-34.25-25.68-50.2a378.33,378.33,0,0,0-32.75-43.43c-5.92-6.85-13.57-12.19-20.37-18.29-2.81-2.52-5-6-8.22-7.73-12.31-6.64-22.44-16.84-35.93-21.59-10.8-3.8-21.39-8.17-32-12.34C1867.05,1489.15,1864.43,1487.85,1861.29,1486.45Zm-54.72-195.6v.19c-12.63,0-25.27-.26-37.88.21-2.58.1-5.06,2.93-7.58,4.51,1.93,2.57,3.33,6.35,5.89,7.47a85.12,85.12,0,0,0,20.2,6.35c15.83,2.53,30.25,9.25,45.26,14.16,14.49,4.75,28.73,10.27,43.11,15.35,3.74,1.32,7.67,2.08,11.4,3.41,12.37,4.41,24.62,9.14,37,13.38,4.89,1.67,10.38,1.73,15.1,3.7,4.12,1.72,7.08,2.06,10-1.59,2.72-3.45,1.81-6.67-.55-9.76-2-2.64-4.14-5.22-6.35-7.71-5.51-6.22-10.08-14.08-16.89-18.16-11.36-6.78-24.08-11.36-36.41-16.42-8.1-3.32-16.55-5.79-24.81-8.75-10.83-3.87-21.7-7.14-33.48-6.43C1822.6,1291.24,1814.57,1290.85,1806.57,1290.85Zm-103.64,8.63c-1.55.82-5.57,2-5.58,3.16,0,2.45,1.77,5.19,3.48,7.27,1.06,1.29,3.3,1.64,5.06,2.32s3.6,1.14,5.33,1.87c8.63,3.62,17.21,7.39,25.87,10.94,5.77,2.36,11.7,4.3,17.47,6.67,4.41,1.81,8.55,4.35,13,6,7.28,2.59,14.7,4.85,22.15,6.95,6.37,1.8,12.86,3.2,19.31,4.72,5.86,1.38,11.84,2.37,17.59,4.12,5,1.54,9.56,2.26,14.26-1.12,3.85-2.76,4.49-4,.77-6.76-5.43-4.09-11.24-7.68-17-11.29-1.14-.72-2.87-.46-4.28-.83-7-1.83-14.54-2.51-20.72-5.82-15.15-8.1-32.16-9.81-48-15.49-9.13-3.28-18.78-5.13-28.22-7.56C1717,1302.91,1710.52,1301.36,1702.93,1299.48Z"/><path class="cls-3" d="M540.19,1704c-11.56,0-23.21.87-34.65-.29-8.12-.83-15.92-4.51-23.91-6.74-11-3.07-19.79-10.7-30-15.1-11.35-4.88-18.94-13.88-24.8-23.11-7-11-13.86-23-14.59-37.07-.37-7.26-.26-15-2.83-21.58-3.56-9.12-2.62-18.17-2.94-27.32-.3-8.61.36-16.93,3.47-25.26,3.6-9.63,6.29-19.82,12.59-27.9,8.81-11.29,19.15-21.15,33.69-25.14,5.57-1.53,10.89-4.39,16.52-5.14,7.2-1,14.62-.7,21.93-.41,4.07.16,8.08,1.95,12.15,2s7.42,1,10.11,4.09c3.28,3.76,7.54,7,9.67,11.37,5.13,10.4,3.75,21.11-1,31.45-1.46,3.22-3.64,6.18-4.67,9.52-3.74,12.1-13.47,15.79-24.39,17.74a29.1,29.1,0,0,1-9.45,0c-6.76-1.08-12.31-3.79-14.33-11.31-1.19-4.43-3.35-8.59-5-12.9-1.44-3.74-1.16-7.19,2.61-9.36,11.44-6.61,25.85-2.67,32,8.34a102.75,102.75,0,0,0,6.05,8.82c1.84,2.61,4.26,2.21,5.82.15,4.79-6.3,10.31-12.33,9.84-21.14-.17-3.16,0-6.33-.06-9.49-.1-5.91-3.16-10.45-8.72-12.46-8.8-3.19-17.88-4.91-27.28-3.74-5.84.73-11.62,1.9-17.46,2.73-12.76,1.8-19.83,10.39-25.7,20.83-8.71,15.47-7.22,32.34-5.49,48.6,1.38,13.06,6.54,25.72,10.07,38.55,1,3.62,2,7.25,3.3,10.78,4.06,11.32,11.71,19.34,22.36,24.87,4.8,2.5,8.77,7.08,13.77,8.62a189.6,189.6,0,0,0,28.67,6.1c9.87,1.44,19.94,2.92,29.82,2.45,10.26-.5,20.46-3.09,30.58-5.22a67.5,67.5,0,0,0,15.45-5c6.71-3.26,12.87-7.62,19.44-11.19,15.63-8.49,26.83-21.07,34.73-36.81a80.1,80.1,0,0,0,3.67-7.21q4.65-12.3,9-24.7,5.44-15.6,10.67-31.28c3.42-10.32,6.25-20.86,10.17-31,2.22-5.74,6.11-10.83,9.23-16.23,7.2-12.47,14.28-25,21.66-37.39,1.69-2.84,4.42-5,6.57-7.62,2.31-2.77,1.62-5.12-1.46-6.62a34.75,34.75,0,0,0-7.58-2.9c-6.51-1.41-13.17-2.15-19.61-3.8-4.39-1.13-8.47-3.45-12.76-5-22.15-8.2-38.19-23.84-51.15-42.86-7.62-11.2-12.56-23.2-11.88-37.63.5-10.56.84-21.15,4.22-31a60.68,60.68,0,0,1,18.26-26.73c8.32-7,17.57-11.86,28.68-12.82,6-.52,11.93-2.31,17.94-2.67,15.53-.94,25.7,7.13,32.27,20.47,3.32,6.75.5,18-5.77,24.38-7.62,7.82-17.36,10.93-27.78,11.27-4,.13-8.62-2-12-4.39-2.25-1.63-4-5.72-3.78-8.58.29-4.44,2.22-8.82,3.83-13.09a4.53,4.53,0,0,1,3.39-2.37c6.23.07,12.65-.28,18.61,1.14,3.59.85,5.64-.3,6.83-2.37.76-1.33-.12-4.52-1.37-5.87-1.54-1.68-4.15-2.49-6.42-3.37s-4.73-1.44-7.11-2.11c-1-.28-2.13-.89-3-.66-9.74,2.47-18.67,5.49-24.87,14.85-9.1,13.74-8.24,28.22-5.14,42.88,1,4.79,4.88,9.15,8,13.26,2.66,3.47,6.57,6,9.2,9.48,6.7,8.88,16.77,12,26.16,16.53,5.87,2.81,11.88,3.59,18.27,3.63,3.25,0,6.72,2.5,9.7,1.91,8.93-1.77,18.38-.55,26.89-4.68a5.83,5.83,0,0,1,3-.69c8.81,1.22,15.66-3.86,22.88-7.35,14.9-7.19,29.48-15,44.37-22.26,17.31-8.37,34.7-16.57,52.25-24.41,12.55-5.59,25.44-10.41,38.15-15.65,10-4.14,19.92-8.59,30-12.52,10.47-4.08,21.14-7.65,31.69-11.55,5.48-2,10.86-4.38,16.32-6.5,2.51-1,5.47-1.27,7.56-2.78,2.33-1.69,3.91-4.42,5.82-6.69-2.29-1.77-4.35-4.58-6.9-5.14-12.05-2.64-24.53-3.66-36.29-7.16-13.14-3.92-25.75-9.71-38.44-15-13.13-5.51-26.18-11.22-39.07-17.25-7.34-3.43-14.15-8-21.45-11.52-14-6.76-29-9.1-44.05-6.08-10.7,2.15-19,9.08-23.06,20.15-1.7,4.59-3.92,8.47-.4,13.26,2.84,3.86,4.48,8.62,7.44,12.37,1.83,2.33,5,4.74,7.75,5,10,.92,20.23,2.65,29.55-2.93,1.79-1.07,3-3.15,4.43-4.76-2.06-1.6-3.91-3.71-6.23-4.66-3.59-1.47-8.11-1.28-11.12-3.39a15.06,15.06,0,0,1-5.42-9.07c-.56-3.36,3-4.94,6.17-6.08,9.82-3.49,19.57.88,25.63,9.4,5.81,8.16,6,16,2,24.22-3.27,6.74-8.7,12.51-16,14.38-17,4.38-33.2,1.91-47.75-8.61-2.88-2.09-6.2-3.67-8.74-6.09-3.05-2.92-6.67-6.08-8-9.85-7.73-22.06-2.52-39.35,15.5-53.77,2.39-1.92,5.42-3,8.19-4.48,2.45-1.27,3.16-2.27.48-4.43-4.72-3.8-8.94-8.19-13.59-12.07-8-6.71-15.7-14.07-24.53-19.54-7.13-4.43-15.69-6.64-23.7-9.58-10.36-3.79-20.74-7.51-31.23-10.91-6.15-2-12.55-3.22-18.79-5-5.21-1.46-10.31-3.28-15.52-4.73-9.2-2.55-18.44-4.92-27.65-7.43a64.45,64.45,0,0,1-8.32-2.66c-12.14-5.11-25-9.17-36.12-15.9-9.87-6-17.91-15-26.76-22.6-3.16-2.73-6.6-5.19-9.46-8.21-4.71-5-10-9.77-13.32-15.62-5.61-9.91-11-19.88-13.77-31.4a57.52,57.52,0,0,1,.08-29.42c2.26-8.64,5.71-16.5,9.51-24.37,4.68-9.66,13.77-11.95,23.09-13,10.55-1.23,17,5,20.75,14,1.83,4.31,3.77,9.29,3.3,13.72-.91,8.59-4.23,16.38-13.54,19.79-6.91,2.53-10.16,1.59-13.63-4.63-3.25-5.82-2.24-12.37,2.69-15.81a66,66,0,0,1,7.74-4.27c3.61-1.83,3.66-4.59,1.4-7.2s-3.91-7.32-8.88-4.35q-6.46,3.86-12.66,8.15c-1.5,1-3.21,2.49-3.75,4.11-5.75,17.19-7.35,33.66,2.89,50.57,8.94,14.75,22,25.24,33.46,37.4,3.56,3.79,9.89,5.13,15.13,7.13a198.6,198.6,0,0,0,20.08,6.7,106.23,106.23,0,0,0,18.38,3.23c12.58,1,25.23,2.28,37.81,1.92,11.64-.34,23.43-1.2,34.71-4.93,2.14-.71,4.68-.18,6.85-.84a14.9,14.9,0,0,0,6.34-3.31c2.16-2.25,2.29-4.74-1.32-6.48-7.53-3.64-15-7.37-22.37-11.39-13.38-7.33-27-14.29-39.82-22.55-13.74-8.88-23.6-21.29-28.52-37.33-1.89-6.16-5.1-11.92-7-18.08-2-6.51-3-13.29-4.57-19.93-.74-3.2-1.64-6.35-2.44-9.54-1.25-5-2.4-10.1-3.72-15.12-2.12-8.06-4.22-16.13-6.55-24.13-2.68-9.21-5.55-18.36-8.44-27.5-2.07-6.57-3.81-13.3-6.58-19.58-5.57-12.65-11.66-25.07-17.7-37.5-4.58-9.42-9.2-18.83-14.2-28-4.58-8.42-9.78-16.5-14.53-24.83-4.54-7.95-8.83-16-13.26-24.06-3.53-6.4-7-12.83-10.67-19.15-6-10.43-9.12-21.49-8.31-33.65.64-9.38-.28-18.78,3.72-27.9,4.58-10.45,18.92-20.28,32.79-13,6.69,3.49,13.31,6.7,18.53,12.63,7.2,8.19,11.27,24.54,4.21,32.85-2.57,3-4.49,6.56-7.09,9.53-5.83,6.66-9.7,7.27-16.75,2-8.47-6.37-13.37-17-7.08-28,1-1.75,4.88-3.33,6.74-2.75,2.52.79,5,3.39,6.31,5.84,1.09,2,.09,5.06.76,7.43.39,1.42,2.22,2.43,3.41,3.62,1-1.28,2.88-2.49,3-3.85.46-5.22.87-10.56-2.36-15.27-.35-.51-.48-1.18-.85-1.67-2.82-3.77-16.33-8-20.84-6.58-6.07,1.94-11.73,9.49-12.37,16.14-.36,3.73-1.57,7.42-1.55,11.12a16.81,16.81,0,0,0,2.35,7.46c5.52,10.33,11.1,20.62,17,30.74a40.32,40.32,0,0,0,7.17,8.65c9.75,9.26,19.13,19,29.71,27.23,8.32,6.45,18.15,11,27.39,16.2,8.48,4.81,16.86,9.87,25.66,14,10.08,4.75,20.74,7.8,32.1,5.32,7.69-1.67,11.41-6.89,11.87-14.56.61-10.19-3.88-18.09-10.13-25.46-2-2.35-3.29-5.37-5.47-7.5-3.71-3.61-8.12-6.52-11.81-10.15-10.67-10.49-20-22.13-26-35.9-3-6.79-4.58-14.23-6.26-21.51-1.29-5.58,7.24-14.43,14.31-15.25,2.5-.29,5.06,0,7.58-.16,4.61-.21,8.35.93,10,5.8,2.46,7.25,1.56,12.54-3.3,15.83-1.51,1-4.27,1.71-5.65,1s-1.76-3.36-2.42-5.22a2.64,2.64,0,0,1,.34-1.82c1.29-2.63,1.45-5.69-1.78-5.91-1.77-.12-5.13,2.82-5.43,4.75-1.21,7.77-1.21,15.6,5,21.84,7.2,7.24,13.8,15.24,21.78,21.49,5.39,4.23,12.71,6,19.18,8.85.57.24,1.33.12,1.83.43,13.11,8.18,24.41-4.08,28.73-15.14,2.76-7.06,1.95-12.85-.52-19.13a12.28,12.28,0,0,0-2.62-4.1c-16-16.08-31.78-32.32-48.12-48-6.57-6.31-14.38-11.33-21.52-17.06-5.06-4.06-9.55-9-15-12.36-16-9.87-28.24-23.93-41.6-36.77-8.72-8.37-18.56-15.63-26.74-24.46-10.16-11-19.24-23-28.57-34.66-9.73-12.21-14.38-27.25-22-40.67-3.65-6.44-4.33-14.5-7.56-21.25-9.22-19.27-8.93-39.74-8.41-60.23a228.65,228.65,0,0,1,2.57-28.74c.73-4.8,3.09-9.46,5.29-13.9,4.06-8.19,7.68-16.82,13.13-24,3.84-5.08,10-8.77,15.83-11.87,6.37-3.43,13.62-5.18,20.24-8.19,7.75-3.54,16-2.72,23.59-1.53,8.71,1.35,17.12,5.12,25.45,8.39,10.63,4.17,15.36,13.07,19,23.44,4.72,13.3,3.08,26.81,1.95,40-.75,8.58-5.11,17.54-10,24.83-3.89,5.76-11.09,9.59-18.81,9.9-10.49.43-21,.94-31.26-2.47-1.19-.4-2.72-.57-3.44-1.41-6.52-7.6-12.27-16.51-11.79-26.27.52-10.58,6.84-19.21,18.11-22.5.81-.24,1.66-.35,2.46-.58,2.27-.67,5.22-2.6,6.65-1.8a22.18,22.18,0,0,1,8.15,7.56c3.31,5.58.55,16-4.63,17.86-2.28.8-5.53-.54-8.1-1.52-1.41-.54-2.13-2.77-3.53-3.48a5.82,5.82,0,0,0-4.54-.08c-.7.33-1.09,2.78-.61,3.81a48,48,0,0,0,4.59,7.47c1.81,2.55,3.92,4.89,5.76,7.42,2.49,3.41,13.07,6.19,18.08,4.53,7.48-2.49,12.58-8.2,17.71-13.7,1.12-1.2,1.33-3.5,1.46-5.32.24-3.36,0-6.75.17-10.12.93-14.51-7.34-23.87-17.8-32a62.09,62.09,0,0,0-7.7-5.46,51.35,51.35,0,0,0-8-3.15c-.77-.27-1.85.17-2.49-.22-9.38-5.72-16.95.69-24.45,4.27-10.36,4.94-18.39,13.38-21.15,24.47-2.85,11.5-6.62,23.23-1.66,35.66,3.37,8.42,3.37,18.27,7.11,26.45,4.83,10.57,11.84,20.15,18,30.08,2.44,3.89,5.56,7.37,7.82,11.35,10.07,17.75,26.4,28.79,42.4,40.3,16.43,11.81,35,19.64,53,28.56,9.48,4.7,19.84,7.61,29.73,11.5,9.32,3.66,18.5,7.64,27.82,11.28,5.83,2.27,11.79,4.2,17.7,6.25,12.83,4.44,25.64,8.92,38.5,13.25,3.56,1.2,7.24,2.49,10.93,2.73,2.38.16,4.89-1.51,7.34-2.36-.81-2.19-1-5.12-2.53-6.44-8.2-7-16.74-13.53-25.16-20.24-.65-.52-1.26-1.1-1.89-1.65q-10.8-9.45-21.61-18.89c-5.65-4.93-11.9-9.32-16.83-14.88a329.43,329.43,0,0,1-22.1-28A120,120,0,0,1,674,493.1c-5.44-12.79-10.86-25.78-14.25-39.2-2.58-10.21-2.64-21.2,1.87-31.56,1.8-4.15,2.74-8.68,3.89-13.09a44.81,44.81,0,0,1,12.32-20.73c6.46-6.4,14.49-8.81,23.26-9.67,7.9-.77,17.3,10.28,18,16.88.56,5.56-8.15,14.37-13.77,14-5.47-.39-8.75-7.12-5.77-11.94.54-.86,1.66-1.4,2.1-2.3.89-1.8,1.5-3.75,2.22-5.64-3.05-.51-5-4.32-9.15-1.95C674.6,399.4,673,419,681.05,435.58c3.86,7.91,9.64,16.39,20.27,18.25,1.69.3,3.22,1.89,4.67,3.08,4.07,3.33,8.54,2.82,13.18,1.71,3.79-.91,7.62-2.14,11.48-2.29,14.35-.57,24.17-8.27,32.91-18.86s9.59-23,12-35.65c1.78-9.45.55-19.07,2.81-28,2.33-9.22.63-18.59,2.76-27.33,3.82-15.72,1.17-31.44,2.32-47.1.22-3.09,1.19-6.12,1.82-9.17a40,40,0,0,0,1.26-6.11c.48-10.31.34-20.67,1.33-30.93.73-7.58,2.77-15.06,4.39-22.54,2-9.19,3.55-18.52,6.38-27.45,3.38-10.68,2.75-22.16,8.52-32.52,4.25-7.65,6-16.88,7.88-25.62,2.31-10.67,7.88-19.79,12.26-29.49,2.83-6.27,4.42-13.14,7.57-19.22,5.2-10,11.87-19.3,16.73-29.46,6-12.56,15.61-22.29,24.23-32.68,6.47-7.8,15.21-13.69,22.78-20.61,9.48-8.64,22.19-10.36,33.06-15.92,10.19-5.21,20.66-6.12,31.65-5.8,15.08.45,27.81,6.25,37.37,17.67,3.74,4.47,5.8,10.62,7.7,16.32,5.69,17,1.16,31.94-8.53,46.6-6.34,9.61-15.62,14.27-24.73,19.62-6.3,3.7-12.89.52-18-2.42-5.86-3.4-12.89-6.5-15.4-14-.26-.79-.86-1.46-1.09-2.25-1.21-4.24,4-16.14,8-18.12,1.85-.93,3.73-1.81,5.61-2.67,6.21-2.83,12.4-.72,16.16,5.1a63.1,63.1,0,0,0,8,10.36c1.11,1.11,4.6,1.47,5.82.57,5.09-3.74,9.12-8.47,10.69-14.94.67-2.8,2.64-5.34,3-8.13,1.13-8-2.17-15.14-8.78-18.71-9.26-5-19-11.14-30.22-8.8-14.09,2.94-27.73,6.57-38.4,18.14a111.73,111.73,0,0,0-20.92,31.74c-4.07,9.46-5.88,19.92-8.4,30-2,8-3.59,16-5.25,24.1a35.41,35.41,0,0,0-.71,6.89c-.05,19-.11,38,.06,56.93,0,3,1.32,6.05,1.86,9.11s1.39,6.23,1.18,9.29c-.85,12.68,1.62,24.93,4.07,37.23.89,4.5,1.06,9.14,1.93,13.65,1.89,9.78,3.78,19.58,6.12,29.26,2.84,11.71,5.92,23.37,9.33,34.92,2.75,9.34,5.94,18.56,9.29,27.71q6.78,18.53,14.13,36.82c3,7.57,5.59,15.59,10.08,22.25,7.12,10.54,11.05,22.73,19,32.89,8.21,10.49,14.68,22.33,22.11,33.44,4.74,7.08,9.9,13.87,14.77,20.86,1.66,2.38,2.88,5.06,4.54,7.44,2.82,4,5.92,7.87,8.72,11.92,4,5.76,7.85,11.63,11.73,17.47.7,1,1,2.46,1.92,3.21,9,7.59,13,18.8,20,27.85,3.58,4.63,6.54,9.73,10,14.45,7.72,10.57,15.59,21,23.36,31.56,8.6,11.63,17.13,23.3,25.73,34.93q16.59,22.46,33.25,44.85c10.1,13.58,20.16,27.19,30.43,40.64,1.07,1.41,3.41,1.86,5.16,2.75.57-1.87,2-3.94,1.58-5.58-2.35-9.72-5.39-19.27-7.68-29-2.86-12.15-5.23-24.42-7.81-36.65-1.47-6.9-3-13.77-4.39-20.7q-2.29-11.92-4.22-23.92c-1.19-7.38-2.18-14.8-3.21-22.21a87.35,87.35,0,0,1-1.24-10.53c-.25-13.7-1.25-27.49,0-41.07.74-8.18,1.44-16.41,2.33-24.58.49-4.47,4.41-8.46,5.8-13a88.91,88.91,0,0,1,16.28-30.06c5.86-7.26,13-12.31,20.79-16.9,1.25-.74,2.42-1.62,3.63-2.44a55.61,55.61,0,0,1,28.84-9.36c6.73-.34,13.49-.19,20.23,0,8,.19,15.25,2.27,20.63,9a61.09,61.09,0,0,0,9.82,9.8,14.18,14.18,0,0,1,5.85,12.53c-.2,7.8.25,15.61-.09,23.4s-3.4,14.34-8.44,20.44c-5.78,7-13.1,11.75-20.84,15.61-5.42,2.7-12.09,4.84-17.92,4.27-6.31-.61-13-3.67-18.17-7.52-4.24-3.17-8.35-8.32-4.32-15.19,2.48-4.25,3.42-9.42,6-13.62,1.25-2.06,4.44-3.57,7-4.07a33.34,33.34,0,0,1,10.69,0,8.08,8.08,0,0,1,5.18,2.88c2.69,3.89-3,15.71-7.76,16.73-1,.22-2.39.1-3,.73a7.8,7.8,0,0,0-2.32,4c-.08.58,2,1.92,3.21,2.17,13,2.61,24.59-3.29,31.92-14.35,5.15-7.77,6.47-16.62,8.74-25.07,1.12-4.15-.69-10.55-3.51-14-8.26-10.26-18.81-16.87-32.94-16.73-7.71.08-15.39.77-22.09,3.91-6,2.83-10.81,8.32-16.33,12.38-9.68,7.14-14.9,17.7-20,27.86-4,8-5.81,17.32-7.29,26.28a149.23,149.23,0,0,0-2.33,30c.49,12.46.72,25.13,4.9,37.2a14.87,14.87,0,0,1,.4,5c-.1,5.91-.32,11.55,4.52,16.41,2.13,2.14,3,6.05,3.45,9.3,1.94,12.86,8.17,24,13.34,35.65,9,20.14,19.31,39.62,28.26,59.77,6,13.5,12.38,26.83,18.45,40.3,6.35,14.07,13.18,28,18.58,42.41,5,13.21,11.55,25.65,16.55,38.85,5.44,14.36,12.7,28,19.16,42,.35.77.61,1.57.9,2.36q7.67,20.87,15.31,41.75c4.67,12.77,10,25.37,13.79,38.39,3.28,11.17,3.76,23.23,7.58,34.16,3.26,9.31,1.71,19,4.92,28.11a18.34,18.34,0,0,1,.74,5.6c.33,16.22-.5,32.56,1.19,48.63,1.72,16.37-.06,33.07,2.81,49,3.06,16.89-.1,33.76,2.78,50.13,2.75,15.55,1.72,31,2.55,46.4.07,1.24,0,2.9.78,3.63,7.33,7.17,4,16.67,5.61,25.06,2,10.85,3.55,21.78,5.3,32.68a7.82,7.82,0,0,1,.26,1.24c.23,11.32,3.58,22.11,5.39,33.16,2.26,13.81,1.82,28.11,4.55,41.79,3.36,16.82,1.85,33.58,1.8,50.33,0,11.43-2.25,22.87-3.58,34.29-.74,6.39-1.47,12.78-2.52,19.12a213.06,213.06,0,0,1-7.25,29.61c-4.92,15.49-11.83,30-19,44.34-6.92,13.74-15.49,26.67-23.67,39.75-5.2,8.29-11,16.24-16.61,24.23a60,60,0,0,1-5.55,6c-12,12.78-24.1,25.47-36,38.38-6.51,7.08-12.55,14.58-19,21.75-2.51,2.81-5.42,5.27-8.2,7.83-4.16,3.84-8,7.64-9.68,13.54-1.36,4.93-4.72,9.3-6.08,14.23-3.45,12.55-6.61,25.23-1.88,38.27,3.67,10.12,11.36,16.61,20.28,21.43a50.2,50.2,0,0,0,17.81,5.68c4.92.55,10.27-1.1,15.2-2.55,9.16-2.7,15.54-9.4,20-17.31,4.88-8.7,5.21-18.47,1.49-27.81a51.6,51.6,0,0,0-8-14c-4.55-5.42-8.94-5-13.94,0s-5.1,6.36-.24,11.52c9.25,9.82,7,15.43-1.16,23.54-4.34,4.34-9.88,3.54-14.88,2-4.52-1.36-8.07-4.54-8.5-9.9a10.78,10.78,0,0,0-.27-1.88c-.82-3.13-3.26-6.94-2.26-9.27,3.9-9,5.23-19.73,14.5-25.71a22,22,0,0,1,6.21-2.86c4.46-1.17,9-2,13.55-2.87,5.51-1.05,15.08,3.25,18,8.17,7,11.66,10.6,24.39,9,37.9-1.39,12-5.23,23.23-16.6,30.19-5.84,3.58-11,8.29-17,11.63a43,43,0,0,1-32.41,3.59c-10.17-2.79-19.38-9.3-28.83-14.5-10.63-5.85-15.44-15.91-18.84-27-1.71-5.56-3.84-11-6.06-16.39-1.73-4.17-5.57-5.08-9.17-2.32-11.12,8.52-22.12,17.2-33.28,25.66-11.33,8.58-22.65,17.19-34.25,25.39-12.76,9-25.57,18.06-38.89,26.22-7.23,4.43-15.42,7.42-23.42,10.43-13.28,5-27.32,6.77-41.36,6.49-15.31-.29-30.76-1-45.83-3.46-10.32-1.7-20.89-5.88-27.75-14.58-4.19-5.32-9.14-11.14-7.39-19.24.52-2.41.08-5,0-7.56-.25-5.44,1-9.44,6.64-12.25,7-3.52,12.95-9.42,20.11-12.49,11.57-5,30.4-1.94,36.73,9.28,4.71,8.34-1,19.74-10.41,20.1-3.84.14-7.84-1.06-11.58-2.22-2.72-.84-3.15-2.65-1.19-5.35,3.42-4.71,2.19-7.07-3.45-8.9-4.92-1.6-15.34,3.66-16.55,8.73-2,8.41,1.48,16.13,8.23,19,15.86,6.66,32.35,8.76,49.3,7.57a100.78,100.78,0,0,0,29.89-6.25,76.74,76.74,0,0,1,13-4.25c7.81-1.54,13.46-6.54,19.45-11.06,2.67-2,5-4.53,7.57-6.64,6.55-5.31,6.88-13.09,1-19-5.6-5.67-13-7.45-20.12-9.75-6.87-2.22-14-3.52-21.06-5.23a15,15,0,0,0-1.82-.51c-9.37-1-18.72-2.26-28.11-2.72-10.48-.51-21,0-31.5-.41a84.44,84.44,0,0,0-35.55,6.29c-10.09,4-20.44,7.44-30.49,11.57s-20,8.52-29.7,13.31c-18,8.86-35.88,18.06-53.77,27.18-6.9,3.52-13.59,7.45-20.6,10.73-7.16,3.35-14.9,5.56-21.83,9.3-9,4.88-18.53,7.48-28.47,9.42-5,1-9.61,4.36-14.65,5.33-13.54,2.6-27.17,4.82-40.84,6.58-11.86,1.52-22.58-3.41-33.37-7.42-3.88-1.44-7.59-3.38-11.52-4.65-13.36-4.31-22.79-14-31.81-23.84-8.12-8.9-8.91-20.45-9.46-31.89-.51-10.52,4-19.23,8.32-28.49,6.28-13.54,17.72-22.13,27.49-32.32,3.08-3.21,7.74-4.88,11.63-7.34,3.17-2,6.15-4.38,9.44-6.17a16.64,16.64,0,0,1,7-2.23c6.94-.29,14.1-1.13,20.82.14,10.1,1.92,20.67,3,29.51,9.19,4.06,2.82,6.5,6.3,5.19,11.79-1,4-.82,8.27-1.51,12.37-1,6.2-9.19,11.74-15.12,10a81.53,81.53,0,0,1-12.68-5.1c-6-2.91-8-7.75-6-13.85,2.21-6.89-.32-10.48-7.58-10.56-11-.11-20.68,3.5-30.08,9.41-8.84,5.55-14.59,13.5-20.6,21.45a8.29,8.29,0,0,0-1.28,4.08c-.23,2.3.17,4.68-.2,6.95-2.53,15.79,7.75,25.2,17.49,34.61s22.77,12.1,35.41,15.69a60.37,60.37,0,0,0,23,2.09,77.07,77.07,0,0,0,20.47-5,167,167,0,0,0,23.19-12,64.84,64.84,0,0,0,13.15-10.47c4.46-4.6,8.22-9.9,12.05-15.07a153,153,0,0,0,19.42-35.06c3.83-9.7,8.06-19.27,11.18-29.19,1.54-4.89,1.2-10.43,1.29-15.69.17-11.38-.39-22.79.21-34.15.58-11.11-2.16-21.38-7-30.93-2-3.9-6.42-7.11-10.47-9.3-8.76-4.75-18.37-5-27.76-2-14.27,4.51-27.08,12.14-39.28,20.58-9.48,6.56-18.35,14-27.41,21.12q-14,11-27.76,22.29c-5.66,4.64-10.58,10.45-16.79,14.09-13.08,7.67-26.32,15.21-41.64,18.1-6.53,1.23-12.63,4.63-19.14,6a192.4,192.4,0,0,1-24.76,3.39c-6.7.54-13.47.11-20.22.11Zm662.43-786c-1.29-8-3.7-23-6.13-38a8.87,8.87,0,0,0-.42-1.19c-2.8-9.18-5.7-18.32-8.38-27.53-3-10.2-5.49-20.48-10.81-29.91-5.46-9.67-9.93-19.88-15.16-29.68-3.31-6.22-7-12.25-10.89-18.16-5.47-8.4-11.14-16.67-16.9-24.88-6.08-8.67-12.23-17.29-18.58-25.76-3.88-5.17-8.17-10-12.29-15q-10.59-12.77-21.2-25.5-4.62-5.55-9.32-11c-1.63-1.91-3-4.42-5.09-5.45-2.37-1.17-5.41-1-8.15-1.39a47.41,47.41,0,0,0,.33,6.09c1,5.94,2.52,11.82,3.36,17.78,1.28,9.08,2.16,18.22,3.23,27.34,1,8.91,2,17.83,3.23,26.71.86,6.19,2,12.34,3.27,18.45,1.69,8.06,4,16,5.39,24.12,2.5,14.22,4.45,28.53,6.84,42.77a133.63,133.63,0,0,0,3.33,13.86c1.51,5.4,3.48,10.68,4.9,16.1,3.32,12.69,5.73,25.67,9.83,38.09,3.59,10.87,8.65,21.3,13.67,31.63,5.37,11.07,11,22.08,17.33,32.62,9.89,16.42,20.33,32.51,30.83,48.55,8.21,12.54,16.77,24.86,25.5,37,.77,1.08,4.64,1.4,5.73.48a12,12,0,0,0,3.93-6.77c1.22-7.63,2.1-15.33,2.58-23,1-15.91,2.12-31.83,2.2-47.75C1204.86,954.07,1203.61,939.6,1202.62,917.93Zm-279.2,150.32v-.33c1.9,0,3.8,0,5.69,0,7.65-.22,9.23-1.32,8.32-9-1.53-13-9.8-22.23-19.72-29.42A215.79,215.79,0,0,0,888.07,1012c-22.19-11.16-44.66-21.75-67-32.51-13.16-6.33-26.39-12.53-39.58-18.8C763.7,952.28,746,943.66,728.2,935.4c-11.92-5.53-24.09-10.53-36.12-15.82-8.21-3.61-16.33-7.46-24.59-11-7.88-3.34-15.71-7-23.91-9.32-6.61-1.84-7.86.6-5.52,7,3.26,8.93,6,18.06,9,27.06,3.28,9.68,6.27,19.49,10.16,28.93,3,7.33,7,14.26,10.9,21.22,10.61,19.17,21.59,37.76,39.57,51.66,15.64,12.09,32.66,20.78,51,27.41,18.81,6.8,38.78,7.53,58.21,8.75,22.1,1.4,44.5,2.15,66.79-1.3C896.74,1068,910.17,1068.75,923.42,1068.25ZM651.61,847.79l0-.41c-1.47.11-3.09-.14-4.36.43a4.8,4.8,0,0,0-2.59,2.92,4.44,4.44,0,0,0,1.36,3.67,77.51,77.51,0,0,0,10.13,6.16c19.44,9.69,39.14,18.77,58,29.8,13.62,8,28.82,13.19,43.07,20.14,15.76,7.68,31.17,16.08,46.87,23.87,8,4,16.41,7.33,24.6,11,10.09,4.54,20.22,9,30.21,13.73,16.59,7.89,33.06,16,49.65,23.93a15.46,15.46,0,0,0,6.7,1.32c3.86-.05,5.25-2.42,3.76-5.92-.73-1.72-2.28-3.26-2.52-5a111.58,111.58,0,0,0-9.36-32.36c-3.29-7-2.9-15.17-8-21.57-2.78-3.5-4.44-7.86-6.86-11.67-4.13-6.49-8.29-13-12.74-19.23-3.14-4.41-6.8-8.45-10.22-12.65-7.48-9.18-14.56-18.73-22.53-27.46-12.76-14-28.13-25.51-38.94-41.42-2.78-4.09-7-7.2-10.58-10.75-16.2-16.13-32.45-32.19-48.54-48.42-2.66-2.69-4.78-3-7.47-.46C735.47,753,730,758.66,728,766.77c-1,3.81-2.56,7.48-3.32,11.33-2,10.41-3.64,20.91-5.71,31.32a59.91,59.91,0,0,1-4,13.66c-4.79,10.25-13.2,17-23.2,21.84-6.83,3.3-13.88,6.09-21.66,5.35C663.94,849.68,657.78,848.63,651.61,847.79ZM1255,1334.68c-5.51,1.78-11.31,2.94-16.46,5.45-9.55,4.68-18.92,9.81-28,15.35-12.83,7.82-25.52,15.91-37.91,24.4s-24.05,17.43-36,26.21a16.11,16.11,0,0,0-2.26,2.19c-15.48,17-33.67,31.38-46,51.32-3.91,6.33-6.66,12.24-6.84,19.6a158.69,158.69,0,0,1-1.45,17c-1.33,9.92-4.17,19.8-4.18,29.7,0,17.14-2.41,34.45,2.29,51.44,1.29,4.66,4.61,6.76,8.7,4.22,7.23-4.49,14.76-8.62,21.48-13.79,13.25-10.21,26.62-20.4,38.83-31.79,9.54-8.89,19.94-17,28-27.5,4.69-6.11,10.25-11.56,15-17.65,6.26-8.06,12.13-16.43,18.1-24.72,2.18-3,4.17-6.17,6.27-9.25,3.38-4.94,7.4-9.55,10.07-14.85,7.9-15.69,15.55-31.52,22.75-47.55a181.91,181.91,0,0,0,9.56-26.45c2.24-8.21,3.17-16.79,4.43-25.25C1262,1338.47,1259.49,1335.82,1255,1334.68ZM1072.89,909l.61-.16c-2-7.39-3-15.21-6.17-22s-3.91-13.91-5.83-20.86c-2.49-9-4.9-18.1-7.59-27.09-2.38-8-5.12-15.83-7.63-23.76-2.58-8.15-4.44-16.59-7.74-24.43a314.31,314.31,0,0,0-16.49-34.43c-8-14-14.12-29.61-27.74-39.84a13.62,13.62,0,0,1-2.63-3.49c-8.6-12.83-16.9-25.89-27.84-37-.59-.6-1.14-1.23-1.67-1.88-6.86-8.4-13.22-17.29-20.71-25.08-8.24-8.59-17.47-16.24-26.38-24.17q-9.58-8.54-19.47-16.7a111.79,111.79,0,0,0-9.58-6.85c-7.69-5.08-15.13-10.67-23.26-14.95-10.88-5.71-22.2-10.64-33.54-15.41-9.58-4-19.46-7.32-29.17-11-2-.74-4.16-2.39-5.24.55-.59,1.62-.49,4.34.51,5.58,6.16,7.65,12.44,15.21,19.09,22.43,12.36,13.41,25.18,26.4,37.46,39.89,10.42,11.44,20.34,23.33,30.51,35,1.51,1.74,3.33,3.22,4.74,5,8.83,11.28,17.52,22.66,26.35,33.93,11.95,15.26,24.07,30.37,35.93,45.69q13,16.82,25.48,34c11.13,15.38,22,31,33,46.44.36.52.66,1.08,1,1.61,5.7,9,11.27,18,17.13,26.93,9.67,14.66,19.5,29.22,29.32,43.78,3.33,4.95,6.53,10,10.32,14.63,2.85,3.45,6.13,2.33,7-2A28.09,28.09,0,0,0,1072.89,909ZM831,1605.7c0,5.48-.26,11,.17,16.43.12,1.54,2.38,4.22,3.45,4.12a9.16,9.16,0,0,0,6-3.21c1.07-1.43.5-4,.74-6.13.27-2.27.14-4.76,1.05-6.75,3-6.64,6.23-13.23,9.75-19.62,8.08-14.66,16.61-29,28.39-41.19,5.48-5.68,9.65-12.71,15.47-18,10.07-9.11,20.83-17.49,31.55-25.85,6.74-5.26,13.88-10,20.94-14.85,5.33-3.65,10.85-7,16.24-10.58,14.79-9.82,29.37-20,44.37-29.46,16.25-10.29,32.85-20,49.34-29.94,8.78-5.28,17.66-10.39,26.45-15.65,12.37-7.38,24.64-14.91,37.05-22.23q13.45-7.93,27.15-15.45c7.86-4.34,16.07-8.08,23.69-12.79,2.65-1.63,5.43-5.3,5.59-8.18.24-4.38-4.36-4.52-7.68-4.28-4.12.31-8.18,1.35-12.27,2-1.65.26-3.34.32-5,.43-4.6.32-9.32.06-13.77,1-12.21,2.7-24.46,5.41-36.4,9.07-16,4.9-32.11,9.47-46.91,17.67-13.72,7.61-27.79,14.6-41.6,22-3.86,2.08-7.23,5-11,7.24-7.39,4.3-15.08,8.1-22.35,12.58-7.66,4.72-14.94,10.06-22.46,15-7.12,4.68-14.46,9-21.5,13.83-6.41,4.37-12.47,9.23-18.81,13.71-7.12,5-14.5,9.71-21.55,14.85-7.63,5.57-14.89,11.63-22.5,17.23-15.26,11.22-30.86,22-45.91,33.5-9.62,7.36-18.47,15.73-27.73,23.57-2.22,1.87-4.83,4.31-2.71,6.7,1.68,1.87,5.56,3,8.17,2.58,7.91-1.25,13,.6,16.35,7.94A93,93,0,0,1,831,1605.7Zm221.33-63.19h0c0-9.48.17-19,0-28.44-.16-6.75-3.42-8.59-9.94-6.66-14,4.16-24.88,13.48-36,22.13-9.23,7.19-17.72,15.43-26,23.77-14.57,14.74-28.82,29.81-43,45a151.16,151.16,0,0,0-12,15.34q-10.87,15.2-21.36,30.66c-5.28,7.75-10.84,15.38-15.37,23.56-6.87,12.42-13,25.27-19.35,38-2.38,4.73.1,9.09,5.32,8.77a43.22,43.22,0,0,0,11-2.36c6.45-2.16,12.68-5,19.14-7.07,5.94-1.92,12.17-3,18.09-5,9.26-3.11,18.19-7.32,27.58-9.92,12.11-3.35,24.18-6.63,35.34-12.57,3-1.58,5.61-4.09,8.74-5,12.56-3.46,20.83-13,29.94-21.11,4.51-4,6.91-10.32,10.92-15,10.75-12.63,11.61-28.27,13.75-43.51.72-5.16.29-10.48.83-15.68.45-4.29,2-8.49,2.25-12.77C1052.56,1557.28,1052.28,1549.89,1052.28,1542.51ZM844.42,265.24c-5.27,1.46-7.09,4.21-7.14,8.21-.09,6.95-.17,13.91-.07,20.86a44.8,44.8,0,0,0,.95,7.45c.67,3.66,2.06,7.27,2.16,10.94.3,11.15,0,22.31.27,33.46.08,3,1.54,5.94,2.4,8.9,1,3.32,2.33,6.57,2.88,10,1.49,9.29,2.51,18.65,4,28,.75,4.74,2,9.4,3.19,14.07,2,8,6.09,15.64,5.23,24.33a7,7,0,0,0,.51,3.08q7.31,18.57,14.69,37.12c4.91,12.37,8.36,25.41,16.67,36.23.6.78.62,2,1,2.94,1.44,3.47,2.55,7.15,4.45,10.37,9.3,15.78,18.85,31.43,28.24,47.16,2.13,3.59,3.68,7.56,6,11,4.77,6.82,10,13.28,14.89,20,7.05,9.8,13.82,19.78,20.88,29.57,3.89,5.41,8.22,10.5,12.18,15.87,6.79,9.19,13.36,18.56,20.25,27.67,1.28,1.7,2.88,4.43,6.16,1.85,2.65-2.08,3-4.24,2-7.14q-3.91-10.58-7.7-21.19c-3.84-10.76-7.52-21.58-11.52-32.27-3.78-10.13-8-20.1-11.82-30.21-5.82-15.36-11.29-30.86-17.28-46.16-5.63-14.37-11.72-28.56-17.67-42.8s-12.17-28.31-17.83-42.64c-3.59-9.09-6-18.64-9.56-27.74-5.21-13.38-11-26.56-16.5-39.81-2.18-5.18-4.62-10.26-6.64-15.51-4.62-12-8.75-24.21-13.64-36.11-4.65-11.35-10.14-22.35-15-33.62-1.87-4.34-2.74-9.11-4.53-13.49a116.52,116.52,0,0,0-6.78-13.89C848.34,269.15,846.05,267.14,844.42,265.24ZM910.2,1380.4c-6.58,1.3-12.74,3.71-18.78,3.45-8.8-.38-15.18,5.33-23,7.28-9.31,2.32-18.18,7-26.74,11.6-14.16,7.58-28.13,15.58-41.76,24.07-6.67,4.16-12.1,10.26-18.61,14.71-13.24,9-21.5,22.1-29.13,35.52-4.82,8.48-8.33,17.73-12.19,26.73q-13.1,30.49-25.9,61.1a87.09,87.09,0,0,0-3.94,12.49c-1,3.9,1.74,5.66,4.94,5.57,1.78,0,3.74-1.74,5.24-3.11,11.14-10.16,22.18-20.43,33.27-30.64,9.72-8.94,19.19-18.19,29.3-26.66,9.08-7.61,18.81-14.44,28.37-21.45,9.1-6.68,18.34-13.16,27.53-19.71,3.75-2.68,7.41-5.49,11.31-7.92,4.95-3.06,10.21-5.62,15.14-8.7,8.33-5.21,16.42-10.81,24.78-16,12.82-7.9,25.79-15.54,38.68-23.32,7.47-4.51,14.9-9.09,22.36-13.64,11.94-7.28,24-14.4,35.75-22,2.07-1.33,3-4.5,4.41-6.82-2.6-1.43-5.06-3.56-7.84-4.11-3.65-.72-7.55-.28-11.34-.18C951.32,1379.25,930.61,1379.84,910.2,1380.4ZM938.53,913c1.47,6.71,3.36,15.18,5.16,23.67.87,4.07,1.48,8.2,2.39,12.27,2,9,4.12,17.89,6.14,26.85,1.1,4.88,1.59,10,3.23,14.65A247.94,247.94,0,0,0,965.66,1016c3.47,7.25,6.06,15.25,13,20.34,8.43,6.14,16.66,12.57,25.27,18.43,7.59,5.17,15.23,10.5,23.49,14.39,17.13,8,34.64,15.28,52.11,22.58,1.75.73,5.19.37,6.23-.86a7.76,7.76,0,0,0,1-6.7c-3.92-9.41-9.58-18.26-12.26-28s-9.12-17.12-12-26.56c-2.54-8.27-7.5-15.78-11.13-23.74-7.61-16.71-15-33.51-22.57-50.25-4.11-9.12-8.39-18.16-12.51-27.28-2.58-5.71-4.54-11.76-7.61-17.18-2.73-4.83-6.88-8.83-9.93-13.5A165.22,165.22,0,0,0,970.52,865c-8.18-7.35-21.66-6.45-26.84,1.71C939.6,873.16,936.37,880,937,888,937.64,895.7,938,903.39,938.53,913Zm352.6,514.67h-.29c0-6.32.23-12.65-.13-19-.11-2-1.4-4.93-2.84-5.43s-4.4.89-5.72,2.34c-4,4.42-7.6,9.26-11.34,13.95-4.82,6-9.75,12-14.42,18.08-5.68,7.46-11.29,15-16.64,22.68-7.52,10.8-15.55,21.35-21.92,32.8-6.56,11.78-12.51,23.9-16.69,37s-6.75,26.43-6.76,39.95c0,28.83,1,57.66,1.73,86.48.05,2,1.33,4.89,2.84,5.56s4.47-.42,6-1.71c7.74-6.76,15.28-13.76,22.76-20.81,9.28-8.74,18.34-17.55,26.4-27.65,7.55-9.45,14.57-19,19.28-30,3-7,3.15-15.31,6.21-22.31,4.78-10.92,4.65-22.69,7.29-34,2.41-10.24,1.6-21.19,2.59-31.82C1291.49,1472,1290.73,1449.75,1291.13,1427.66Zm-41.77-201.24c-2.43-11.81-4.75-24.35-7.69-36.73-1.14-4.81-4.35-9.13-5.44-13.94-3.85-17.13-11.81-32.56-19.35-48.14-9.84-20.33-21.89-39.35-34.15-58.33-11-17.11-24-32.59-37-48-9.19-10.87-19.85-20.51-30.08-30.46a45,45,0,0,0-9.77-6.84c-3.49-1.92-8.18-.43-7.76,2.07,1.41,8.16,3.1,16.27,4.72,24.4,1.67,8.36,3.55,16.68,5,25.07,1.54,8.65,2.3,17.45,4.13,26,2.47,11.53,5.51,22.94,8.56,34.33,2.88,10.73,5.1,21.76,12.52,30.71a19.29,19.29,0,0,1,3.85,7.17c2.86,10.89,9.93,19.47,16.8,27.55,10.3,12.1,22.34,22.71,33.69,33.9a90.19,90.19,0,0,0,9.75,8.92c7,5.09,15.11,8.92,21.22,14.86s13.06,10.2,20.44,14c2.63,1.35,5.49,2.28,8.24,3.41Zm-215.76,487.2v-.14c10.54,0,21.08,0,31.61,0a35,35,0,0,0,7.52-.71c10.3-2.39,20.46-5.5,30.85-7.31a121.05,121.05,0,0,0,29.17-8.85c26-11.63,38.17-33.17,41.89-59.75,2.15-15.33,1.3-31.09,1.61-46.67.06-2.89-.72-5.8-1.21-8.69-.57-3.41-1.52-6.78-1.8-10.21-.25-3.11.37-6.28.29-9.41-.13-4.69-3.92-6.56-7.93-4a24.63,24.63,0,0,0-3.34,2.89c-15,14-29.77,28.33-45,42.1-10.61,9.58-21.85,18.47-32.81,27.67l-19.15,16.09c-4.45,3.75-8.79,7.65-13.37,11.24-5.76,4.51-11.67,8.83-17.6,13.11-7.07,5.11-14.32,10-21.34,15.16q-9.56,7-18.73,14.59c-2.69,2.23-4.6,5.52-2.75,9,1.66,3.12,4.88,4.07,8.61,4C1011.27,1713.49,1022.44,1713.62,1033.6,1713.62ZM907.36,847.3c-.22-2.53-.09-3.87-.48-5-3.75-11.29-7.2-22.69-11.49-33.77-4.6-11.88-9.28-23.84-15.32-35-4-7.37-7-15.2-11.67-22.41-8.09-12.43-15.72-25.3-25.84-36C829.5,701.28,815,688.89,801,676c-1.51-1.4-3.51-2.26-5.29-3.37-4.08-2.53-8.12-5.13-12.25-7.57-11.3-6.68-22.33-13.87-34-19.76C737,639,723.92,634,711.09,628.48c-11.33-4.84-22.68-9.64-34.09-14.27-11-4.45-22.06-8.59-33-13-3.12-1.26-5.34-.31-7.13,2.14-2.33,3.18.94,4.64,2.45,6.13,1.89,1.86,4.7,2.74,6.78,4.44,13.94,11.42,27.66,23.13,41.73,34.4C698.62,657,710,665,720.86,673.66c6.86,5.45,13.27,11.46,19.78,17.33,14.8,13.34,29.51,26.79,44.35,40.1,6.21,5.57,13.08,10.46,18.89,16.4,9.93,10.13,19.36,20.75,28.81,31.34,16.12,18.07,35.69,32.86,49.28,53.42,4.5,6.82,11.85,11.79,18.09,17.4,1.2,1.08,3.75,2.12,4.8,1.56C906.3,850.42,906.91,848.09,907.36,847.3Zm152.17,396.58c6.53,0,13.07.15,19.59-.1,1.59-.07,3.13-1.46,4.7-2.24-1.55-1.46-2.85-3.64-4.68-4.26-4.7-1.59-9.68-2.3-14.45-3.68-10.65-3.08-21.45-5.78-31.8-9.67-14.41-5.42-28.55-11.59-42.63-17.83a196.44,196.44,0,0,1-20.43-10.82c-7-4.13-13.68-8.78-20.47-13.25-6-3.91-12-7.67-17.75-11.88-7.58-5.54-14.57-11.92-22.38-17.08-12.32-8.14-25-15.75-37.73-23.23-10.07-5.92-20.28-11.68-31.91-14.16-5.07-1.08-10.13-2.21-15.19-3.31-4.2-.9-8.37-2-12.61-2.6-3.53-.45-7.22.21-10.72-.33a39.75,39.75,0,0,0-28.63,6.19c-8.32,5.39-10.63,18.8-3.26,24.53s15.87,10.21,24.3,14.36c13.1,6.44,26.63,12,39.87,18.17,22.38,10.42,44.57,21.26,67.08,31.39,9.26,4.17,19.34,6.5,28.67,10.54,17.3,7.48,35.29,12.63,53.46,17.32,4.24,1.09,8.43,2.32,12.68,3.37,6.84,1.68,13.66,3.58,20.59,4.77,4.94.86,10.53-.5,15,1.25C1040.31,1245,1050,1243.44,1059.53,1243.88ZM980.3,1113.6v-.51c-5.48,0-11-.17-16.43.09-1.85.09-3.64,1.28-5.46,2,.79,2,1.1,4.48,2.45,6,4.17,4.72,8.69,9.13,13.16,13.57,5.81,5.77,11.33,11.92,17.66,17,9.33,7.55,19.09,14.59,29,21.39,9.64,6.64,19.22,13.59,29.62,18.84,16.17,8.16,33.43,13.78,51,18.31,15.55,4,31,8.21,46,14.19,6.25,2.5,12.66,6,19.88,4.23,1.84-.45,4.34-1.51,4.9-2.93s-.44-4-1.34-5.68a37,37,0,0,0-4.11-5.48c-4.53-5.74-8.57-12-13.72-17.1-10.22-10.16-21.36-19.39-31.53-29.59-9-9-20.31-14.63-30.74-21.4-9.55-6.18-20.35-10.41-30.59-15.52a47.26,47.26,0,0,0-5.53-2.83c-7.87-2.67-15.77-5.31-23.73-7.71-8.18-2.45-16.32-5.51-24.7-6.64S988.9,1113.6,980.3,1113.6Zm271.85-56.33c1.38,7.34,2.92,14.43,4,21.6,1.22,8,2,16.12,3,24.19a31.24,31.24,0,0,0,.47,4.37c2.88,10.68,5.64,21.39,8.86,32,1.45,4.76,3.89,9.22,5.83,13.83,3.4,8.08,6.7,16.19,10.14,24.24,2.78,6.52,5.41,13.13,8.62,19.44,3.86,7.59,7.74,15.27,12.59,22.22,3.33,4.77,8.32,3.52,10.69-1.9a11.3,11.3,0,0,0,1-4.91c-1-17.54,2.18-35.1-2.38-52.7-2.62-10.1,0-21.16-3.15-31.71-2.3-7.68-2.47-16-3.77-24-1-6.15-2.25-12.25-3.47-18.36-.87-4.32-1.67-8.67-2.9-12.89-2.54-8.77-5.48-17.43-8-26.2-2.08-7.21-3.69-14.56-5.77-21.77-2-6.82-4.29-13.53-6.44-20.3-3-9.53-5.93-19.1-9.06-28.59-3-9.1-6.1-18.16-9.4-27.15a33.11,33.11,0,0,0-4.53-8.24c-.78-1-2.9-1.57-4.33-1.45-.64.06-1.52,2.28-1.56,3.54q-.4,11.36-.43,22.73Q1252.1,1011.23,1252.15,1057.27ZM871.79,548.68c-.9-2.51-1.22-4.21-2.06-5.6-3.44-5.66-7.13-11.18-10.56-16.86-3.89-6.45-7.93-12.86-11.29-19.59a148.24,148.24,0,0,1-7.57-18.56c-4.08-12-8.06-24.11-11.54-36.32-2.67-9.38-4.49-19-6.71-28.49-1.6-6.84-3.31-13.65-4.87-20.5-1.47-6.47-.26-13.58-4.68-19.35-3.24-4.22-6.43-4.35-8.44.49a124,124,0,0,0-6.13,19.51c-2.06,8.94-3.42,18-5.09,27.06a80,80,0,0,1-11.29,29.06c-4.34,6.75-10.74,10.15-18.49,12-9.26,2.18-18.32,5.18-27.48,7.82-3.36,1-6.86,1.61-10.05,3-3.44,1.46-4.26,5.1-1.47,7.53s6.26,4,9.6,5.66c5.19,2.57,10.5,4.91,15.78,7.31a20,20,0,0,0,3.45,1.3c7.5,1.83,15.31,2.85,22.46,5.58a317.63,317.63,0,0,1,36,15.84c16.57,8.8,32.51,18.77,48.82,28.06,1.92,1.1,5.07,2.14,6.61,1.3C869,553.65,870.27,550.69,871.79,548.68ZM1348,1413.27a126.91,126.91,0,0,0-9-47.14c-5.35-13.57-13.16-25.59-20.09-38.19a7.85,7.85,0,0,0-2.49-2.81c-1.62-1-4.3-2.88-5.07-2.33a9.74,9.74,0,0,0-3.77,5.8c-.59,4.13-.1,8.41-.24,12.61-1.6,46.17,3.36,92.46-2.69,138.53,2.26,16.88-4.22,33.17-3.44,50,.06,1.4-.74,2.82-.94,4.27-.6,4.29-1.32,8.59-1.58,12.91a4.9,4.9,0,0,0,5,5.44c3.16.1,4.92-1.94,4.68-5.36-.35-4.77,2.07-8.15,5-11.76,3.06-3.81,5-8.56,7.16-13,1.34-2.78,2.11-5.84,3.24-8.73,2.74-7,5.94-13.83,8.21-21,2.89-9.1,5-18.45,7.57-27.65,1.51-5.39,4.06-10.59,4.84-16.06C1346,1437,1346.81,1425.12,1348,1413.27ZM1025.58,1493l-1.33-1.31c0-3.45-4.3-5.69-8.18-4.26-2.74,1-5.45,2.1-8.2,3.06-6.33,2.19-13.15,3.48-18.94,6.64-12.78,7-26.09,12.84-38.34,21.13-10.73,7.27-18.86,17.18-29.41,24.4a46.82,46.82,0,0,0-10,9.61c-8.16,10.29-16.17,20.72-23.83,31.38a195,195,0,0,0-11.8,19.14c-5.08,9.16-9.75,18.54-14.63,27.81-4.21,8-8.47,15.87-8.72,25.26-.19,7.53-1.12,15.06-1,22.58,0,2.11,2.28,5,4.26,6,1.34.63,5-1,5.89-2.6,4.37-8.08,8.19-16.45,12.12-24.75,1.79-3.77,2.92-7.93,5.17-11.39,7.48-11.54,15.44-22.77,23-34.25A219.64,219.64,0,0,1,927.83,1579c5.72-5.88,11.62-11.59,17.42-17.39,10.86-10.84,21.46-22,32.63-32.47,12-11.31,25.77-20.41,39.37-29.68C1020.15,1497.51,1022.81,1495.2,1025.58,1493Zm93.85-195.23c-1.37-2.07-1.88-3.8-2.94-4.26-2.77-1.19-5.77-2.54-8.7-2.57q-28.76-.35-57.51-.06c-7.67.07-15.2-.49-22.88,2.66-13.7,5.61-28,9.61-42,14.55-5.64,2-11.07,4.6-16.54,7-4.14,1.86-8.66,3.32-12.22,6A113.45,113.45,0,0,0,931.25,1348c-4.06,6-3.81,6.2,1.66,11.19,2.46,2.24,4.59,2.51,7.32.84a9.47,9.47,0,0,1,4-1.61c12.81-.8,24-6.89,35.75-11,7.67-2.64,15.4-5.1,23.06-7.75,4-1.37,7.83-3,11.72-4.52,3.28-1.32,6.44-3,9.78-4.11,8.13-2.75,16.36-5.19,24.5-7.93,10.25-3.45,20.38-7.24,30.68-10.56,6.54-2.11,13.27-3.61,19.92-5.42,4.22-1.14,8.61-2,12.59-3.67C1114.85,1302.43,1116.86,1299.93,1119.43,1297.81Zm54.79,2.11c-3.58,1-8.12,2.42-12.72,3.61-8.27,2.13-16.6,4-24.85,6.22-8.4,2.25-16.75,4.69-25.08,7.17-8.16,2.43-16.78,4-24.29,7.81-9.3,4.66-19.39,5.67-29,8.89a16.5,16.5,0,0,0-6,3.15c-3.13,2.9-6.1,5.3-10.69,5.92-4.32.59-6.94,6.67-4.15,8.39,3.82,2.35,7.85,4.91,13,3.58,14.86-3.9,29.8-7.51,44.63-11.49a194.21,194.21,0,0,0,19.09-6.23c7.32-2.79,14.45-6.12,21.69-9.14q9.81-4.08,19.7-8c7-2.73,14-5.25,20.92-8a16,16,0,0,0,5.17-3.38c3.29-3.29,2-7.05-2.56-8.11A37.77,37.77,0,0,0,1174.22,1299.92Z"/></svg>