<svg id="Layer_1" data-name="Layer 1" xmlns="http://www.w3.org/2000/svg" viewBox="0 0 1334.68 1526.82"><path d="M2019.25,1650.43c-6.3-13.26-13.06-26.31-19.36-39.58-3.23-6.83-7.43-12.58-13.85-16.69-14.36-9.19-21.38-22.32-22.2-39.41-.5-10.48-2.77-20.85-8.21-30.14-7.71-13.15-15-16.63-29.89-14.28-5.19.82-10.32,2-15.5,2.83-12.58,2.11-24-.1-33.6-9.11-7.28-6.82-15-13.2-21.9-20.37a476,476,0,0,0-109-84.63c-5.74-3.25-10.12-7.46-11.82-14-.81-3.13-1.11-6.5,1.12-9,2.53-2.83,5.71-1.34,8.72-.25,6.4,2.32,12.7,5.37,19.32,6.57,27.36,4.94,55.2,6.94,82.38,13.23,5.57,1.29,12.11,1.76,14-6.07,1.66-6.89-.62-12.56-7.13-15.82A44,44,0,0,0,1842,1370a38.68,38.68,0,0,1-22.59-13.49c-8.92-11.12-20.49-17.79-33.46-22.58-9.69-3.59-17.19-9.83-23.21-18.15-4-5.51-8.19-10.92-12.6-16.11-7.37-8.67-16.07-14.38-28.1-15.4-13.43-1.13-16.6-4.89-15.46-18.32a92.49,92.49,0,0,0-5.48-40.13c-4.33-11.93-1.85-14.41,10.33-11.81,6.59,1.41,12.9,4.6,20,2.06,8.76-3.15,10.64-8.06,4.37-15.07-8.72-9.79-17.64-19.53-27.51-28.11-13-11.36-19.67-25.29-22-42.12-3.08-21.83-6.79-43.56-10.55-65.27-8-46.21-32.42-78.43-77.84-94.31-19.71-6.89-39-15.56-56.27-27.92-14.94-10.67-26.37-23.9-33-41.1-4.54-11.75-9.18-23.47-13.54-35.29-1.15-3.16-4-6.5-.54-10.3,3.21-.64,5.94,1.1,8.83,2.14,22.24,8.07,43.42,18.62,65.15,27.84,14.71,6.24,28,14.57,39.19,25.88,41.38,42.08,89.18,76.51,134.63,113.74,9.57,7.84,20.39,13.17,32.63,14.64,15,1.8,28.62,6.25,40.21,16.25,3.67,3.16,8,5.07,13,4.55,3.2-.31,6.41-1.09,8.12-4.07,2-3.42-.58-5.92-2.58-8.27-3.74-4.39-7.64-8.66-11.46-13-1.8-2-3.37-4.28-1.59-7,2-2.93,5.12-3.6,8.38-3.1,6,.91,8.3,6.07,10.85,10.54,7.06,12.33,18.17,16.92,31.65,16.85,11-.06,14-4.54,7.51-13.53-17-23.45-39.35-38.86-69-41.52-12-1.08-24.07-1.71-36.12-2.48a35.41,35.41,0,0,1-26.87-14.41q-32.64-42.4-65.12-84.91c-.19-.25.21-1,.48-2,21.2,1,42.43,3.63,63.84,3.11,49.91-1.2,98.12-9.84,143.42-31.64,23.87-11.48,45.51-26.23,62.9-46.45,7.12-8.26,6-11.55-3.22-17.31-6-3.74-14-4.14-19.24-10.94,5.84-5.33,11.38-10,16.52-15.13,18.17-18,17.32-22.64-6.38-31.93-26-10.2-53.25-16.07-80.76-20.34-29-4.49-58.24-7.37-87.62-9.38a1369.44,1369.44,0,0,0-176.14-.94c-6,.36-12.07.51-18.67.79,1.82-3.06,4-3.09,6-3.67,51.91-15.68,102-35.78,149.92-61.25,110-58.5,191.68-143.68,241.18-258.45,21-48.76,31.87-99.85,29.16-153.32a203.15,203.15,0,0,0-4.64-35.86c-3.23-13.8-5.69-15.36-19.82-12-7.54,1.79-14.93,4.29-22.32,6.44-2.89-3.8-3-7.49-3.58-11.09-1.6-9.31-3-18.69-5.31-27.82-5.87-23.06-8.51-24.4-30-15.68a208.65,208.65,0,0,0-21.27,10.22c-36.21,19.66-68.3,45.08-99.21,72-60.72,52.91-115,112-166.65,173.68-59.74,71.38-114.07,146.64-160.55,227.43-15.71,27.31-30.7,55-44,83.55-2.31,4.94-4.13,9.31-11.2,8.56-26.34-2.76-62.15-36.6-49.45-70.86,3.09-8.36,6.47-16.63,10.16-24.73,9.7-21.3,13.73-43.82,6.44-65.93-6.54-19.81-3.88-34.73,9-51.41,15.08-19.59,12.51-40.61-2.21-59.57-23.75-30.56-52.12-33.51-80.88-7.52-7.16,6.47-14.31,9.57-23.79,9.75-26.52.5-52,6.79-76.76,15.86-18.84,6.91-37.36,15.36-50.39,31.12-12.11,14.66-25.79,27.43-39.74,40.17-18.89,17.24-21.86,48.32-7.44,69.09,3,4.32,6.36,8.35,11.94,9.63,5.82,1.32,5.55-6.76,10.68-7.41,5.86,11.22,11.53,21.86,17,32.62s5.79,21.13-2.51,30.82a28.92,28.92,0,0,0-3.45,5.26c-5.54,10.26-3.44,16.88,7.07,21.31,3.82,1.61,9.11,1.43,10.71,5.74,5.84,15.8,20,27,23.32,44.29,2.34,12.25,7.7,15.26,20.3,14.77,11.3-.45,21.56-4.56,31.16-10.12,12.26-7.1,24.12-14.9,36.36-22,11.41-6.61,13.51-6.24,20.65,4.14,4.74,6.9,8.48,14.47,12.72,21.71s3,13.52-2.59,20c-10.63,12.31-20.75,25.07-30.78,37.9-25.52,32.66-53.19,63.63-77,97.66-14.74,21.07-11,24.49-37.52,8.17a1314.1,1314.1,0,0,1-116.16-81.1c-22.79-17.66-45.34-28.07-74.92-24.29-17,2.18-33.13,4.28-47.75,13.58s-29.44,18.26-44,27.65c-7.06,4.55-15.31,9.08-18.75,16.48-8,17-22,26.88-36.52,37.2-8,5.7-15,13-23.13,18.86-33.61,24.27-67.06,48.77-100.55,73.21a66.33,66.33,0,0,0-6.14,4.94c-1.9,1.77-4.15,3.88-1.7,6.59,2.06,2.25,5,1.78,7.21.3,2.54-1.72,4.62-4.13,6.89-6.27,3.05-2.87,5.62-6.57,9.17-8.49,23.15-12.6,43.78-28.9,65.48-43.63C811.79,929,848.38,907.3,880,878.68c5.56-5,11.21-5,17.19-1.1a54.43,54.43,0,0,1,7.63,5.54c12.2,11.45,25.66,10.33,39.45,3.9a96.65,96.65,0,0,0,24.63-16.82c5.39-5,10.81-10,16.49-14.61,11.11-9.1,11.5-9.05,22.56.12,4.85,4,9.65,8.11,14.24,12.41q49.41,46.3,98.72,92.72c10.33,9.71,20.51,19.59,32.07,27.87,15,10.7,30.21,10.85,45.49.81,5.25-3.45,10.27-7.29,15.25-11.15,19.13-14.83,35.88-32.28,53.36-48.94,4.33-4.13,7.8-12.29,14.41-10.26,6.38,2,6.11,10.4,6.8,16.47,2.39,20.91,14.92,34.09,32.4,43.57a110,110,0,0,0,15.8,7c30.44,10.73,58,27.14,85.1,44.11,18.8,11.76,35.69,25.8,47.94,44.82,5.68,8.83,7.85,16.82-.2,25.5-3.52,3.79-6,8.58-8.84,13-27.22,42.61-45.53,88.56-52.09,138.91-.88,6.76-2.24,14.18,4.71,18.6,5.7,3.62,11.06.25,16-3a21.7,21.7,0,0,1,2.69-1.64c5.51-2.56,8.36,0,8,5.32-.39,6.24-1.86,12.41-2.93,18.6-4.67,26.88-12.4,53.25-14.55,80.51-1.6,20.33-4.34,40.8-.87,61.21,3.39,19.89,14.65,28.91,34.86,28.85a111.92,111.92,0,0,0,28-3.91c41.35-10.79,81-25.79,117.85-47.68,10.84-6.44,21.59-13,32.64-19.06,9.49-5.2,12.08-4.48,17.76,4.9a223.71,223.71,0,0,1,10.82,21c13,27.7,33.4,48,60.61,61.69q44.28,22.34,88.37,45c44.89,23.05,89.58,46.3,123.92,84.94a84.36,84.36,0,0,0,29.09,21.26c15.65,6.83,29.92,15.19,39.69,29.79,3.51,5.24,8.61,6,13.73,2.62C2023.67,1658.47,2021,1654.05,2019.25,1650.43Zm-492-869.91c24.86-3.74,47.27-6.09,71.63-6.19C1570.77,797.54,1553.55,804.67,1527.25,780.52ZM1634.69,772c33-1.24,65.89.21,98.82.73,3,0,6.25-.59,8.79,2-1.73,4.18-6,3.87-9.19,4.83-25.08,7.44-50.23,14.65-75.37,21.87-3,.87-6.18,2.08-9.19,1.88-22.3-1.5-44.48-4.34-68.47-4.41C1594.78,783,1617.21,772.62,1634.69,772Zm-16.31-17.21c11.09,1.08,22.19,2,33.27,3.32,10.87,1.24,21.72,2.8,32.58,4.22-21.79-1.41-45,7.92-66.1-3.84C1618.22,757.22,1618.3,756,1618.38,754.76ZM1720.5,819c16.3-.18,32.18,2.33,48.2,3.07,27.21,1.27,54.35,4,81.46,6.67,5.74.56,14.69-.67,15.49,7,.62,5.93-7.77,7.48-12.68,10.11-16.54,8.89-34.47,12.22-53.07,12.4-5.81.06-11.56-.53-16.6-3.89A437.94,437.94,0,0,0,1720.5,819Zm35.43,28.31c-32.2,7.45-63.83,12.24-93-9.55-16-11.94-34.13-20.3-53.77-29.5C1662.82,807.82,1712.12,816.64,1755.93,847.35Zm37.21-30.52c-.52-5.58,4-6.06,6.75-7.61,12.73-7.2,25.63-14.1,38.49-21.08,3.69-2,7.47-4,11.8-3.69,23,1.58,45,7.52,66.82,15.55C1877.12,818.27,1836,823.58,1793.14,816.83Zm-17.83-2c-3.85,2-8.22,1.33-12.39.85q-39-4.59-78-9.27c-1.93-.23-4.22-.23-5-3,2.39-4,7-4,10.74-5.09,21.08-6.24,42.35-11.88,63.33-18.46a85.7,85.7,0,0,1,40.26-3.08c12.15,2,24.4,3.27,36.61,4.87.21,1.14.44,2.28.66,3.42C1812.81,795.05,1794.11,805.06,1775.31,814.87Zm-250.55-66.69c28.58,2.27,57.11-.92,82.39,15.38C1578.8,766.6,1549.33,777.16,1524.76,748.18Zm81.13,84.64c-13.45-8.83-27.2-17.24-41.67-26.37,18.57-3.06,61.27,12.63,79.52,28.92C1630.3,839.22,1618,840.79,1605.89,832.82Zm100,54.67c-16.83-1.13-34.16.17-47.67-15.25-8.45-9.61-19.16-17.24-29.65-26.48,7.58-1.92,14.07-3.39,20.44-5.24,4-1.14,7.24.1,10.25,2.28,16,11.64,32.3,23,45.65,37.83C1706.27,882.16,1707.55,883.86,1705.87,887.49Zm79.92.08c-17.77,1.32-35.59,1.86-53.38,2.72-5.42.26-10.37-.55-14.35-4.82-7.12-7.63-14.41-15.11-21.44-22.46,1.21-4.16,4.16-3.09,6.51-3,18.95.7,37.74-.16,56.12-5.4,3.55-1,7.37-2.49,10.74-.61,13.56,7.56,26.51,16,38.64,28.1C1800.23,886.66,1792.82,887,1785.79,887.57Zm110.93-33.8c-6.89,3.74-13.83,7.44-21,10.59-13,5.68-26.59,9.48-40,14-14.1,4.75-24.26.61-33.91-13.46,26.75-1.68,49.33-8.77,69.55-23.07,6.62-4.67,22.41-.78,27.11,5.54C1900.66,850.23,1899.07,852.5,1896.72,853.77Zm42.35-47.63c8.54,3.31,9.46,6.63,3.4,13.61-7.26,8.35-16.15,14.85-25.07,21.28-4.76,3.43-9.47,3.39-14.7.81-11.58-5.72-23.33-11.09-37.11-17.6,22-6,42.1-11,61.24-19.13C1930.91,803.38,1935.12,804.62,1939.07,806.14Zm1.33-53.36c10.45,3.75,12,7.63,4.12,15.14-23.07,22-25.42,25.93-57.3,12.54-6.17-2.59-12.28-5.36-20.82-9.1,22.81-4.53,42.5-10.94,61.85-18.41A16.6,16.6,0,0,1,1940.4,752.78ZM1856,731.52c21.89,3.6,43.64,7.87,67.32,15.44-43.48,20.84-86.41,22.23-131.12,15.4,18.71-10,37.36-20.08,56.17-29.9A13,13,0,0,1,1856,731.52Zm-62.88-7.46c13.94,1,27.71,2.44,44.76,4.88-12.7,9.5-24.73,13.45-34.64,20.56-17.33,12.47-35.7,14.67-56.36,11.21-19.51-3.27-39.48-3.77-59.24-5.73-3.38-.33-7.27.43-10.16-2.63,2-4,6.1-3.62,9.33-4.58,20.55-6.08,41.36-11.32,61.7-18A114,114,0,0,1,1793.1,724.06Zm-162-4.13c30.32-1.7,60.63-.76,90.94-.08,8.84.2,17.66.75,28,1.2-3.78,4.05-8,4-11.61,5-20,6-40.45,10.92-60.16,17.86-31,10.94-61.64,3.76-92.43,1.52l-.72-4q15.42-9.18,30.84-18.35C1620.59,720.3,1625.83,720.22,1631.07,719.93ZM1598.62,722c-10.4,12.39-26.22,22.26-37.92,21.64-26.87-1.43-53.69-4.08-80.51-6.23C1518.89,728.77,1557.7,722.72,1598.62,722Zm224.23-140.51c-38.34,31.35-80.69,56.23-125.22,77.63a51,51,0,0,1-27.24,5.35c-11.42-1-23-.07-34.51.08-5.72.07-11.48.75-17.13-1.57-.82-5.19,3.91-5.51,6.51-7.31,22-15.24,43.46-31.15,59.82-52.8,6.3-8.35,13-16.6,16.06-26.8,2-6.56,6.11-9.33,12.39-10.09,40.07-4.87,80.19-7.56,120.47-2.8,1,.12,1.91.8,4.63,2C1834.26,572.58,1828.41,577,1822.85,581.51Zm-84.62-102.23c-1.28.57-2.86.45-6.12.9,4.74-7.38,10.48-11.71,16-16.14q74.65-60.48,145-125.88a112.29,112.29,0,0,1,31.44-20.69c8.91-3.93,11.83-2.42,11.12,7.4-1.92,26.49-9.08,51.62-22.45,74.7-7.69,13.25-17.73,24.66-28.66,35.38-5.1,5-10.72,8.18-17.8,9.06C1822.19,449.56,1779.25,460.91,1738.23,479.28Zm93.21-13.56a69,69,0,0,1-6.65,14.16,217.32,217.32,0,0,1-61.59,66.24c-7.78,5.47-16.09,9.81-25.84,10.59-41.61,3.37-81.32,14.54-120.24,29.08-2.85,1.05-5.69,2.75-12,.5,13-11.5,24.55-21.85,36.23-32.11,9-7.95,18.25-15.71,27.27-23.66,43.29-38.07,95-58.52,150.19-71.41a42,42,0,0,1,6.18-1.06C1830.52,457.65,1833.1,460.57,1831.44,465.72Zm-5.34-151.78c-5.23,26.74-11.07,53.36-16.07,80.14-1.54,8.23-4.84,14.74-11.18,20q-62.28,51.71-124.51,103.48L1671.9,516c6-13.27,11.91-26.59,18-39.82,17.15-37.13,34.48-74.18,51.48-111.37a57.51,57.51,0,0,1,15.84-21.11c19.8-16.37,39.28-33.13,59-49.65,3.53-3,6.9-6.31,13.13-8.3C1830.18,296,1827.84,305,1826.1,313.94ZM1709,420.24c-15.11,32.83-30.42,65.56-45.35,98.46a63.14,63.14,0,0,1-16.57,22.47c-22.23,19.12-44.07,38.7-66.23,57.89-3.33,2.87-6.09,7.42-11.61,6.65-3.07-3.41-1.33-7.12-.87-10.55,2.64-19.74,5.59-39.42,8.19-59.16a33.59,33.59,0,0,1,7.89-18.38,1726.44,1726.44,0,0,1,144.77-148.33c.31-.28,1-.17,3.21-.48C1724.42,386.51,1716.79,403.4,1709,420.24ZM1604.43,597.3c24.52-9.27,49.09-18.36,74.62-24.44,4.32-1,9.8-4.42,13.2.06,3.82,5-.71,10-3.4,14.22-10.19,16.06-23.33,29.58-37.65,42-13.52,11.71-28.52,21.3-44,30.14-5,2.88-10.26,5.48-16.13,5.86-27.84,1.82-55,7.57-81.92,14.4-1.38.35-3-.08-7.47-.26,10.27-13.86,23.1-21.42,33.3-31.68,7.73-7.78,16.55-14.48,24.62-22C1572.8,613.39,1587.47,603.71,1604.43,597.3Zm328.42-142.62c-21.17,35.19-47.64,66.17-75.95,95.72-5.56,5.79-11.34,7.29-19.53,6.53a531.08,531.08,0,0,0-75.31-2.17c14.33-11.48,26-20.07,36.25-30.45,17-17.38,31.31-36.6,40.41-59.27,2.78-6.92,6.42-11.37,14.2-12.63,27.35-4.43,54.78-7.58,82.18-8.27C1938,449.09,1934.58,451.82,1932.85,454.68Zm46.39-99.24c-7.07,23.13-16.94,45.16-27.5,66.91-5.1,10.48-11.82,16.59-24.42,15.5-10.73-.93-21.59,3.25-33.52.62,2.08-8.2,7.11-11.59,10.68-16,23.29-28.66,35.41-61.56,37.34-98.28.7-13.28,1.27-14.5,14.44-18.79,7-2.27,14-4.4,21.14-6.24,11.31-2.93,13.53-1.11,12.4,10.27C1988.24,325.22,1983.84,340.39,1979.24,355.44Zm-30.45-128.71c.48-1.5,1.12-2.94,1.59-4.44,5.11-16.45,13.66-23.09,31-25,5.95-.65,9.07,1.55,10.11,7,4.68,24.9,5.8,49.91,2.25,75.06-.81,5.85-3.86,9.46-9.53,11.13-7.55,2.2-15,4.8-22.54,6.9-19.77,5.46-38.85,12.52-57.39,22.67C1922.36,290.38,1938.19,259.81,1948.79,226.73Zm-5.1-7.22a89.17,89.17,0,0,1-3.86,13.55c-19.8,58.1-54,106.19-100.88,145.57q-9,7.53-18,15c-.26.21-1-.1-2.92-.35-.19-9.18,1.84-18.25,3.63-27.26,5-25.18,10.57-50.26,15.31-75.48,1.64-8.74,5-15.41,12.25-20.88A623.93,623.93,0,0,1,1930,217.94a56.14,56.14,0,0,1,7.09-3.39C1941.6,212.91,1944.58,214.32,1943.69,219.51Zm-43.18-52.11c3-10.52,20.35-22.62,31-21.67,3.83.35,5.35,2.94,6.37,6,4.79,13.92,7,28.35,8.29,42.95a8.86,8.86,0,0,1-4.88,9.14c-20.39,10.2-40,21.83-62.36,35.28,3.31-9.94,5.35-16.81,7.88-23.5C1892.73,199.89,1895.93,183.45,1900.51,167.4Zm-103.42,67.35a553.32,553.32,0,0,1,94.55-71.5c2.42,13.66-3.73,22.45-5.1,32a60.57,60.57,0,0,1-1.58,6.09c-7.24,29.56-21,53.67-49.4,68.88-14.52,7.78-26.35,20.57-39.44,31-2,1.58-4,4.05-6.86,2.92-3.62-1.46-3.24-5.11-2.88-8.12,2.09-17.69,4.32-35.37,6.58-53A13.56,13.56,0,0,1,1797.09,234.75Zm-69.5,65.79c13.44-12.43,26-25.83,39-38.64,4.77-4.67,10-8.87,17.88-15.82-2.4,23.6-1.8,43.74-5.28,63.66-.77,4.38-3.32,7.52-6.5,10.41q-44.12,40.14-88.22,80.27c-.6.55-1.91.31-3,.46-2-3.8.33-7,1.5-10.29,5-14.31,11-28.34,15.11-42.91C1703.4,328.87,1713.39,313.68,1727.59,300.54ZM1563.91,494.48c36.78-49.23,75.3-97,116.16-142.85,3.09-3.47,5.8-7.44,10.88-9.73,2.59,3.62.4,6.91-.71,10-6.5,18.28-13.19,36.5-19.73,54.78a56.5,56.5,0,0,1-13.09,21.18c-33.51,34-66,69-96.48,105.84-1.27,1.54-2.43,3.48-5.89,2.87C1552.88,521.61,1553.79,508.05,1563.91,494.48ZM1545.77,523c1.1,15.38.39,29.31-10.18,42.31a1455.12,1455.12,0,0,0-92.16,127.3A1052.66,1052.66,0,0,1,1545.77,523ZM1436.1,723.05c37.09-65.9,81.46-125.06,128.76-182.15l2.94,1.43q-4.66,35.73-9.35,71.44c-.58,4.41-3.13,7.66-6.38,10.5q-56.16,49.26-112.35,98.51C1439.41,723,1438.72,722.87,1436.1,723.05Zm7.17,10.43c5.3-11.56,13.49-15.86,19.41-22.11,13-13.67,28.92-21,47.34-25.87,42.53-11.37,85.59-15.34,129.34-14.64,7.8.13,15.62,0,23.44-.06l1,3.1A860.8,860.8,0,0,1,1443.27,733.48Zm58,31.89c-9.79-6.52-20.06-12.33-31.43-19.26,29.55-7.39,49.07,9.39,73.07,22.82C1526.22,774.46,1513.48,773.53,1501.24,765.37Zm109.28,566.7a116.06,116.06,0,0,1-11.86,4.07c-18.88,4.74-37,11.31-53.93,21-5,2.87-11.78,8.49-16.8,2.91-4.44-4.94,1.66-10.65,4.69-15.22,7.31-11.09,11.69-23.33,15.64-35.84,4.38-13.92,5.85-15,18.2-8.67,7,3.58,11.44,2.51,16.2-3.28,4.25-5.17,7.31-11.46,14.8-16.34,8.83,12.56,13.18,26,18.53,39C1618.46,1325.72,1616.56,1329.85,1610.52,1332.07Z" transform="translate(-686.89 -136.94)"/></svg>