<svg id="Layer_7" data-name="Layer 7" xmlns="http://www.w3.org/2000/svg" viewBox="0 0 1852 1852"><defs><style>.cls-1{fill:#acc7e2;}.cls-2{fill:#fff;}.cls-3{fill:#fde1ff;}</style></defs><circle class="cls-1" cx="926" cy="926" r="926"/><circle class="cls-2" cx="928.77" cy="927.38" r="815.27"/><path class="cls-3" d="M1411.31,1587.14c-4.86-10.24-10.08-20.32-15-30.57-2.49-5.28-5.74-9.72-10.7-12.89-11.09-7.1-16.51-17.24-17.14-30.43-.39-8.1-2.14-16.11-6.34-23.28-6-10.16-11.58-12.84-23.08-11-4,.63-8,1.55-12,2.19-9.72,1.63-18.54-.08-26-7-5.62-5.27-11.59-10.19-16.91-15.73a367.77,367.77,0,0,0-84.18-65.36c-4.43-2.51-7.82-5.76-9.13-10.81-.62-2.42-.86-5,.87-7,2-2.18,4.41-1,6.73-.19,4.94,1.79,9.81,4.15,14.92,5.07,21.13,3.82,42.63,5.36,63.62,10.22,4.3,1,9.35,1.36,10.81-4.69,1.28-5.32-.48-9.7-5.51-12.22a34,34,0,0,0-8-2.86,29.86,29.86,0,0,1-17.45-10.42c-6.89-8.59-15.82-13.74-25.84-17.44a38.21,38.21,0,0,1-17.92-14c-3.09-4.26-6.33-8.44-9.73-12.44-5.69-6.7-12.41-11.11-21.7-11.9-10.38-.87-12.82-3.77-11.94-14.14a71.6,71.6,0,0,0-4.23-31c-3.35-9.21-1.43-11.12,8-9.12,5.09,1.09,10,3.56,15.45,1.59,6.76-2.43,8.21-6.22,3.37-11.63a238,238,0,0,0-21.24-21.71c-10-8.77-15.19-19.53-17-32.53-2.38-16.86-5.25-33.64-8.15-50.41-6.18-35.68-25-60.56-60.11-72.83-15.22-5.32-30.12-12-43.46-21.56-11.54-8.24-20.36-18.46-25.48-31.74-3.51-9.07-7.09-18.12-10.46-27.25-.89-2.44-3.09-5-.42-8,2.48-.49,4.59.85,6.82,1.66,17.18,6.23,33.53,14.38,50.32,21.5a92.78,92.78,0,0,1,30.26,20c32,32.5,68.87,59.09,104,87.84,7.39,6,15.75,10.17,25.2,11.31,11.58,1.39,22.1,4.82,31,12.54a13.07,13.07,0,0,0,10,3.52c2.47-.24,5-.84,6.27-3.14,1.55-2.65-.45-4.58-2-6.39-2.89-3.39-5.9-6.69-8.85-10-1.39-1.55-2.6-3.31-1.23-5.41,1.55-2.26,4-2.78,6.47-2.39,4.64.7,6.41,4.69,8.38,8.14,5.46,9.52,14,13.07,24.45,13,8.49,0,10.81-3.5,5.8-10.45-13.13-18.11-30.39-30-53.29-32.06-9.27-.84-18.59-1.32-27.9-1.92a27.36,27.36,0,0,1-20.75-11.13q-25.2-32.73-50.29-65.57c-.14-.19.17-.77.37-1.54,16.38.77,32.77,2.8,49.31,2.4,38.54-.93,75.77-7.6,110.75-24.44,18.44-8.86,35.15-20.25,48.58-35.87,5.5-6.38,4.63-8.92-2.49-13.37-4.63-2.88-10.81-3.19-14.86-8.44,4.51-4.12,8.79-7.73,12.76-11.69,14-13.9,13.38-17.48-4.92-24.66-20.08-7.87-41.13-12.41-62.37-15.7-22.4-3.47-45-5.7-67.67-7.25a1057.27,1057.27,0,0,0-136-.72c-4.63.27-9.32.39-14.41.61,1.4-2.37,3.09-2.39,4.63-2.84a640.25,640.25,0,0,0,115.78-47.3c85-45.18,148-111,186.25-199.59,16.22-37.66,24.62-77.11,22.52-118.41a157.59,157.59,0,0,0-3.58-27.69c-2.5-10.66-4.4-11.86-15.31-9.27-5.82,1.39-11.53,3.32-17.23,5-2.24-2.94-2.32-5.79-2.77-8.57-1.23-7.19-2.32-14.43-4.1-21.48-4.53-17.81-6.57-18.84-23.17-12.11a160.74,160.74,0,0,0-16.42,7.89c-28,15.18-52.75,34.82-76.62,55.61-46.89,40.86-88.81,86.49-128.7,134.12C1065,674.87,1023,733,987.14,795.38c-12.13,21.09-23.7,42.47-34,64.52-1.78,3.82-3.18,7.19-8.64,6.61-20.35-2.13-48-28.26-38.19-54.72q3.57-9.69,7.84-19.1c7.49-16.45,10.61-33.84,5-50.91-5-15.3-3-26.83,7-39.71,11.64-15.13,9.66-31.36-1.71-46-18.34-23.6-40.25-25.88-62.46-5.81-5.53,5-11,7.39-18.37,7.53-20.48.39-40.16,5.25-59.28,12.25-14.55,5.34-28.85,11.86-38.92,24-9.35,11.32-19.91,21.19-30.69,31-14.58,13.32-16.88,37.32-5.74,53.36,2.32,3.34,4.91,6.45,9.22,7.44,4.49,1,4.29-5.22,8.25-5.73,4.52,8.67,8.9,16.89,13.13,25.2s4.47,16.31-1.94,23.8a21.9,21.9,0,0,0-2.67,4.06c-4.28,7.92-2.65,13,5.46,16.46,3,1.24,7,1.1,8.27,4.43,4.51,12.2,15.45,20.85,18,34.2,1.81,9.46,6,11.79,15.68,11.41,8.73-.35,16.65-3.52,24.06-7.82,9.47-5.48,18.63-11.5,28.08-17,8.81-5.1,10.44-4.81,15.95,3.2,3.66,5.33,6.55,11.18,9.82,16.77s2.32,10.44-2,15.44c-8.21,9.51-16,19.36-23.77,29.27C814.77,964.81,793.41,988.73,775,1015c-11.38,16.27-8.5,18.91-29,6.31a1016.35,1016.35,0,0,1-89.7-62.63c-17.6-13.64-35-21.68-57.86-18.76-13.13,1.68-25.59,3.31-36.88,10.49s-22.73,14.1-34,21.35c-5.45,3.52-11.82,7-14.48,12.73-6.17,13.13-17,20.76-28.2,28.73-6.18,4.4-11.58,10-17.86,14.56-26,18.74-51.79,37.67-77.65,56.54a52.8,52.8,0,0,0-4.75,3.81c-1.46,1.37-3.2,3-1.31,5.09,1.59,1.74,3.86,1.38,5.57.24a44.9,44.9,0,0,0,5.32-4.85c2.36-2.21,4.34-5.07,7.08-6.55,17.88-9.73,33.81-22.32,50.57-33.7,26.92-18.37,55.18-35.13,79.6-57.23,4.29-3.86,8.65-3.86,13.27-.85a41.26,41.26,0,0,1,5.9,4.28c9.42,8.84,19.81,8,30.46,3a74.49,74.49,0,0,0,19-13c4.16-3.86,8.35-7.72,12.74-11.28,8.58-7,8.88-7,17.42.09,3.74,3.09,7.45,6.26,11,9.58q38.14,35.76,76.23,71.61c8,7.5,15.84,15.13,24.77,21.52,11.58,8.27,23.33,8.38,35.13.63,4.06-2.67,7.93-5.63,11.78-8.61,14.77-11.46,27.71-24.93,41.21-37.8,3.34-3.19,6-9.49,11.12-7.92,4.93,1.54,4.72,8,5.26,12.72,1.84,16.15,11.52,26.32,25,33.65a86.19,86.19,0,0,0,12.2,5.4c23.51,8.29,44.79,21,65.72,34.07,14.52,9.08,27.56,19.92,37,34.61,4.39,6.82,6.06,13-.15,19.69-2.72,2.93-4.64,6.63-6.83,10-21,32.91-35.16,68.39-40.23,107.28-.68,5.22-1.73,11,3.64,14.36,4.4,2.8,8.54.19,12.36-2.32a16.81,16.81,0,0,1,2.07-1.26c4.26-2,6.46,0,6.18,4.11-.3,4.81-1.43,9.58-2.26,14.36-3.61,20.76-9.58,41.12-11.24,62.18-1.23,15.7-3.35,31.5-.67,47.27,2.62,15.36,11.31,22.32,26.92,22.28a86.89,86.89,0,0,0,21.63-3c31.93-8.34,62.55-19.92,91-36.83,8.37-5,16.67-10,25.2-14.72,7.33-4,9.33-3.46,13.72,3.79a170,170,0,0,1,8.35,16.22c10,21.39,25.8,37.06,46.81,47.64q34.2,17.25,68.25,34.75c34.66,17.8,69.18,35.76,95.7,65.6a65.13,65.13,0,0,0,22.46,16.41c12.09,5.28,23.11,11.73,30.65,23,2.71,4,6.65,4.63,10.61,2C1414.72,1593.34,1412.66,1589.93,1411.31,1587.14Zm-380-671.81c19.2-2.88,36.5-4.7,55.31-4.78-21.7,17.93-35,23.43-55.31,4.78Zm83-6.58c25.48-1,50.88.17,76.31.57,2.32,0,4.83-.46,6.79,1.54-1.33,3.23-4.63,3-7.09,3.73-19.37,5.75-38.8,11.32-58.21,16.89-2.32.67-4.77,1.61-7.1,1.45-17.22-1.15-34.35-3.35-52.87-3.4C1083.51,917.25,1100.83,909.23,1114.33,908.75Zm-12.6-13.29c8.57.84,17.14,1.55,25.7,2.57,8.39,1,16.77,2.16,25.16,3.26-16.83-1.09-34.76,6.11-51-3,.07-1,.13-1.92.19-2.88Zm78.87,49.59c12.58-.14,24.85,1.8,37.22,2.37,21,1,42,3.09,62.91,5.15,4.43.44,11.34-.51,12,5.41.48,4.58-6,5.78-9.79,7.81-12.77,6.86-26.62,9.43-41,9.57-4.48,0-8.92-.41-12.81-3A338.74,338.74,0,0,0,1180.6,945.05ZM1208,966.91c-24.87,5.76-49.3,9.46-71.82-7.37-12.36-9.22-26.36-15.68-41.53-22.78,41.44-.34,79.52,6.47,113.35,30.18Zm28.73-23.57c-.4-4.3,3.09-4.68,5.22-5.87,9.83-5.56,19.79-10.89,29.72-16.28,2.85-1.55,5.77-3.09,9.11-2.85,17.77,1.22,34.76,5.81,51.61,12-30.8,14.14-62.56,18.24-95.66,13Zm-13.77-1.54c-3,1.54-6.34,1-9.56.66q-30.12-3.56-60.24-7.16c-1.49-.18-3.26-.18-3.86-2.32,1.84-3.09,5.4-3.09,8.29-3.93,16.28-4.82,32.71-9.17,48.91-14.26a66.35,66.35,0,0,1,31.09-2.38c9.38,1.55,18.84,2.53,28.27,3.77l.51,2.64c-14.45,7.74-28.89,15.47-43.41,23Zm-193.49-51.5c22.07,1.75,44.11-.71,63.63,11.87-21.89,2.41-44.65,10.57-63.63-11.81Zm62.66,65.36c-10.39-6.82-21-13.31-32.18-20.36,14.34-2.37,47.31,9.75,61.41,22.33-10.38,3-19.88,4.25-29.23-1.91Zm77.22,42.22c-13-.87-26.38.13-36.81-11.78-6.53-7.42-14.8-13.31-22.9-20.44,5.86-1.49,10.87-2.62,15.79-4,3.09-.88,5.59.08,7.91,1.76,12.36,9,25,17.76,35.26,29.21,1,1.25,2,2.56.74,5.36Zm61.72.06c-13.72,1-27.48,1.44-41.22,2.1-4.19.2-8-.42-11.08-3.72-5.5-5.89-11.13-11.67-16.56-17.34.94-3.22,3.21-2.39,5-2.32,14.63.54,29.14-.12,43.34-4.17,2.74-.77,5.69-1.92,8.29-.47,10.47,5.84,20.47,12.35,29.84,21.7-6.5,3.58-12.22,3.85-17.65,4.29Zm85.67-26.1c-5.32,2.89-10.68,5.75-16.22,8.18-10,4.39-20.53,7.32-30.89,10.81-10.89,3.67-18.73.47-26.18-10.39,20.65-1.3,38.09-6.78,53.71-17.82,5.11-3.61,17.3-.6,20.93,4.28,1.68,2.27.45,4-1.36,5Zm32.71-36.78c6.59,2.55,7.3,5.12,2.62,10.51-5.6,6.45-12.47,11.47-19.36,16.43-3.67,2.65-7.31,2.62-11.35.63-8.94-4.42-18-8.57-28.66-13.59,17-4.64,32.51-8.5,47.29-14.78,3.14-1.27,6.39-.31,9.44.86Zm1-41.21c8.07,2.9,9.27,5.89,3.19,11.69-17.82,17-19.64,20-44.26,9.69-4.76-2-9.48-4.14-16.07-7A282.1,282.1,0,0,0,1341.05,894a12.84,12.84,0,0,1,9.37-.07Zm-65.19-16.36c16.9,2.78,33.7,6.08,52,11.93-33.58,16.09-66.73,17.16-101.26,11.89,14.45-7.72,28.85-15.51,43.38-23.09A10.09,10.09,0,0,1,1285.24,877.49Zm-48.56-5.76c10.76.77,21.4,1.89,34.57,3.77-9.81,7.34-19.1,10.39-26.76,15.88-13.38,9.63-27.57,11.33-43.52,8.66-15.07-2.53-30.49-2.92-45.75-4.43-2.61-.25-5.61.33-7.85-2,1.55-3.09,4.71-2.8,7.21-3.54,15.87-4.69,31.94-8.74,47.65-13.9a88,88,0,0,1,34.43-4.41Zm-125.11-3.19c23.42-1.31,46.82-.58,70.23-.06,6.83.16,13.64.58,21.63.93-2.92,3.13-6.18,3.09-9,3.86-15.45,4.63-31.24,8.43-46.46,13.79-23.94,8.45-47.6,2.91-71.38,1.18l-.56-3.09L1099.88,871c3.56-2.15,7.61-2.21,11.65-2.44Zm-25.1,1.6c-8,9.57-20.25,17.19-29.28,16.71-20.75-1.1-41.46-3.15-62.18-4.81C1024.9,875.37,1054.87,870.7,1086.47,870.14Zm173.17-108.51c-29.61,24.21-62.32,43.42-96.7,60a39.31,39.31,0,0,1-21,4.13c-8.82-.77-17.76-.05-26.65.06-4.42.06-8.87.58-13.23-1.21-.63-4,3-4.25,5-5.64,17-11.77,33.56-24.06,46.19-40.78,4.87-6.45,10-12.82,12.41-20.7,1.54-5.06,4.71-7.2,9.56-7.79,31-3.76,61.93-5.84,93-2.16.77.09,1.47.62,3.57,1.54-3.37,5.72-7.89,9.13-12.18,12.62Zm-65.35-79c-1,.44-2.21.35-4.73.7,3.66-5.7,8.1-9,12.36-12.47q57.64-46.71,112-97.21a86.59,86.59,0,0,1,24.28-16c6.88-3,9.13-1.87,8.59,5.72a133,133,0,0,1-17.34,57.68c-5.94,10.24-13.69,19-22.14,27.33a23.09,23.09,0,0,1-13.74,7c-34.42,4.31-67.58,13.07-99.26,27.26Zm72-10.47a52.92,52.92,0,0,1-5.13,10.93,168,168,0,0,1-47.57,51.16c-6,4.22-12.42,7.58-20,8.18-32.14,2.6-62.8,11.23-92.86,22.46-2.2.81-4.39,2.12-9.27.38,10-8.88,19-16.87,28-24.8,7-6.14,14.1-12.13,21.06-18.27,33.43-29.4,73.37-45.19,116-55.14a30.89,30.89,0,0,1,4.77-.82c4.27-.3,6.26,2,5,5.94ZM1262.15,555c-4,20.65-8.55,41.2-12.41,61.88-1.19,6.36-3.74,11.39-8.64,15.45Q1193,672.26,1145,712.24l-1.89-1.19c4.64-10.24,9.2-20.53,13.91-30.75,13.24-28.67,26.62-57.28,39.75-86A44.57,44.57,0,0,1,1209,578c15.3-12.64,30.34-25.58,45.57-38.34,2.72-2.32,5.33-4.87,10.14-6.41.64,7.92-1.17,14.87-2.51,21.77Zm-90.43,82.1c-11.67,25.36-23.5,50.63-35,76a48.64,48.64,0,0,1-12.79,17.35c-17.17,14.77-34,29.89-51.15,44.71-2.57,2.22-4.7,5.73-9,5.13-2.37-2.63-1-5.49-.67-8.14,2-15.25,4.32-30.45,6.33-45.69a25.86,25.86,0,0,1,6.09-14.19,1332.73,1332.73,0,0,1,111.8-114.55c.24-.22.77-.14,2.48-.38C1183.62,611.05,1177.73,624.1,1171.72,637.1ZM1091,773.84c18.94-7.16,37.91-14.18,57.63-18.87,3.33-.78,7.56-3.42,10.19,0,3,3.86-.55,7.72-2.63,11-7.86,12.41-18,22.85-29.07,32.44-10.44,9-22,16.45-34,23.27-3.86,2.23-7.92,4.24-12.46,4.53-21.5,1.41-42.47,5.85-63.26,11.12-1.07.27-2.32-.06-5.77-.2,7.93-10.7,17.84-16.54,25.72-24.47,6-6,12.78-11.18,19-17A105.75,105.75,0,0,1,1091,773.84ZM1344.59,663.7c-16.35,27.18-36.79,51.1-58.66,73.92-4.29,4.47-8.75,5.63-15.08,5a410.69,410.69,0,0,0-58.16-1.67c11.07-8.87,20.08-15.5,28-23.52,13.13-13.42,24.18-28.26,31.2-45.77,2.15-5.34,5-8.78,11-9.75a471.44,471.44,0,0,1,63.47-6.39c2.23,3.82-.41,5.93-1.74,8.14Zm35.82-76.64c-5.46,17.86-13.08,34.88-21.23,51.67-3.94,8.1-9.13,12.81-18.86,12-8.29-.72-16.68,2.51-25.89.48,1.61-6.33,5.49-8.95,8.25-12.36,18-22.13,27.34-47.54,28.83-75.89.55-10.26,1-11.2,11.16-14.51,5.4-1.76,10.81-3.4,16.32-4.82,8.74-2.27,10.45-.86,9.58,7.93-1.21,12.19-4.6,23.91-8.16,35.53Zm-23.51-99.4c.37-1.16.86-2.27,1.23-3.43,3.94-12.7,10.54-17.83,23.94-19.3,4.59-.51,7,1.19,7.8,5.4a177.4,177.4,0,0,1,1.74,58c-.62,4.52-3,7.3-7.36,8.59-5.83,1.7-11.58,3.71-17.41,5.33a204.6,204.6,0,0,0-44.32,17.51c14-22.91,26.19-46.52,34.38-72.07Zm-3.94-5.57a69,69,0,0,1-3,10.46c-15.29,44.87-41.7,82-77.91,112.42q-6.94,5.82-13.9,11.58c-.2.16-.77-.07-2.25-.27-.15-7.09,1.42-14.09,2.8-21,3.86-19.45,8.16-38.81,11.82-58.29,1.27-6.75,3.86-11.9,9.46-16.13a483.12,483.12,0,0,1,62.39-39.94,42.82,42.82,0,0,1,5.47-2.61c3.48-1.27,5.79-.18,5.1,3.83Zm-33.35-40.25c2.32-8.12,15.72-17.47,23.94-16.73,3,.27,4.13,2.27,4.92,4.63,3.7,10.75,5.41,21.9,6.4,33.17a6.84,6.84,0,0,1-3.76,7.06c-15.75,7.88-30.9,16.86-48.16,27.24,2.55-7.67,4.13-13,6.08-18.14,4.57-12.14,7-24.83,10.58-37.23Zm-79.87,52a428.34,428.34,0,0,1,73-55.21c1.87,10.55-2.88,17.34-3.94,24.71a44.41,44.41,0,0,1-1.22,4.7c-5.59,22.83-16.21,41.45-38.15,53.2-11.21,6-20.35,15.88-30.45,23.94-1.55,1.22-3.09,3.13-5.3,2.25-2.8-1.13-2.5-3.94-2.23-6.27q2.43-20.49,5.09-40.93a10.49,10.49,0,0,1,3.18-6.39Zm-53.67,50.81c10.38-9.6,20.08-19.95,30.12-29.84,3.68-3.6,7.72-6.85,13.81-12.22-1.85,18.23-1.39,33.78-4.08,49.17-.59,3.38-2.56,5.8-5,8l-68.13,62c-.46.42-1.47.24-2.31.35-1.55-2.93.25-5.4,1.15-7.95,3.87-11.05,8.5-21.88,11.67-33.13,4.11-14.53,11.83-26.26,22.79-36.41Zm-126.4,149.78c28.4-38,58.15-74.91,89.7-110.32,2.39-2.68,4.48-5.75,8.41-7.52,2,2.8.31,5.34-.55,7.73-5,14.11-10.19,28.18-15.24,42.3A43.58,43.58,0,0,1,1131.88,643c-25.88,26.25-51,53.28-74.51,81.73-1,1.19-1.87,2.69-4.54,2.22C1051.15,715.39,1051.85,704.92,1059.67,694.44Zm-14,22c.85,11.88.3,22.64-7.86,32.68a1122.51,1122.51,0,0,0-71.17,98.3A812.86,812.86,0,0,1,1045.66,716.46ZM961,871c28.65-50.89,62.91-96.58,99.44-140.67l2.27,1.11q-3.6,27.58-7.22,55.17c-.45,3.4-2.42,5.91-4.93,8.11q-43.37,38-86.76,76.07C963.52,870.91,963,870.81,961,871ZM966.5,879c4.09-8.93,10.42-12.25,15-17.08,10-10.55,22.34-16.22,36.56-20,32.84-8.78,66.1-11.84,99.89-11.3,6,.1,12.06,0,18.1,0l.77,2.4A665.25,665.25,0,0,1,966.5,879Zm44.79,24.62c-7.56-5-15.49-9.52-24.27-14.87,22.82-5.71,37.9,7.25,56.43,17.62-12.89,4.27-22.73,3.56-32.18-2.75Zm84.4,437.65a90.77,90.77,0,0,1-9.16,3.14c-14.58,3.66-28.58,8.73-41.65,16.22-3.86,2.21-9.1,6.55-13,2.25-3.42-3.82,1.29-8.23,3.63-11.76,5.64-8.56,9-18,12.07-27.68,3.39-10.75,4.52-11.58,14.06-6.69,5.41,2.76,8.83,1.94,12.51-2.54,3.28-4,5.65-8.85,11.43-12.61,6.82,9.7,10.18,20.07,14.31,30.11,1.88,4.65.42,7.84-4.25,9.56Z" transform="translate(-86.56 -120.69)"/><path class="cls-1" d="M294.86,1194.82a43.27,43.27,0,0,1-22.71-6.43q-10.65-6.44-10.65-16.48a39.16,39.16,0,0,1,1.81-11.26q1.8-6,3.41-11.25Q279.18,1111.21,290,1078T312,1014.12q11.06-30.75,23.32-61.7t27.53-64.73a123,123,0,0,0-26.13,8.25q-10.85,5-17.69,8.84c-4.56,2.55-7.9,3.82-10.05,3.82q-2,0-5.82-2.82a33,33,0,0,1-6.64-6.43c-1.88-2.41-2.81-4.55-2.81-6.43q11.25-4.83,26.33-10A258.24,258.24,0,0,1,352.75,874a175.5,175.5,0,0,1,35.38-3.62,156.24,156.24,0,0,1,38.59,5,138.67,138.67,0,0,1,36.38,14.88A85.13,85.13,0,0,1,490,914.83q10.24,14.68,10.25,34.37,0,21.31-9.65,36.58a84.84,84.84,0,0,1-25.53,25.73,154.42,154.42,0,0,1-34.37,16.88A236.13,236.13,0,0,1,394,1038q-18.3,3.23-32.77,4.42t-21.7,1.21h-2.42q-11.25,39.8-22.11,79.4T294.86,1194.82Zm45.83-163.61a239.75,239.75,0,0,0,45-7.64,166.25,166.25,0,0,0,40.8-16.68,89.8,89.8,0,0,0,29.35-26.74q11-16.06,11.05-37.38,0-20.1-10.65-32.56a66.92,66.92,0,0,0-27.34-18.9,103.5,103.5,0,0,0-35.17-6.83Q379.29,912.62,366,951T340.69,1031.21Z" transform="translate(-86.56 -120.69)"/><path class="cls-1" d="M495.87,1171.91q-17.7,0-26.54-10.45t-8.84-25.33q0-9.24,3.22-23.32a228,228,0,0,1,9-29.54,213.64,213.64,0,0,1,13.47-29.15,97.14,97.14,0,0,1,16.48-22.31q8.83-8.64,17.69-8.64a12.78,12.78,0,0,1,8.44,3q3.61,3,3.62,8.65,0,5.22-6.23,15.67t-14.48,24.12A226.38,226.38,0,0,0,497.27,1103Q491,1117.64,491,1130.9q0,12.87,4.62,17.09t13.47,4.22q13.67,0,29.75-13.67t33.37-47.84l6,6.44q-14.09,35.37-35.78,55.07T495.87,1171.91Zm47.43-181.3a26,26,0,0,1-13.87-3.82q-6.24-3.82-6.23-11.86,0-9.64,10.45-16.48a39.12,39.12,0,0,1,21.71-6.84,22.3,22.3,0,0,1,12.26,3.22q5,3.23,5,11.66t-9.25,16.28Q554.15,990.6,543.3,990.61Z" transform="translate(-86.56 -120.69)"/><path class="cls-1" d="M583.9,1183.57a6.05,6.05,0,0,1-5.43-2.82,9.88,9.88,0,0,1-1.81-5.22q0-5.64,8.44-17.89t22.11-28.34q13.66-16.08,29.35-33-2.82-19.69-6-30.15t-12.06-10.45q-8.85,0-16.48,9a133.8,133.8,0,0,0-14.88,22.31q-7.23,13.26-15.27,26.13L565,1102q5.63-10.05,10.66-21.51a197.2,197.2,0,0,1,11.25-21.91,56,56,0,0,1,15.48-17.08q9.24-6.63,23.32-6.63,16.06,0,24.32,9.24T662.69,1069q18.09-18.09,33-30.35t20.51-12.27q2.4,0,6.83,2.42a14,14,0,0,1,6.43,8q-5.22,0-15.07,7a226.32,226.32,0,0,0-22.51,18.9q-12.68,11.85-25.93,26.73a151.84,151.84,0,0,1,2.21,15.68q1,10,3,20.7a56.2,56.2,0,0,0,6.23,17.89q4.23,7.23,11.46,7.23,6.82,0,14.87-6a94.74,94.74,0,0,0,15.88-15.47,208.06,208.06,0,0,0,14.48-19.7,168.42,168.42,0,0,0,10.65-18.69l6.43,6a158.3,158.3,0,0,1-18.69,35,121.84,121.84,0,0,1-26.33,27.74q-14.48,10.85-29.75,10.85-12.47,0-19.7-7.43a48.79,48.79,0,0,1-11-18.7,145.57,145.57,0,0,1-5.83-23.31q-16.1,18.09-29.15,34T590.73,1180A8.43,8.43,0,0,1,583.9,1183.57Z" transform="translate(-86.56 -120.69)"/><path class="cls-1" d="M766.81,1171.91q-17.7,0-26.54-10.45t-8.84-25.33q0-9.24,3.22-23.32a228,228,0,0,1,9-29.54,213.64,213.64,0,0,1,13.47-29.15,97.44,97.44,0,0,1,16.48-22.31q8.83-8.64,17.69-8.64a12.78,12.78,0,0,1,8.44,3q3.62,3,3.62,8.65,0,5.22-6.23,15.67t-14.48,24.12A226.38,226.38,0,0,0,768.21,1103Q762,1117.64,762,1130.9q0,12.87,4.62,17.09t13.47,4.22q13.66,0,29.75-13.67t33.37-47.84l6,6.44q-14.07,35.37-35.77,55.07T766.81,1171.91Zm47.43-181.3a26,26,0,0,1-13.87-3.82q-6.24-3.82-6.23-11.86,0-9.64,10.45-16.48a39.12,39.12,0,0,1,21.71-6.84,22.3,22.3,0,0,1,12.26,3.22q5,3.23,5,11.66t-9.25,16.28Q825.08,990.6,814.24,990.61Z" transform="translate(-86.56 -120.69)"/><path class="cls-1" d="M879.36,1177.54q-25.73,0-39.6-13.87t-13.87-34.78q0-17.69,9.05-37.58a152.71,152.71,0,0,1,24.32-37.39A136.72,136.72,0,0,1,893,1025.58q18.48-10.86,37-10.85a39.43,39.43,0,0,1,19.9,5.42q9.45,5.43,9.45,21.51a50.44,50.44,0,0,1-8.85,28.54,90.55,90.55,0,0,1-23.71,23.72A143.68,143.68,0,0,1,894,1111a151.3,151.3,0,0,1-36,8.64,24.81,24.81,0,0,0-.6,3.42,57.3,57.3,0,0,0-.2,5.82,69.44,69.44,0,0,0,.6,7,32.55,32.55,0,0,0,3.42,10.65,24.29,24.29,0,0,0,9.25,9.65q6.42,4,17.68,4,16.89,0,34-9.45a136,136,0,0,0,32.16-25.12,150.41,150.41,0,0,0,25.13-35l8,6.44a151.41,151.41,0,0,1-27.94,42.21,130.16,130.16,0,0,1-37.79,28.14A96.28,96.28,0,0,1,879.36,1177.54Zm-16.88-72.77q10.44-1.2,23.31-7.23a129.52,129.52,0,0,0,24.73-15.28A92.38,92.38,0,0,0,930,1062q7.63-11.06,7.64-22.31,0-4.43-1.61-6t-5.22-1.61q-9.26,0-19.3,6.64a104.59,104.59,0,0,0-19.7,17.28,145.34,145.34,0,0,0-17.28,23.52A143.49,143.49,0,0,0,862.48,1104.77Z" transform="translate(-86.56 -120.69)"/><path class="cls-1" d="M1151.11,1194.82a92,92,0,0,1-26.74-3.82q-12.66-3.82-21.91-16.28,1.21-9.65,5.83-28.14t11.46-42q6.82-23.5,14.47-48.44t15.08-47.63q7.42-22.71,13.26-39.8t8.65-24.73q1.2-3.21,4-9.64a94.06,94.06,0,0,1,7.24-13.27,47.36,47.36,0,0,1,10.25-11.46,20,20,0,0,1,12.67-4.62q6.82,0,15.27,5.63-12.47,28.14-25.12,62.51t-24.12,70.75q-11.46,36.39-20.91,70.75T1135,1177.54a38.47,38.47,0,0,0,9,1.81,108.09,108.09,0,0,0,11.06.6,104.4,104.4,0,0,0,49.84-12.66,170.16,170.16,0,0,0,43.62-33.77,242.46,242.46,0,0,0,34.77-47.44,253.66,253.66,0,0,0,22.92-54.07q8-27.74,8-53.06,0-32.57-11.06-52.86t-30.35-29.75q-19.29-9.45-44.22-9.45-26.13,0-47,9.45t-32.77,25.73A61.56,61.56,0,0,0,1137,959.25a59.47,59.47,0,0,0,.8,9.45,43.08,43.08,0,0,0,2.81,9.85q-17.28,0-24.72-7.44a24.87,24.87,0,0,1-7.44-18.29q0-14.07,10.25-28.54t28.55-26.74a160.84,160.84,0,0,1,42.41-19.69,176.5,176.5,0,0,1,52.26-7.44q39.39,0,63.11,15.07a86.7,86.7,0,0,1,34.37,40.61q10.65,25.53,10.65,56.88a198.56,198.56,0,0,1-11,66.13,221,221,0,0,1-30.55,58.09,230.43,230.43,0,0,1-45,46.23,210.54,210.54,0,0,1-54.27,30.55A163.38,163.38,0,0,1,1151.11,1194.82Z" transform="translate(-86.56 -120.69)"/><path class="cls-1" d="M1378.24,1171.91q-13.68,0-22.31-12.66a50.43,50.43,0,0,1-8.65-29.15q0-11.25,3.62-26.53a207,207,0,0,1,9.45-29.75,142.87,142.87,0,0,1,12.06-24.12q6.22-9.65,11.46-9.65,2.81,0,8.64,3a41.37,41.37,0,0,1,10.25,7.43q-4.42,6.43-10.65,19.7a230.26,230.26,0,0,0-11.06,28.54q-4.82,15.29-4.82,27.74c0,1.08.2,3.62.6,7.64a34.86,34.86,0,0,0,3,11.26q2.4,5.22,8.44,5.22,6.82,0,14.67-7.43a124.24,124.24,0,0,0,16.08-19.3q8.24-11.85,16.08-25.53t14.07-26.53q6.22-12.86,10.25-21.71a64.62,64.62,0,0,1,9.45,2,42.58,42.58,0,0,1,10.25,4.22,8.21,8.21,0,0,1,4.42,7.44q0,1.2-3.82,9.85t-8.84,20.7a255.41,255.41,0,0,0-8.84,24.73q-3.84,12.66-3.82,22.31a20.89,20.89,0,0,0,2.21,9.85q2.21,4.21,8.64,4.22,8.45,0,20.1-7.64t24.12-22.11a156.54,156.54,0,0,0,22.11-34.57l6,4.82a152.77,152.77,0,0,1-22.91,39q-14.08,17.3-30.15,27.14t-31.36,9.85q-11.67,0-17.49-5.43a27.07,27.07,0,0,1-7.84-14.07,96.49,96.49,0,0,1-2.41-17.49v-8a249.84,249.84,0,0,1-14.87,21.11,94.18,94.18,0,0,1-17.09,17.08Q1388.29,1171.91,1378.24,1171.91Z" transform="translate(-86.56 -120.69)"/><path class="cls-1" d="M1572,1180.35q-20.1,0-32.36-8.24a46.1,46.1,0,0,1-17.49-20.9,67.5,67.5,0,0,1-5.22-25.93q0-11.65,3.21-18.09a22.8,22.8,0,0,1,8-9.45,52.46,52.46,0,0,1,9-4.62,17.84,17.84,0,0,0,6.23-3.62,292.89,292.89,0,0,0,20.7-24.32,155.44,155.44,0,0,0,18.29-30.76v-4q0-16.07,5.43-22.71t12.66-6.63c3.22,0,5.56.8,7,2.41a10,10,0,0,1,2.61,5.63,19.59,19.59,0,0,1-1,5.63,30.4,30.4,0,0,0-1,8.84q0,12.06,5.83,27.54t11.66,32.76a110.22,110.22,0,0,1,5.83,35.38q0,4.82-.41,8.84a66.76,66.76,0,0,1-1.2,7.64q12.45-3.21,24.52-13.87t22.91-31.56l4.83,3.62q-7.65,22.92-22.11,36.78a62.73,62.73,0,0,1-33.77,17.09q-6.43,16.49-21.1,24.52T1572,1180.35Zm-2.81-17.69a28.84,28.84,0,0,0,14.87-4,28.51,28.51,0,0,0,10.85-11.66,82.1,82.1,0,0,1-29.74-12.86q-13.28-9.24-20.51-18.89-5.62,1.2-5.62,10.85a44.67,44.67,0,0,0,7.63,24.92Q1554.3,1162.67,1569.19,1162.66Zm28.94-27.74a30.11,30.11,0,0,0,1-6.63q.21-3.81.21-5.83a162,162,0,0,0-4.83-35.78q-4.42-17.68-8.84-36.18-7.25,12.46-16.89,26.94a172.41,172.41,0,0,1-18.09,23.31q6.43,10.86,18.9,20.51A76,76,0,0,0,1598.13,1134.92Z" transform="translate(-86.56 -120.69)"/><path class="cls-1" d="M1702.65,1178.34q-17.7,0-28.54-10.45t-10.86-31.76q0-16.49,6.23-41a509.83,509.83,0,0,1,15.88-50.66,57.39,57.39,0,0,0-6.63-1.4,29.69,29.69,0,0,1-7.44-2.21v-12.47c4.29.54,7.84.95,10.66,1.21s5.69.54,8.64.8q8.45-21.3,18.29-41.2a400.49,400.49,0,0,1,19.7-35.58q9.84-15.68,18.69-24.72t15.68-9a11.8,11.8,0,0,1,7.64,3q3.62,3,3.62,8.64,0,8.06-8.25,22.92t-20.3,34.77q-12.06,19.9-23.31,42.41h12.46q17.68,0,32-.6t29.14-2.21v13.26q-22.11,2-40.6,3.22t-35.37,1.61h-4.83a380.46,380.46,0,0,0-14.67,40.4,139.6,139.6,0,0,0-6.23,40.4q0,16.49,5.22,23.31t16.49,6.84q20.08,0,41.2-18.29t36.78-49.65l5.63,4a192,192,0,0,1-25.93,43q-15.48,19.3-33.56,30.36T1702.65,1178.34Z" transform="translate(-86.56 -120.69)"/><g id="Layer_8" data-name="Layer 8"><path class="cls-1" d="M1256.82,1269.68a17.25,17.25,0,0,1-10.57-3.06,17.69,17.69,0,0,1-6-7.89,27.08,27.08,0,0,1-1.91-10,46.33,46.33,0,0,1,2-13.45,59.36,59.36,0,0,1,13.84-23.72,38.84,38.84,0,0,1,9.8-7.52,22.17,22.17,0,0,1,10.4-2.75,10.87,10.87,0,0,1,6.28,1.74c1.7,1.16,2.54,3.15,2.54,6a20.84,20.84,0,0,1-.89,5.69,33.79,33.79,0,0,1-2.37,6.07,18.45,18.45,0,0,1-3.36,4.79,5.41,5.41,0,0,1-3.82,1.87,3.32,3.32,0,0,1-1.78-.6,5.22,5.22,0,0,1-1.7-2c.85-1,1.81-2.14,2.89-3.52s2.09-2.86,3.06-4.42a31.8,31.8,0,0,0,2.37-4.58,10.63,10.63,0,0,0,.94-4,3.4,3.4,0,0,0-.85-2.42,4,4,0,0,0-3-.89,13.34,13.34,0,0,0-7.69,2.8,36.52,36.52,0,0,0-7.59,7.51,63.75,63.75,0,0,0-6.58,10.53,64.92,64.92,0,0,0-4.63,12,43.94,43.94,0,0,0-1.69,11.67,24.5,24.5,0,0,0,1.23,7.77,13.25,13.25,0,0,0,3.94,6,10.54,10.54,0,0,0,7.13,2.34,18.49,18.49,0,0,0,9.13-2.55,33.19,33.19,0,0,0,8.32-6.71,37.62,37.62,0,0,0,6.07-8.91l2.2,1.44a51.91,51.91,0,0,1-7.13,10.4,34.55,34.55,0,0,1-9.38,7.56A23.2,23.2,0,0,1,1256.82,1269.68Z" transform="translate(-86.56 -120.69)"/><path class="cls-1" d="M1287.63,1264.84c-2.66,0-4.52-.89-5.56-2.67a12.23,12.23,0,0,1-1.57-6.33,37.83,37.83,0,0,1,1.53-9.76,102,102,0,0,1,4-11.75c1.67-4.11,3.51-8.12,5.52-12.06s4-7.48,6.06-10.65a58.3,58.3,0,0,1,5.65-7.6c1.72-1.89,3.13-2.84,4.2-2.84a2.21,2.21,0,0,1,1.87,1.15,10,10,0,0,1,1.23,2.71,10.42,10.42,0,0,1,.47,2.93,21.52,21.52,0,0,1-1.15,6,62.08,62.08,0,0,1-3.23,8.1,90.59,90.59,0,0,1-4.92,9,78.28,78.28,0,0,1-6.28,8.79,47.93,47.93,0,0,1-7.34,7.21c-.23,1.42-.44,2.82-.64,4.2a26.76,26.76,0,0,0-.3,3.78,7.69,7.69,0,0,0,1,4.46,3.13,3.13,0,0,0,2.63,1.4,6.73,6.73,0,0,0,4.38-2,26.43,26.43,0,0,0,4.32-5.09,45.63,45.63,0,0,0,3.61-6.41l2,1.1a41.7,41.7,0,0,1-8.15,11.93Q1292.55,1264.84,1287.63,1264.84Zm2-23a67.3,67.3,0,0,0,5.47-6.83q2.59-3.71,4.75-7.52t3.78-7.38a55.73,55.73,0,0,0,2.5-6.41,19.26,19.26,0,0,0,1-4.54v-.26c-.45,0-1.17.64-2.16,1.91a61.33,61.33,0,0,0-3.53,5.23q-2,3.3-4.2,7.55t-4.16,9Q1291.11,1237.25,1289.67,1241.84Z" transform="translate(-86.56 -120.69)"/><path class="cls-1" d="M1311,1266q-5.43,0-8.36-2.93a10,10,0,0,1-2.93-7.34,19.29,19.29,0,0,1,1.91-7.94,32.19,32.19,0,0,1,5.14-7.89,28.6,28.6,0,0,1,7.13-6,15.28,15.28,0,0,1,7.81-2.3,8.35,8.35,0,0,1,4.2,1.15c1.33.76,2,2.28,2,4.54a10.64,10.64,0,0,1-1.87,6,19.15,19.15,0,0,1-5,5,29.9,29.9,0,0,1-6.92,3.61,31.52,31.52,0,0,1-7.6,1.83,4.87,4.87,0,0,0-.13.72c0,.25,0,.66,0,1.23a13.59,13.59,0,0,0,.13,1.49,6.69,6.69,0,0,0,.72,2.24,5.12,5.12,0,0,0,1.95,2,7,7,0,0,0,3.74.85,14.74,14.74,0,0,0,7.17-2,28.55,28.55,0,0,0,6.79-5.31,32.19,32.19,0,0,0,5.31-7.38l1.69,1.35a31.7,31.7,0,0,1-5.9,8.92,27.6,27.6,0,0,1-8,5.94A20.38,20.38,0,0,1,1311,1266Zm-3.56-15.36a16.15,16.15,0,0,0,4.92-1.53,27.1,27.1,0,0,0,5.22-3.23,19.75,19.75,0,0,0,4.12-4.28,8.28,8.28,0,0,0,1.61-4.71,1.85,1.85,0,0,0-.34-1.28,1.56,1.56,0,0,0-1.1-.34,7.45,7.45,0,0,0-4.08,1.4,22.53,22.53,0,0,0-4.16,3.65,31,31,0,0,0-3.65,5A30.41,30.41,0,0,0,1307.41,1250.67Z" transform="translate(-86.56 -120.69)"/><path class="cls-1" d="M1334.82,1266.29a6.8,6.8,0,0,1-7-7.47,17.84,17.84,0,0,1,1.36-6.46,32.62,32.62,0,0,1,3.73-6.87,36.7,36.7,0,0,1,5.44-6.16,28.19,28.19,0,0,1,6.53-4.45,15.78,15.78,0,0,1,7-1.7,10.16,10.16,0,0,1,6.2,1.87,5.8,5.8,0,0,1,2.55,4.92,3.61,3.61,0,0,1-1.62,3.31,5.11,5.11,0,0,1-3.82.6q.18-.77.3-1.53a9.29,9.29,0,0,0,.13-1.61,6.78,6.78,0,0,0-.68-3.06c-.46-.9-1.42-1.36-2.89-1.36a8.89,8.89,0,0,0-4.84,1.61,23.09,23.09,0,0,0-4.71,4.21,36,36,0,0,0-4,5.68,35.06,35.06,0,0,0-2.8,6.07,16.7,16.7,0,0,0-1,5.35c0,1.81.65,2.72,1.95,2.72a7.21,7.21,0,0,0,4.33-1.91,34.47,34.47,0,0,0,4.8-4.8q2.41-2.88,4.63-5.9t3.81-5.13a.76.76,0,0,1,.68-.43l1.32.38a6.55,6.55,0,0,1,1.82.89,1.8,1.8,0,0,1,.85,1.53,4.83,4.83,0,0,1-.72,2.17c-.48.88-1,1.84-1.7,2.88a29.26,29.26,0,0,0-1.69,3.14,7.14,7.14,0,0,0-.73,3,3.92,3.92,0,0,0,.6,2.08,2.1,2.1,0,0,0,2,1q2,0,5.73-3t7.51-10.23l1.62,1.61a36.54,36.54,0,0,1-4.88,8.11,25.27,25.27,0,0,1-6,5.52,11.76,11.76,0,0,1-6.37,2,6.1,6.1,0,0,1-5.17-2.2,8.58,8.58,0,0,1-1.87-4.76v-.42a51.32,51.32,0,0,1-6.24,6.45A9.35,9.35,0,0,1,1334.82,1266.29Z" transform="translate(-86.56 -120.69)"/><path class="cls-1" d="M1396.36,1264a7.06,7.06,0,0,1-5-1.65,5.57,5.57,0,0,1-1.74-4.2,12.36,12.36,0,0,1,.59-3.61c.4-1.27.8-2.56,1.19-3.86a12.72,12.72,0,0,0,.6-3.74,2.83,2.83,0,0,0-3-3.31,8.64,8.64,0,0,0-5.23,2.08,31.57,31.57,0,0,0-5.17,5.22c-1.67,2.1-3.24,4.27-4.71,6.54s-2.75,4.3-3.82,6.11a8.65,8.65,0,0,1-3.06-.55,5.58,5.58,0,0,1-2.46-1.91,25.12,25.12,0,0,1,1-2.59q.9-2.16,2-5.18c.73-2,1.39-4.12,2-6.32a24.32,24.32,0,0,0,.85-6,6.93,6.93,0,0,1,1.83-1.36,5.29,5.29,0,0,1,2.58-.68c2,0,3,.85,3,2.55a17.16,17.16,0,0,1-.39,3c-.25,1.33-.61,2.85-1.06,4.54a51.41,51.41,0,0,1,4.84-5.6,26.74,26.74,0,0,1,5.48-4.28,11.2,11.2,0,0,1,5.73-1.66,6.16,6.16,0,0,1,5.39,2.46,9.26,9.26,0,0,1,1.74,5.43,13.28,13.28,0,0,1-.85,4.76c-.57,1.47-1.12,2.86-1.66,4.16a9.88,9.88,0,0,0-.8,3.82,2.45,2.45,0,0,0,.63,1.91,2.14,2.14,0,0,0,1.4.55,6.59,6.59,0,0,0,4.25-1.95,25.3,25.3,0,0,0,4.2-5,58,58,0,0,0,3.52-6.07l1.44,1.19a49.12,49.12,0,0,1-4,7.6,21.52,21.52,0,0,1-5,5.51A10,10,0,0,1,1396.36,1264Z" transform="translate(-86.56 -120.69)"/><path class="cls-1" d="M1414.69,1264.84a6.93,6.93,0,0,1-5.6-2.2,8.06,8.06,0,0,1-1.87-5.35,23.26,23.26,0,0,1,.68-4.93,49.06,49.06,0,0,1,1.91-6.23,45.1,45.1,0,0,1,2.85-6.16,20.42,20.42,0,0,1,3.48-4.71,5.4,5.4,0,0,1,3.73-1.82,2.69,2.69,0,0,1,1.78.63,2.26,2.26,0,0,1,.77,1.83,7.55,7.55,0,0,1-1.32,3.31c-.88,1.47-1.89,3.17-3,5.09a47.55,47.55,0,0,0-3.06,6,15,15,0,0,0-1.31,5.89c0,1.82.32,3,1,3.61a4.06,4.06,0,0,0,2.85.89q2.88,0,6.28-2.88t7-10.1l1.27,1.35a30.64,30.64,0,0,1-7.55,11.63A14.46,14.46,0,0,1,1414.69,1264.84Zm10-38.28a5.48,5.48,0,0,1-2.93-.81,2.71,2.71,0,0,1-1.31-2.5,4.13,4.13,0,0,1,2.2-3.48,8.28,8.28,0,0,1,4.59-1.44,4.65,4.65,0,0,1,2.59.68,2.7,2.7,0,0,1,1.06,2.46,4.61,4.61,0,0,1-2,3.44A6.43,6.43,0,0,1,1424.71,1226.56Z" transform="translate(-86.56 -120.69)"/><path class="cls-1" d="M1457.22,1264a7.06,7.06,0,0,1-5-1.65,5.57,5.57,0,0,1-1.74-4.2,12.36,12.36,0,0,1,.59-3.61c.4-1.27.79-2.56,1.19-3.86a12.7,12.7,0,0,0,.59-3.74,2.82,2.82,0,0,0-3-3.31,8.64,8.64,0,0,0-5.22,2.08,31.19,31.19,0,0,0-5.17,5.22c-1.67,2.1-3.24,4.27-4.72,6.54s-2.74,4.3-3.81,6.11a8.65,8.65,0,0,1-3.06-.55,5.58,5.58,0,0,1-2.46-1.91,22.73,22.73,0,0,1,1-2.59c.6-1.44,1.26-3.17,2-5.18s1.38-4.12,2-6.32a24.32,24.32,0,0,0,.85-6,7,7,0,0,1,1.82-1.36,5.33,5.33,0,0,1,2.59-.68q3,0,3,2.55a16.93,16.93,0,0,1-.38,3c-.25,1.33-.61,2.85-1.06,4.54a51.41,51.41,0,0,1,4.84-5.6,27,27,0,0,1,5.47-4.28,11.26,11.26,0,0,1,5.73-1.66,6.14,6.14,0,0,1,5.39,2.46,9.19,9.19,0,0,1,1.74,5.43,13.27,13.27,0,0,1-.84,4.76c-.57,1.47-1.12,2.86-1.66,4.16a9.9,9.9,0,0,0-.81,3.82,2.45,2.45,0,0,0,.64,1.91,2.14,2.14,0,0,0,1.4.55,6.59,6.59,0,0,0,4.25-1.95,25.3,25.3,0,0,0,4.2-5,58,58,0,0,0,3.52-6.07l1.44,1.19a50,50,0,0,1-4,7.6,21.52,21.52,0,0,1-5,5.51A10,10,0,0,1,1457.22,1264Z" transform="translate(-86.56 -120.69)"/><path class="cls-1" d="M1473,1286.06a6.75,6.75,0,0,1-4-1.27,4.71,4.71,0,0,1-1.83-4.16,8.15,8.15,0,0,1,1.57-4.88,17.87,17.87,0,0,1,4.16-4,46.82,46.82,0,0,1,5.56-3.35q3-1.53,5.78-2.89.93-2.3,1.78-4.92c.56-1.76,1.1-3.65,1.61-5.69a34.76,34.76,0,0,1-6.24,6.2,11,11,0,0,1-6.66,2.46,6.66,6.66,0,0,1-5.39-2.38,9.44,9.44,0,0,1-2-6.28,16.75,16.75,0,0,1,2.25-8.44,26.94,26.94,0,0,1,5.82-7,28.69,28.69,0,0,1,7.64-4.84,19.85,19.85,0,0,1,7.81-1.74,7,7,0,0,1,4.07,1,2.76,2.76,0,0,1,1.36,2.25,2.17,2.17,0,0,1-.6,1.61,4.68,4.68,0,0,1-.76.68,4.24,4.24,0,0,0-1.74-1.23,6.52,6.52,0,0,0-2.08-.3,12,12,0,0,0-6.36,1.87,20.4,20.4,0,0,0-5.39,4.79,27.15,27.15,0,0,0-3.7,6.07,14.64,14.64,0,0,0-1.36,5.69,3.87,3.87,0,0,0,.77,2.59,2.38,2.38,0,0,0,1.87.89q2.37,0,5.77-3.1a46.83,46.83,0,0,0,6.53-7.51q.18-.67.3-1.23c.09-.37.16-.72.21-1.06a14.87,14.87,0,0,1,2-5,3.89,3.89,0,0,1,3.31-1.61,9.49,9.49,0,0,1,1.06.08c.43.06.89.14,1.4.26a24,24,0,0,1-.85,5c-.56,2.32-1.33,5-2.29,8.1s-2,6.24-3.22,9.47a26.51,26.51,0,0,0,5.34-3.1,26.86,26.86,0,0,0,5-4.84,20.55,20.55,0,0,0,3.48-6.32l1.53,1.52a21.38,21.38,0,0,1-4.2,7.13,34.86,34.86,0,0,1-6.16,5.56,37.77,37.77,0,0,1-6.11,3.61,84.74,84.74,0,0,1-5,10.23,31.11,31.11,0,0,1-5.69,7.38A9.46,9.46,0,0,1,1473,1286.06Zm-.34-3.9q1.53,0,4.2-2.89t5.81-9.76c-2.09,1-4,2.07-5.77,3.14a19.28,19.28,0,0,0-4.24,3.4,5.5,5.5,0,0,0-1.62,3.73,2.88,2.88,0,0,0,.47,1.74A1.37,1.37,0,0,0,1472.67,1282.16Z" transform="translate(-86.56 -120.69)"/><path class="cls-1" d="M1544.82,1269.68a26.13,26.13,0,0,1-9.38-1.7,16.85,16.85,0,0,1-7.26-5.17,13.36,13.36,0,0,1-2.8-8.66,11.34,11.34,0,0,1,2-7.18,10.62,10.62,0,0,1,5.09-3.6,18.74,18.74,0,0,1,5.94-1,22.35,22.35,0,0,0-4.12,5.94,14.12,14.12,0,0,0-1.4,5.86,10.4,10.4,0,0,0,1.49,5.39,11,11,0,0,0,4.45,4.07,15.66,15.66,0,0,0,7.39,1.57,22.15,22.15,0,0,0,7.43-1.27,14.43,14.43,0,0,0,5.94-3.82,9.1,9.1,0,0,0,2.33-6.37,9.29,9.29,0,0,0-2-6,20.5,20.5,0,0,0-5.14-4.5q-3.13-2-6.62-3.82a68.45,68.45,0,0,1-6.62-4,19.62,19.62,0,0,1-5.13-4.92,11.26,11.26,0,0,1-2-6.71,18.43,18.43,0,0,1,1.74-7.42,26.93,26.93,0,0,1,5-7.43,25.05,25.05,0,0,1,7.81-5.64,23.43,23.43,0,0,1,10.18-2.17c3.91,0,6.65.82,8.24,2.46a8.91,8.91,0,0,1,2.37,6.45,22.91,22.91,0,0,1-1.1,6.71,47.71,47.71,0,0,1-2.68,6.79,57.92,57.92,0,0,1-3,5.52,5.16,5.16,0,0,1-2.8-1.49,4.15,4.15,0,0,1-.93-2.84,13,13,0,0,1,.72-4c.48-1.47,1-3,1.7-4.59s1.21-3.12,1.69-4.62a13.22,13.22,0,0,0,.72-3.95,3.12,3.12,0,0,0-.89-2.38q-.89-.84-3.6-.84a15.78,15.78,0,0,0-7.47,1.78,22.14,22.14,0,0,0-9.77,10.23,13.55,13.55,0,0,0-1.35,5.47,7.52,7.52,0,0,0,2,5.22,20.25,20.25,0,0,0,5,4q3.09,1.79,6.54,3.56a55.26,55.26,0,0,1,6.53,4,19,19,0,0,1,5,5.27,13.57,13.57,0,0,1,2,7.47,15.15,15.15,0,0,1-2,7.81,17.91,17.91,0,0,1-5.39,5.72,26.52,26.52,0,0,1-7.51,3.57A29.08,29.08,0,0,1,1544.82,1269.68Z" transform="translate(-86.56 -120.69)"/><path class="cls-1" d="M1583,1266q-5.43,0-8.36-2.93a10,10,0,0,1-2.93-7.34,19.29,19.29,0,0,1,1.91-7.94,32.48,32.48,0,0,1,5.14-7.89,28.77,28.77,0,0,1,7.13-6,15.28,15.28,0,0,1,7.81-2.3,8.35,8.35,0,0,1,4.2,1.15c1.33.76,2,2.28,2,4.54a10.71,10.71,0,0,1-1.86,6,19.35,19.35,0,0,1-5,5,29.9,29.9,0,0,1-6.92,3.61,31.52,31.52,0,0,1-7.6,1.83,4.91,4.91,0,0,0-.12.72,11.32,11.32,0,0,0-.05,1.23c0,.28.05.78.13,1.49a7.18,7.18,0,0,0,.72,2.24,5.08,5.08,0,0,0,2,2,7,7,0,0,0,3.73.85,14.68,14.68,0,0,0,7.17-2,28.55,28.55,0,0,0,6.79-5.31,32.19,32.19,0,0,0,5.31-7.38l1.7,1.35a32.13,32.13,0,0,1-5.9,8.92,27.77,27.77,0,0,1-8,5.94A20.38,20.38,0,0,1,1583,1266Zm-3.56-15.36a16.15,16.15,0,0,0,4.92-1.53,27.1,27.1,0,0,0,5.22-3.23,19.75,19.75,0,0,0,4.12-4.28,8.28,8.28,0,0,0,1.61-4.71,1.8,1.8,0,0,0-.34-1.28,1.54,1.54,0,0,0-1.1-.34,7.47,7.47,0,0,0-4.08,1.4,22.53,22.53,0,0,0-4.16,3.65,31.67,31.67,0,0,0-3.65,5A30.41,30.41,0,0,0,1579.45,1250.67Z" transform="translate(-86.56 -120.69)"/><path class="cls-1" d="M1617.81,1264.5a7.62,7.62,0,0,1-5.09-1.65,5.56,5.56,0,0,1-2-4.46,12.63,12.63,0,0,1,1.19-5.09c.79-1.81,1.59-3.59,2.42-5.35a11.4,11.4,0,0,0,1.23-4.67,4.53,4.53,0,0,0-1.28-3.27,11.11,11.11,0,0,0-3-2.16,88.51,88.51,0,0,1-4.2,9q-2.34,4.36-3.78,6.83l-1.27-2.46q1.19-2.21,3.14-6.28a95.05,95.05,0,0,0,3.74-9.08,3.09,3.09,0,0,1-.85-2.29,7.16,7.16,0,0,1,1.35-4.16c.91-1.3,1.79-2,2.64-2a1.57,1.57,0,0,1,1.48,1.15,5.3,5.3,0,0,1,.47,1.57,6,6,0,0,1-.38,1.53c-.26.73-.44,1.27-.56,1.61.06.62.56,1.23,1.49,1.83s2,1.28,3.18,2.08a12.8,12.8,0,0,1,3.14,3,7.14,7.14,0,0,1,1.36,4.49,12.57,12.57,0,0,1-1.1,5c-.74,1.7-1.47,3.29-2.21,4.76a8.88,8.88,0,0,0-1.1,3.82,1.7,1.7,0,0,0,.63,1.57,2.9,2.9,0,0,0,1.49.38,8.7,8.7,0,0,0,4.24-1.23,22.47,22.47,0,0,0,4.33-3.19,29.83,29.83,0,0,0,3.74-4.11,24.61,24.61,0,0,0,2.46-4l2,1.53a28.89,28.89,0,0,1-4.67,7.17,28.35,28.35,0,0,1-6.79,5.77A14.51,14.51,0,0,1,1617.81,1264.5Z" transform="translate(-86.56 -120.69)"/><path class="cls-1" d="M1639.2,1265.61a4.4,4.4,0,0,1-4.37-2.85,18.62,18.62,0,0,1-1.23-7.34c0-.62,0-1.74.09-3.35s.14-3.86.25-6.75a9.57,9.57,0,0,1,.55-3.48c.31-.62,1.2-.93,2.68-.93s2.16.26,2.41.8a8.84,8.84,0,0,1,.39,3.27c0,1.7-.07,3.51-.22,5.43s-.21,3.79-.21,5.6a20.91,20.91,0,0,0,.26,3.87c.17.82.59,1.23,1.27,1.23a5.08,5.08,0,0,0,3.31-1.66,27.22,27.22,0,0,0,3.61-4.24,62.28,62.28,0,0,0,3.48-5.6q1.65-3,2.93-5.82.16-5.77,1.35-7.72a3.54,3.54,0,0,1,3.06-2,3,3,0,0,1,2.89,1.36,5,5,0,0,1,.76,2.38,4.05,4.05,0,0,1-.68,2.29,15,15,0,0,0-1.36,2.8,19.33,19.33,0,0,0-.46,8,4.72,4.72,0,0,0,1,2.38,2.94,2.94,0,0,0,2.41,1,4.89,4.89,0,0,0,3.27-1.4A17.25,17.25,0,0,0,1670,1248l.93.76q-2,4.67-4.37,6.54a7.73,7.73,0,0,1-4.63,1.86,5.47,5.47,0,0,1-4.54-2.25,16.07,16.07,0,0,1-2.67-5.64,75.45,75.45,0,0,1-4.63,7.55,35.34,35.34,0,0,1-5.39,6.24A8.41,8.41,0,0,1,1639.2,1265.61Z" transform="translate(-86.56 -120.69)"/><path class="cls-1" d="M1674.51,1264.84a6.92,6.92,0,0,1-5.6-2.2,8.06,8.06,0,0,1-1.87-5.35,23.26,23.26,0,0,1,.68-4.93,47.49,47.49,0,0,1,1.91-6.23,45.1,45.1,0,0,1,2.85-6.16,20.42,20.42,0,0,1,3.48-4.71,5.4,5.4,0,0,1,3.73-1.82,2.71,2.71,0,0,1,1.78.63,2.26,2.26,0,0,1,.77,1.83,7.55,7.55,0,0,1-1.32,3.31c-.88,1.47-1.89,3.17-3.05,5.09a47.55,47.55,0,0,0-3.06,6,15,15,0,0,0-1.32,5.89c0,1.82.33,3,1,3.61a4,4,0,0,0,2.84.89c1.93,0,4-1,6.29-2.88s4.61-5.29,7-10.1l1.27,1.35a30.64,30.64,0,0,1-7.55,11.63A14.46,14.46,0,0,1,1674.51,1264.84Zm10-38.28a5.48,5.48,0,0,1-2.93-.81,2.71,2.71,0,0,1-1.32-2.5,4.14,4.14,0,0,1,2.21-3.48,8.28,8.28,0,0,1,4.59-1.44,4.62,4.62,0,0,1,2.58.68,2.68,2.68,0,0,1,1.06,2.46,4.63,4.63,0,0,1-2,3.44A6.43,6.43,0,0,1,1684.53,1226.56Z" transform="translate(-86.56 -120.69)"/><path class="cls-1" d="M1698,1267.05a10,10,0,0,1-7.25-2.76c-1.9-1.84-2.85-4.65-2.85-8.45a21.45,21.45,0,0,1,1.62-8.14,25.75,25.75,0,0,1,4.33-7.18,22.3,22.3,0,0,1,6.06-5,14,14,0,0,1,6.84-1.86c2.37,0,4.09.59,5.13,1.78a6.08,6.08,0,0,1,1.57,4.16,10.11,10.11,0,0,1-1.14,4.62,3.47,3.47,0,0,1-3.1,2.25,3,3,0,0,1-2.63-1.61,7,7,0,0,0,1.78-2.21,8.24,8.24,0,0,0,.93-4.16,1.54,1.54,0,0,0-.34-1.06,1.67,1.67,0,0,0-1.27-.38,7.22,7.22,0,0,0-4.46,1.91,21.91,21.91,0,0,0-4.32,4.92,30.78,30.78,0,0,0-3.23,6.37,18,18,0,0,0-1.23,6.15,8.19,8.19,0,0,0,1.23,4.38q1.23,2,4.8,2a14.1,14.1,0,0,0,6.7-1.87,24.56,24.56,0,0,0,6.54-5.22,26.23,26.23,0,0,0,4.92-8l1.7,1.53a30.35,30.35,0,0,1-5.65,9.21,28.77,28.77,0,0,1-8,6.36A18.28,18.28,0,0,1,1698,1267.05Z" transform="translate(-86.56 -120.69)"/><path class="cls-1" d="M1726.54,1266q-5.43,0-8.36-2.93a10,10,0,0,1-2.93-7.34,19.29,19.29,0,0,1,1.91-7.94,32.48,32.48,0,0,1,5.14-7.89,28.77,28.77,0,0,1,7.13-6,15.31,15.31,0,0,1,7.81-2.3,8.35,8.35,0,0,1,4.2,1.15c1.33.76,2,2.28,2,4.54a10.72,10.72,0,0,1-1.87,6,19.35,19.35,0,0,1-5,5,29.7,29.7,0,0,1-6.92,3.61,31.55,31.55,0,0,1-7.59,1.83,4.87,4.87,0,0,0-.13.72,12,12,0,0,0,0,1.23c0,.28,0,.78.12,1.49a7.18,7.18,0,0,0,.72,2.24,5.08,5.08,0,0,0,2,2,7,7,0,0,0,3.73.85,14.68,14.68,0,0,0,7.17-2,28.79,28.79,0,0,0,6.8-5.31,32.15,32.15,0,0,0,5.3-7.38l1.7,1.35a32.13,32.13,0,0,1-5.9,8.92,27.77,27.77,0,0,1-8,5.94A20.38,20.38,0,0,1,1726.54,1266Zm-3.56-15.36a16.15,16.15,0,0,0,4.92-1.53,27.1,27.1,0,0,0,5.22-3.23,19.75,19.75,0,0,0,4.12-4.28,8.28,8.28,0,0,0,1.61-4.71,1.8,1.8,0,0,0-.34-1.28,1.52,1.52,0,0,0-1.1-.34,7.5,7.5,0,0,0-4.08,1.4,22.17,22.17,0,0,0-4.15,3.65,30.45,30.45,0,0,0-3.65,5A29.78,29.78,0,0,0,1723,1250.67Z" transform="translate(-86.56 -120.69)"/><path class="cls-1" d="M1755.57,1266.62a12,12,0,0,1-6.83-1.74,9.68,9.68,0,0,1-3.69-4.41,14.15,14.15,0,0,1-1.11-5.47,8.73,8.73,0,0,1,.68-3.82,4.87,4.87,0,0,1,1.7-2,11.11,11.11,0,0,1,1.91-1,4,4,0,0,0,1.32-.77,62.27,62.27,0,0,0,4.37-5.13,33.2,33.2,0,0,0,3.86-6.5V1235c0-2.26.38-3.86,1.15-4.79a3.35,3.35,0,0,1,2.67-1.4,2,2,0,0,1,1.49.51,2.12,2.12,0,0,1,.55,1.18,4.14,4.14,0,0,1-.22,1.19,6.64,6.64,0,0,0-.21,1.87,16.71,16.71,0,0,0,1.23,5.81q1.23,3.27,2.46,6.92a23.3,23.3,0,0,1,1.23,7.47,17.92,17.92,0,0,1-.08,1.87,15.1,15.1,0,0,1-.25,1.61,12.62,12.62,0,0,0,5.17-2.93,22.79,22.79,0,0,0,4.84-6.66l1,.76a18.72,18.72,0,0,1-4.67,7.77,13.21,13.21,0,0,1-7.13,3.61,9.73,9.73,0,0,1-4.45,5.18A14.39,14.39,0,0,1,1755.57,1266.62Zm-.59-3.73a6,6,0,0,0,5.43-3.31,17.27,17.27,0,0,1-6.28-2.72,18.65,18.65,0,0,1-4.33-4c-.79.17-1.19.94-1.19,2.3a9.48,9.48,0,0,0,1.61,5.26A5.33,5.33,0,0,0,1755,1262.89Zm6.11-5.86a6.58,6.58,0,0,0,.21-1.4c0-.53,0-.94,0-1.23a33.94,33.94,0,0,0-1-7.55q-.94-3.74-1.87-7.64c-1,1.75-2.21,3.65-3.57,5.68a36.07,36.07,0,0,1-3.82,4.93,15.86,15.86,0,0,0,4,4.33A16.05,16.05,0,0,0,1761.09,1257Z" transform="translate(-86.56 -120.69)"/></g></svg>