<svg xmlns="http://www.w3.org/2000/svg" viewBox="0 0 1862.33 1862.33"><defs><style>.cls-1{fill:#fef1f4;}.cls-1,.cls-5{stroke:#acc7e2;}.cls-1,.cls-2,.cls-3,.cls-4,.cls-5,.cls-6,.cls-7,.cls-8{stroke-miterlimit:10;}.cls-1,.cls-6,.cls-8{stroke-width:2px;}.cls-2,.cls-4,.cls-6,.cls-7,.cls-8{fill:#acc7e2;}.cls-2,.cls-6{stroke:#fef1f4;}.cls-3,.cls-5{fill:none;}.cls-3,.cls-4,.cls-7,.cls-8{stroke:#fde1ff;}.cls-5{stroke-width:113.33px;}.cls-7{stroke-width:2.01px;}</style></defs><g id="Layer_2" data-name="Layer 2"><g id="Layer_7" data-name="Layer 7"><path class="cls-1" d="M486.17,1405.41c3.95,2.61,7.89,2,10.6-2,7.54-11.27,18.56-17.73,30.65-23A65.16,65.16,0,0,0,549.89,1364c26.52-29.84,61-47.8,95.69-65.6q34-17.49,68.25-34.75c21-10.57,36.77-26.25,46.81-47.64a171.21,171.21,0,0,1,8.35-16.22c4.39-7.24,6.39-7.8,13.72-3.78,8.53,4.68,16.83,9.74,25.2,14.72,28.46,16.9,59.08,28.49,91,36.82a86.29,86.29,0,0,0,21.62,3c15.61,0,24.3-6.92,26.92-22.28,2.68-15.76.56-31.57-.67-47.27-1.66-21-7.63-41.42-11.24-62.18-.82-4.78-2-9.54-2.26-14.36-.28-4.11,1.92-6.09,6.18-4.11a17.79,17.79,0,0,1,2.08,1.27c3.81,2.51,8,5.11,12.35,2.31,5.37-3.41,4.32-9.14,3.64-14.36-5.07-38.88-19.21-74.37-40.23-107.27-2.19-3.42-4.11-7.12-6.83-10-6.21-6.71-4.54-12.88-.15-19.7,9.46-14.69,22.5-25.53,37-34.61,20.93-13.11,42.21-25.78,65.72-34.06a84.15,84.15,0,0,0,12.2-5.41c13.5-7.32,23.18-17.5,25-33.65.53-4.69.32-11.17,5.25-12.72,5.1-1.56,7.78,4.74,11.13,7.93,13.49,12.86,26.43,26.34,41.2,37.79,3.85,3,7.73,6,11.78,8.61,11.8,7.76,23.55,7.64,35.13-.62,8.93-6.4,16.79-14,24.77-21.53q38.07-35.85,76.24-71.6c3.54-3.32,7.25-6.5,11-9.59,8.54-7.08,8.85-7.12,17.42-.09,4.39,3.56,8.58,7.42,12.74,11.28a74.67,74.67,0,0,0,19,13c10.65,5,21,5.84,30.47-3a42.17,42.17,0,0,1,5.89-4.28c4.62-3,9-3,13.27.85,24.42,22.11,52.68,38.86,79.6,57.24,16.76,11.37,32.69,24,50.57,33.69,2.74,1.48,4.73,4.34,7.08,6.56a45.68,45.68,0,0,0,5.32,4.84c1.71,1.14,4,1.51,5.57-.23,1.89-2.1.15-3.72-1.31-5.09a52.44,52.44,0,0,0-4.74-3.82c-25.87-18.87-51.7-37.79-77.66-56.53-6.27-4.53-11.68-10.17-17.86-14.57-11.21-8-22-15.6-28.2-28.73-2.66-5.71-9-9.21-14.48-12.72-11.25-7.26-22.69-14.18-34-21.36s-23.75-8.8-36.88-10.48c-22.84-2.92-40.26,5.12-57.86,18.75a1010.66,1010.66,0,0,1-89.7,62.63c-20.48,12.61-17.59,10-29-6.31-18.38-26.28-39.75-50.19-59.46-75.41-7.75-9.91-15.56-19.77-23.77-29.27-4.32-5-5.28-9.86-2-15.45s6.16-11.44,9.82-16.76c5.52-8,7.14-8.31,16-3.2,9.45,5.48,18.61,11.5,28.08,17,7.41,4.29,15.34,7.47,24.06,7.81,9.73.38,13.87-1.94,15.68-11.4,2.56-13.36,13.5-22,18-34.21,1.23-3.33,5.32-3.19,8.27-4.43,8.12-3.42,9.74-8.53,5.46-16.46a22.23,22.23,0,0,0-2.67-4.06c-6.41-7.48-6.16-15.49-1.93-23.8s8.6-16.53,13.12-25.19c4,.5,3.76,6.74,8.25,5.72,4.31-1,6.91-4.1,9.22-7.44,11.14-16,8.85-40-5.74-53.35-10.78-9.84-21.34-19.7-30.69-31-10.06-12.17-24.37-18.7-38.92-24-19.12-7-38.79-11.86-59.28-12.24-7.32-.14-12.84-2.54-18.37-7.53-22.21-20.08-44.12-17.8-62.46,5.8-11.37,14.65-13.35,30.88-1.71,46,10,12.88,12,24.4,7,39.7-5.63,17.07-2.52,34.47,5,50.91,2.85,6.26,5.46,12.65,7.84,19.1,9.81,26.46-17.84,52.59-38.18,54.73-5.46.58-6.87-2.8-8.65-6.61-10.27-22.05-21.85-43.44-34-64.53-35.9-62.39-77.85-120.51-124-175.63-39.89-47.64-81.81-93.27-128.7-134.13-23.87-20.79-48.65-40.42-76.61-55.6a162,162,0,0,0-16.43-7.9c-16.6-6.73-18.64-5.7-23.17,12.11-1.78,7.05-2.86,14.3-4.1,21.49-.45,2.78-.53,5.63-2.76,8.56-5.71-1.66-11.42-3.59-17.24-5-10.91-2.6-12.81-1.39-15.31,9.27A157.35,157.35,0,0,0,498.09,306c-2.09,41.29,6.3,80.75,22.52,118.4C558.84,513,621.91,578.77,706.86,623.94a640.29,640.29,0,0,0,115.78,47.31c1.55.44,3.23.47,4.64,2.83-5.1-.22-9.79-.33-14.42-.61a1055.48,1055.48,0,0,0-136,.73c-22.69,1.55-45.27,3.77-67.67,7.24-21.24,3.3-42.28,7.83-62.36,15.71-18.31,7.17-19,10.76-4.93,24.66,4,4,8.25,7.56,12.76,11.68-4,5.25-10.23,5.56-14.86,8.45-7.12,4.45-8,7-2.49,13.37,13.43,15.61,30.14,27,48.58,35.87,35,16.83,72.21,23.51,110.76,24.43,16.53.4,32.93-1.63,49.3-2.4.21.77.51,1.35.37,1.55Q721.21,847.58,696,880.33a27.36,27.36,0,0,1-20.75,11.13c-9.31.59-18.63,1.08-27.9,1.91-22.89,2.06-40.15,14-53.28,32.07-5,6.94-2.7,10.4,5.8,10.45,10.41.05,19-3.5,24.44-13,2-3.45,3.74-7.43,8.38-8.14,2.52-.38,4.92.13,6.47,2.4,1.37,2.1.16,3.86-1.23,5.4-2.95,3.35-6,6.65-8.85,10-1.54,1.82-3.54,3.75-2,6.39,1.32,2.3,3.8,2.9,6.27,3.14a13,13,0,0,0,10-3.51c9-7.72,19.47-11.16,31.05-12.55,9.45-1.14,17.81-5.25,25.2-11.31,35.1-28.75,72-55.34,104-87.83a92.85,92.85,0,0,1,30.27-20c16.78-7.12,33.13-15.27,50.31-21.5,2.23-.8,4.34-2.15,6.82-1.65,2.67,2.93.47,5.51-.42,8-3.37,9.13-7,18.18-10.46,27.25-5.12,13.29-13.94,23.5-25.48,31.74-13.34,9.55-28.23,16.25-43.46,21.57-35.07,12.26-53.93,37.14-60.11,72.83-2.9,16.76-5.77,33.55-8.15,50.4-1.8,13-7,23.76-17,32.53a239.24,239.24,0,0,0-21.24,21.71c-4.84,5.41-3.39,9.21,3.37,11.64,5.49,2,10.36-.5,15.45-1.59,9.41-2,11.32-.1,8,9.12a71.41,71.41,0,0,0-4.24,31c.89,10.37-1.56,13.27-11.93,14.15-9.29.78-16,5.19-21.71,11.89-3.4,4-6.64,8.19-9.73,12.44a38.12,38.12,0,0,1-17.92,14c-10,3.7-19,8.85-25.84,17.44a29.84,29.84,0,0,1-17.45,10.41,33.9,33.9,0,0,0-8,2.87c-5,2.52-6.79,6.89-5.51,12.22,1.46,6,6.51,5.68,10.81,4.68,21-4.85,42.49-6.4,63.62-10.21,5.11-.93,10-3.29,14.92-5.08,2.33-.84,4.78-2,6.74.2,1.72,1.93,1.49,4.53.86,7-1.31,5-4.69,8.3-9.13,10.81A367.73,367.73,0,0,0,612.86,1268c-5.33,5.54-11.29,10.47-16.92,15.74-7.41,7-16.23,8.66-25.94,7-4-.64-8-1.55-12-2.18-11.5-1.82-17.13.87-23.09,11-4.2,7.18-6,15.19-6.34,23.28-.63,13.2-6.05,23.34-17.14,30.43-5,3.18-8.2,7.62-10.7,12.89-4.86,10.25-10.08,20.33-14.95,30.57C484.46,1399.62,482.4,1403,486.17,1405.41ZM865.77,725c-20.32,18.65-33.61,13.14-55.32-4.78,18.81.08,36.12,1.89,55.32,4.78ZM825,739.21c-18.53.06-35.66,2.25-52.88,3.41-2.32.15-4.78-.78-7.1-1.45-19.41-5.58-38.83-11.15-58.2-16.89-2.47-.74-5.76-.51-7.1-3.73,2-2,4.47-1.55,6.79-1.55,25.43-.4,50.83-1.52,76.31-.56C796.29,718.92,813.61,726.93,825,739.21Zm-29.81-34.09c.06,1,.13,1.9.2,2.89-16.3,9.08-34.22,1.87-51.05,3,8.39-1.1,16.77-2.3,25.16-3.26,8.56-1,17.13-1.73,25.69-2.56ZM668,782c-3.9,2.6-8.34,3.05-12.82,3-14.37-.14-28.21-2.71-41-9.58-3.79-2-10.27-3.23-9.79-7.81.62-5.92,7.53-5,12-5.4,20.94-2.07,41.9-4.17,62.91-5.15,12.37-.58,24.64-2.51,37.23-2.38A338.74,338.74,0,0,0,668,782Zm21.13-5.41c33.84-23.72,71.91-30.53,113.35-30.19C787.34,753.55,773.34,760,761,769.22c-22.52,16.83-47,13.13-71.82,7.38Zm-29-23.57c-33.1,5.21-64.85,1.11-95.65-13,16.85-6.2,33.84-10.79,51.6-12,3.35-.24,6.27,1.31,9.12,2.85,9.93,5.39,19.89,10.72,29.72,16.28,2.12,1.2,5.61,1.57,5.21,5.88Zm14-1.51c-14.52-7.58-29-15.31-43.41-23,.17-.88.35-1.76.51-2.64,9.43-1.24,18.89-2.22,28.28-3.76a66.09,66.09,0,0,1,31.09,2.38c16.2,5.08,32.63,9.43,48.91,14.25,2.88.85,6.44.85,8.29,3.93-.6,2.14-2.37,2.14-3.86,2.32q-30.12,3.62-60.24,7.16c-3.22.37-6.59.89-9.57-.66Zm194-51.51c-19,22.38-41.73,14.23-63.62,11.82,19.52-12.59,41.55-10.13,63.62-11.88Zm-63,65.37c-9.35,6.15-18.85,4.94-29.23,1.91C790,754.73,823,742.62,837.34,745c-11.17,7-21.79,13.55-32.18,20.37Zm-77.34,42.22c-1.29-2.81-.31-4.12.74-5.36,10.31-11.45,22.9-20.23,35.26-29.22,2.32-1.68,4.83-2.64,7.91-1.76,4.92,1.43,9.94,2.57,15.79,4.05-8.1,7.13-16.37,13-22.9,20.45-10.43,11.91-23.82,10.9-36.81,11.78Zm-61.72.06c-5.43-.44-11.15-.7-17.65-4.29,9.37-9.34,19.37-15.86,29.84-21.7,2.6-1.45,5.55-.3,8.29.47,14.2,4.05,28.71,4.71,43.34,4.17,1.82-.07,4.1-.89,5,2.32-5.43,5.68-11.06,11.45-16.56,17.35-3.07,3.29-6.89,3.92-11.08,3.72-13.74-.67-27.5-1.08-41.22-2.1Zm-85.66-26.1c-1.82-1-3.05-2.74-1.37-5,3.63-4.88,15.82-7.88,20.94-4.28,15.61,11.05,33,16.52,53.71,17.82-7.46,10.87-15.3,14.06-26.19,10.39-10.36-3.49-20.85-6.42-30.89-10.81-5.54-2.43-10.9-5.29-16.22-8.18ZM547.73,744.8c3-1.17,6.3-2.13,9.44-.85,14.78,6.27,30.3,10.14,47.29,14.77-10.64,5-19.71,9.17-28.66,13.59-4,2-7.67,2-11.35-.62-6.89-5-13.75-10-19.36-16.44-4.68-5.39-4-8,2.63-10.51Zm-1-41.2a12.79,12.79,0,0,1,9.37.07,282.87,282.87,0,0,0,47.77,14.21c-6.6,2.89-11.32,5-16.08,7-24.62,10.34-26.44,7.31-44.25-9.68-6.09-5.8-4.89-8.8,3.18-11.7Zm71.08-15.7c14.52,7.59,28.92,15.37,43.37,23.09-34.52,5.28-67.68,4.2-101.26-11.89,18.29-5.85,35.09-9.14,52-11.92A10,10,0,0,1,617.78,687.9Zm42.68-6.74a88,88,0,0,1,34.43,4.41c15.71,5.16,31.78,9.21,47.65,13.9,2.5.74,5.66.45,7.21,3.54-2.23,2.36-5.24,1.78-7.85,2-15.26,1.52-30.68,1.9-45.75,4.43-15.95,2.67-30.14,1-43.52-8.66-7.66-5.49-17-8.54-26.75-15.88,13.16-1.88,23.8-3,34.56-3.77Zm125.13-3c4,.23,8.09.29,11.65,2.44l23.82,14.17-.56,3.09c-23.78,1.73-47.44,7.27-71.38-1.18-15.22-5.36-31-9.16-46.46-13.79-2.79-.77-6-.73-9-3.86,8-.35,14.79-.77,21.62-.93,23.41-.52,46.82-1.25,70.23.06Zm116.52,13.57c-20.71,1.66-41.43,3.7-62.18,4.81-9,.48-21.25-7.15-29.28-16.71C842.25,680.38,872.22,685.05,902.11,691.73Zm-265-120.4c-4.29-3.48-8.81-6.9-12.18-12.61,2.1-.93,2.8-1.45,3.57-1.55,31.11-3.67,62.09-1.59,93,2.17,4.85.58,8,2.72,9.57,7.79,2.36,7.88,7.53,14.25,12.4,20.7,12.63,16.71,29.21,29,46.19,40.77,2,1.39,5.67,1.64,5,5.65-4.36,1.79-8.81,1.26-13.23,1.21-8.89-.12-17.83-.84-26.65-.06a39.45,39.45,0,0,1-21-4.13c-34.39-16.53-67.1-35.75-96.71-60Zm66-79c-31.68-14.19-64.84-22.95-99.26-27.25a23.16,23.16,0,0,1-13.74-7C581.72,449.85,574,441,568,430.81a132.87,132.87,0,0,1-17.33-57.69c-.55-7.58,1.7-8.75,8.58-5.71a86.56,86.56,0,0,1,24.28,16q54.33,50.51,112,97.22c4.27,3.42,8.7,6.76,12.36,12.46-2.52-.35-3.74-.25-4.73-.69Zm-72-10.47c-1.28-4,.71-6.23,5-5.94a32.27,32.27,0,0,1,4.78.82c42.62,9.95,82.55,25.75,116,55.15,7,6.14,14.11,12.13,21.06,18.27,9,7.92,17.94,15.91,28,24.8-4.87,1.73-7.06.42-9.27-.39-30-11.23-60.72-19.86-92.85-22.46-7.53-.6-14-3.95-20-8.18a167.77,167.77,0,0,1-47.56-51.15,53.28,53.28,0,0,1-5.14-10.94Zm4-117.22c-1.34-6.9-3.15-13.85-2.51-21.77,4.81,1.54,7.42,4.1,10.14,6.41C658,362.09,673.07,375,688.36,387.68A44.45,44.45,0,0,1,700.59,404c13.13,28.72,26.51,57.33,39.76,86,4.7,10.21,9.26,20.5,13.9,30.75l-1.89,1.19q-48.06-40-96.15-79.92c-4.9-4.06-7.45-9.09-8.64-15.44-3.86-20.68-8.37-41.24-12.41-61.89Zm72.15,42.38c1.71.24,2.24.15,2.48.37A1332.73,1332.73,0,0,1,821.59,522a25.86,25.86,0,0,1,6.09,14.19c2,15.25,4.29,30.45,6.33,45.69.35,2.65,1.7,5.52-.67,8.15-4.27.59-6.4-2.92-9-5.14-17.11-14.82-34-29.94-51.15-44.7a48.88,48.88,0,0,1-12.79-17.36c-11.53-25.4-23.36-50.68-35-76C719.39,433.78,713.5,420.74,707.31,407.07ZM840.78,605.38c6.23,5.81,13.05,11,19,17,7.87,7.92,17.78,13.76,25.71,24.46-3.45.14-4.7.48-5.77.2-20.79-5.27-41.76-9.71-63.26-11.12-4.53-.29-8.6-2.3-12.46-4.52-11.95-6.83-23.54-14.23-34-23.28-11.06-9.59-21.2-20-29.07-32.43-2.08-3.26-5.58-7.12-2.63-11,2.63-3.46,6.86-.82,10.2-.05,19.71,4.69,38.69,11.71,57.62,18.87A105.61,105.61,0,0,1,840.78,605.38Zm-288.25-132c-1.33-2.21-4-4.31-1.73-8.14a473.09,473.09,0,0,1,63.46,6.39c6,1,8.82,4.41,11,9.75,7,17.51,18.08,32.35,31.21,45.78,7.91,8,16.92,14.65,28,23.51a409.21,409.21,0,0,0-58.16,1.68c-6.32.58-10.79-.57-15.08-5.05-21.86-22.82-42.31-46.74-58.66-73.92Zm-35.82-76.64c-3.55-11.62-7-23.33-8.16-35.53-.87-8.79.85-10.19,9.58-7.93,5.51,1.42,10.92,3.07,16.33,4.82,10.17,3.31,10.61,4.25,11.15,14.51,1.49,28.36,10.85,53.77,28.83,75.9,2.76,3.4,6.65,6,8.25,12.35-9.21,2-17.6-1.19-25.88-.47-9.74.84-14.93-3.88-18.86-12-8.16-16.8-15.78-33.81-21.24-51.68Zm23.51-99.39c8.19,25.54,20.42,49.15,34.38,72.06a203.85,203.85,0,0,0-44.32-17.5c-5.83-1.63-11.58-3.63-17.41-5.33-4.38-1.29-6.73-4.08-7.36-8.6a177.34,177.34,0,0,1,1.74-58c.8-4.21,3.21-5.91,7.81-5.41,13.39,1.47,20,6.6,23.94,19.31.36,1.15.85,2.27,1.22,3.43Zm3.94-5.58c-.68-4,1.62-5.1,5.1-3.83a43.66,43.66,0,0,1,5.48,2.62,481.56,481.56,0,0,1,62.38,39.94c5.6,4.22,8.19,9.37,9.46,16.12,3.66,19.48,8,38.85,11.82,58.29,1.38,7,3,14,2.81,21.06-1.49.19-2.06.43-2.26.27q-6.94-5.78-13.9-11.59c-36.2-30.41-62.62-67.55-77.91-112.42a70.12,70.12,0,0,1-3-10.46Zm33.35-40.24c3.54,12.39,6,25.09,10.58,37.22,1.95,5.17,3.53,10.47,6.08,18.15-17.26-10.39-32.41-19.37-48.15-27.25a6.82,6.82,0,0,1-3.77-7.06c1-11.27,2.7-22.41,6.4-33.16.79-2.37,2-4.37,4.92-4.64,8.22-.73,21.62,8.61,23.94,16.74Zm79.87,52a10.51,10.51,0,0,1,3.19,6.39c1.74,13.61,3.46,27.26,5.08,40.93.28,2.32.57,5.14-2.23,6.27-2.2.87-3.75-1-5.29-2.26-10.11-8.05-19.25-17.93-30.46-23.94-21.93-11.75-32.56-30.36-38.15-53.19A45.23,45.23,0,0,1,588.3,273c-1.06-7.37-5.81-14.16-3.94-24.71a427.1,427.1,0,0,1,73,55.22Zm53.67,50.81c11,10.14,18.68,21.87,22.79,36.4,3.17,11.25,7.81,22.09,11.67,33.14.9,2.54,2.7,5,1.16,7.95-.85-.12-1.86.06-2.32-.36l-68.13-62c-2.46-2.23-4.42-4.66-5-8-2.69-15.38-2.22-30.94-4.08-49.16,6.09,5.37,10.13,8.61,13.81,12.22,10,9.89,19.74,20.24,30.12,29.84ZM844.3,536.62c-2.68.48-3.57-1-4.55-2.21-23.54-28.45-48.63-55.48-74.51-81.74a43.63,43.63,0,0,1-10.11-16.36c-5-14.11-10.22-28.18-15.24-42.3-.85-2.39-2.54-4.93-.54-7.72,3.92,1.77,6,4.83,8.4,7.51,31.55,35.41,61.3,72.3,89.7,110.32C845.27,514.6,846,525.07,844.3,536.62Zm86.2,120.51a1123.34,1123.34,0,0,0-71.18-98.31c-8.16-10-8.71-20.8-7.86-32.68A812.58,812.58,0,0,1,930.5,657.13Zm2.86,23.3L846.6,604.35c-2.51-2.19-4.48-4.7-4.93-8.11q-3.61-27.57-7.22-55.17l2.27-1.1c36.53,44.09,70.79,89.77,99.44,140.67C934.13,680.5,933.6,680.6,933.36,680.43ZM760.31,642.68l.77-2.39c6,0,12.08.14,18.11,0,33.78-.54,67,2.53,99.88,11.31,14.23,3.76,26.52,9.42,36.56,20,4.57,4.82,10.9,8.14,15,17.07A665,665,0,0,1,760.31,642.68Zm125.54,70.48c-9.45,6.3-19.29,7-32.18,2.75,18.54-10.37,33.61-23.33,56.43-17.62-8.78,5.35-16.71,9.84-24.27,14.87Zm-84.39,438c-4.67-1.71-6.13-4.9-4.25-9.55,4.13-10,7.49-20.42,14.31-30.12,5.79,3.77,8.15,8.63,11.43,12.62,3.68,4.47,7.11,5.3,12.51,2.53,9.54-4.88,10.67-4.05,14.06,6.7,3.05,9.66,6.43,19.11,12.08,27.68,2.34,3.53,7,7.94,3.62,11.75-3.88,4.31-9.12,0-13-2.25-13.07-7.48-27.07-12.55-41.65-16.21a89.81,89.81,0,0,1-9.15-3.15Z"/><path class="cls-2" d="M1426.62,1133.65a20.44,20.44,0,0,1-3.48,6.32,26.86,26.86,0,0,1-5,4.84,26.51,26.51,0,0,1-5.34,3.1q1.77-4.85,3.22-9.47c1-3.08,1.73-5.78,2.29-8.1a24,24,0,0,0,.85-5c-.51-.11-1-.2-1.4-.26a9.49,9.49,0,0,0-1.06-.08,3.89,3.89,0,0,0-3.31,1.61,14.87,14.87,0,0,0-2,5c0,.34-.12.69-.21,1.06s-.18.78-.3,1.23a46.83,46.83,0,0,1-6.53,7.51q-3.4,3.1-5.77,3.1a2.38,2.38,0,0,1-1.87-.89,3.87,3.87,0,0,1-.77-2.59,14.64,14.64,0,0,1,1.36-5.69,27.19,27.19,0,0,1,3.69-6.06,20.46,20.46,0,0,1,5.4-4.8,12,12,0,0,1,6.36-1.87,6.52,6.52,0,0,1,2.08.3,4.24,4.24,0,0,1,1.74,1.23,4.68,4.68,0,0,0,.76-.68,2.15,2.15,0,0,0,.6-1.61,2.76,2.76,0,0,0-1.36-2.25,7,7,0,0,0-4.07-1,19.85,19.85,0,0,0-7.81,1.74,28.94,28.94,0,0,0-7.64,4.84,27.1,27.1,0,0,0-5.82,7,16.69,16.69,0,0,0-2.2,7.21,25,25,0,0,1-4.2,5,6.59,6.59,0,0,1-4.25,2,2.07,2.07,0,0,1-1.4-.55,2.45,2.45,0,0,1-.64-1.91,9.9,9.9,0,0,1,.81-3.82c.54-1.3,1.09-2.69,1.66-4.16a13.26,13.26,0,0,0,.84-4.75,9.22,9.22,0,0,0-1.74-5.44,6.14,6.14,0,0,0-5.39-2.46,11.26,11.26,0,0,0-5.73,1.66,27,27,0,0,0-5.47,4.28,50.44,50.44,0,0,0-4.84,5.61c.45-1.7.81-3.22,1.06-4.55a16.82,16.82,0,0,0,.38-3q0-2.55-3-2.55a5.33,5.33,0,0,0-2.59.68,7,7,0,0,0-1.82,1.36,24.32,24.32,0,0,1-.85,6c-.31,1.2-.65,2.38-1,3.52h0a27.12,27.12,0,0,1-5.51,7.25q-3.4,2.88-6.28,2.88a4.06,4.06,0,0,1-2.85-.89c-.65-.59-1-1.79-1-3.6a15,15,0,0,1,1.31-5.9,48.24,48.24,0,0,1,3.06-6c1.16-1.92,2.17-3.62,3.05-5.09a7.55,7.55,0,0,0,1.32-3.31,2.26,2.26,0,0,0-.77-1.83,2.71,2.71,0,0,0-1.78-.63,5.44,5.44,0,0,0-3.73,1.82,20.42,20.42,0,0,0-3.48,4.71,45.1,45.1,0,0,0-2.85,6.16,48.53,48.53,0,0,0-1.57,4.91h0c-.51.88-1.06,1.75-1.64,2.63a25,25,0,0,1-4.2,5,6.59,6.59,0,0,1-4.25,2,2.09,2.09,0,0,1-1.4-.55,2.45,2.45,0,0,1-.64-1.91,9.9,9.9,0,0,1,.81-3.82c.54-1.3,1.09-2.69,1.66-4.16a13.26,13.26,0,0,0,.85-4.75,9.29,9.29,0,0,0-1.74-5.44,6.16,6.16,0,0,0-5.39-2.46,11.2,11.2,0,0,0-5.73,1.66,26.74,26.74,0,0,0-5.48,4.28,51.51,51.51,0,0,0-4.84,5.61c.45-1.7.81-3.22,1.06-4.55a17,17,0,0,0,.39-3c0-1.7-1-2.55-3-2.55a5.29,5.29,0,0,0-2.58.68,6.93,6.93,0,0,0-1.83,1.36,24.32,24.32,0,0,1-.85,6c-.21.83-.44,1.65-.68,2.45a30,30,0,0,1-6.49,8.37q-3.69,3-5.73,3a2.1,2.1,0,0,1-1.95-1,3.92,3.92,0,0,1-.6-2.08,7.14,7.14,0,0,1,.73-3,29.26,29.26,0,0,1,1.69-3.14c.65-1,1.22-2,1.7-2.88a4.83,4.83,0,0,0,.72-2.17,1.77,1.77,0,0,0-.85-1.52,6.31,6.31,0,0,0-1.82-.9l-1-.29-.34-.09a.76.76,0,0,0-.68.43q-1.6,2.12-3.82,5.13t-4.62,5.9a34.47,34.47,0,0,1-4.8,4.8,7.21,7.21,0,0,1-4.33,1.91c-1.3,0-2-.91-2-2.72a16.75,16.75,0,0,1,1-5.35,35.06,35.06,0,0,1,2.8-6.07,36,36,0,0,1,4-5.68,22.74,22.74,0,0,1,4.71-4.2,8.8,8.8,0,0,1,4.84-1.62c1.47,0,2.43.46,2.89,1.36a6.81,6.81,0,0,1,.68,3.06,9.29,9.29,0,0,1-.13,1.61q-.12.76-.3,1.53a5.11,5.11,0,0,0,3.82-.6,3.61,3.61,0,0,0,1.62-3.31,5.83,5.83,0,0,0-2.55-4.92,10.25,10.25,0,0,0-6.2-1.87,15.78,15.78,0,0,0-7,1.7,27.93,27.93,0,0,0-6.53,4.46,36.64,36.64,0,0,0-5.44,6.15,32.5,32.5,0,0,0-3.62,6.62h0a30.78,30.78,0,0,1-2.52,3,28.75,28.75,0,0,1-6.79,5.31,14.74,14.74,0,0,1-7.17,2,7,7,0,0,1-3.74-.85,5.17,5.17,0,0,1-2-2,6.81,6.81,0,0,1-.72-2.25,13.4,13.4,0,0,1-.13-1.49,12.16,12.16,0,0,1,0-1.23,5.4,5.4,0,0,1,.13-.72,31.52,31.52,0,0,0,7.6-1.83,30.26,30.26,0,0,0,6.92-3.6,19,19,0,0,0,5-5,10.64,10.64,0,0,0,1.87-6c0-2.26-.66-3.78-2-4.54a8.35,8.35,0,0,0-4.2-1.15,15.28,15.28,0,0,0-7.81,2.3,28.6,28.6,0,0,0-7.13,6,32.19,32.19,0,0,0-5.14,7.89,21.12,21.12,0,0,0-1.71,5.52v0a26.8,26.8,0,0,1-4.65,5.58,6.73,6.73,0,0,1-4.38,2,3.13,3.13,0,0,1-2.63-1.4,7.69,7.69,0,0,1-1-4.46,26.76,26.76,0,0,1,.3-3.78c.2-1.38.41-2.78.64-4.2a47.47,47.47,0,0,0,7.34-7.21,77.38,77.38,0,0,0,6.28-8.79,89.49,89.49,0,0,0,4.92-9,62.08,62.08,0,0,0,3.23-8.1,21.52,21.52,0,0,0,1.15-6,10.42,10.42,0,0,0-.47-2.93,10,10,0,0,0-1.23-2.71A2.21,2.21,0,0,0,1229,1087q-1.62,0-4.2,2.85a57.44,57.44,0,0,0-5.65,7.59c-2,3.17-4.06,6.72-6.06,10.66s-3.85,8-5.52,12a102,102,0,0,0-4,11.75c-.34,1.26-.63,2.46-.85,3.61a38.32,38.32,0,0,1-4.88,6.67,33.37,33.37,0,0,1-8.32,6.7,18.49,18.49,0,0,1-9.13,2.55,10.54,10.54,0,0,1-7.13-2.34,13.25,13.25,0,0,1-3.94-6,24.45,24.45,0,0,1-1.23-7.77,43.94,43.94,0,0,1,1.69-11.67,65.2,65.2,0,0,1,4.63-12,64.17,64.17,0,0,1,6.58-10.53,36.52,36.52,0,0,1,7.59-7.51,13.41,13.41,0,0,1,7.69-2.8,4,4,0,0,1,3,.89,3.4,3.4,0,0,1,.85,2.42,10.63,10.63,0,0,1-.94,4,31.8,31.8,0,0,1-2.37,4.58q-1.45,2.34-3.06,4.42c-1.08,1.38-2,2.56-2.89,3.52a5.34,5.34,0,0,0,1.7,2,3.39,3.39,0,0,0,1.78.59,5.41,5.41,0,0,0,3.82-1.87,18.45,18.45,0,0,0,3.36-4.79,33.79,33.79,0,0,0,2.37-6.07,20.78,20.78,0,0,0,.89-5.69c0-2.83-.84-4.82-2.54-6a10.87,10.87,0,0,0-6.28-1.74,22.07,22.07,0,0,0-10.4,2.76,38.78,38.78,0,0,0-9.81,7.51,59.5,59.5,0,0,0-13.83,23.72,46.34,46.34,0,0,0-2,13.46,27.06,27.06,0,0,0,1.91,10,17.77,17.77,0,0,0,6,7.9,17.31,17.31,0,0,0,10.57,3,23.2,23.2,0,0,0,11.24-2.84,34.55,34.55,0,0,0,9.38-7.56c1.08-1.23,2.11-2.51,3.07-3.84,0,.14,0,.28,0,.41a12.22,12.22,0,0,0,1.57,6.32c1,1.78,2.9,2.67,5.56,2.67q4.92,0,9.42-4.37a32.81,32.81,0,0,0,2.74-3,9.72,9.72,0,0,0,2.82,5.68c1.95,2,4.74,2.93,8.36,2.93a20.38,20.38,0,0,0,9-2.12,27.52,27.52,0,0,0,8-5.93q0,.42,0,.84a6.8,6.8,0,0,0,7,7.47,9.35,9.35,0,0,0,6.07-2.38,51.32,51.32,0,0,0,6.24-6.45v.42a8.55,8.55,0,0,0,1.87,4.76,6.1,6.1,0,0,0,5.17,2.2,11.76,11.76,0,0,0,6.37-2,24,24,0,0,0,5-4.3,25.41,25.41,0,0,0-1,2.56,5.58,5.58,0,0,0,2.46,1.91,8.43,8.43,0,0,0,3.06.55q1.61-2.71,3.82-6.11t4.71-6.54a31.57,31.57,0,0,1,5.17-5.22,8.64,8.64,0,0,1,5.23-2.08,2.83,2.83,0,0,1,3,3.31,12.72,12.72,0,0,1-.6,3.74c-.4,1.3-.79,2.59-1.19,3.86a12.36,12.36,0,0,0-.59,3.61,5.54,5.54,0,0,0,1.74,4.2,7.06,7.06,0,0,0,5.05,1.65,10,10,0,0,0,6.15-2.07,21.32,21.32,0,0,0,4.72-5.09c0,.16,0,.31,0,.46a8,8,0,0,0,1.87,5.35,6.93,6.93,0,0,0,5.6,2.2,14.41,14.41,0,0,0,9.85-4.16,22,22,0,0,0,1.59-1.61,17.65,17.65,0,0,0-.74,2,5.58,5.58,0,0,0,2.46,1.91,8.43,8.43,0,0,0,3.06.55q1.61-2.71,3.81-6.11t4.72-6.54a31.19,31.19,0,0,1,5.17-5.22,8.64,8.64,0,0,1,5.22-2.08,2.82,2.82,0,0,1,3,3.31,12.7,12.7,0,0,1-.59,3.74c-.4,1.3-.79,2.59-1.19,3.86a12.36,12.36,0,0,0-.59,3.61,5.54,5.54,0,0,0,1.74,4.2,7.06,7.06,0,0,0,5,1.65,10,10,0,0,0,6.15-2.07,20.58,20.58,0,0,0,4.28-4.47,8.21,8.21,0,0,0,1.75,3.74,6.65,6.65,0,0,0,5.39,2.38,11,11,0,0,0,6.66-2.46,34.76,34.76,0,0,0,6.24-6.2q-.77,3.06-1.61,5.69t-1.78,4.92q-2.8,1.37-5.78,2.89a46.82,46.82,0,0,0-5.56,3.35,17.87,17.87,0,0,0-4.16,4,8.15,8.15,0,0,0-1.57,4.88,4.71,4.71,0,0,0,1.83,4.16,6.75,6.75,0,0,0,4,1.27,9.49,9.49,0,0,0,6.49-2.75,31.18,31.18,0,0,0,5.69-7.39,84,84,0,0,0,5-10.23,37.77,37.77,0,0,0,6.11-3.61,35.19,35.19,0,0,0,6.16-5.55,21.42,21.42,0,0,0,4.2-7.14Zm-194.84-2.55a31,31,0,0,1,3.65-5,22.61,22.61,0,0,1,4.16-3.66,7.45,7.45,0,0,1,4.08-1.4,1.56,1.56,0,0,1,1.1.34,1.87,1.87,0,0,1,.34,1.28,8.28,8.28,0,0,1-1.61,4.71,19.53,19.53,0,0,1-4.12,4.28,27.1,27.1,0,0,1-5.22,3.23,16.15,16.15,0,0,1-4.92,1.53A30.41,30.41,0,0,1,1231.78,1131.1Zm-17.17-12.77q2-4.72,4.16-9t4.2-7.55a59.36,59.36,0,0,1,3.53-5.22c1-1.28,1.71-1.91,2.16-1.91v.25a19.26,19.26,0,0,1-1,4.54,55.73,55.73,0,0,1-2.5,6.41q-1.61,3.57-3.78,7.39t-4.75,7.51a66,66,0,0,1-5.48,6.83Q1212.63,1123,1214.61,1118.33Zm184.09,46.72q-2.67,2.9-4.2,2.89a1.37,1.37,0,0,1-1.15-.64,2.88,2.88,0,0,1-.47-1.74,5.5,5.5,0,0,1,1.62-3.73,19.28,19.28,0,0,1,4.24-3.4c1.75-1.07,3.68-2.12,5.77-3.14Q1401.38,1162.18,1398.7,1165.05Z"/><path class="cls-2" d="M1351.68,1104.79a4.67,4.67,0,0,0-2.59-.68,8.28,8.28,0,0,0-4.59,1.44,4.13,4.13,0,0,0-2.2,3.48,2.73,2.73,0,0,0,1.31,2.51,5.56,5.56,0,0,0,2.93.8,6.43,6.43,0,0,0,4.24-1.65,4.61,4.61,0,0,0,2-3.44A2.7,2.7,0,0,0,1351.68,1104.79Z"/><path class="cls-2" d="M1483.5,1102c-.66,1.58-1.22,3.11-1.7,4.58a13,13,0,0,0-.72,4,4.14,4.14,0,0,0,.93,2.84,5.09,5.09,0,0,0,2.8,1.49,57.92,57.92,0,0,0,3-5.52,47.71,47.71,0,0,0,2.68-6.79,22.91,22.91,0,0,0,1.1-6.71,8.9,8.9,0,0,0-2.38-6.45q-2.37-2.46-8.23-2.46a23.43,23.43,0,0,0-10.18,2.17,25.05,25.05,0,0,0-7.81,5.64,26.93,26.93,0,0,0-5,7.43,18.48,18.48,0,0,0-1.74,7.43,11.25,11.25,0,0,0,2,6.7,19.82,19.82,0,0,0,5.14,4.92,66.48,66.48,0,0,0,6.62,4q3.48,1.83,6.62,3.82a20.5,20.5,0,0,1,5.14,4.5,9.29,9.29,0,0,1,2,6,9.1,9.1,0,0,1-2.33,6.37,14.43,14.43,0,0,1-5.94,3.82,22.15,22.15,0,0,1-7.43,1.27,15.66,15.66,0,0,1-7.39-1.57,10.9,10.9,0,0,1-4.45-4.07,10.4,10.4,0,0,1-1.49-5.39,14.12,14.12,0,0,1,1.4-5.86,22.35,22.35,0,0,1,4.12-5.94,18.74,18.74,0,0,0-5.94,1,10.57,10.57,0,0,0-5.09,3.61,11.29,11.29,0,0,0-2,7.17,13.36,13.36,0,0,0,2.8,8.66,16.77,16.77,0,0,0,7.26,5.17,25.92,25.92,0,0,0,9.38,1.7,29.13,29.13,0,0,0,8.36-1.23,26.77,26.77,0,0,0,7.51-3.56,18,18,0,0,0,5.39-5.73,15.15,15.15,0,0,0,2-7.81,13.6,13.6,0,0,0-2-7.47,19,19,0,0,0-5-5.27,53.9,53.9,0,0,0-6.53-4q-3.45-1.79-6.54-3.57a20.25,20.25,0,0,1-5-3.95,7.52,7.52,0,0,1-2-5.22,13.55,13.55,0,0,1,1.35-5.47A22.14,22.14,0,0,1,1474,1092a15.78,15.78,0,0,1,7.47-1.78c1.81,0,3,.28,3.6.85a3.08,3.08,0,0,1,.89,2.37,13.17,13.17,0,0,1-.72,3.95Q1484.47,1099.61,1483.5,1102Z"/><path class="cls-2" d="M1516.81,1121.42a.94.94,0,0,0-.23-.16,1,1,0,0,1,.2.15,1.82,1.82,0,0,1,.34,1.28,8.28,8.28,0,0,1-1.61,4.71,19.53,19.53,0,0,1-4.12,4.28,27.1,27.1,0,0,1-5.22,3.23,16.09,16.09,0,0,1-4.88,1.52v0a16.15,16.15,0,0,0,4.92-1.53,27.1,27.1,0,0,0,5.22-3.23,19.53,19.53,0,0,0,4.12-4.28,8.28,8.28,0,0,0,1.61-4.71A1.82,1.82,0,0,0,1516.81,1121.42Zm0,0a.94.94,0,0,0-.23-.16,1,1,0,0,1,.2.15,1.82,1.82,0,0,1,.34,1.28,8.28,8.28,0,0,1-1.61,4.71,19.53,19.53,0,0,1-4.12,4.28,27.1,27.1,0,0,1-5.22,3.23,16.09,16.09,0,0,1-4.88,1.52v0a16.15,16.15,0,0,0,4.92-1.53,27.1,27.1,0,0,0,5.22-3.23,19.53,19.53,0,0,0,4.12-4.28,8.28,8.28,0,0,0,1.61-4.71A1.82,1.82,0,0,0,1516.81,1121.42Z"/><path class="cls-2" d="M1699.55,1133.06a23.77,23.77,0,0,1-4.8,6.92,12.31,12.31,0,0,1-5,3l-.1,0,0-.14c.09-.49.16-1,.22-1.54a19.21,19.21,0,0,0,.08-1.94,25.31,25.31,0,0,0-1.22-7.75q-1.23-3.78-2.44-7.17a18.07,18.07,0,0,1-1.23-6,7.14,7.14,0,0,1,.21-1.94,4.33,4.33,0,0,0,.22-1.22,2.26,2.26,0,0,0-.55-1.24,1.87,1.87,0,0,0-1.47-.53,3.32,3.32,0,0,0-2.66,1.46q-1.14,1.44-1.14,5v.88a34.57,34.57,0,0,1-3.83,6.75,63.68,63.68,0,0,1-4.34,5.32,3.79,3.79,0,0,1-1.25.78h0l0,0a10.87,10.87,0,0,0-1.1.53c-.26.15-.53.3-.8.48a5,5,0,0,0-1.68,2.08,6.47,6.47,0,0,0-.56,2.07c-.53.69-1.09,1.34-1.68,2a28.59,28.59,0,0,1-6.74,5.51,14.1,14.1,0,0,1-7.12,2.06,6.66,6.66,0,0,1-3.7-.88,5.21,5.21,0,0,1-2-2.11,7.5,7.5,0,0,1-.71-2.33c-.08-.74-.13-1.25-.13-1.55a12.44,12.44,0,0,1,0-1.28c0-.26.07-.5.12-.74a30.35,30.35,0,0,0,7.54-1.9,29.37,29.37,0,0,0,6.87-3.74,19.56,19.56,0,0,0,5-5.2,11.49,11.49,0,0,0,1.85-6.26q0-3.53-2-4.71a8,8,0,0,0-4.17-1.2,14.72,14.72,0,0,0-7.76,2.39,29,29,0,0,0-7.08,6.21,33.88,33.88,0,0,0-5.1,8.19,22.85,22.85,0,0,0-1.73,5.94,22,22,0,0,1-1.68,2.17,24.47,24.47,0,0,1-6.49,5.41,13.53,13.53,0,0,1-6.65,2c-2.37,0-4-.69-4.77-2.07a8.83,8.83,0,0,1-1.22-4.54,19.54,19.54,0,0,1,1.22-6.39,32.23,32.23,0,0,1,3.21-6.6,22.46,22.46,0,0,1,4.29-5.12,7,7,0,0,1,4.43-2,1.31,1.31,0,0,1,1.59,1.49,8.82,8.82,0,0,1-.92,4.32,6.88,6.88,0,0,1-1.77,2.29,3,3,0,0,0,2.62,1.68c1.29,0,2.31-.78,3.07-2.34a10.81,10.81,0,0,0,1.14-4.8,6.46,6.46,0,0,0-1.56-4.31c-1-1.24-2.74-1.85-5.1-1.85a13.41,13.41,0,0,0-6.79,1.93,22.56,22.56,0,0,0-6,5.24,27.36,27.36,0,0,0-4.3,7.45,24.3,24.3,0,0,0-1.24,4.4h0a25.44,25.44,0,0,1-4.65,6.08c-2.26,2-4.33,3-6.25,3a3.89,3.89,0,0,1-2.82-.93c-.64-.61-1-1.85-1-3.73a16.12,16.12,0,0,1,1.31-6.13,49.67,49.67,0,0,1,3-6.22l3-5.28a8.09,8.09,0,0,0,1.31-3.43,2.38,2.38,0,0,0-.77-1.9,2.61,2.61,0,0,0-1.77-.66,5.29,5.29,0,0,0-3.7,1.89,21.59,21.59,0,0,0-3.46,4.89,48.81,48.81,0,0,0-2.83,6.39,52,52,0,0,0-1.67,5.55,9.63,9.63,0,0,1-1.27,1.5,4.76,4.76,0,0,1-3.25,1.46,2.86,2.86,0,0,1-2.39-1,5,5,0,0,1-1-2.47,20.82,20.82,0,0,1,.46-8.33,16.05,16.05,0,0,1,1.35-2.9,4.35,4.35,0,0,0,.68-2.38,5.32,5.32,0,0,0-.76-2.47,3,3,0,0,0-2.87-1.4,3.49,3.49,0,0,0-3,2q-1.17,2-1.34,8c-.84,1.94-1.82,4-2.91,6a66.49,66.49,0,0,1-3.45,5.81,27.22,27.22,0,0,1-3.59,4.4,5,5,0,0,1-3.28,1.72c-.68,0-1.1-.42-1.27-1.27a23.71,23.71,0,0,1-.25-4q0-2.82.21-5.82c.13-2,.21-3.87.21-5.64a9.8,9.8,0,0,0-.38-3.39c-.25-.55-1.06-.83-2.4-.83s-2.35.32-2.66,1a10.37,10.37,0,0,0-.54,3.61c-.06,1.71-.12,3.19-.17,4.47-.41.69-.89,1.43-1.43,2.19a30.75,30.75,0,0,1-3.72,4.27,23.15,23.15,0,0,1-4.3,3.31,8.36,8.36,0,0,1-4.21,1.27,2.8,2.8,0,0,1-1.48-.39,1.82,1.82,0,0,1-.62-1.63,9.65,9.65,0,0,1,1.09-4c.74-1.52,1.46-3.17,2.2-4.94a13.62,13.62,0,0,0,1.09-5.19,7.73,7.73,0,0,0-1.35-4.67,13,13,0,0,0-3.12-3.08c-1.18-.83-2.23-1.55-3.16-2.16a2.86,2.86,0,0,1-1.48-1.9l.56-1.67a6.31,6.31,0,0,0,.38-1.59,5.68,5.68,0,0,0-.47-1.63,1.55,1.55,0,0,0-1.47-1.18c-.84,0-1.72.67-2.62,2a7.72,7.72,0,0,0-1.34,4.32,3.34,3.34,0,0,0,.84,2.38q-1.77,5.19-3.71,9.42c-1,2.31-1.94,4.16-2.65,5.61a32.59,32.59,0,0,1-3.72,4.88,28.59,28.59,0,0,1-6.74,5.51,14.07,14.07,0,0,1-7.12,2.06,6.7,6.7,0,0,1-3.71-.88,5.25,5.25,0,0,1-1.94-2.11,8.08,8.08,0,0,1-.71-2.33c-.08-.74-.13-1.25-.13-1.55a12.44,12.44,0,0,1,0-1.28,5.71,5.71,0,0,1,.12-.74,30.35,30.35,0,0,0,7.54-1.9,29.37,29.37,0,0,0,6.87-3.74,19.56,19.56,0,0,0,5-5.2,11.49,11.49,0,0,0,1.85-6.26q0-3.53-2-4.71a8,8,0,0,0-4.17-1.2,14.66,14.66,0,0,0-7.75,2.39,28.43,28.43,0,0,0-7.08,6.21,33.62,33.62,0,0,0-5.11,8.19,20.83,20.83,0,0,0-1.89,8.24,10.61,10.61,0,0,0,2.9,7.62q2.91,3,8.31,3a19.57,19.57,0,0,0,8.89-2.2,27.84,27.84,0,0,0,7.93-6.16,32.42,32.42,0,0,0,3.36-4.49l0,.07q1.44-2.55,3.76-7.09a97.78,97.78,0,0,0,4.17-9.38,10.85,10.85,0,0,1,2.94,2.25,4.78,4.78,0,0,1,1.28,3.39,12.15,12.15,0,0,1-1.23,4.84c-.82,1.83-1.61,3.68-2.4,5.56a13.67,13.67,0,0,0-1.18,5.28,5.88,5.88,0,0,0,1.94,4.63,7.34,7.34,0,0,0,5,1.71,14,14,0,0,0,7.51-2.33,28.47,28.47,0,0,0,6.74-6c.51-.61,1-1.23,1.44-1.85,0,.3,0,.55,0,.75a20.22,20.22,0,0,0,1.22,7.62,4.37,4.37,0,0,0,4.34,3c1.8,0,3.62-.88,5.48-2.61a35.59,35.59,0,0,0,5.35-6.48,77.61,77.61,0,0,0,4.6-7.83,17.09,17.09,0,0,0,2.65,5.85,5.35,5.35,0,0,0,4.51,2.34,7.54,7.54,0,0,0,4.6-1.93c.22-.19.45-.4.67-.62a17.88,17.88,0,0,0-.22,2.64,8.57,8.57,0,0,0,1.86,5.55A6.71,6.71,0,0,0,1597,1151c3.49,0,6.74-1.44,9.78-4.32a25.47,25.47,0,0,0,3.55-4.25c.11,3.55,1.06,6.21,2.82,8a9.64,9.64,0,0,0,7.19,2.86,17.64,17.64,0,0,0,8.64-2.42,29.2,29.2,0,0,0,7.93-6.61c.24-.27.46-.55.67-.83a10.29,10.29,0,0,0,2.78,5.76q2.91,3,8.3,3a19.58,19.58,0,0,0,8.9-2.2,27.66,27.66,0,0,0,7.92-6.16l.65-.75a15.49,15.49,0,0,0,.91,3.34,10,10,0,0,0,3.67,4.59,11.55,11.55,0,0,0,6.78,1.8,13.85,13.85,0,0,0,7-1.76,10,10,0,0,0,4.42-5.38h0a12.85,12.85,0,0,0,7.07-3.74,19.73,19.73,0,0,0,4.63-8.06Zm-52.22-2a30.37,30.37,0,0,1,3.65-5,22.25,22.25,0,0,1,4.15-3.66,7.5,7.5,0,0,1,4.08-1.4,1.52,1.52,0,0,1,1.1.34,1.82,1.82,0,0,1,.34,1.28,8.28,8.28,0,0,1-1.61,4.71,19.53,19.53,0,0,1-4.12,4.28,27.1,27.1,0,0,1-5.22,3.23,16.15,16.15,0,0,1-4.92,1.53A29.78,29.78,0,0,1,1647.33,1131.09Zm-143.54,0a31.58,31.58,0,0,1,3.65-5,22.61,22.61,0,0,1,4.16-3.66,7.47,7.47,0,0,1,4.08-1.4,2.25,2.25,0,0,1,.38,0,1.45,1.45,0,0,1,.52.16,1,1,0,0,1,.2.15,1.82,1.82,0,0,1,.34,1.28,8.28,8.28,0,0,1-1.61,4.71,19.53,19.53,0,0,1-4.12,4.28,27.1,27.1,0,0,1-5.22,3.23,16.09,16.09,0,0,1-4.88,1.52h0A30.41,30.41,0,0,1,1503.79,1131.09Zm176.13,16.72a6,6,0,0,1-3.14.85,5.33,5.33,0,0,1-4.76-2.46,9.48,9.48,0,0,1-1.61-5.26c0-1.36.4-2.12,1.19-2.29a18.85,18.85,0,0,0,4.33,4,17.27,17.27,0,0,0,6.28,2.72A6,6,0,0,1,1679.92,1147.81Zm3.18-6.41a6.58,6.58,0,0,1-.21,1.4,16.05,16.05,0,0,1-6-2.88,15.86,15.86,0,0,1-4-4.33,35.91,35.91,0,0,0,3.82-4.92q2-3.06,3.57-5.69.93,3.9,1.87,7.64a33.94,33.94,0,0,1,1,7.55C1683.14,1140.46,1683.13,1140.87,1683.1,1141.4Z"/><path class="cls-2" d="M1611.49,1104.79a4.62,4.62,0,0,0-2.58-.68,8.28,8.28,0,0,0-4.59,1.44,4.14,4.14,0,0,0-2.21,3.48,2.74,2.74,0,0,0,1.32,2.51,5.56,5.56,0,0,0,2.93.8,6.43,6.43,0,0,0,4.24-1.65,4.63,4.63,0,0,0,2-3.44A2.68,2.68,0,0,0,1611.49,1104.79Z"/><line class="cls-3" x1="1689.79" y1="1142.7" x2="1688.7" y2="1145.94"/><path class="cls-4" d="M1683.05,1142.09c-.08,1.75-.53,3-1,3.32"/><circle class="cls-5" cx="931.16" cy="931.16" r="874.5"/><path class="cls-6" d="M403.87,800.32a85.13,85.13,0,0,0-26.94-24.52,138.67,138.67,0,0,0-36.38-14.88,156.24,156.24,0,0,0-38.59-5,176.23,176.23,0,0,0-35.38,3.62,258.24,258.24,0,0,0-32.76,8.84q-15.07,5.24-26.33,10c0,1.88.93,4,2.81,6.43a33,33,0,0,0,6.64,6.44q3.81,2.81,5.82,2.81c2.15,0,5.49-1.27,10.05-3.82s10.46-5.49,17.69-8.84a122.42,122.42,0,0,1,26.13-8.24Q261.35,807,249.1,837.91t-23.32,61.7q-11.06,30.76-21.91,63.92t-23.32,71.36q-1.61,5.22-3.41,11.25a39.16,39.16,0,0,0-1.81,11.26q0,10,10.65,16.48a43.18,43.18,0,0,0,22.71,6.43q9.26-32.16,20.1-71.75t22.11-79.4h2.42q7.23,0,21.7-1.2t32.77-4.43a236.07,236.07,0,0,0,36.78-9.64A154.88,154.88,0,0,0,378.94,897a84.73,84.73,0,0,0,25.53-25.73q9.64-15.27,9.65-36.58Q414.12,815,403.87,800.32ZM369.7,865.94a89.88,89.88,0,0,1-29.35,26.73,166.25,166.25,0,0,1-40.8,16.68,239.75,239.75,0,0,1-45,7.64q12.06-41.81,25.33-80.2t27.74-66.53a103.5,103.5,0,0,1,35.17,6.83A66.92,66.92,0,0,1,370.1,796q10.65,12.46,10.65,32.56Q380.75,849.87,369.7,865.94Z"/><path class="cls-6" d="M481.45,840.61a22.3,22.3,0,0,0-12.26-3.22,39.12,39.12,0,0,0-21.71,6.84Q437,851.07,437,860.71q0,8,6.23,11.86a26,26,0,0,0,13.87,3.82q10.86,0,20.1-7.84t9.25-16.28Q486.48,843.83,481.45,840.61Z"/><path class="cls-6" d="M752.39,840.61a22.32,22.32,0,0,0-12.26-3.22,39.1,39.1,0,0,0-21.71,6.84Q708,851.07,708,860.71q0,8,6.23,11.86a26,26,0,0,0,13.87,3.82q10.86,0,20.1-7.84t9.25-16.28Q757.42,843.83,752.39,840.61Z"/><path class="cls-6" d="M893.29,976.49a150.56,150.56,0,0,1-25.13,35A136,136,0,0,1,836,1036.58q-17.09,9.45-34,9.45-11.25,0-17.68-4a24.22,24.22,0,0,1-9.25-9.65,32.55,32.55,0,0,1-3.42-10.65,69.53,69.53,0,0,1-.6-7,57.39,57.39,0,0,1,.2-5.83,24.81,24.81,0,0,1,.6-3.42,151.3,151.3,0,0,0,36-8.64,143.89,143.89,0,0,0,32.77-17.09A90.4,90.4,0,0,0,864.34,956a50.44,50.44,0,0,0,8.85-28.54q0-16.07-9.45-21.51a39.43,39.43,0,0,0-19.9-5.42q-18.5,0-37,10.85a136.72,136.72,0,0,0-33.77,28.34,152.71,152.71,0,0,0-24.32,37.39,98.84,98.84,0,0,0-8.38,27.92s0,0,0,0q-8.5,12.35-16.73,19.29Q707.57,1038,693.9,1038q-8.85,0-13.47-4.22t-4.62-17.08q0-13.28,6.23-27.94a225.57,225.57,0,0,1,14.47-28.34q8.24-13.67,14.48-24.12t6.23-15.68q0-5.62-3.62-8.65a12.78,12.78,0,0,0-8.44-3q-8.85,0-17.69,8.64A97.66,97.66,0,0,0,671,939.9a213.64,213.64,0,0,0-13.47,29.15,236.08,236.08,0,0,0-7.43,23c-.72,1.15-1.46,2.31-2.22,3.49a206.23,206.23,0,0,1-14.47,19.7,94.83,94.83,0,0,1-15.88,15.48q-8,6-14.87,6-7.23,0-11.46-7.24a56,56,0,0,1-6.23-17.89q-2-10.65-3-20.7a152.25,152.25,0,0,0-2.21-15.68q13.26-14.87,25.92-26.73a227.45,227.45,0,0,1,22.52-18.9q9.84-7,15.07-7a14.08,14.08,0,0,0-6.43-8q-4.43-2.42-6.83-2.41-5.64,0-20.51,12.26t-33,30.35q-4.42-15.67-12.66-24.93t-24.32-9.24q-14.09,0-23.32,6.63a55.94,55.94,0,0,0-15.48,17.09,196.17,196.17,0,0,0-11.25,21.9c-3.36,7.64-10,22.6-10,22.6-9.84,19.83-18.13,28.13-26.79,35.49Q436.63,1038,423,1038q-8.85,0-13.47-4.22t-4.62-17.08q0-13.28,6.23-27.94a225.57,225.57,0,0,1,14.47-28.34q8.24-13.67,14.48-24.12t6.23-15.68q0-5.62-3.62-8.65a12.78,12.78,0,0,0-8.44-3q-8.85,0-17.69,8.64a97.36,97.36,0,0,0-16.48,22.31,213.64,213.64,0,0,0-13.47,29.15,227.61,227.61,0,0,0-9,29.55q-3.23,14.07-3.22,23.31,0,14.88,8.84,25.33t26.54,10.45q24.92,0,46.63-19.7,16.21-14.71,28.17-38.2c.5-1,1-1.92,1.63-2.83,2.69-4.14,10.82-16.77,14.81-24.09a133.8,133.8,0,0,1,14.88-22.31q7.63-9,16.48-9T544.36,952q3.21,10.47,6,30.15-15.67,16.89-29.35,33t-22.11,28.34q-8.43,12.25-8.44,17.89a9.83,9.83,0,0,0,1.81,5.22,6,6,0,0,0,5.43,2.82,8.43,8.43,0,0,0,6.83-3.62q6.84-8.85,19.9-24.72t29.15-34a145.57,145.57,0,0,0,5.83,23.31,48.79,48.79,0,0,0,11,18.7q7.23,7.42,19.7,7.43,15.27,0,29.75-10.85a120.65,120.65,0,0,0,25.38-26.41c0,.93-.06,1.82-.06,2.69q0,14.88,8.84,25.33t26.54,10.45q24.92,0,46.63-19.7a113,113,0,0,0,13.16-14.28,45.79,45.79,0,0,0,13.16,25.74q13.88,13.86,39.6,13.87a96.28,96.28,0,0,0,42.41-10,130.11,130.11,0,0,0,37.79-28.14,151.41,151.41,0,0,0,27.94-42.21ZM788.37,965.23a145.78,145.78,0,0,1,17.28-23.52,105,105,0,0,1,19.7-17.28q10-6.64,19.3-6.64,3.61,0,5.22,1.61t1.61,6q0,11.27-7.64,22.31A92.38,92.38,0,0,1,824.35,968a129.52,129.52,0,0,1-24.73,15.28q-12.87,6-23.31,7.24A143.24,143.24,0,0,1,788.37,965.23Z"/><path class="cls-6" d="M1253.27,811.87a86.7,86.7,0,0,0-34.37-40.61q-23.73-15.07-63.11-15.07a176.5,176.5,0,0,0-52.26,7.44,160.84,160.84,0,0,0-42.41,19.69q-18.3,12.27-28.55,26.74t-10.25,28.54a24.85,24.85,0,0,0,7.44,18.29q7.44,7.44,24.72,7.44a43.08,43.08,0,0,1-2.81-9.85,59.47,59.47,0,0,1-.8-9.45,61.56,61.56,0,0,1,11.85-37.18q11.87-16.29,32.77-25.73t47-9.45q24.92,0,44.22,9.45t30.35,29.75q11.06,20.29,11.06,52.86,0,25.32-8,53.06a253.45,253.45,0,0,1-22.92,54.07,242.46,242.46,0,0,1-34.77,47.44,170.16,170.16,0,0,1-43.62,33.77,104.41,104.41,0,0,1-49.85,12.66,108.05,108.05,0,0,1-11-.6,38.47,38.47,0,0,1-9-1.81q6-28.54,15.47-62.92t20.91-70.75q11.44-36.37,24.12-70.75t25.12-62.51q-8.45-5.62-15.28-5.63a20,20,0,0,0-12.66,4.62,47.36,47.36,0,0,0-10.25,11.46,94.06,94.06,0,0,0-7.24,13.27q-2.8,6.43-4,9.65-2.82,7.63-8.65,24.72t-13.26,39.8q-7.45,22.71-15.08,47.63t-14.47,48.44q-6.84,23.52-11.46,42t-5.83,28.14q9.24,12.46,21.91,16.28a92,92,0,0,0,26.74,3.82,163.2,163.2,0,0,0,58.08-10.85,210.24,210.24,0,0,0,54.27-30.55,230.17,230.17,0,0,0,45-46.23,221,221,0,0,0,30.55-58.09,198.56,198.56,0,0,0,11.05-66.13Q1263.92,837.4,1253.27,811.87Z"/><path class="cls-6" d="M1707.39,975.17q-15.66,31.37-36.74,49.65t-41.17,18.29q-11.24,0-16.46-6.83t-5.21-23.32a139.58,139.58,0,0,1,6.22-40.4,382.57,382.57,0,0,1,14.65-40.4h6.91q16.56-.39,34.72-1.58t39.85-3.16v-13q-14.6,1.58-28.6,2.17t-31.38.59h-13.86q11.27-22.5,23.35-42.41T1680,840q8.25-14.87,8.27-22.92,0-5.62-3.63-8.64a11.83,11.83,0,0,0-7.65-3q-6.85,0-15.71,9t-18.72,24.72a399.14,399.14,0,0,0-19.74,35.58Q1613,894.66,1604.5,916l-8.66-.81q-4.23-.39-10.68-1.2v12.46a29.83,29.83,0,0,0,7.46,2.21,55.84,55.84,0,0,1,6.64,1.41,509.27,509.27,0,0,0-15.91,50.65q-1.74,6.86-3,13.07a81.86,81.86,0,0,1-12.11,13.66c-8,7.1-24.56,13.87-24.56,13.87s.93-5,1.2-7.64a88.45,88.45,0,0,0,.41-8.84,110,110,0,0,0-5.84-35.38q-5.85-17.28-11.68-32.76t-5.84-27.54a30.45,30.45,0,0,1,1-8.84,19.53,19.53,0,0,0,1-5.63,10,10,0,0,0-2.61-5.63q-2.22-2.41-7-2.41-7.24,0-12.69,6.63T1496.16,916v3.74a155.58,155.58,0,0,1-18.27,30.75,291,291,0,0,1-20.68,24.32,17,17,0,0,1-5.75,3.43l-4,1.75A58.56,58.56,0,0,0,1442,983a22.78,22.78,0,0,0-8,9.45q-2.61,5.24-3.1,13.94-1.83,2.34-3.72,4.55-12.46,14.47-24.1,22.11t-20.08,7.64q-6.42,0-8.63-4.22a20.89,20.89,0,0,1-2.21-9.85q0-9.65,3.82-22.31a252.71,252.71,0,0,1,8.83-24.73q5-12.06,8.83-20.7t3.82-9.85a8.22,8.22,0,0,0-4.42-7.44,42.5,42.5,0,0,0-10.24-4.22,65.61,65.61,0,0,0-9.44-2q-4,8.85-10.24,21.71t-14,26.53q-7.83,13.68-16.07,25.53a124.22,124.22,0,0,1-16.06,19.3c-5.21,5-10.11,7.43-14.65,7.43q-6,0-8.44-5.22a35.1,35.1,0,0,1-3-11.26c-.4-4-.6-6.56-.6-7.64q0-12.45,4.81-27.73a231.38,231.38,0,0,1,11-28.55q6.23-13.26,10.64-19.69a41.1,41.1,0,0,0-10.24-7.44q-5.82-3-8.63-3-5.24,0-11.45,9.65a142.93,142.93,0,0,0-12,24.12,207,207,0,0,0-9.45,29.75q-3.6,15.28-3.61,26.53a50.5,50.5,0,0,0,8.64,29.15q8.63,12.66,22.29,12.66,10,0,19.07-6.83a94.49,94.49,0,0,0,17.07-17.09,251.07,251.07,0,0,0,14.85-21.1v8a96.5,96.5,0,0,0,2.41,17.48,27.13,27.13,0,0,0,7.83,14.07q5.82,5.43,17.47,5.43,15.26,0,31.33-9.85,15.61-9.57,29.36-26.21a68.75,68.75,0,0,0,4.37,15.36,46,46,0,0,0,17.47,20.9q12.24,8.23,32.32,8.24,18.46,0,33.13-8t21.09-24.52a62.65,62.65,0,0,0,33.73-17.09c1.26-1.2,2.47-2.46,3.64-3.76q-.43,4.88-.43,9.19,0,21.31,10.85,31.76t28.51,10.45q19.26,0,37.35-11t33.52-30.35a192.59,192.59,0,0,0,25.91-43Zm-209.5,69.17a28.84,28.84,0,0,1-14.87,4q-14.88,0-22.52-11.65a44.68,44.68,0,0,1-7.63-24.93q0-9.64,5.62-10.85,7.24,9.65,20.51,18.89a82.29,82.29,0,0,0,29.74,12.87A28.55,28.55,0,0,1,1497.89,1044.34ZM1513,1014a30.3,30.3,0,0,1-1,6.64,76.21,76.21,0,0,1-28.54-13.67q-12.47-9.65-18.9-20.5a173.22,173.22,0,0,0,18.09-23.32q9.66-14.48,16.89-26.93,4.41,18.49,8.84,36.18a161.82,161.82,0,0,1,4.83,35.77Q1513.17,1010.19,1513,1014Z"/><path class="cls-6" d="M1451.06,978.9q-1.74.66-3.57,1.56l4-1.75Z"/><path class="cls-6" d="M1447.49,980.46q1.83-.9,3.57-1.56l.47-.19"/><path class="cls-7" d="M1512.81,1015.69a89.84,89.84,0,0,1-1.4,9.9,31.37,31.37,0,0,1-4,9.31"/><path class="cls-8" d="M1544.54,1017a94.78,94.78,0,0,1-6,20.36"/></g></g></svg>