<svg id="Layer_7" data-name="Layer 7" xmlns="http://www.w3.org/2000/svg" viewBox="0 0 1862.33 1862.33"><defs><style>.cls-1,.cls-5{fill:none;}.cls-1{stroke:#acc7e2;stroke-width:113.33px;}.cls-1,.cls-3,.cls-4,.cls-5,.cls-6{stroke-miterlimit:10;}.cls-2{fill:#fde1ff;}.cls-3,.cls-4,.cls-6{fill:#acc7e2;}.cls-3,.cls-4,.cls-5,.cls-6{stroke:#fde1ff;}.cls-3{stroke-width:2px;}.cls-6{stroke-width:2.01px;}</style></defs><circle class="cls-1" cx="931.16" cy="931.16" r="874.5"/><g id="Layer_10" data-name="Layer 10"><path class="cls-2" d="M564.3,1481.54c4,2.61,7.89,2,10.61-2,7.54-11.28,18.56-17.73,30.65-23A65.22,65.22,0,0,0,628,1440.1c26.52-29.84,61-47.8,95.7-65.6q34-17.51,68.25-34.75c21-10.58,36.76-26.25,46.8-47.64a172.44,172.44,0,0,1,8.36-16.22c4.39-7.25,6.39-7.8,13.71-3.79,8.54,4.68,16.84,9.75,25.21,14.72,28.46,16.91,59.08,28.49,91,36.83a86.83,86.83,0,0,0,21.63,3c15.6,0,24.3-6.92,26.92-22.28,2.68-15.77.56-31.57-.67-47.27-1.67-21.06-7.63-41.42-11.24-62.18-.83-4.78-2-9.55-2.26-14.36-.28-4.11,1.92-6.09,6.17-4.11a16.21,16.21,0,0,1,2.08,1.26c3.82,2.51,8,5.12,12.36,2.32,5.36-3.41,4.31-9.14,3.64-14.36-5.07-38.89-19.21-74.37-40.23-107.28-2.2-3.41-4.11-7.11-6.83-10-6.22-6.7-4.54-12.87-.15-19.69,9.46-14.69,22.5-25.53,37-34.61,20.93-13.11,42.21-25.78,65.72-34.07a86.19,86.19,0,0,0,12.2-5.4c13.5-7.33,23.18-17.5,25-33.65.53-4.69.33-11.18,5.25-12.72,5.11-1.57,7.79,4.73,11.13,7.92,13.5,12.87,26.44,26.34,41.21,37.8,3.85,3,7.72,5.94,11.78,8.61,11.8,7.75,23.54,7.64,35.13-.63,8.92-6.39,16.79-14,24.76-21.52q38.08-35.85,76.24-71.61c3.55-3.32,7.25-6.49,11-9.58,8.54-7.08,8.84-7.12,17.42-.09,4.39,3.56,8.57,7.42,12.74,11.28a74.49,74.49,0,0,0,19,13c10.65,5,21,5.83,30.46-3a41.73,41.73,0,0,1,5.89-4.28c4.62-3,9-3,13.28.85,24.42,22.1,52.68,38.86,79.6,57.23,16.76,11.38,32.69,24,50.57,33.7,2.74,1.48,4.72,4.34,7.08,6.55a44.9,44.9,0,0,0,5.32,4.85c1.7,1.14,4,1.5,5.57-.24,1.89-2.09.15-3.72-1.32-5.09a51.3,51.3,0,0,0-4.74-3.81c-25.86-18.87-51.69-37.8-77.65-56.54-6.28-4.52-11.68-10.16-17.86-14.56-11.22-8-22-15.6-28.21-28.73-2.65-5.72-9-9.21-14.48-12.73-11.24-7.25-22.68-14.17-34-21.35s-23.74-8.81-36.87-10.49c-22.84-2.92-40.26,5.12-57.86,18.76a1015,1015,0,0,1-89.71,62.63c-20.48,12.6-17.59,10-29-6.31-18.39-26.28-39.76-50.2-59.47-75.42-7.74-9.91-15.56-19.76-23.77-29.27-4.31-5-5.27-9.85-2-15.44s6.17-11.44,9.83-16.77c5.51-8,7.13-8.3,15.94-3.2,9.46,5.49,18.62,11.51,28.08,17,7.42,4.3,15.34,7.47,24.07,7.82,9.73.38,13.87-1.95,15.68-11.41,2.56-13.35,13.49-22,18-34.2,1.24-3.33,5.33-3.19,8.28-4.43,8.11-3.42,9.73-8.54,5.46-16.46a22.41,22.41,0,0,0-2.67-4.06c-6.41-7.49-6.16-15.49-1.94-23.8s8.61-16.53,13.13-25.19c4,.5,3.75,6.74,8.25,5.72,4.31-1,6.9-4.1,9.22-7.44,11.14-16,8.84-40-5.75-53.36-10.77-9.83-21.33-19.7-30.69-31-10.06-12.17-24.36-18.69-38.91-24-19.12-7-38.8-11.86-59.28-12.25-7.32-.14-12.84-2.53-18.37-7.53-22.21-20.07-44.12-17.79-62.46,5.81-11.37,14.64-13.35,30.87-1.71,46,9.95,12.88,12,24.41,6.95,39.71-5.63,17.07-2.52,34.46,5,50.91q4.28,9.39,7.85,19.1c9.81,26.46-17.85,52.59-38.19,54.72-5.46.58-6.86-2.79-8.65-6.61-10.27-22.05-21.84-43.43-34-64.52-35.89-62.39-77.85-120.51-124-175.64-39.89-47.63-81.81-93.26-128.7-134.12-23.87-20.79-48.65-40.43-76.62-55.61a160.74,160.74,0,0,0-16.42-7.89c-16.6-6.73-18.64-5.7-23.17,12.11-1.79,7.05-2.87,14.29-4.1,21.48-.45,2.78-.54,5.63-2.77,8.57-5.7-1.66-11.41-3.59-17.23-5-10.92-2.59-12.82-1.39-15.31,9.27a155.73,155.73,0,0,0-3.58,27.69c-2.1,41.3,6.3,80.75,22.52,118.41C637,589.12,700.05,654.9,785,700.08a640.25,640.25,0,0,0,115.78,47.3c1.54.45,3.23.47,4.63,2.84-5.1-.22-9.78-.34-14.42-.61a1057.13,1057.13,0,0,0-136,.72c-22.69,1.55-45.27,3.78-67.67,7.25-21.24,3.29-42.29,7.83-62.37,15.7-18.3,7.18-19,10.76-4.92,24.66,4,4,8.24,7.57,12.75,11.69-4,5.25-10.22,5.56-14.86,8.44-7.12,4.45-8,7-2.48,13.37,13.43,15.62,30.14,27,48.57,35.87,35,16.84,72.22,23.51,110.76,24.44,16.54.4,32.93-1.63,49.3-2.4.21.77.52,1.35.37,1.54q-25.08,32.83-50.29,65.57a27.33,27.33,0,0,1-20.75,11.13c-9.3.6-18.62,1.08-27.89,1.92-22.9,2-40.16,14-53.29,32.06-5,6.95-2.69,10.41,5.8,10.45,10.41.06,19-3.49,24.44-13,2-3.45,3.75-7.44,8.38-8.14,2.52-.39,4.93.13,6.48,2.39,1.37,2.1.16,3.86-1.23,5.41-3,3.35-6,6.65-8.85,10-1.55,1.81-3.54,3.74-2,6.39,1.32,2.3,3.79,2.9,6.27,3.14a13.07,13.07,0,0,0,10-3.52c9-7.72,19.46-11.15,31.05-12.54,9.45-1.14,17.81-5.26,25.2-11.31,35.1-28.75,72-55.34,104-87.84a92.78,92.78,0,0,1,30.26-20c16.78-7.12,33.14-15.27,50.32-21.5,2.23-.81,4.34-2.15,6.81-1.66,2.68,2.94.48,5.52-.41,8-3.37,9.13-7,18.18-10.46,27.25-5.12,13.28-13.95,23.5-25.48,31.74-13.34,9.55-28.24,16.24-43.46,21.56-35.08,12.27-53.93,37.15-60.11,72.83-2.91,16.77-5.77,33.55-8.15,50.41-1.8,13-7,23.76-17,32.53a238,238,0,0,0-21.24,21.71c-4.85,5.41-3.39,9.2,3.37,11.63,5.48,2,10.36-.5,15.45-1.59,9.4-2,11.32-.09,8,9.12a71.45,71.45,0,0,0-4.23,31c.88,10.37-1.57,13.27-11.94,14.14-9.29.79-16,5.2-21.7,11.9-3.4,4-6.64,8.18-9.73,12.44a38.21,38.21,0,0,1-17.92,14c-10,3.7-19,8.85-25.84,17.44a29.89,29.89,0,0,1-17.45,10.42,34.24,34.24,0,0,0-8,2.86c-5,2.52-6.78,6.9-5.5,12.22,1.46,6,6.51,5.69,10.81,4.69,21-4.86,42.49-6.4,63.62-10.22,5.11-.92,10-3.28,14.92-5.07,2.32-.84,4.78-2,6.73.19,1.72,1.93,1.49,4.53.87,7-1.32,5-4.7,8.3-9.13,10.81A367.55,367.55,0,0,0,691,1344.18c-5.33,5.54-11.29,10.46-16.91,15.73-7.41,7-16.23,8.67-26,7-4-.64-8-1.56-12-2.19-11.5-1.81-17.13.87-23.08,11-4.2,7.17-6,15.18-6.34,23.28-.64,13.19-6.06,23.33-17.15,30.43-5,3.17-8.2,7.61-10.69,12.89C574,1452.64,568.81,1462.72,564,1473,562.6,1475.75,560.53,1479.16,564.3,1481.54ZM943.9,801.15c-20.31,18.65-33.61,13.15-55.32-4.78,18.82.08,36.12,1.9,55.32,4.78Zm-40.8,14.2c-18.52,0-35.65,2.25-52.87,3.4-2.33.16-4.78-.78-7.1-1.45-19.42-5.57-38.84-11.14-58.21-16.89-2.46-.74-5.76-.5-7.09-3.73,2-2,4.47-1.54,6.78-1.54,25.43-.4,50.83-1.52,76.32-.57C874.43,795.05,891.75,803.07,903.1,815.35Zm-29.8-34.09c.06,1,.12,1.9.19,2.88-16.29,9.08-34.22,1.88-51,3,8.38-1.1,16.76-2.3,25.16-3.26s17.12-1.73,25.69-2.57ZM746.16,858.18c-3.89,2.59-8.33,3.05-12.82,3-14.36-.14-28.21-2.71-41-9.57-3.79-2-10.27-3.23-9.79-7.81.61-5.92,7.53-5,12-5.41,20.94-2.06,41.89-4.17,62.91-5.15,12.37-.57,24.63-2.51,37.22-2.37A338.74,338.74,0,0,0,746.16,858.18Zm21.14-5.42c33.83-23.71,71.91-30.52,113.35-30.18-15.17,7.1-29.17,13.56-41.53,22.78-22.53,16.83-47,13.13-71.82,7.37Zm-29-23.56c-33.1,5.21-64.86,1.11-95.65-13,16.85-6.2,33.84-10.79,51.6-12,3.34-.24,6.26,1.3,9.11,2.85,9.93,5.39,19.9,10.72,29.73,16.28,2.12,1.19,5.61,1.57,5.21,5.87Zm14-1.52c-14.52-7.57-29-15.3-43.41-23,.17-.88.35-1.76.51-2.64,9.43-1.24,18.89-2.22,28.27-3.76a66.2,66.2,0,0,1,31.09,2.37c16.21,5.09,32.63,9.44,48.91,14.26,2.89.84,6.45.84,8.3,3.93-.61,2.14-2.38,2.14-3.87,2.32q-30.11,3.61-60.23,7.16c-3.22.37-6.6.88-9.57-.66Zm194-51.5c-19,22.38-41.73,14.22-63.63,11.81,19.53-12.58,41.56-10.12,63.63-11.87Zm-63,65.36c-9.35,6.16-18.85,5-29.23,1.91,14.09-12.58,47.07-24.7,61.41-22.33-11.18,7-21.79,13.54-32.18,20.36ZM806,883.76c-1.3-2.8-.31-4.11.74-5.36C817,867,829.6,858.18,842,849.19c2.33-1.68,4.83-2.64,7.92-1.76,4.92,1.43,9.93,2.56,15.79,4.05-8.11,7.13-16.38,13-22.9,20.44-10.44,11.91-23.82,10.91-36.82,11.78Zm-61.72.07c-5.43-.44-11.15-.71-17.65-4.29,9.36-9.35,19.36-15.86,29.84-21.7,2.6-1.45,5.55-.3,8.29.47,14.19,4.05,28.71,4.71,43.34,4.17,1.81-.07,4.09-.9,5,2.32-5.43,5.67-11.06,11.45-16.56,17.34-3.07,3.3-6.9,3.92-11.08,3.72-13.74-.66-27.5-1.08-41.23-2.1Zm-85.67-26.11c-1.81-1-3-2.73-1.36-5,3.63-4.88,15.82-7.89,20.93-4.28,15.62,11,33.05,16.52,53.71,17.82-7.45,10.86-15.3,14.06-26.18,10.39-10.36-3.49-20.86-6.42-30.9-10.81-5.53-2.43-10.89-5.29-16.21-8.18Zm-32.7-36.78c3-1.17,6.3-2.13,9.43-.86,14.79,6.28,30.31,10.14,47.3,14.78-10.64,5-19.72,9.17-28.66,13.59-4,2-7.68,2-11.35-.63-6.89-5-13.76-10-19.36-16.43-4.68-5.39-4-8,2.62-10.51Zm-1-41.21a12.84,12.84,0,0,1,9.37.07A282.1,282.1,0,0,0,682,794c-6.59,2.89-11.31,5-16.08,7-24.62,10.34-26.43,7.3-44.25-9.69-6.08-5.8-4.89-8.79,3.18-11.69ZM695.91,764c14.53,7.58,28.93,15.37,43.38,23.09-34.53,5.27-67.68,4.2-101.26-11.89,18.29-5.85,35.08-9.15,52-11.93A10.09,10.09,0,0,1,695.91,764Zm42.68-6.74A88.07,88.07,0,0,1,773,761.71c15.71,5.16,31.78,9.2,47.65,13.9,2.49.74,5.66.45,7.2,3.54-2.23,2.36-5.23,1.77-7.84,2-15.26,1.51-30.68,1.9-45.75,4.42-16,2.67-30.14,1-43.53-8.65-7.65-5.5-16.94-8.55-26.75-15.88,13.17-1.89,23.8-3,34.57-3.77Zm125.13-3c4,.22,8.1.28,11.66,2.43l23.81,14.17-.55,3.09c-23.78,1.73-47.44,7.28-71.38-1.17-15.22-5.36-31-9.16-46.46-13.79-2.79-.78-6-.74-9-3.87,8-.34,14.8-.77,21.63-.92,23.4-.53,46.81-1.25,70.23.06Zm116.52,13.56c-20.71,1.66-41.42,3.71-62.17,4.81-9,.48-21.25-7.14-29.29-16.71C920.39,756.52,950.36,761.19,980.24,767.86ZM715.3,647.47c-4.29-3.49-8.81-6.9-12.19-12.62,2.1-.92,2.81-1.45,3.58-1.54,31.11-3.68,62.09-1.6,93,2.16,4.85.59,8,2.73,9.57,7.79,2.36,7.88,7.54,14.25,12.4,20.7,12.64,16.72,29.21,29,46.2,40.78,2,1.39,5.66,1.63,5,5.64-4.36,1.79-8.81,1.27-13.23,1.21-8.89-.11-17.83-.83-26.65-.06a39.31,39.31,0,0,1-21-4.13c-34.39-16.53-67.09-35.74-96.7-59.95Zm66-79c-31.68-14.19-64.84-22.95-99.26-27.26a23.14,23.14,0,0,1-13.75-7c-8.44-8.28-16.19-17.09-22.13-27.33a133,133,0,0,1-17.34-57.68c-.55-7.59,1.71-8.75,8.59-5.72a86.74,86.74,0,0,1,24.28,16Q716,510,773.67,556.73c4.26,3.42,8.69,6.77,12.36,12.47-2.52-.35-3.74-.26-4.73-.7Zm-72-10.47c-1.28-4,.71-6.24,5-5.94a30.89,30.89,0,0,1,4.77.82c42.62,10,82.56,25.74,116,55.14,7,6.14,14.11,12.13,21.06,18.27,9,7.93,17.94,15.92,28,24.8-4.87,1.74-7.07.43-9.27-.38C844.75,639.53,814.09,630.9,782,628.3c-7.53-.6-13.94-4-20-8.18A168,168,0,0,1,714.43,569,52.92,52.92,0,0,1,709.3,558Zm4-117.22c-1.34-6.9-3.15-13.85-2.51-21.77,4.81,1.54,7.41,4.09,10.14,6.41,15.23,12.76,30.27,25.7,45.56,38.34a44.48,44.48,0,0,1,12.24,16.31c13.12,28.72,26.51,57.33,39.75,86,4.7,10.22,9.27,20.51,13.9,30.75l-1.88,1.19q-48.06-40-96.16-79.91c-4.89-4.06-7.44-9.09-8.63-15.45-3.86-20.68-8.37-41.23-12.41-61.88Zm72.15,42.37c1.7.24,2.24.16,2.48.38a1334.21,1334.21,0,0,1,111.8,114.55,25.94,25.94,0,0,1,6.09,14.19c2,15.24,4.29,30.44,6.33,45.69.35,2.65,1.69,5.51-.68,8.14-4.26.6-6.39-2.91-9-5.13-17.12-14.82-34-29.94-51.15-44.71A48.67,48.67,0,0,1,838.56,599c-11.53-25.41-23.35-50.68-35-76C797.53,509.92,791.63,496.87,785.45,483.2ZM918.92,681.51c6.23,5.81,13,11,19,17,7.88,7.93,17.79,13.77,25.72,24.47-3.45.14-4.7.47-5.77.2-20.79-5.27-41.76-9.71-63.26-11.12-4.54-.29-8.6-2.3-12.46-4.53-12-6.82-23.54-14.23-34-23.27-11.06-9.59-21.21-20-29.08-32.44-2.07-3.26-5.57-7.12-2.62-11,2.62-3.46,6.86-.82,10.19,0,19.72,4.69,38.69,11.71,57.63,18.87A105.85,105.85,0,0,1,918.92,681.51Zm-288.25-132c-1.34-2.21-4-4.32-1.74-8.14a471.6,471.6,0,0,1,63.47,6.39c6,1,8.82,4.41,11,9.75,7,17.51,18.08,32.35,31.21,45.77,7.92,8,16.93,14.65,28,23.52a410.65,410.65,0,0,0-58.16,1.67c-6.33.59-10.79-.57-15.09-5-21.86-22.82-42.3-46.74-58.65-73.92Zm-35.82-76.64c-3.56-11.62-7-23.34-8.16-35.53-.87-8.79.84-10.2,9.58-7.93,5.51,1.42,10.92,3.06,16.32,4.82,10.17,3.31,10.61,4.25,11.15,14.51,1.49,28.35,10.85,53.76,28.84,75.89,2.76,3.41,6.64,6,8.25,12.36-9.22,2-17.6-1.2-25.89-.48-9.73.84-14.92-3.87-18.86-12-8.15-16.79-15.77-33.81-21.23-51.67Zm23.51-99.4c8.19,25.55,20.41,49.16,34.37,72.07A204.2,204.2,0,0,0,608.41,428c-5.82-1.62-11.57-3.63-17.4-5.33-4.38-1.29-6.74-4.07-7.36-8.59a177.67,177.67,0,0,1,1.73-58c.81-4.21,3.22-5.91,7.81-5.4,13.39,1.47,20,6.6,23.94,19.3.37,1.16.86,2.27,1.23,3.43Zm3.94-5.57c-.69-4,1.61-5.1,5.1-3.83a42.82,42.82,0,0,1,5.47,2.61,483.12,483.12,0,0,1,62.39,39.94c5.59,4.23,8.19,9.38,9.46,16.13,3.66,19.48,8,38.84,11.82,58.29,1.38,7,3,14,2.8,21.05-1.48.2-2.05.43-2.25.27q-7-5.76-13.9-11.58c-36.21-30.41-62.62-67.55-77.91-112.42a69,69,0,0,1-3-10.46Zm33.35-40.25c3.53,12.4,6,25.09,10.58,37.23,1.95,5.16,3.52,10.47,6.08,18.14-17.27-10.38-32.41-19.36-48.16-27.24a6.86,6.86,0,0,1-3.77-7.06c1-11.27,2.71-22.42,6.41-33.17.78-2.36,2-4.36,4.92-4.63,8.22-.74,21.62,8.61,23.94,16.73Zm79.86,52a10.4,10.4,0,0,1,3.19,6.38c1.75,13.62,3.47,27.27,5.08,40.93.28,2.33.58,5.15-2.22,6.27-2.21.88-3.75-1-5.3-2.25C726.15,423,717,413.08,705.8,407.07c-21.93-11.75-32.55-30.37-38.15-53.2-.48-1.54-.89-3.11-1.22-4.7-1-7.37-5.8-14.16-3.93-24.71a427.41,427.41,0,0,1,73,55.22Zm53.68,50.8c11,10.15,18.68,21.88,22.79,36.41,3.17,11.25,7.8,22.08,11.66,33.13.91,2.55,2.71,5,1.16,8-.84-.11-1.85.07-2.31-.35l-68.13-62c-2.46-2.24-4.43-4.66-5-8-2.69-15.39-2.23-30.94-4.08-49.17,6.08,5.37,10.12,8.62,13.81,12.22,10,9.89,19.74,20.24,30.12,29.84ZM922.43,612.76c-2.67.47-3.57-1-4.55-2.22-23.53-28.45-48.63-55.48-74.5-81.73a43.58,43.58,0,0,1-10.11-16.36c-5-14.12-10.22-28.19-15.24-42.3-.86-2.39-2.55-4.93-.55-7.73,3.92,1.77,6,4.84,8.4,7.52,31.56,35.41,61.31,72.3,89.71,110.32C923.41,590.74,924.11,601.21,922.43,612.76Zm86.2,120.5A1122.51,1122.51,0,0,0,937.46,635c-8.16-10-8.71-20.8-7.86-32.68A813.59,813.59,0,0,1,1008.63,733.26Zm2.87,23.3q-43.39-38-86.77-76.07c-2.51-2.2-4.48-4.71-4.92-8.11q-3.63-27.58-7.22-55.17l2.27-1.11c36.52,44.09,70.79,89.78,99.43,140.67C1012.27,756.63,1011.74,756.73,1011.5,756.56Zm-173-37.74.77-2.4c6,.05,12.08.15,18.1.05,33.79-.54,67,2.52,99.89,11.3,14.22,3.76,26.52,9.43,36.56,20,4.57,4.83,10.89,8.15,15,17.08A665.25,665.25,0,0,1,838.45,718.82ZM964,789.3c-9.45,6.3-19.29,7-32.18,2.75,18.53-10.37,33.61-23.33,56.43-17.62-8.78,5.35-16.71,9.83-24.28,14.87Zm-84.4,438c-4.66-1.72-6.13-4.9-4.24-9.55,4.13-10,7.49-20.42,14.31-30.12,5.78,3.77,8.15,8.62,11.43,12.62,3.67,4.47,7.1,5.29,12.51,2.53,9.54-4.89,10.67-4,14,6.7,3.05,9.66,6.44,19.11,12.08,27.67,2.34,3.53,7,7.94,3.62,11.76-3.87,4.31-9.11,0-13-2.25-13.08-7.48-27.07-12.56-41.65-16.22a89.92,89.92,0,0,1-9.16-3.14Z" transform="translate(-78.14 -76.14)"/></g><path class="cls-3" d="M482,876.46a85.13,85.13,0,0,0-26.94-24.52,138.67,138.67,0,0,0-36.38-14.88,156.24,156.24,0,0,0-38.59-5,176.23,176.23,0,0,0-35.38,3.62A258.24,258.24,0,0,0,312,844.5q-15.07,5.24-26.33,10c0,1.88.93,4,2.81,6.43a33,33,0,0,0,6.64,6.44q3.81,2.8,5.82,2.81c2.15,0,5.49-1.27,10.05-3.82s10.46-5.49,17.69-8.84a122.42,122.42,0,0,1,26.13-8.24q-15.28,33.76-27.53,64.72t-23.32,61.7q-11.06,30.76-21.91,63.92T258.69,1111q-1.6,5.22-3.41,11.25a39.16,39.16,0,0,0-1.81,11.26q0,10.05,10.65,16.48a43.18,43.18,0,0,0,22.71,6.43q9.26-32.16,20.1-71.75T329,1005.3h2.42q7.23,0,21.7-1.2t32.77-4.43A236.07,236.07,0,0,0,422.71,990a154.88,154.88,0,0,0,34.37-16.89,84.73,84.73,0,0,0,25.53-25.73q9.64-15.27,9.65-36.58Q492.26,891.14,482,876.46Zm-34.17,65.62a89.88,89.88,0,0,1-29.35,26.73,166.25,166.25,0,0,1-40.8,16.68,239.75,239.75,0,0,1-45,7.64q12.06-41.8,25.33-80.2t27.74-66.53a103.5,103.5,0,0,1,35.17,6.83,66.92,66.92,0,0,1,27.34,18.9q10.65,12.47,10.65,32.56Q458.89,926,447.84,942.08Z" transform="translate(-78.14 -76.14)"/><path class="cls-3" d="M559.59,916.75a22.3,22.3,0,0,0-12.26-3.22,39.12,39.12,0,0,0-21.71,6.84q-10.46,6.84-10.45,16.48,0,8,6.23,11.86a26,26,0,0,0,13.87,3.82q10.86,0,20.1-7.84t9.25-16.28Q564.62,920,559.59,916.75Z" transform="translate(-78.14 -76.14)"/><path class="cls-3" d="M830.53,916.75a22.32,22.32,0,0,0-12.26-3.22,39.1,39.1,0,0,0-21.71,6.84q-10.45,6.84-10.45,16.48,0,8,6.23,11.86a26,26,0,0,0,13.87,3.82q10.86,0,20.1-7.84t9.25-16.28Q835.56,920,830.53,916.75Z" transform="translate(-78.14 -76.14)"/><path class="cls-3" d="M971.43,1052.63a150.56,150.56,0,0,1-25.13,35,136,136,0,0,1-32.16,25.12q-17.08,9.45-34,9.45-11.25,0-17.68-4a24.22,24.22,0,0,1-9.25-9.65,32.55,32.55,0,0,1-3.42-10.65,69.53,69.53,0,0,1-.6-7,57.39,57.39,0,0,1,.2-5.83,24.81,24.81,0,0,1,.6-3.42,151.3,151.3,0,0,0,36-8.64,143.89,143.89,0,0,0,32.77-17.09,90.4,90.4,0,0,0,23.71-23.72,50.44,50.44,0,0,0,8.85-28.54q0-16.07-9.45-21.51a39.43,39.43,0,0,0-19.9-5.42q-18.5,0-37,10.85a136.72,136.72,0,0,0-33.77,28.34,152.71,152.71,0,0,0-24.32,37.39,98.84,98.84,0,0,0-8.38,27.92s0,0,0,0q-8.5,12.35-16.73,19.29-16.08,13.68-29.75,13.67-8.85,0-13.47-4.22T754,1092.83q0-13.27,6.23-27.94a225.57,225.57,0,0,1,14.47-28.34q8.24-13.66,14.48-24.12t6.23-15.68q0-5.62-3.62-8.65a12.78,12.78,0,0,0-8.44-3q-8.85,0-17.69,8.64A97.66,97.66,0,0,0,749.13,1016a213.64,213.64,0,0,0-13.47,29.15,236.08,236.08,0,0,0-7.43,23c-.72,1.15-1.46,2.31-2.22,3.49a206.23,206.23,0,0,1-14.47,19.7,94.83,94.83,0,0,1-15.88,15.48q-8,6-14.87,6-7.23,0-11.46-7.24a56,56,0,0,1-6.23-17.89q-2-10.65-3-20.7a152.25,152.25,0,0,0-2.21-15.68q13.26-14.87,25.92-26.73a227.45,227.45,0,0,1,22.52-18.9q9.84-7,15.07-7a14.08,14.08,0,0,0-6.43-8q-4.43-2.41-6.83-2.41-5.64,0-20.51,12.26t-33,30.35Q650.24,1015.25,642,1006t-24.32-9.24q-14.08,0-23.32,6.63a55.94,55.94,0,0,0-15.48,17.09,196.17,196.17,0,0,0-11.25,21.9c-3.36,7.64-10,22.6-10,22.6-9.84,19.83-18.13,28.13-26.79,35.49q-16.08,13.68-29.75,13.67-8.85,0-13.47-4.22T483,1092.83q0-13.27,6.23-27.94a225.57,225.57,0,0,1,14.47-28.34q8.24-13.66,14.48-24.12t6.23-15.68q0-5.62-3.62-8.65a12.78,12.78,0,0,0-8.44-3q-8.85,0-17.69,8.64A97.36,97.36,0,0,0,478.19,1016a213.64,213.64,0,0,0-13.47,29.15,227.61,227.61,0,0,0-9,29.55q-3.23,14.07-3.22,23.31,0,14.88,8.84,25.33t26.54,10.45q24.92,0,46.63-19.7,16.21-14.72,28.17-38.2c.5-1,1-1.92,1.63-2.83,2.69-4.14,10.82-16.77,14.81-24.09A133.8,133.8,0,0,1,594,1026.7q7.63-9,16.48-9.05t12.06,10.45q3.21,10.47,6,30.15-15.67,16.89-29.35,33t-22.11,28.34q-8.43,12.26-8.44,17.89a9.83,9.83,0,0,0,1.81,5.22,6,6,0,0,0,5.43,2.82,8.43,8.43,0,0,0,6.83-3.62q6.84-8.85,19.9-24.72t29.15-34a145.57,145.57,0,0,0,5.83,23.31,48.79,48.79,0,0,0,11,18.7q7.23,7.43,19.7,7.43,15.27,0,29.75-10.85a120.65,120.65,0,0,0,25.38-26.41c0,.93-.06,1.82-.06,2.69q0,14.88,8.84,25.33t26.54,10.45q24.91,0,46.63-19.7a113,113,0,0,0,13.16-14.28,45.79,45.79,0,0,0,13.16,25.74q13.88,13.86,39.6,13.87a96.28,96.28,0,0,0,42.41-10,130.11,130.11,0,0,0,37.79-28.14,151.41,151.41,0,0,0,27.94-42.21Zm-104.92-11.26a145.78,145.78,0,0,1,17.28-23.52,105,105,0,0,1,19.7-17.28q10.05-6.65,19.3-6.64,3.62,0,5.22,1.61t1.61,6q0,11.26-7.64,22.31a92.38,92.38,0,0,1-19.49,20.3,129.52,129.52,0,0,1-24.73,15.28q-12.87,6-23.31,7.24A143.24,143.24,0,0,1,866.51,1041.37Z" transform="translate(-78.14 -76.14)"/><path class="cls-3" d="M1331.41,888A86.7,86.7,0,0,0,1297,847.4q-23.73-15.07-63.11-15.07a176.5,176.5,0,0,0-52.26,7.44,160.84,160.84,0,0,0-42.41,19.69q-18.3,12.27-28.55,26.74t-10.25,28.54A24.85,24.85,0,0,0,1107.9,933q7.44,7.44,24.72,7.44a43.08,43.08,0,0,1-2.81-9.85,59.47,59.47,0,0,1-.8-9.45A61.56,61.56,0,0,1,1140.86,884q11.87-16.29,32.77-25.73t47-9.45q24.91,0,44.22,9.45T1295.23,888q11.05,20.29,11.06,52.86,0,25.32-8,53.06a253.45,253.45,0,0,1-22.92,54.07,242.46,242.46,0,0,1-34.77,47.44,170.16,170.16,0,0,1-43.62,33.77,104.41,104.41,0,0,1-49.85,12.66,108.05,108.05,0,0,1-11-.6,38.47,38.47,0,0,1-9-1.81q6-28.55,15.47-62.92t20.91-70.75q11.44-36.37,24.12-70.75t25.12-62.51q-8.44-5.62-15.28-5.63a20,20,0,0,0-12.66,4.62A47.36,47.36,0,0,0,1174.43,883a94.06,94.06,0,0,0-7.24,13.27q-2.81,6.43-4,9.65-2.82,7.64-8.65,24.72t-13.26,39.8q-7.45,22.71-15.08,47.63t-14.47,48.44q-6.84,23.52-11.46,42t-5.83,28.14q9.24,12.46,21.91,16.28a92,92,0,0,0,26.74,3.82,163.2,163.2,0,0,0,58.08-10.85,210.24,210.24,0,0,0,54.27-30.55,230.17,230.17,0,0,0,45-46.23A221,221,0,0,0,1331,1011a198.56,198.56,0,0,0,11-66.13Q1342.06,913.54,1331.41,888Z" transform="translate(-78.14 -76.14)"/><path class="cls-3" d="M1785.53,1051.31q-15.66,31.37-36.74,49.65t-41.17,18.29c-7.49,0-13-2.27-16.46-6.83s-5.22-12.33-5.22-23.32a139.6,139.6,0,0,1,6.23-40.4,380.36,380.36,0,0,1,14.65-40.4h6.9q16.58-.4,34.72-1.58t39.86-3.16v-13q-14.6,1.58-28.61,2.17t-31.37.59h-13.87q11.27-22.5,23.35-42.41t20.34-34.77q8.25-14.86,8.26-22.92,0-5.62-3.62-8.64a11.85,11.85,0,0,0-7.66-3q-6.84,0-15.7,9t-18.73,24.72A401.73,401.73,0,0,0,1701,950.89q-9.87,19.9-18.33,41.21l-8.65-.81c-2.83-.26-6.38-.66-10.68-1.2v12.46a29.76,29.76,0,0,0,7.45,2.21,55,55,0,0,1,6.64,1.41,506.51,506.51,0,0,0-15.9,50.65q-1.76,6.86-3,13.07a82.31,82.31,0,0,1-12.11,13.66c-8.06,7.1-24.57,13.87-24.57,13.87s.94-5,1.21-7.64a88.45,88.45,0,0,0,.41-8.84,110.23,110.23,0,0,0-5.84-35.38q-5.85-17.28-11.68-32.76t-5.84-27.54a30.45,30.45,0,0,1,1-8.84,19.53,19.53,0,0,0,1-5.63,10,10,0,0,0-2.62-5.63c-1.48-1.61-3.82-2.41-7-2.41q-7.25,0-12.68,6.63t-5.44,22.72v3.74a156.06,156.06,0,0,1-18.27,30.75,292.89,292.89,0,0,1-20.68,24.32,17.19,17.19,0,0,1-5.75,3.43l-4,1.75a56.12,56.12,0,0,0-5.47,3.06,22.8,22.8,0,0,0-8,9.45c-1.73,3.49-2.77,8.14-3.09,13.94q-1.83,2.34-3.73,4.55-12.45,14.48-24.09,22.11t-20.08,7.64q-6.43,0-8.63-4.22a20.89,20.89,0,0,1-2.21-9.85q0-9.64,3.81-22.31a252.77,252.77,0,0,1,8.84-24.73q5-12.06,8.83-20.7t3.81-9.85a8.23,8.23,0,0,0-4.41-7.44,42.67,42.67,0,0,0-10.24-4.22,65.9,65.9,0,0,0-9.44-2q-4,8.85-10.24,21.71t-14.06,26.53q-7.81,13.68-16.06,25.53a124.78,124.78,0,0,1-16.06,19.3q-7.83,7.44-14.66,7.43c-4,0-6.83-1.74-8.43-5.22a34.86,34.86,0,0,1-3-11.26c-.4-4-.6-6.56-.6-7.64q0-12.45,4.82-27.73a229.8,229.8,0,0,1,11.05-28.55q6.21-13.26,10.64-19.69a41.28,41.28,0,0,0-10.24-7.44q-5.83-3-8.63-3-5.23,0-11.45,9.65a142.9,142.9,0,0,0-12,24.12A208.26,208.26,0,0,0,1343,1065q-3.62,15.29-3.62,26.53a50.43,50.43,0,0,0,8.65,29.15q8.63,12.66,22.28,12.66,10,0,19.07-6.83a93.86,93.86,0,0,0,17.07-17.09,251.19,251.19,0,0,0,14.86-21.1v8a96.5,96.5,0,0,0,2.41,17.48,27.06,27.06,0,0,0,7.83,14.07q5.81,5.43,17.47,5.43,15.26,0,31.33-9.85,15.62-9.57,29.36-26.21a68.72,68.72,0,0,0,4.36,15.36,46.11,46.11,0,0,0,17.47,20.9q12.26,8.24,32.33,8.24,18.47,0,33.13-8t21.08-24.52a62.64,62.64,0,0,0,33.74-17.09c1.26-1.2,2.47-2.46,3.63-3.76q-.43,4.88-.43,9.19,0,21.32,10.85,31.76t28.51,10.45q19.28,0,37.35-11t33.53-30.35a192.19,192.19,0,0,0,25.9-43ZM1576,1120.48a28.84,28.84,0,0,1-14.87,4q-14.88,0-22.52-11.65a44.68,44.68,0,0,1-7.63-24.93q0-9.64,5.62-10.85,7.24,9.65,20.51,18.89a82.29,82.29,0,0,0,29.74,12.87A28.55,28.55,0,0,1,1576,1120.48Zm15.07-30.35a30.3,30.3,0,0,1-1,6.64,76.21,76.21,0,0,1-28.54-13.67q-12.46-9.64-18.9-20.5a173.22,173.22,0,0,0,18.09-23.32q9.66-14.47,16.89-26.93,4.41,18.5,8.84,36.18a161.82,161.82,0,0,1,4.83,35.77Q1591.31,1086.33,1591.1,1090.13Z" transform="translate(-78.14 -76.14)"/><path class="cls-3" d="M1529.2,1055q-1.74.66-3.57,1.56l4-1.75Z" transform="translate(-78.14 -76.14)"/><path class="cls-3" d="M1525.63,1056.6q1.83-.9,3.57-1.56l.47-.19" transform="translate(-78.14 -76.14)"/><g id="Layer_8" data-name="Layer 8"><path class="cls-4" d="M1504.76,1209.79a20.44,20.44,0,0,1-3.48,6.32,26.86,26.86,0,0,1-5,4.84,26.51,26.51,0,0,1-5.34,3.1q1.77-4.85,3.22-9.47c1-3.08,1.73-5.78,2.29-8.1a24,24,0,0,0,.85-5c-.51-.11-1-.2-1.4-.26a9.49,9.49,0,0,0-1.06-.08,3.89,3.89,0,0,0-3.31,1.61,14.87,14.87,0,0,0-2,5c0,.34-.12.69-.21,1.06s-.18.78-.3,1.23a46.83,46.83,0,0,1-6.53,7.51q-3.4,3.1-5.77,3.1a2.38,2.38,0,0,1-1.87-.89,3.87,3.87,0,0,1-.77-2.59,14.64,14.64,0,0,1,1.36-5.69,27.19,27.19,0,0,1,3.69-6.06,20.46,20.46,0,0,1,5.4-4.8,12,12,0,0,1,6.36-1.87,6.52,6.52,0,0,1,2.08.3,4.24,4.24,0,0,1,1.74,1.23,4.68,4.68,0,0,0,.76-.68,2.15,2.15,0,0,0,.6-1.61,2.76,2.76,0,0,0-1.36-2.25,7,7,0,0,0-4.07-1,19.85,19.85,0,0,0-7.81,1.74,28.94,28.94,0,0,0-7.64,4.84,27.1,27.1,0,0,0-5.82,7.05,16.69,16.69,0,0,0-2.2,7.21,25,25,0,0,1-4.2,5,6.59,6.59,0,0,1-4.25,2,2.07,2.07,0,0,1-1.4-.55,2.45,2.45,0,0,1-.64-1.91,9.9,9.9,0,0,1,.81-3.82c.54-1.3,1.09-2.69,1.66-4.16a13.26,13.26,0,0,0,.84-4.75,9.22,9.22,0,0,0-1.74-5.44,6.14,6.14,0,0,0-5.39-2.46,11.26,11.26,0,0,0-5.73,1.66,27,27,0,0,0-5.47,4.28,50.44,50.44,0,0,0-4.84,5.61c.45-1.7.81-3.22,1.06-4.55a16.82,16.82,0,0,0,.38-3q0-2.55-3-2.55a5.33,5.33,0,0,0-2.59.68,7,7,0,0,0-1.82,1.36,24.32,24.32,0,0,1-.85,6c-.31,1.2-.65,2.38-1,3.52h0a27.12,27.12,0,0,1-5.51,7.25q-3.4,2.88-6.28,2.88a4.06,4.06,0,0,1-2.85-.89c-.65-.59-1-1.79-1-3.6a15,15,0,0,1,1.31-5.9,48.24,48.24,0,0,1,3.06-6c1.16-1.92,2.17-3.62,3-5.09a7.55,7.55,0,0,0,1.32-3.31,2.26,2.26,0,0,0-.77-1.83,2.71,2.71,0,0,0-1.78-.63,5.44,5.44,0,0,0-3.73,1.82,20.42,20.42,0,0,0-3.48,4.71,45.1,45.1,0,0,0-2.85,6.16,48.53,48.53,0,0,0-1.57,4.91h0c-.51.88-1.06,1.75-1.64,2.63a25,25,0,0,1-4.2,5,6.59,6.59,0,0,1-4.25,2,2.09,2.09,0,0,1-1.4-.55,2.45,2.45,0,0,1-.64-1.91,9.9,9.9,0,0,1,.81-3.82c.54-1.3,1.09-2.69,1.66-4.16a13.26,13.26,0,0,0,.85-4.75,9.29,9.29,0,0,0-1.74-5.44,6.16,6.16,0,0,0-5.39-2.46,11.2,11.2,0,0,0-5.73,1.66,26.74,26.74,0,0,0-5.48,4.28,51.51,51.51,0,0,0-4.84,5.61c.45-1.7.81-3.22,1.06-4.55a17,17,0,0,0,.39-3c0-1.7-1-2.55-3-2.55a5.29,5.29,0,0,0-2.58.68,6.93,6.93,0,0,0-1.83,1.36,24.32,24.32,0,0,1-.85,6c-.21.83-.44,1.65-.68,2.45a30,30,0,0,1-6.49,8.37q-3.69,3-5.73,3a2.1,2.1,0,0,1-2-1,3.92,3.92,0,0,1-.6-2.08,7.14,7.14,0,0,1,.73-3,29.26,29.26,0,0,1,1.69-3.14c.65-1,1.22-2,1.7-2.88a4.83,4.83,0,0,0,.72-2.17,1.77,1.77,0,0,0-.85-1.52,6.31,6.31,0,0,0-1.82-.9l-1-.29-.34-.09a.76.76,0,0,0-.68.43q-1.6,2.11-3.82,5.13t-4.62,5.9a34.47,34.47,0,0,1-4.8,4.8,7.21,7.21,0,0,1-4.33,1.91c-1.3,0-2-.91-2-2.72a16.75,16.75,0,0,1,1-5.35,35.06,35.06,0,0,1,2.8-6.07,36,36,0,0,1,4-5.68,22.74,22.74,0,0,1,4.71-4.2,8.8,8.8,0,0,1,4.84-1.62c1.47,0,2.43.46,2.89,1.36a6.81,6.81,0,0,1,.68,3.06,9.29,9.29,0,0,1-.13,1.61q-.12.76-.3,1.53a5.11,5.11,0,0,0,3.82-.6,3.61,3.61,0,0,0,1.62-3.31,5.83,5.83,0,0,0-2.55-4.92,10.25,10.25,0,0,0-6.2-1.87,15.78,15.78,0,0,0-7,1.7,27.93,27.93,0,0,0-6.53,4.46,36.64,36.64,0,0,0-5.44,6.15A32.5,32.5,0,0,0,1329,1214h0a30.78,30.78,0,0,1-2.52,3,28.75,28.75,0,0,1-6.79,5.31,14.74,14.74,0,0,1-7.17,2,7,7,0,0,1-3.74-.85,5.17,5.17,0,0,1-2-2,6.81,6.81,0,0,1-.72-2.25,13.4,13.4,0,0,1-.13-1.49,12.16,12.16,0,0,1,0-1.23,5.4,5.4,0,0,1,.13-.72,31.52,31.52,0,0,0,7.6-1.83,30.26,30.26,0,0,0,6.92-3.6,19,19,0,0,0,5-5,10.64,10.64,0,0,0,1.87-6c0-2.26-.66-3.78-2-4.54a8.35,8.35,0,0,0-4.2-1.15,15.28,15.28,0,0,0-7.81,2.3,28.6,28.6,0,0,0-7.13,6,32.19,32.19,0,0,0-5.14,7.89,21.12,21.12,0,0,0-1.71,5.52h0a26.3,26.3,0,0,1-4.64,5.59,6.73,6.73,0,0,1-4.38,2,3.13,3.13,0,0,1-2.63-1.4,7.69,7.69,0,0,1-1-4.46,26.76,26.76,0,0,1,.3-3.78c.2-1.38.41-2.78.64-4.2a47.47,47.47,0,0,0,7.34-7.21,77.38,77.38,0,0,0,6.28-8.79,89.49,89.49,0,0,0,4.92-9,62.08,62.08,0,0,0,3.23-8.1,21.52,21.52,0,0,0,1.15-6,10.42,10.42,0,0,0-.47-2.93,10,10,0,0,0-1.23-2.71,2.21,2.21,0,0,0-1.87-1.15q-1.62,0-4.2,2.85a57.44,57.44,0,0,0-5.65,7.59c-2,3.17-4.06,6.72-6.06,10.66s-3.85,8-5.52,12a102,102,0,0,0-4,11.75c-.34,1.26-.63,2.46-.85,3.61a38.32,38.32,0,0,1-4.88,6.67,33.37,33.37,0,0,1-8.32,6.7,18.49,18.49,0,0,1-9.13,2.55,10.54,10.54,0,0,1-7.13-2.34,13.25,13.25,0,0,1-3.94-6,24.45,24.45,0,0,1-1.23-7.77,43.94,43.94,0,0,1,1.69-11.67,65.2,65.2,0,0,1,4.63-12,64.17,64.17,0,0,1,6.58-10.53,36.52,36.52,0,0,1,7.59-7.51,13.41,13.41,0,0,1,7.69-2.8,4,4,0,0,1,3,.89,3.4,3.4,0,0,1,.85,2.42,10.63,10.63,0,0,1-.94,4,31.8,31.8,0,0,1-2.37,4.58q-1.46,2.34-3.06,4.42c-1.08,1.38-2,2.56-2.89,3.52a5.34,5.34,0,0,0,1.7,2,3.39,3.39,0,0,0,1.78.59,5.41,5.41,0,0,0,3.82-1.87,18.45,18.45,0,0,0,3.36-4.79,33.79,33.79,0,0,0,2.37-6.07,20.78,20.78,0,0,0,.89-5.69c0-2.83-.84-4.82-2.54-6a10.87,10.87,0,0,0-6.28-1.74,22.07,22.07,0,0,0-10.4,2.76,38.78,38.78,0,0,0-9.81,7.51,59.5,59.5,0,0,0-13.83,23.72,46.34,46.34,0,0,0-2,13.46,27.06,27.06,0,0,0,1.91,10,17.77,17.77,0,0,0,6,7.9,17.31,17.31,0,0,0,10.57,3,23.2,23.2,0,0,0,11.24-2.84,34.55,34.55,0,0,0,9.38-7.56c1.08-1.23,2.11-2.51,3.07-3.84,0,.14,0,.28,0,.41a12.22,12.22,0,0,0,1.57,6.32c1,1.78,2.9,2.67,5.56,2.67q4.92,0,9.42-4.37a32.81,32.81,0,0,0,2.74-3.05,9.72,9.72,0,0,0,2.82,5.68c2,2,4.74,2.93,8.36,2.93a20.38,20.38,0,0,0,9-2.12,27.52,27.52,0,0,0,8-5.93q0,.42,0,.84a6.8,6.8,0,0,0,7,7.47,9.35,9.35,0,0,0,6.07-2.38,51.32,51.32,0,0,0,6.24-6.45v.42a8.55,8.55,0,0,0,1.87,4.76,6.1,6.1,0,0,0,5.17,2.2,11.76,11.76,0,0,0,6.37-2,24,24,0,0,0,5-4.3,25.41,25.41,0,0,0-1,2.56,5.58,5.58,0,0,0,2.46,1.91,8.43,8.43,0,0,0,3.06.55q1.6-2.71,3.82-6.11t4.71-6.54a31.57,31.57,0,0,1,5.17-5.22,8.64,8.64,0,0,1,5.23-2.08,2.83,2.83,0,0,1,3,3.31,12.72,12.72,0,0,1-.6,3.74c-.4,1.3-.79,2.59-1.19,3.86a12.36,12.36,0,0,0-.59,3.61,5.54,5.54,0,0,0,1.74,4.2,7.06,7.06,0,0,0,5,1.65,10,10,0,0,0,6.15-2.07,21.32,21.32,0,0,0,4.72-5.09c0,.16,0,.31,0,.46a8,8,0,0,0,1.87,5.35,6.93,6.93,0,0,0,5.6,2.2,14.41,14.41,0,0,0,9.85-4.16,22,22,0,0,0,1.59-1.61,17.65,17.65,0,0,0-.74,2,5.58,5.58,0,0,0,2.46,1.91,8.43,8.43,0,0,0,3.06.55q1.61-2.71,3.81-6.11t4.72-6.54a31.19,31.19,0,0,1,5.17-5.22,8.64,8.64,0,0,1,5.22-2.08,2.82,2.82,0,0,1,3,3.31,12.7,12.7,0,0,1-.59,3.74c-.4,1.3-.79,2.59-1.19,3.86a12.36,12.36,0,0,0-.59,3.61,5.54,5.54,0,0,0,1.74,4.2,7.06,7.06,0,0,0,5.05,1.65,10,10,0,0,0,6.15-2.07,20.58,20.58,0,0,0,4.28-4.47,8.21,8.21,0,0,0,1.75,3.74,6.65,6.65,0,0,0,5.39,2.38,11,11,0,0,0,6.66-2.46,34.76,34.76,0,0,0,6.24-6.2q-.77,3.06-1.61,5.69t-1.78,4.92q-2.81,1.36-5.78,2.89a46.82,46.82,0,0,0-5.56,3.35,17.87,17.87,0,0,0-4.16,4,8.15,8.15,0,0,0-1.57,4.88,4.71,4.71,0,0,0,1.83,4.16,6.75,6.75,0,0,0,4,1.27,9.49,9.49,0,0,0,6.49-2.75,31.18,31.18,0,0,0,5.69-7.39,84,84,0,0,0,5-10.23,37.77,37.77,0,0,0,6.11-3.61,35.19,35.19,0,0,0,6.16-5.55,21.42,21.42,0,0,0,4.2-7.14Zm-194.84-2.55a31,31,0,0,1,3.65-5,22.61,22.61,0,0,1,4.16-3.66,7.45,7.45,0,0,1,4.08-1.4,1.56,1.56,0,0,1,1.1.34,1.87,1.87,0,0,1,.34,1.28,8.28,8.28,0,0,1-1.61,4.71,19.53,19.53,0,0,1-4.12,4.28,27.1,27.1,0,0,1-5.22,3.23,16.15,16.15,0,0,1-4.92,1.53A30.41,30.41,0,0,1,1309.92,1207.24Zm-17.17-12.77q2-4.73,4.16-9t4.2-7.55a59.36,59.36,0,0,1,3.53-5.22c1-1.28,1.71-1.91,2.16-1.91v.25a19.26,19.26,0,0,1-1,4.54,55.73,55.73,0,0,1-2.5,6.41q-1.6,3.57-3.78,7.39t-4.75,7.51a66,66,0,0,1-5.48,6.83Q1290.76,1199.17,1292.75,1194.47Zm184.09,46.72q-2.67,2.89-4.2,2.89a1.37,1.37,0,0,1-1.15-.64,2.88,2.88,0,0,1-.47-1.74,5.5,5.5,0,0,1,1.62-3.73,19.28,19.28,0,0,1,4.24-3.4c1.75-1.07,3.68-2.12,5.77-3.14Q1479.52,1238.32,1476.84,1241.19Z" transform="translate(-78.14 -76.14)"/><path class="cls-4" d="M1429.82,1180.93a4.67,4.67,0,0,0-2.59-.68,8.28,8.28,0,0,0-4.59,1.44,4.13,4.13,0,0,0-2.2,3.48,2.73,2.73,0,0,0,1.31,2.51,5.56,5.56,0,0,0,2.93.8,6.43,6.43,0,0,0,4.24-1.65,4.61,4.61,0,0,0,2-3.44A2.7,2.7,0,0,0,1429.82,1180.93Z" transform="translate(-78.14 -76.14)"/><path class="cls-4" d="M1561.64,1178.13c-.66,1.58-1.22,3.11-1.7,4.58a13,13,0,0,0-.72,4,4.14,4.14,0,0,0,.93,2.84,5.09,5.09,0,0,0,2.8,1.49,57.92,57.92,0,0,0,3-5.52,47.71,47.71,0,0,0,2.68-6.79,22.91,22.91,0,0,0,1.1-6.71,8.9,8.9,0,0,0-2.38-6.45q-2.37-2.46-8.23-2.46a23.43,23.43,0,0,0-10.18,2.17,25.05,25.05,0,0,0-7.81,5.64,26.93,26.93,0,0,0-5,7.43,18.48,18.48,0,0,0-1.74,7.43,11.25,11.25,0,0,0,2,6.7,19.82,19.82,0,0,0,5.14,4.92,66.48,66.48,0,0,0,6.62,3.95q3.48,1.83,6.62,3.82a20.5,20.5,0,0,1,5.14,4.5,9.29,9.29,0,0,1,2,6,9.1,9.1,0,0,1-2.33,6.37,14.43,14.43,0,0,1-5.94,3.82,22.15,22.15,0,0,1-7.43,1.27,15.66,15.66,0,0,1-7.39-1.57,10.9,10.9,0,0,1-4.45-4.07,10.4,10.4,0,0,1-1.49-5.39,14.12,14.12,0,0,1,1.4-5.86,22.35,22.35,0,0,1,4.12-5.94,18.74,18.74,0,0,0-5.94,1,10.57,10.57,0,0,0-5.09,3.61,11.29,11.29,0,0,0-2,7.17,13.36,13.36,0,0,0,2.8,8.66,16.77,16.77,0,0,0,7.26,5.17,25.92,25.92,0,0,0,9.38,1.7,29.13,29.13,0,0,0,8.36-1.23,26.77,26.77,0,0,0,7.51-3.56,18,18,0,0,0,5.39-5.73,15.15,15.15,0,0,0,2-7.81,13.6,13.6,0,0,0-2-7.47,19,19,0,0,0-5-5.27,53.9,53.9,0,0,0-6.53-4q-3.45-1.79-6.54-3.57a20.25,20.25,0,0,1-5-4,7.52,7.52,0,0,1-2-5.22,13.55,13.55,0,0,1,1.35-5.47,22.14,22.14,0,0,1,9.77-10.23,15.78,15.78,0,0,1,7.47-1.78c1.81,0,3,.28,3.6.85a3.08,3.08,0,0,1,.89,2.37,13.17,13.17,0,0,1-.72,4Q1562.61,1175.75,1561.64,1178.13Z" transform="translate(-78.14 -76.14)"/><path class="cls-4" d="M1595,1197.56a.94.94,0,0,0-.23-.16,1,1,0,0,1,.2.15,1.82,1.82,0,0,1,.34,1.28,8.28,8.28,0,0,1-1.61,4.71,19.53,19.53,0,0,1-4.12,4.28,27.1,27.1,0,0,1-5.22,3.23,16.09,16.09,0,0,1-4.88,1.52v0a16.15,16.15,0,0,0,4.92-1.53,27.1,27.1,0,0,0,5.22-3.23,19.53,19.53,0,0,0,4.12-4.28,8.28,8.28,0,0,0,1.61-4.71A1.82,1.82,0,0,0,1595,1197.56Zm0,0a.94.94,0,0,0-.23-.16,1,1,0,0,1,.2.15,1.82,1.82,0,0,1,.34,1.28,8.28,8.28,0,0,1-1.61,4.71,19.53,19.53,0,0,1-4.12,4.28,27.1,27.1,0,0,1-5.22,3.23,16.09,16.09,0,0,1-4.88,1.52v0a16.15,16.15,0,0,0,4.92-1.53,27.1,27.1,0,0,0,5.22-3.23,19.53,19.53,0,0,0,4.12-4.28,8.28,8.28,0,0,0,1.61-4.71A1.82,1.82,0,0,0,1595,1197.56Z" transform="translate(-78.14 -76.14)"/><path class="cls-4" d="M1777.69,1209.2a23.72,23.72,0,0,1-4.81,6.92,12.39,12.39,0,0,1-5,3l-.1,0,0-.13c.09-.49.16-1,.22-1.54a19.21,19.21,0,0,0,.08-1.94,25,25,0,0,0-1.23-7.75c-.81-2.53-1.62-4.91-2.44-7.18a18.18,18.18,0,0,1-1.22-6,7.14,7.14,0,0,1,.21-1.94,4.39,4.39,0,0,0,.22-1.23,2.18,2.18,0,0,0-.56-1.23,1.86,1.86,0,0,0-1.47-.53,3.33,3.33,0,0,0-2.65,1.45q-1.14,1.46-1.14,5v.88a34.57,34.57,0,0,1-3.83,6.75,65.36,65.36,0,0,1-4.34,5.32,3.9,3.9,0,0,1-1.25.78h0l0,0a7.88,7.88,0,0,0-1.11.53c-.25.14-.52.3-.79.48a5,5,0,0,0-1.69,2.07,6.54,6.54,0,0,0-.55,2.08c-.53.68-1.1,1.34-1.68,2a28.54,28.54,0,0,1-6.74,5.51,14.14,14.14,0,0,1-7.12,2.07,6.72,6.72,0,0,1-3.71-.88,5.18,5.18,0,0,1-1.94-2.11,7.79,7.79,0,0,1-.72-2.34c-.08-.73-.13-1.24-.13-1.54a12.44,12.44,0,0,1,0-1.28q0-.39.12-.75a30,30,0,0,0,7.55-1.9,29.54,29.54,0,0,0,6.87-3.73,19.68,19.68,0,0,0,5-5.2,11.53,11.53,0,0,0,1.86-6.26c0-2.35-.66-3.93-2-4.72a8,8,0,0,0-4.17-1.19,14.69,14.69,0,0,0-7.75,2.39,28.74,28.74,0,0,0-7.08,6.2,33.82,33.82,0,0,0-5.1,8.2,22.4,22.4,0,0,0-1.73,5.93,21.23,21.23,0,0,1-1.68,2.17,24.68,24.68,0,0,1-6.49,5.42,13.54,13.54,0,0,1-6.66,1.94c-2.36,0-4-.68-4.76-2.06a8.73,8.73,0,0,1-1.22-4.54,19.28,19.28,0,0,1,1.22-6.39,32,32,0,0,1,3.2-6.61,22.39,22.39,0,0,1,4.29-5.11,7,7,0,0,1,4.43-2,1.61,1.61,0,0,1,1.26.4,1.63,1.63,0,0,1,.34,1.1,9,9,0,0,1-.92,4.32,7,7,0,0,1-1.77,2.29,3,3,0,0,0,2.61,1.67c1.29,0,2.32-.78,3.08-2.33a10.94,10.94,0,0,0,1.13-4.8,6.45,6.45,0,0,0-1.56-4.32c-1-1.23-2.74-1.85-5.09-1.85a13.48,13.48,0,0,0-6.79,1.93,22.45,22.45,0,0,0-6,5.25,26.85,26.85,0,0,0-4.3,7.45,23.42,23.42,0,0,0-1.24,4.39h0a25,25,0,0,1-4.66,6.08c-2.25,2-4.33,3-6.24,3a3.91,3.91,0,0,1-2.82-.92c-.65-.61-1-1.86-1-3.74a16.26,16.26,0,0,1,1.31-6.12,51.86,51.86,0,0,1,3-6.22l3-5.28a8.12,8.12,0,0,0,1.31-3.44,2.43,2.43,0,0,0-.76-1.9,2.65,2.65,0,0,0-1.77-.65,5.29,5.29,0,0,0-3.7,1.89,20.56,20.56,0,0,0-3.46,4.89,48.81,48.81,0,0,0-2.83,6.39,54.41,54.41,0,0,0-1.68,5.54,8.75,8.75,0,0,1-1.27,1.51,4.76,4.76,0,0,1-3.25,1.45,2.87,2.87,0,0,1-2.39-1,5.12,5.12,0,0,1-1-2.48,17.33,17.33,0,0,1-.22-2.67,17.53,17.53,0,0,1,.68-5.65,15.53,15.53,0,0,1,1.35-2.91,4.37,4.37,0,0,0,.67-2.37,5.48,5.48,0,0,0-.75-2.48,3,3,0,0,0-2.87-1.4,3.49,3.49,0,0,0-3,2c-.79,1.35-1.23,4-1.34,8-.85,1.94-1.82,4-2.91,6a65.27,65.27,0,0,1-3.46,5.82,27.66,27.66,0,0,1-3.58,4.4,5,5,0,0,1-3.29,1.72c-.67,0-1.09-.42-1.26-1.28a22.42,22.42,0,0,1-.26-4q0-2.82.21-5.83c.14-2,.22-3.87.22-5.63a9.51,9.51,0,0,0-.39-3.4c-.25-.55-1-.83-2.39-.83s-2.35.32-2.66,1a10.26,10.26,0,0,0-.55,3.61c-.06,1.7-.12,3.19-.17,4.46a23.2,23.2,0,0,1-1.43,2.19,30.17,30.17,0,0,1-3.71,4.28,22.66,22.66,0,0,1-4.3,3.3,8.38,8.38,0,0,1-4.21,1.28,2.78,2.78,0,0,1-1.48-.4,1.8,1.8,0,0,1-.62-1.63,9.42,9.42,0,0,1,1.09-4q1.1-2.29,2.19-4.94a13.47,13.47,0,0,0,1.09-5.19,7.64,7.64,0,0,0-1.35-4.67,12.84,12.84,0,0,0-3.11-3.09c-1.19-.83-2.24-1.54-3.16-2.16a2.82,2.82,0,0,1-1.48-1.9l.56-1.67a6.42,6.42,0,0,0,.37-1.59,5.77,5.77,0,0,0-.46-1.62,1.57,1.57,0,0,0-1.47-1.19c-.85,0-1.72.68-2.63,2a7.71,7.71,0,0,0-1.34,4.31,3.27,3.27,0,0,0,.85,2.38,98.76,98.76,0,0,1-3.72,9.43c-1,2.3-1.93,4.16-2.65,5.6A31.54,31.54,0,0,1,1600,1217a28.54,28.54,0,0,1-6.74,5.51,14.14,14.14,0,0,1-7.12,2.07,6.76,6.76,0,0,1-3.72-.88,5.3,5.3,0,0,1-1.93-2.11,7.79,7.79,0,0,1-.72-2.34c-.08-.73-.13-1.24-.13-1.54a12.44,12.44,0,0,1,.05-1.28,5.87,5.87,0,0,1,.12-.75,29.88,29.88,0,0,0,7.55-1.9,29.54,29.54,0,0,0,6.87-3.73,19.72,19.72,0,0,0,5-5.2,11.51,11.51,0,0,0,1.84-6.26c0-2.35-.65-3.93-2-4.72a8,8,0,0,0-4.17-1.19,14.67,14.67,0,0,0-7.76,2.39,28.74,28.74,0,0,0-7.08,6.2,34.13,34.13,0,0,0-5.1,8.2,20.78,20.78,0,0,0-1.9,8.24,10.59,10.59,0,0,0,2.91,7.62q2.91,3,8.3,3a19.58,19.58,0,0,0,8.9-2.2,27.7,27.7,0,0,0,7.92-6.17,31.8,31.8,0,0,0,3.37-4.48l0,.07q1.42-2.55,3.75-7.09a94.07,94.07,0,0,0,4.17-9.38,10.7,10.7,0,0,1,2.95,2.25,4.77,4.77,0,0,1,1.27,3.38,12.37,12.37,0,0,1-1.22,4.85c-.82,1.83-1.62,3.67-2.4,5.55a13.53,13.53,0,0,0-1.18,5.29,5.87,5.87,0,0,0,1.93,4.63,7.36,7.36,0,0,0,5.06,1.71,13.92,13.92,0,0,0,7.5-2.34,27.87,27.87,0,0,0,6.74-6c.51-.61,1-1.22,1.44-1.84,0,.3,0,.55,0,.74a20,20,0,0,0,1.23,7.62,4.35,4.35,0,0,0,4.34,3,8.21,8.21,0,0,0,5.48-2.6,36.72,36.72,0,0,0,5.35-6.48,77.74,77.74,0,0,0,4.6-7.84,16.88,16.88,0,0,0,2.65,5.86,5.36,5.36,0,0,0,4.5,2.33,7.48,7.48,0,0,0,4.6-1.93c.23-.19.46-.39.68-.61a17.88,17.88,0,0,0-.22,2.64,8.53,8.53,0,0,0,1.86,5.55,6.72,6.72,0,0,0,5.56,2.28c3.48,0,6.74-1.43,9.78-4.32a24.49,24.49,0,0,0,3.54-4.24q.18,5.32,2.82,8a9.67,9.67,0,0,0,7.2,2.87,17.64,17.64,0,0,0,8.64-2.42,29,29,0,0,0,7.92-6.61c.24-.27.47-.55.68-.83a10.29,10.29,0,0,0,2.78,5.76c1.93,2,4.71,3,8.3,3a19.58,19.58,0,0,0,8.9-2.2,27.7,27.7,0,0,0,7.92-6.17l.65-.75a14.36,14.36,0,0,0,.91,3.35,10,10,0,0,0,3.66,4.58,11.5,11.5,0,0,0,6.78,1.81,13.86,13.86,0,0,0,7-1.76,10,10,0,0,0,4.41-5.38h0a12.83,12.83,0,0,0,7.07-3.75,19.53,19.53,0,0,0,4.64-8Zm-52.22-2a30.37,30.37,0,0,1,3.65-5,22.25,22.25,0,0,1,4.15-3.66,7.5,7.5,0,0,1,4.08-1.4,1.52,1.52,0,0,1,1.1.34,1.82,1.82,0,0,1,.34,1.28,8.28,8.28,0,0,1-1.61,4.71,19.53,19.53,0,0,1-4.12,4.28,27.1,27.1,0,0,1-5.22,3.23,16.15,16.15,0,0,1-4.92,1.53A29.78,29.78,0,0,1,1725.47,1207.23Zm-143.54,0a31.58,31.58,0,0,1,3.65-5,22.61,22.61,0,0,1,4.16-3.66,7.47,7.47,0,0,1,4.08-1.4,2.25,2.25,0,0,1,.38,0,1.45,1.45,0,0,1,.52.16,1,1,0,0,1,.2.15,1.82,1.82,0,0,1,.34,1.28,8.28,8.28,0,0,1-1.61,4.71,19.53,19.53,0,0,1-4.12,4.28,27.1,27.1,0,0,1-5.22,3.23,16.09,16.09,0,0,1-4.88,1.52h0A30.41,30.41,0,0,1,1581.93,1207.23ZM1758.06,1224a6,6,0,0,1-3.14.85,5.33,5.33,0,0,1-4.76-2.46,9.48,9.48,0,0,1-1.61-5.26c0-1.36.4-2.12,1.19-2.29a18.85,18.85,0,0,0,4.33,4,17.27,17.27,0,0,0,6.28,2.72A6,6,0,0,1,1758.06,1224Zm3.18-6.41a6.58,6.58,0,0,1-.21,1.4,16.05,16.05,0,0,1-6-2.88,15.86,15.86,0,0,1-4-4.33,35.91,35.91,0,0,0,3.82-4.92q2-3.06,3.57-5.69.93,3.9,1.87,7.64a33.94,33.94,0,0,1,1,7.55C1761.28,1216.6,1761.27,1217,1761.24,1217.54Z" transform="translate(-78.14 -76.14)"/><path class="cls-4" d="M1689.63,1180.93a4.62,4.62,0,0,0-2.58-.68,8.28,8.28,0,0,0-4.59,1.44,4.14,4.14,0,0,0-2.21,3.48,2.74,2.74,0,0,0,1.32,2.51,5.56,5.56,0,0,0,2.93.8,6.43,6.43,0,0,0,4.24-1.65,4.63,4.63,0,0,0,2-3.44A2.68,2.68,0,0,0,1689.63,1180.93Z" transform="translate(-78.14 -76.14)"/><path class="cls-4" d="M1767,1221.74" transform="translate(-78.14 -76.14)"/><line class="cls-5" x1="1689.79" y1="1142.7" x2="1688.7" y2="1145.94"/><path class="cls-4" d="M1761,1218.91" transform="translate(-78.14 -76.14)"/><path class="cls-4" d="M1761.19,1218.23c-.09,1.75-.54,3-1,3.32" transform="translate(-78.14 -76.14)"/></g><path class="cls-6" d="M1591,1091.83a87.82,87.82,0,0,1-1.41,9.89,30.91,30.91,0,0,1-4,9.32" transform="translate(-78.14 -76.14)"/><path class="cls-3" d="M1622.67,1093.1a94.31,94.31,0,0,1-6,20.37" transform="translate(-78.14 -76.14)"/></svg>