<svg xmlns="http://www.w3.org/2000/svg" width="656.987mm" height="656.987mm" viewBox="0 0 1862.326 1862.326">
  <g>
    <circle cx="931.163" cy="931.163" r="874.5" fill="#fff" stroke="#d9ecfd" stroke-miterlimit="10" stroke-width="113.326"/>
    <path d="M564.3,1481.543c3.954,2.61,7.893,2.023,10.6-2.023,7.545-11.275,18.566-17.732,30.652-23.006a65.152,65.152,0,0,0,22.465-16.419c26.519-29.84,61.032-47.8,95.7-65.6q34.05-17.5,68.245-34.752c21.013-10.572,36.768-26.249,46.807-47.641a172.855,172.855,0,0,1,8.356-16.217c4.386-7.244,6.387-7.8,13.715-3.784,8.534,4.68,16.836,9.746,25.207,14.719,28.458,16.9,59.078,28.489,91.012,36.822a86.432,86.432,0,0,0,21.623,3.019c15.607.047,24.3-6.919,26.921-22.28,2.68-15.761.564-31.57-.672-47.27-1.66-21.052-7.63-41.417-11.236-62.175-.827-4.78-1.962-9.545-2.263-14.364-.278-4.109,1.923-6.086,6.178-4.109a16.792,16.792,0,0,1,2.077,1.267c3.815,2.51,7.955,5.112,12.357,2.317,5.367-3.414,4.317-9.144,3.637-14.364-5.066-38.884-19.206-74.37-40.227-107.276-2.193-3.413-4.109-7.112-6.827-10.039-6.217-6.7-4.541-12.874-.154-19.693,9.46-14.688,22.5-25.531,37.022-34.613,20.928-13.105,42.212-25.778,65.72-34.065a85.018,85.018,0,0,0,12.2-5.4c13.5-7.321,23.175-17.5,25.021-33.648.533-4.688.324-11.175,5.251-12.719,5.105-1.568,7.785,4.734,11.129,7.923,13.5,12.866,26.434,26.342,41.208,37.795,3.846,2.981,7.722,5.946,11.777,8.611,11.8,7.753,23.546,7.637,35.13-.626,8.928-6.394,16.789-14.024,24.767-21.523q38.08-35.848,76.238-71.6c3.544-3.321,7.251-6.5,11-9.584,8.541-7.082,8.842-7.12,17.422-.093,4.387,3.56,8.572,7.422,12.735,11.283a74.637,74.637,0,0,0,19.021,12.99c10.649,4.965,21.044,5.83,30.466-3.012a42,42,0,0,1,5.892-4.279c4.618-3.011,8.981-3.011,13.275.85,24.419,22.1,52.676,38.86,79.6,57.233,16.759,11.375,32.69,23.963,50.568,33.694,2.742,1.483,4.727,4.34,7.082,6.556a45.348,45.348,0,0,0,5.321,4.842c1.707,1.143,3.977,1.506,5.568-.231,1.892-2.093.154-3.723-1.313-5.089a50.953,50.953,0,0,0-4.742-3.815q-38.794-28.312-77.651-56.538c-6.278-4.525-11.684-10.163-17.862-14.565-11.214-7.97-22.025-15.6-28.2-28.728-2.656-5.715-9.027-9.213-14.48-12.727-11.244-7.252-22.689-14.171-33.979-21.353s-23.747-8.8-36.876-10.488c-22.843-2.919-40.258,5.12-57.858,18.759a1014.873,1014.873,0,0,1-89.706,62.63c-20.481,12.6-17.593,9.963-28.976-6.309-18.387-26.28-39.756-50.2-59.464-75.419-7.746-9.909-15.561-19.763-23.771-29.269-4.316-5-5.274-9.854-2-15.446s6.163-11.437,9.824-16.766c5.513-8.016,7.135-8.3,15.947-3.2,9.452,5.483,18.611,11.507,28.079,16.99,7.414,4.294,15.338,7.468,24.064,7.815,9.731.379,13.87-1.946,15.677-11.406,2.564-13.352,13.5-22,18.009-34.2,1.236-3.328,5.321-3.189,8.271-4.432,8.117-3.422,9.739-8.534,5.46-16.457a22.344,22.344,0,0,0-2.664-4.062c-6.41-7.484-6.163-15.492-1.938-23.8s8.6-16.526,13.128-25.191c3.962.5,3.753,6.742,8.248,5.722,4.309-.988,6.9-4.1,9.221-7.436,11.136-16.04,8.842-40.042-5.746-53.356-10.773-9.839-21.338-19.7-30.69-31.022-10.062-12.171-24.365-18.7-38.914-24.033-19.122-7-38.8-11.862-59.279-12.248-7.321-.139-12.843-2.533-18.373-7.53-22.21-20.071-44.119-17.793-62.46,5.808-11.368,14.642-13.353,30.875-1.707,46,9.947,12.881,12,24.4,6.95,39.7-5.629,17.074-2.517,34.466,4.974,50.915,2.849,6.255,5.46,12.642,7.846,19.1,9.808,26.458-17.847,52.591-38.189,54.723-5.459.579-6.865-2.8-8.649-6.611-10.271-22.048-21.847-43.432-33.98-64.522-35.9-62.392-77.852-120.512-123.987-175.637-39.887-47.633-81.806-93.266-128.7-134.127-23.87-20.789-48.653-40.42-76.616-55.6a161.053,161.053,0,0,0-16.426-7.892c-16.6-6.735-18.635-5.7-23.168,12.109-1.784,7.05-2.865,14.294-4.1,21.484-.448,2.78-.533,5.63-2.765,8.565-5.707-1.661-11.414-3.591-17.237-4.974-10.912-2.6-12.812-1.39-15.306,9.267a156.923,156.923,0,0,0-3.583,27.694c-2.093,41.293,6.3,80.748,22.519,118.4C636.972,589.121,700.051,654.9,785,700.081a640.208,640.208,0,0,0,115.778,47.3c1.545.448,3.228.471,4.634,2.834-5.1-.216-9.785-.332-14.419-.61a1057.583,1057.583,0,0,0-136.026.726c-22.69,1.552-45.271,3.776-67.666,7.244-21.245,3.3-42.29,7.83-62.368,15.708-18.3,7.174-18.96,10.757-4.927,24.658,3.969,3.962,8.247,7.568,12.757,11.684-4.046,5.252-10.224,5.561-14.858,8.449-7.12,4.448-7.985,6.989-2.487,13.368,13.43,15.615,30.142,27.006,48.576,35.872,34.983,16.835,72.214,23.507,110.758,24.434,16.534.4,32.93-1.629,49.3-2.4.208.773.517,1.352.37,1.545q-25.083,32.829-50.29,65.573a27.345,27.345,0,0,1-20.75,11.128c-9.306.6-18.628,1.081-27.895,1.915-22.9,2.055-40.157,13.955-53.286,32.065-5.012,6.943-2.695,10.4,5.8,10.449,10.41.054,18.99-3.491,24.442-13.013,1.969-3.452,3.745-7.437,8.379-8.14,2.518-.386,4.927.132,6.472,2.394,1.374,2.1.162,3.862-1.228,5.406-2.95,3.352-5.962,6.649-8.85,10.04-1.545,1.814-3.537,3.745-1.993,6.386,1.321,2.3,3.8,2.9,6.271,3.143a13.045,13.045,0,0,0,10.039-3.513c8.951-7.723,19.469-11.16,31.053-12.55,9.453-1.135,17.809-5.251,25.2-11.306,35.1-28.751,72.014-55.34,103.97-87.837a92.9,92.9,0,0,1,30.265-19.987c16.782-7.12,33.138-15.267,50.313-21.5,2.232-.8,4.341-2.147,6.819-1.653,2.672,2.935.472,5.514-.417,7.954-3.367,9.128-6.95,18.179-10.456,27.254-5.12,13.282-13.947,23.5-25.485,31.74-13.337,9.545-28.234,16.24-43.455,21.561-35.076,12.264-53.935,37.146-60.113,72.833-2.9,16.765-5.769,33.547-8.148,50.405-1.8,13-6.95,23.755-16.99,32.528a239.034,239.034,0,0,0-21.245,21.709c-4.842,5.413-3.39,9.205,3.375,11.638,5.483,1.961,10.356-.5,15.445-1.591,9.407-2.008,11.322-.093,7.978,9.12a71.432,71.432,0,0,0-4.232,30.991c.88,10.372-1.568,13.275-11.939,14.148-9.291.788-16.009,5.2-21.7,11.893-3.406,4.008-6.641,8.186-9.73,12.441a38.2,38.2,0,0,1-17.925,14.017c-10.016,3.7-18.951,8.85-25.84,17.437a29.865,29.865,0,0,1-17.445,10.418,34.044,34.044,0,0,0-7.978,2.865c-5.027,2.518-6.788,6.9-5.506,12.218,1.46,6.046,6.51,5.683,10.812,4.687,20.99-4.857,42.49-6.4,63.619-10.217,5.112-.926,9.978-3.282,14.92-5.074,2.325-.841,4.78-1.992,6.734.194,1.722,1.93,1.491,4.533.865,6.95-1.313,5.051-4.7,8.3-9.128,10.812a367.6,367.6,0,0,0-84.177,65.356c-5.328,5.538-11.29,10.465-16.912,15.731-7.414,6.959-16.233,8.665-25.949,7.036-4-.641-7.962-1.552-11.97-2.186-11.5-1.814-17.129.873-23.083,11.028-4.2,7.175-5.954,15.183-6.34,23.276-.633,13.2-6.054,23.338-17.144,30.435-4.958,3.174-8.2,7.615-10.7,12.889-4.865,10.248-10.086,20.326-14.951,30.567C562.6,1475.751,560.533,1479.165,564.3,1481.543ZM943.9,801.154c-20.31,18.65-33.609,13.144-55.317-4.78,18.812.077,36.119,1.892,55.317,4.78Zm-40.8,14.2c-18.527.054-35.656,2.247-52.877,3.4-2.325.155-4.781-.78-7.1-1.452-19.415-5.575-38.838-11.143-58.206-16.889-2.464-.741-5.761-.5-7.1-3.73,1.961-2,4.471-1.545,6.788-1.545,25.431-.4,50.831-1.521,76.315-.563C874.428,795.053,891.75,803.07,903.1,815.349Zm-29.8-34.088c.062.957.124,1.9.193,2.88-16.295,9.082-34.219,1.877-51.046,2.966,8.386-1.1,16.765-2.3,25.16-3.259,8.557-1.02,17.129-1.73,25.693-2.564ZM746.163,858.178c-3.892,2.6-8.333,3.051-12.82,3-14.364-.139-28.21-2.71-40.984-9.576-3.792-2.031-10.271-3.228-9.792-7.807.618-5.923,7.53-4.974,11.962-5.406,20.936-2.062,41.9-4.17,62.909-5.151,12.372-.572,24.635-2.51,37.223-2.371A338.264,338.264,0,0,0,746.163,858.178Zm21.137-5.413c33.833-23.716,71.905-30.528,113.345-30.188-15.167,7.105-29.168,13.561-41.525,22.782-22.527,16.827-46.953,13.128-71.82,7.375Zm-29-23.57c-33.1,5.213-64.855,1.112-95.653-13.028,16.851-6.2,33.841-10.788,51.6-12.009,3.344-.239,6.263,1.306,9.113,2.85,9.931,5.39,19.893,10.719,29.724,16.279,2.124,1.2,5.615,1.568,5.213,5.877Zm14-1.513c-14.518-7.576-28.96-15.307-43.409-23.045.17-.88.348-1.761.51-2.641,9.429-1.236,18.89-2.216,28.273-3.761a66.176,66.176,0,0,1,31.091,2.379c16.2,5.081,32.628,9.437,48.907,14.256,2.889.841,6.449.841,8.295,3.931-.6,2.139-2.371,2.139-3.862,2.316q-30.119,3.615-60.236,7.159c-3.221.371-6.6.888-9.569-.656Zm194-51.5C927.325,798.559,904.566,790.4,882.672,788c19.523-12.588,41.556-10.125,63.627-11.878Zm-63,65.365c-9.352,6.155-18.851,4.942-29.23,1.907,14.094-12.58,47.07-24.7,61.411-22.334-11.175,7.051-21.794,13.546-32.181,20.365Zm-77.34,42.22c-1.3-2.8-.309-4.117.742-5.36,10.31-11.453,22.9-20.226,35.254-29.215,2.324-1.683,4.826-2.641,7.916-1.761,4.919,1.429,9.931,2.564,15.785,4.047-8.1,7.136-16.373,13.028-22.9,20.45-10.433,11.908-23.817,10.9-36.814,11.777Zm-61.719.061c-5.429-.44-11.152-.7-17.654-4.286,9.367-9.344,19.368-15.862,29.84-21.7,2.6-1.452,5.553-.3,8.294.471,14.195,4.046,28.7,4.71,43.34,4.17,1.815-.07,4.093-.9,5.027,2.317-5.429,5.676-11.058,11.452-16.557,17.345-3.074,3.3-6.9,3.923-11.082,3.722-13.739-.664-27.5-1.081-41.224-2.1Zm-85.667-26.1c-1.815-.981-3.043-2.734-1.367-5,3.629-4.88,15.823-7.884,20.936-4.278,15.615,11.043,33.053,16.519,53.711,17.816-7.453,10.866-15.3,14.063-26.188,10.395-10.356-3.491-20.851-6.425-30.89-10.812-5.538-2.432-10.9-5.29-16.218-8.178ZM625.867,820.94c3.051-1.174,6.3-2.132,9.437-.857,14.781,6.278,30.3,10.139,47.294,14.773-10.642,5.027-19.716,9.174-28.659,13.592-4.039,1.992-7.676,2.023-11.352-.626-6.889-4.965-13.754-9.985-19.361-16.434-4.68-5.39-3.97-7.954,2.626-10.51Zm-1.027-41.208a12.818,12.818,0,0,1,9.368.069,282.094,282.094,0,0,0,47.764,14.218c-6.6,2.888-11.313,5.027-16.078,7.027-24.62,10.341-26.435,7.306-44.251-9.684-6.086-5.8-4.889-8.8,3.182-11.692Zm71.072-15.693c14.526,7.584,28.929,15.368,43.378,23.091-34.528,5.275-67.682,4.2-101.26-11.893,18.288-5.846,35.084-9.144,51.989-11.924A10.049,10.049,0,0,1,695.912,764.039ZM738.6,757.3a88.042,88.042,0,0,1,34.435,4.41c15.708,5.159,31.779,9.205,47.649,13.9,2.494.741,5.661.448,7.205,3.537-2.232,2.363-5.236,1.776-7.846,2.031-15.26,1.513-30.682,1.9-45.749,4.425-15.955,2.672-30.142.973-43.525-8.657-7.653-5.491-16.944-8.542-26.751-15.878,13.167-1.884,23.8-3,34.566-3.769Zm125.13-3c4.047.224,8.093.286,11.653,2.433q11.908,7.082,23.817,14.171l-.556,3.089c-23.778,1.73-47.44,7.275-71.381-1.174-15.221-5.359-31.014-9.159-46.459-13.793-2.788-.772-6.047-.733-8.966-3.861,7.985-.347,14.8-.772,21.623-.927,23.408-.525,46.815-1.251,70.23.062Zm116.519,13.563c-20.712,1.66-41.424,3.707-62.175,4.811-9.035.479-21.253-7.143-29.284-16.712C920.386,756.517,950.358,761.19,980.244,767.862ZM715.3,647.466c-4.294-3.483-8.811-6.9-12.186-12.611,2.1-.927,2.8-1.452,3.575-1.545,31.107-3.676,62.091-1.6,93.035,2.162,4.85.587,8.024,2.727,9.569,7.793,2.363,7.877,7.537,14.248,12.4,20.7,12.634,16.72,29.207,29.007,46.2,40.776,2.008,1.39,5.661,1.637,5.028,5.645-4.364,1.792-8.812,1.267-13.229,1.213-8.889-.116-17.832-.834-26.651-.062A39.39,39.39,0,0,1,812,707.4c-34.389-16.526-67.094-35.74-96.7-59.951Zm66-78.949c-31.678-14.186-64.839-22.952-99.259-27.253a23.134,23.134,0,0,1-13.746-7c-8.441-8.279-16.195-17.09-22.133-27.323a132.818,132.818,0,0,1-17.338-57.688c-.548-7.584,1.707-8.75,8.588-5.715a86.712,86.712,0,0,1,24.28,15.979q54.328,50.505,111.978,97.212c4.263,3.421,8.7,6.765,12.356,12.465-2.517-.348-3.737-.255-4.726-.7Zm-72-10.472c-1.282-3.977.711-6.232,4.981-5.939a32.547,32.547,0,0,1,4.773.819c42.621,9.955,82.555,25.747,115.986,55.148,6.966,6.139,14.11,12.132,21.06,18.271,9.02,7.924,17.94,15.917,27.979,24.8-4.873,1.737-7.066.425-9.267-.386-30.057-11.229-60.723-19.855-92.857-22.458-7.53-.6-13.947-3.954-19.955-8.178a167.821,167.821,0,0,1-47.564-51.155A53.3,53.3,0,0,1,709.3,558.03Zm4-117.214c-1.344-6.9-3.151-13.855-2.51-21.77,4.812,1.536,7.414,4.093,10.14,6.409,15.229,12.758,30.273,25.7,45.564,38.343a44.426,44.426,0,0,1,12.233,16.3c13.128,28.72,26.511,57.333,39.756,86.007,4.7,10.217,9.267,20.5,13.9,30.752l-1.884,1.189q-48.059-39.981-96.155-79.914c-4.9-4.062-7.444-9.09-8.634-15.445-3.861-20.682-8.371-41.239-12.41-61.89Zm72.149,42.374c1.707.239,2.239.154,2.479.371a1333.182,1333.182,0,0,1,111.8,114.55,25.947,25.947,0,0,1,6.093,14.194c2.008,15.245,4.286,30.443,6.325,45.687.355,2.649,1.7,5.514-.672,8.148-4.263.594-6.394-2.92-8.966-5.136-17.113-14.82-33.98-29.941-51.147-44.706a48.778,48.778,0,0,1-12.8-17.353c-11.529-25.408-23.353-50.684-35.022-76.037C797.526,509.918,791.634,496.874,785.448,483.205Zm133.471,198.31c6.232,5.807,13.043,10.982,19.013,16.99,7.877,7.923,17.785,13.762,25.716,24.465-3.452.139-4.7.471-5.768.2-20.79-5.275-41.765-9.715-63.264-11.121-4.534-.293-8.6-2.3-12.457-4.525-11.955-6.827-23.539-14.233-33.98-23.276-11.059-9.592-21.206-20.033-29.076-32.435-2.077-3.259-5.575-7.121-2.625-10.982,2.625-3.46,6.857-.819,10.194-.046,19.715,4.7,38.69,11.715,57.626,18.874A105.682,105.682,0,0,1,918.919,681.515Zm-288.248-132c-1.336-2.208-3.978-4.317-1.738-8.139a471.88,471.88,0,0,1,63.465,6.386c6.008.973,8.819,4.41,10.966,9.754,7.027,17.507,18.079,32.35,31.207,45.772,7.916,8.016,16.928,14.65,28,23.516a410.1,410.1,0,0,0-58.16,1.676c-6.324.586-10.788-.572-15.082-5.043-21.863-22.821-42.3-46.746-58.653-73.922ZM594.845,472.88c-3.552-11.623-6.95-23.338-8.155-35.532-.873-8.789.842-10.194,9.576-7.931,5.514,1.421,10.92,3.066,16.326,4.819,10.171,3.313,10.611,4.255,11.151,14.51,1.491,28.358,10.851,53.766,28.837,75.9,2.757,3.4,6.641,6.023,8.248,12.356-9.214,2.031-17.6-1.2-25.887-.479-9.73.842-14.92-3.877-18.859-11.97-8.155-16.8-15.777-33.81-21.237-51.672Zm23.516-99.4c8.186,25.547,20.411,49.155,34.373,72.068a204.335,204.335,0,0,0-44.32-17.507c-5.823-1.622-11.576-3.63-17.407-5.329-4.379-1.289-6.734-4.077-7.36-8.6a177.511,177.511,0,0,1,1.738-57.966c.8-4.209,3.213-5.908,7.807-5.406,13.392,1.475,19.994,6.6,23.941,19.307.363,1.158.857,2.27,1.228,3.428Zm3.938-5.575c-.687-4.008,1.614-5.1,5.1-3.831a43.5,43.5,0,0,1,5.476,2.618,481.949,481.949,0,0,1,62.383,39.942c5.6,4.224,8.194,9.375,9.46,16.125,3.661,19.476,7.962,38.845,11.824,58.29,1.382,6.958,2.95,13.963,2.8,21.052-1.483.193-2.054.433-2.255.271q-6.951-5.769-13.9-11.584c-36.2-30.412-62.615-67.55-77.906-112.419a68.867,68.867,0,0,1-2.981-10.464Zm33.347-40.243c3.537,12.395,6.008,25.091,10.58,37.223,1.953,5.167,3.529,10.472,6.085,18.148-17.268-10.387-32.412-19.368-48.158-27.245a6.842,6.842,0,0,1-3.769-7.059c1-11.275,2.7-22.419,6.4-33.168.788-2.364,1.962-4.364,4.919-4.634,8.225-.734,21.624,8.611,23.941,16.735Zm79.867,52.012a10.474,10.474,0,0,1,3.19,6.387c1.745,13.615,3.467,27.268,5.081,40.93.278,2.324.572,5.143-2.224,6.271-2.209.872-3.753-1.035-5.3-2.255-10.109-8.055-19.245-17.932-30.458-23.941-21.932-11.746-32.559-30.365-38.15-53.193a46.85,46.85,0,0,1-1.22-4.7c-1.058-7.376-5.807-14.164-3.938-24.713a427.306,427.306,0,0,1,73.017,55.217Zm53.673,50.807c10.966,10.148,18.681,21.879,22.789,36.4,3.174,11.252,7.808,22.087,11.669,33.138.9,2.541,2.7,5.012,1.159,7.946-.842-.115-1.854.07-2.317-.355q-34.058-30.99-68.129-61.989c-2.456-2.232-4.425-4.657-5.02-8.04-2.688-15.383-2.224-30.937-4.078-49.162,6.086,5.367,10.125,8.611,13.808,12.217,10.04,9.893,19.74,20.241,30.119,29.84ZM922.432,612.76c-2.672.471-3.568-1.027-4.548-2.216-23.539-28.451-48.63-55.48-74.508-81.737a43.608,43.608,0,0,1-10.109-16.356c-5.051-14.117-10.217-28.188-15.237-42.305-.857-2.386-2.549-4.927-.548-7.723,3.923,1.769,6.016,4.835,8.4,7.514,31.555,35.409,61.3,72.3,89.706,110.319C923.405,590.735,924.108,601.207,922.432,612.76Zm86.2,120.5a1123.931,1123.931,0,0,0-71.172-98.309c-8.163-10.039-8.711-20.8-7.862-32.674A812.955,812.955,0,0,1,1008.633,733.264Zm2.865,23.3Q968.1,718.53,924.734,680.488c-2.51-2.193-4.479-4.7-4.927-8.109q-3.622-27.577-7.221-55.171l2.271-1.1c36.528,44.089,70.793,89.776,99.436,140.668C1012.27,756.633,1011.737,756.734,1011.5,756.564ZM838.449,718.815l.772-2.394c6.039.047,12.078.147,18.1.047,33.786-.541,67.04,2.525,99.885,11.306,14.225,3.761,26.519,9.421,36.559,19.978,4.571,4.827,10.9,8.148,14.989,17.075A664.77,664.77,0,0,1,838.449,718.815ZM963.988,789.3c-9.452,6.3-19.291,7.02-32.18,2.749,18.534-10.371,33.609-23.33,56.429-17.623-8.78,5.352-16.712,9.839-24.272,14.874Zm-84.393,438c-4.665-1.714-6.132-4.9-4.247-9.553,4.131-10.039,7.491-20.418,14.31-30.118,5.784,3.769,8.147,8.626,11.429,12.619,3.676,4.471,7.105,5.3,12.511,2.533,9.537-4.889,10.673-4.055,14.055,6.695,3.051,9.661,6.433,19.114,12.078,27.678,2.34,3.53,7.051,7.939,3.622,11.754-3.877,4.309-9.113-.031-12.974-2.247-13.074-7.483-27.068-12.557-41.648-16.218a89.587,89.587,0,0,1-9.159-3.143Z" transform="translate(-78.136 -76.136)" fill="#fef1f4" stroke="#acc7e2" stroke-miterlimit="10" stroke-width="2"/>
    <g>
      <path d="M1504.759,1209.79a20.439,20.439,0,0,1-3.48,6.32,26.828,26.828,0,0,1-5.01,4.84,26.512,26.512,0,0,1-5.34,3.1q1.77-4.845,3.22-9.47c.96-3.08,1.73-5.78,2.29-8.1a24.012,24.012,0,0,0,.85-5.01c-.51-.11-.97-.2-1.4-.26a9.735,9.735,0,0,0-1.06-.08,3.892,3.892,0,0,0-3.31,1.61,14.866,14.866,0,0,0-2.04,5.01c-.05.34-.12.69-.21,1.06s-.18.78-.3,1.23a46.833,46.833,0,0,1-6.53,7.51q-3.4,3.107-5.77,3.1a2.381,2.381,0,0,1-1.87-.89,3.869,3.869,0,0,1-.77-2.59,14.645,14.645,0,0,1,1.36-5.69,27.236,27.236,0,0,1,3.69-6.06,20.439,20.439,0,0,1,5.4-4.8,12.03,12.03,0,0,1,6.36-1.871,6.518,6.518,0,0,1,2.08.3,4.254,4.254,0,0,1,1.74,1.23,4.681,4.681,0,0,0,.76-.68,2.15,2.15,0,0,0,.6-1.61,2.763,2.763,0,0,0-1.36-2.25,6.98,6.98,0,0,0-4.07-.98,19.847,19.847,0,0,0-7.81,1.74,28.97,28.97,0,0,0-7.64,4.84,27.108,27.108,0,0,0-5.82,7.051,16.681,16.681,0,0,0-2.2,7.209,25.009,25.009,0,0,1-4.2,4.97,6.583,6.583,0,0,1-4.25,1.95,2.068,2.068,0,0,1-1.4-.55,2.452,2.452,0,0,1-.64-1.91,9.9,9.9,0,0,1,.81-3.82c.54-1.3,1.09-2.69,1.66-4.16a13.257,13.257,0,0,0,.84-4.75,9.219,9.219,0,0,0-1.74-5.439,6.141,6.141,0,0,0-5.39-2.46,11.254,11.254,0,0,0-5.73,1.659,26.973,26.973,0,0,0-5.47,4.281,50.339,50.339,0,0,0-4.84,5.609c.45-1.7.81-3.22,1.06-4.549a16.842,16.842,0,0,0,.38-3.011q0-2.55-2.97-2.549a5.33,5.33,0,0,0-2.59.679,7,7,0,0,0-1.82,1.361,24.316,24.316,0,0,1-.85,6.029c-.31,1.2-.65,2.38-1.01,3.52l-.01.01a27.118,27.118,0,0,1-5.51,7.25q-3.4,2.882-6.28,2.88a4.059,4.059,0,0,1-2.85-.89c-.65-.589-.97-1.79-.97-3.6a15.008,15.008,0,0,1,1.31-5.9,48.306,48.306,0,0,1,3.06-5.99c1.16-1.92,2.17-3.62,3.05-5.09a7.544,7.544,0,0,0,1.32-3.31,2.264,2.264,0,0,0-.77-1.83,2.71,2.71,0,0,0-1.78-.63,5.436,5.436,0,0,0-3.73,1.821,20.379,20.379,0,0,0-3.48,4.71,45.083,45.083,0,0,0-2.85,6.159,48.528,48.528,0,0,0-1.57,4.91l-.01.01c-.51.88-1.06,1.75-1.64,2.63a25.009,25.009,0,0,1-4.2,4.97,6.583,6.583,0,0,1-4.25,1.95,2.087,2.087,0,0,1-1.4-.55,2.452,2.452,0,0,1-.64-1.91,9.9,9.9,0,0,1,.81-3.82c.54-1.3,1.09-2.69,1.66-4.16a13.262,13.262,0,0,0,.85-4.75,9.289,9.289,0,0,0-1.74-5.439,6.153,6.153,0,0,0-5.39-2.46,11.2,11.2,0,0,0-5.73,1.659,26.751,26.751,0,0,0-5.48,4.281,51.406,51.406,0,0,0-4.84,5.609c.45-1.7.81-3.22,1.06-4.549a17.064,17.064,0,0,0,.39-3.011c0-1.7-1-2.549-2.98-2.549a5.293,5.293,0,0,0-2.58.679,6.908,6.908,0,0,0-1.83,1.361,24.316,24.316,0,0,1-.85,6.029c-.21.83-.44,1.65-.68,2.451a29.982,29.982,0,0,1-6.49,8.369q-3.69,3.015-5.73,3.01a2.1,2.1,0,0,1-1.95-.97,3.919,3.919,0,0,1-.6-2.08,7.139,7.139,0,0,1,.73-3.02,29.353,29.353,0,0,1,1.69-3.14c.65-1.04,1.22-2,1.7-2.879a4.841,4.841,0,0,0,.72-2.171,1.772,1.772,0,0,0-.85-1.52,6.311,6.311,0,0,0-1.82-.9c-.41-.12-.74-.219-.98-.29-.14-.04-.26-.07-.34-.09a.764.764,0,0,0-.68.431q-1.605,2.113-3.82,5.129t-4.62,5.9a34.469,34.469,0,0,1-4.8,4.8,7.214,7.214,0,0,1-4.33,1.91c-1.3,0-1.95-.91-1.95-2.719a16.749,16.749,0,0,1,1.02-5.351,35.055,35.055,0,0,1,2.8-6.07,36.089,36.089,0,0,1,4.03-5.68,22.765,22.765,0,0,1,4.71-4.2,8.8,8.8,0,0,1,4.84-1.62c1.47,0,2.43.46,2.89,1.36a6.813,6.813,0,0,1,.68,3.061,9.289,9.289,0,0,1-.13,1.609q-.12.765-.3,1.53a5.112,5.112,0,0,0,3.82-.6,3.61,3.61,0,0,0,1.62-3.309,5.829,5.829,0,0,0-2.55-4.921,10.247,10.247,0,0,0-6.2-1.87,15.781,15.781,0,0,0-6.96,1.7,27.962,27.962,0,0,0-6.53,4.46,36.6,36.6,0,0,0-5.44,6.151,32.464,32.464,0,0,0-3.62,6.619l-.01.01a30.782,30.782,0,0,1-2.52,2.96,28.75,28.75,0,0,1-6.79,5.31,14.728,14.728,0,0,1-7.17,1.99,7,7,0,0,1-3.74-.85,5.16,5.16,0,0,1-1.95-2.03,6.794,6.794,0,0,1-.72-2.25,13.4,13.4,0,0,1-.13-1.489,12.186,12.186,0,0,1,.04-1.231,5.4,5.4,0,0,1,.13-.72,31.519,31.519,0,0,0,7.6-1.83,30.264,30.264,0,0,0,6.92-3.6,19.017,19.017,0,0,0,5-5.01,10.641,10.641,0,0,0,1.87-6.03c0-2.26-.66-3.78-1.99-4.54a8.352,8.352,0,0,0-4.2-1.15,15.271,15.271,0,0,0-7.81,2.3,28.612,28.612,0,0,0-7.13,5.979,32.191,32.191,0,0,0-5.14,7.89,21.127,21.127,0,0,0-1.71,5.52l0,.014a26.753,26.753,0,0,1-4.645,5.586,6.731,6.731,0,0,1-4.38,2,3.131,3.131,0,0,1-2.63-1.4,7.686,7.686,0,0,1-1.02-4.46,26.771,26.771,0,0,1,.3-3.78c.2-1.38.41-2.78.64-4.2a47.473,47.473,0,0,0,7.34-7.21,77.377,77.377,0,0,0,6.28-8.79,89.387,89.387,0,0,0,4.92-9.04,62.083,62.083,0,0,0,3.23-8.1,21.519,21.519,0,0,0,1.15-5.989,10.425,10.425,0,0,0-.47-2.931,9.95,9.95,0,0,0-1.23-2.71,2.206,2.206,0,0,0-1.87-1.15q-1.62,0-4.2,2.85a57.507,57.507,0,0,0-5.65,7.59c-2.03,3.17-4.06,6.72-6.06,10.66s-3.85,7.95-5.52,12.05a101.976,101.976,0,0,0-4.03,11.75c-.34,1.26-.63,2.46-.85,3.61a38.316,38.316,0,0,1-4.88,6.67,33.365,33.365,0,0,1-8.32,6.7,18.482,18.482,0,0,1-9.13,2.55,10.543,10.543,0,0,1-7.13-2.34,13.243,13.243,0,0,1-3.94-6.02,24.449,24.449,0,0,1-1.23-7.77,43.942,43.942,0,0,1,1.69-11.67,65.227,65.227,0,0,1,4.63-11.97,64.17,64.17,0,0,1,6.58-10.53,36.516,36.516,0,0,1,7.59-7.51,13.415,13.415,0,0,1,7.69-2.8,4.039,4.039,0,0,1,2.97.89,3.4,3.4,0,0,1,.85,2.42,10.63,10.63,0,0,1-.94,3.951,31.79,31.79,0,0,1-2.37,4.579q-1.455,2.34-3.06,4.421c-1.08,1.379-2.04,2.559-2.89,3.519a5.328,5.328,0,0,0,1.7,2.04,3.386,3.386,0,0,0,1.78.59,5.408,5.408,0,0,0,3.82-1.87,18.432,18.432,0,0,0,3.36-4.79,33.787,33.787,0,0,0,2.37-6.07,20.781,20.781,0,0,0,.89-5.689c0-2.831-.84-4.821-2.54-5.98a10.867,10.867,0,0,0-6.28-1.741,22.071,22.071,0,0,0-10.4,2.76,38.779,38.779,0,0,0-9.81,7.51,59.493,59.493,0,0,0-13.83,23.721,46.336,46.336,0,0,0-2.04,13.46,27.058,27.058,0,0,0,1.91,10.009,17.769,17.769,0,0,0,6.03,7.9,17.311,17.311,0,0,0,10.57,3.05,23.2,23.2,0,0,0,11.24-2.84,34.545,34.545,0,0,0,9.38-7.56c1.08-1.23,2.11-2.51,3.07-3.84-.01.14-.01.281-.01.41a12.221,12.221,0,0,0,1.57,6.32c1.04,1.781,2.9,2.67,5.56,2.67q4.92,0,9.42-4.369a32.958,32.958,0,0,0,2.74-3.051,9.722,9.722,0,0,0,2.82,5.68c1.95,1.96,4.74,2.93,8.36,2.93a20.381,20.381,0,0,0,8.96-2.12,27.5,27.5,0,0,0,7.96-5.93c-.02.281-.03.56-.03.84a6.8,6.8,0,0,0,6.96,7.47,9.345,9.345,0,0,0,6.07-2.38,51.325,51.325,0,0,0,6.24-6.45v.42a8.552,8.552,0,0,0,1.87,4.76,6.1,6.1,0,0,0,5.17,2.2,11.757,11.757,0,0,0,6.37-1.99,23.942,23.942,0,0,0,4.95-4.3,25.506,25.506,0,0,0-.96,2.56,5.577,5.577,0,0,0,2.46,1.91,8.431,8.431,0,0,0,3.06.55q1.605-2.714,3.82-6.11t4.71-6.54a31.527,31.527,0,0,1,5.17-5.219,8.634,8.634,0,0,1,5.23-2.081,2.835,2.835,0,0,1,2.97,3.31,12.724,12.724,0,0,1-.6,3.74c-.4,1.3-.79,2.591-1.19,3.86a12.362,12.362,0,0,0-.59,3.61,5.535,5.535,0,0,0,1.74,4.2,7.062,7.062,0,0,0,5.05,1.651,10.005,10.005,0,0,0,6.15-2.071,21.322,21.322,0,0,0,4.72-5.09c-.01.161-.01.31-.01.46a8.04,8.04,0,0,0,1.87,5.35,6.93,6.93,0,0,0,5.6,2.2,14.413,14.413,0,0,0,9.85-4.16,21.994,21.994,0,0,0,1.59-1.61,17.649,17.649,0,0,0-.74,2.04,5.577,5.577,0,0,0,2.46,1.91,8.431,8.431,0,0,0,3.06.55q1.6-2.714,3.81-6.11t4.72-6.54a31.144,31.144,0,0,1,5.17-5.219,8.631,8.631,0,0,1,5.22-2.081,2.824,2.824,0,0,1,2.97,3.31,12.7,12.7,0,0,1-.59,3.74c-.4,1.3-.79,2.591-1.19,3.86a12.362,12.362,0,0,0-.59,3.61,5.535,5.535,0,0,0,1.74,4.2,7.062,7.062,0,0,0,5.05,1.651,10.005,10.005,0,0,0,6.15-2.071,20.572,20.572,0,0,0,4.28-4.469,8.214,8.214,0,0,0,1.75,3.739,6.649,6.649,0,0,0,5.39,2.38,11,11,0,0,0,6.66-2.46,34.725,34.725,0,0,0,6.24-6.2q-.765,3.062-1.61,5.69t-1.78,4.92q-2.805,1.365-5.78,2.89a46.688,46.688,0,0,0-5.56,3.351,17.851,17.851,0,0,0-4.16,3.989,8.146,8.146,0,0,0-1.57,4.88,4.714,4.714,0,0,0,1.83,4.16,6.755,6.755,0,0,0,3.95,1.27,9.491,9.491,0,0,0,6.49-2.75,31.162,31.162,0,0,0,5.69-7.39,84.014,84.014,0,0,0,4.96-10.23,37.769,37.769,0,0,0,6.11-3.61,35.193,35.193,0,0,0,6.16-5.55,21.42,21.42,0,0,0,4.2-7.14Zm-194.84-2.55a31.007,31.007,0,0,1,3.65-4.96,22.563,22.563,0,0,1,4.16-3.659,7.44,7.44,0,0,1,4.08-1.4,1.556,1.556,0,0,1,1.1.34,1.87,1.87,0,0,1,.34,1.28,8.277,8.277,0,0,1-1.61,4.71,19.531,19.531,0,0,1-4.12,4.28,27.053,27.053,0,0,1-5.22,3.23,16.119,16.119,0,0,1-4.92,1.53A30.407,30.407,0,0,1,1309.919,1207.24Zm-17.17-12.77q1.995-4.725,4.16-8.96t4.2-7.55a59.36,59.36,0,0,1,3.53-5.22c.99-1.28,1.71-1.91,2.16-1.91v.25a19.281,19.281,0,0,1-.98,4.541,55.792,55.792,0,0,1-2.5,6.409q-1.605,3.572-3.78,7.39t-4.75,7.511a66,66,0,0,1-5.48,6.829Q1290.764,1199.17,1292.749,1194.47Zm184.09,46.72c-1.78,1.931-3.18,2.89-4.2,2.89a1.366,1.366,0,0,1-1.15-.64,2.877,2.877,0,0,1-.47-1.74,5.507,5.507,0,0,1,1.62-3.73,19.278,19.278,0,0,1,4.24-3.4c1.75-1.07,3.68-2.12,5.77-3.139Q1479.514,1238.315,1476.839,1241.19Z" transform="translate(-78.136 -76.136)" fill="#d9ecfd" stroke="#fef1f4" stroke-miterlimit="10"/>
      <path d="M1429.819,1180.931a4.666,4.666,0,0,0-2.59-.681,8.277,8.277,0,0,0-4.59,1.44,4.131,4.131,0,0,0-2.2,3.48,2.734,2.734,0,0,0,1.31,2.511,5.566,5.566,0,0,0,2.93.8,6.422,6.422,0,0,0,4.24-1.65,4.609,4.609,0,0,0,1.96-3.439A2.7,2.7,0,0,0,1429.819,1180.931Z" transform="translate(-78.136 -76.136)" fill="#d9ecfd" stroke="#fef1f4" stroke-miterlimit="10"/>
      <path d="M1561.639,1178.13c-.66,1.58-1.22,3.11-1.7,4.58a12.992,12.992,0,0,0-.72,3.99,4.133,4.133,0,0,0,.93,2.84,5.093,5.093,0,0,0,2.8,1.49,57.794,57.794,0,0,0,3.01-5.52,47.711,47.711,0,0,0,2.68-6.79,22.913,22.913,0,0,0,1.1-6.71,8.9,8.9,0,0,0-2.38-6.45q-2.37-2.46-8.23-2.46a23.428,23.428,0,0,0-10.18,2.17,25.037,25.037,0,0,0-7.81,5.641,26.914,26.914,0,0,0-4.97,7.429,18.477,18.477,0,0,0-1.74,7.43,11.245,11.245,0,0,0,1.99,6.7,19.841,19.841,0,0,0,5.14,4.921,66.667,66.667,0,0,0,6.62,3.949q3.48,1.83,6.62,3.821a20.461,20.461,0,0,1,5.14,4.5,9.291,9.291,0,0,1,1.99,5.98,9.1,9.1,0,0,1-2.33,6.369,14.428,14.428,0,0,1-5.94,3.82,22.122,22.122,0,0,1-7.43,1.27,15.664,15.664,0,0,1-7.39-1.57,10.9,10.9,0,0,1-4.45-4.07,10.4,10.4,0,0,1-1.49-5.39,14.119,14.119,0,0,1,1.4-5.86,22.349,22.349,0,0,1,4.12-5.94,18.737,18.737,0,0,0-5.94,1.02,10.573,10.573,0,0,0-5.09,3.61,11.287,11.287,0,0,0-2.04,7.17,13.358,13.358,0,0,0,2.8,8.66,16.77,16.77,0,0,0,7.26,5.17,25.916,25.916,0,0,0,9.38,1.7,29.161,29.161,0,0,0,8.36-1.229,26.8,26.8,0,0,0,7.51-3.561,18.043,18.043,0,0,0,5.39-5.73,15.149,15.149,0,0,0,1.99-7.81,13.6,13.6,0,0,0-1.95-7.47,19,19,0,0,0-5.05-5.27,53.9,53.9,0,0,0-6.53-3.98q-3.45-1.785-6.54-3.57a20.247,20.247,0,0,1-5.05-3.95,7.516,7.516,0,0,1-1.95-5.22,13.547,13.547,0,0,1,1.35-5.47,22.138,22.138,0,0,1,9.77-10.23,15.781,15.781,0,0,1,7.47-1.78c1.81,0,3.01.28,3.6.851a3.074,3.074,0,0,1,.89,2.369,13.17,13.17,0,0,1-.72,3.95Q1562.609,1175.75,1561.639,1178.13Z" transform="translate(-78.136 -76.136)" fill="#d9ecfd" stroke="#fef1f4" stroke-miterlimit="10"/>
      <path d="M1594.949,1197.56a.945.945,0,0,0-.23-.16,1.044,1.044,0,0,1,.2.15,1.819,1.819,0,0,1,.34,1.28,8.275,8.275,0,0,1-1.61,4.71,19.531,19.531,0,0,1-4.12,4.28,27.1,27.1,0,0,1-5.22,3.23,16.063,16.063,0,0,1-4.88,1.52c-.01.01-.01.01-.01.02a16.119,16.119,0,0,0,4.92-1.53,27.053,27.053,0,0,0,5.22-3.23,19.531,19.531,0,0,0,4.12-4.28,8.277,8.277,0,0,0,1.61-4.71A1.819,1.819,0,0,0,1594.949,1197.56Zm0,0a.945.945,0,0,0-.23-.16,1.044,1.044,0,0,1,.2.15,1.819,1.819,0,0,1,.34,1.28,8.275,8.275,0,0,1-1.61,4.71,19.531,19.531,0,0,1-4.12,4.28,27.1,27.1,0,0,1-5.22,3.23,16.063,16.063,0,0,1-4.88,1.52c-.01.01-.01.01-.01.02a16.119,16.119,0,0,0,4.92-1.53,27.053,27.053,0,0,0,5.22-3.23,19.531,19.531,0,0,0,4.12-4.28,8.277,8.277,0,0,0,1.61-4.71A1.819,1.819,0,0,0,1594.949,1197.56Z" transform="translate(-78.136 -76.136)" fill="#d9ecfd" stroke="#fef1f4" stroke-miterlimit="10"/>
      <path d="M1777.688,1209.2a23.7,23.7,0,0,1-4.806,6.924,12.424,12.424,0,0,1-5.034,3l-.1.031c.01-.041.019-.093.029-.135.09-.488.159-1,.219-1.536.059-.582.079-1.235.079-1.942a25.2,25.2,0,0,0-1.221-7.754q-1.221-3.783-2.443-7.173a18.133,18.133,0,0,1-1.221-6.041,7.188,7.188,0,0,1,.208-1.941,4.413,4.413,0,0,0,.219-1.225,2.19,2.19,0,0,0-.556-1.236,1.853,1.853,0,0,0-1.47-.529,3.312,3.312,0,0,0-2.651,1.453q-1.146,1.449-1.142,4.973v.882a34.453,34.453,0,0,1-3.833,6.747,63.964,63.964,0,0,1-4.339,5.326,3.8,3.8,0,0,1-1.251.778h-.01c-.01.011-.03.011-.049.021a8.663,8.663,0,0,0-1.1.529c-.258.146-.526.3-.794.478a5,5,0,0,0-1.688,2.076,6.536,6.536,0,0,0-.556,2.076c-.526.685-1.092,1.339-1.678,1.972a28.547,28.547,0,0,1-6.742,5.512,14.094,14.094,0,0,1-7.12,2.066,6.673,6.673,0,0,1-3.7-.882,5.236,5.236,0,0,1-1.947-2.107,7.835,7.835,0,0,1-.714-2.336c-.08-.737-.13-1.246-.13-1.547a12.357,12.357,0,0,1,.05-1.277q.045-.389.119-.747a30.193,30.193,0,0,0,7.547-1.9,29.391,29.391,0,0,0,6.871-3.737,19.575,19.575,0,0,0,4.975-5.2,11.488,11.488,0,0,0,1.856-6.26c0-2.346-.665-3.924-1.986-4.713a8.015,8.015,0,0,0-4.17-1.193,14.718,14.718,0,0,0-7.755,2.387,28.911,28.911,0,0,0-7.08,6.208,33.937,33.937,0,0,0-5.1,8.19,22.661,22.661,0,0,0-1.728,5.938,22,22,0,0,1-1.678,2.169,24.58,24.58,0,0,1-6.494,5.419,13.549,13.549,0,0,1-6.653,1.941q-3.544,0-4.766-2.066a8.777,8.777,0,0,1-1.221-4.536,19.48,19.48,0,0,1,1.221-6.394,32.2,32.2,0,0,1,3.207-6.6,22.539,22.539,0,0,1,4.29-5.118,7.015,7.015,0,0,1,4.428-1.983,1.612,1.612,0,0,1,1.261.395,1.638,1.638,0,0,1,.338,1.1,8.876,8.876,0,0,1-.923,4.318,7.056,7.056,0,0,1-1.768,2.294,2.972,2.972,0,0,0,2.612,1.672q1.935,0,3.078-2.336a10.855,10.855,0,0,0,1.132-4.8,6.477,6.477,0,0,0-1.559-4.318c-1.033-1.235-2.741-1.848-5.094-1.848a13.418,13.418,0,0,0-6.792,1.931,22.4,22.4,0,0,0-6.017,5.242,27.007,27.007,0,0,0-4.3,7.454,23.543,23.543,0,0,0-1.241,4.391v.01a25.213,25.213,0,0,1-4.657,6.083c-2.254,1.993-4.329,2.99-6.245,2.99a3.909,3.909,0,0,1-2.82-.924c-.646-.613-.973-1.858-.973-3.737a16.193,16.193,0,0,1,1.31-6.125,51,51,0,0,1,3.039-6.218l3.028-5.284a8.051,8.051,0,0,0,1.311-3.436,2.4,2.4,0,0,0-.765-1.9,2.619,2.619,0,0,0-1.767-.654,5.31,5.31,0,0,0-3.7,1.889,21.165,21.165,0,0,0-3.455,4.889,47.768,47.768,0,0,0-2.83,6.395,52.123,52.123,0,0,0-1.678,5.543,9.257,9.257,0,0,1-1.271,1.505,4.748,4.748,0,0,1-3.247,1.453,2.856,2.856,0,0,1-2.393-1.017,5.022,5.022,0,0,1-1.013-2.47,20.969,20.969,0,0,1,.457-8.326,16.168,16.168,0,0,1,1.35-2.906,4.346,4.346,0,0,0,.675-2.377,5.386,5.386,0,0,0-.754-2.471,2.973,2.973,0,0,0-2.87-1.4,3.482,3.482,0,0,0-3.038,2.024q-1.178,2.024-1.341,8.014-1.266,2.912-2.909,6.041a64.835,64.835,0,0,1-3.456,5.813,27.506,27.506,0,0,1-3.584,4.4,4.964,4.964,0,0,1-3.287,1.723c-.675,0-1.092-.426-1.261-1.277a22.6,22.6,0,0,1-.258-4.007q0-2.818.209-5.823c.139-1.994.218-3.872.218-5.637a9.572,9.572,0,0,0-.387-3.394c-.249-.551-1.053-.831-2.393-.831-1.47,0-2.354.322-2.661.965a10.341,10.341,0,0,0-.547,3.613c-.059,1.7-.119,3.187-.168,4.464-.407.695-.884,1.432-1.43,2.19a30.659,30.659,0,0,1-3.714,4.277,22.777,22.777,0,0,1-4.3,3.3,8.362,8.362,0,0,1-4.21,1.276,2.775,2.775,0,0,1-1.48-.394,1.805,1.805,0,0,1-.625-1.63,9.538,9.538,0,0,1,1.092-3.965c.735-1.526,1.459-3.176,2.194-4.941a13.543,13.543,0,0,0,1.092-5.19,7.7,7.7,0,0,0-1.35-4.672,12.97,12.97,0,0,0-3.118-3.083c-1.181-.83-2.234-1.546-3.157-2.159a2.829,2.829,0,0,1-1.48-1.9c.119-.353.3-.9.556-1.671a6.315,6.315,0,0,0,.377-1.588,5.676,5.676,0,0,0-.466-1.63,1.556,1.556,0,0,0-1.47-1.183q-1.266,0-2.621,2.024a7.69,7.69,0,0,0-1.341,4.318,3.285,3.285,0,0,0,.844,2.377,101.108,101.108,0,0,1-3.713,9.426c-1.053,2.3-1.936,4.162-2.651,5.6a32.288,32.288,0,0,1-3.714,4.879,28.547,28.547,0,0,1-6.742,5.512,14.094,14.094,0,0,1-7.12,2.066,6.712,6.712,0,0,1-3.713-.882,5.269,5.269,0,0,1-1.936-2.107,7.81,7.81,0,0,1-.715-2.336c-.08-.737-.13-1.246-.13-1.547a12.357,12.357,0,0,1,.05-1.277,6,6,0,0,1,.119-.747,30.193,30.193,0,0,0,7.547-1.9,29.593,29.593,0,0,0,6.871-3.737,19.575,19.575,0,0,0,4.975-5.2,11.478,11.478,0,0,0,1.846-6.26c0-2.346-.655-3.924-1.976-4.713a8.015,8.015,0,0,0-4.17-1.193,14.7,14.7,0,0,0-7.755,2.387,28.748,28.748,0,0,0-7.08,6.208,33.937,33.937,0,0,0-5.1,8.19,20.816,20.816,0,0,0-1.9,8.242,10.594,10.594,0,0,0,2.91,7.62c1.936,2.034,4.706,3.041,8.3,3.041a19.513,19.513,0,0,0,8.9-2.2,27.688,27.688,0,0,0,7.924-6.166,32.026,32.026,0,0,0,3.366-4.484l.04.072c.953-1.7,2.2-4.058,3.753-7.089a94.121,94.121,0,0,0,4.171-9.384,10.887,10.887,0,0,1,2.949,2.252,4.775,4.775,0,0,1,1.271,3.384,12.259,12.259,0,0,1-1.222,4.848c-.824,1.827-1.618,3.675-2.4,5.554a13.605,13.605,0,0,0-1.181,5.283,5.874,5.874,0,0,0,1.936,4.63,7.351,7.351,0,0,0,5.054,1.713,13.96,13.96,0,0,0,7.507-2.336,28.314,28.314,0,0,0,6.742-5.989c.506-.613.983-1.225,1.44-1.848-.01.3-.01.55-.01.747a20.125,20.125,0,0,0,1.221,7.62,4.367,4.367,0,0,0,4.339,2.958,8.187,8.187,0,0,0,5.481-2.605,35.89,35.89,0,0,0,5.352-6.478,77.912,77.912,0,0,0,4.6-7.837,16.9,16.9,0,0,0,2.651,5.854,5.351,5.351,0,0,0,4.508,2.336,7.487,7.487,0,0,0,4.6-1.931c.229-.187.457-.394.676-.612a17.935,17.935,0,0,0-.219,2.636,8.585,8.585,0,0,0,1.857,5.554,6.72,6.72,0,0,0,5.56,2.284q5.229,0,9.781-4.318a24.881,24.881,0,0,0,3.545-4.246c.119,3.55,1.062,6.207,2.82,7.993a9.661,9.661,0,0,0,7.2,2.865,17.637,17.637,0,0,0,8.638-2.419,29.032,29.032,0,0,0,7.924-6.612c.238-.27.467-.55.675-.831a10.275,10.275,0,0,0,2.78,5.762c1.937,2.034,4.707,3.041,8.3,3.041a19.513,19.513,0,0,0,8.9-2.2,27.688,27.688,0,0,0,7.924-6.166c.219-.249.437-.5.645-.747a15.053,15.053,0,0,0,.914,3.342,9.978,9.978,0,0,0,3.664,4.589,11.548,11.548,0,0,0,6.782,1.806,13.8,13.8,0,0,0,6.96-1.765,9.953,9.953,0,0,0,4.419-5.377h.01a12.866,12.866,0,0,0,7.07-3.747A19.643,19.643,0,0,0,1778.7,1210Zm-52.219-1.967a30.368,30.368,0,0,1,3.65-4.96,22.246,22.246,0,0,1,4.15-3.66,7.506,7.506,0,0,1,4.08-1.4,1.523,1.523,0,0,1,1.1.34,1.819,1.819,0,0,1,.34,1.28,8.275,8.275,0,0,1-1.61,4.71,19.531,19.531,0,0,1-4.12,4.28,27.1,27.1,0,0,1-5.22,3.23,16.119,16.119,0,0,1-4.92,1.53A29.783,29.783,0,0,1,1725.469,1207.23Zm-143.54,0a31.58,31.58,0,0,1,3.65-4.96,22.607,22.607,0,0,1,4.16-3.66,7.48,7.48,0,0,1,4.08-1.4,2.253,2.253,0,0,1,.38.03,1.449,1.449,0,0,1,.52.16,1.044,1.044,0,0,1,.2.15,1.819,1.819,0,0,1,.34,1.28,8.275,8.275,0,0,1-1.61,4.71,19.531,19.531,0,0,1-4.12,4.28,27.1,27.1,0,0,1-5.22,3.23,16.063,16.063,0,0,1-4.88,1.52.06.06,0,0,1-.04.01A30.407,30.407,0,0,1,1581.929,1207.23Zm176.13,16.72a6.044,6.044,0,0,1-3.14.85,5.33,5.33,0,0,1-4.76-2.46,9.477,9.477,0,0,1-1.61-5.26c0-1.36.4-2.12,1.19-2.29a18.825,18.825,0,0,0,4.33,3.98,17.27,17.27,0,0,0,6.28,2.72A6,6,0,0,1,1758.059,1223.95Zm3.18-6.41a6.575,6.575,0,0,1-.21,1.4,16.053,16.053,0,0,1-6.03-2.88,15.855,15.855,0,0,1-3.99-4.33,35.91,35.91,0,0,0,3.82-4.92q2.04-3.06,3.57-5.689.93,3.9,1.87,7.639a33.944,33.944,0,0,1,1.01,7.55C1761.279,1216.6,1761.269,1217.01,1761.239,1217.54Z" transform="translate(-78.136 -76.136)" fill="#d9ecfd" stroke="#fef1f4" stroke-miterlimit="10"/>
      <path d="M1689.629,1180.931a4.609,4.609,0,0,0-2.58-.681,8.277,8.277,0,0,0-4.59,1.44,4.143,4.143,0,0,0-2.21,3.48,2.742,2.742,0,0,0,1.32,2.511,5.566,5.566,0,0,0,2.93.8,6.422,6.422,0,0,0,4.24-1.65,4.625,4.625,0,0,0,1.95-3.439A2.679,2.679,0,0,0,1689.629,1180.931Z" transform="translate(-78.136 -76.136)" fill="#d9ecfd" stroke="#fef1f4" stroke-miterlimit="10"/>
    </g>
    <path d="M1767.044,1221.738" transform="translate(-78.136 -76.136)" fill="#acc7e2" stroke="#fde1ff" stroke-miterlimit="10"/>
    <path d="M1761,1218.905" transform="translate(-78.136 -76.136)" fill="#acc7e2" stroke="#fde1ff" stroke-miterlimit="10"/>
    <g>
      <path d="M482.009,876.459a85.126,85.126,0,0,0-26.94-24.52,138.667,138.667,0,0,0-36.38-14.88,156.239,156.239,0,0,0-38.59-5.02,176.229,176.229,0,0,0-35.38,3.62,258.238,258.238,0,0,0-32.76,8.84q-15.075,5.235-26.33,10.05c0,1.88.93,4.02,2.81,6.43a33.017,33.017,0,0,0,6.64,6.44q3.81,2.8,5.82,2.81c2.15,0,5.49-1.27,10.05-3.82s10.46-5.49,17.69-8.84a122.423,122.423,0,0,1,26.13-8.24q-15.285,33.765-27.53,64.72-12.27,30.96-23.32,61.7-11.055,30.765-21.91,63.92t-23.32,71.36q-1.6,5.22-3.41,11.25a39.162,39.162,0,0,0-1.81,11.26q0,10.05,10.65,16.48a43.179,43.179,0,0,0,22.71,6.43q9.255-32.16,20.1-71.75,10.86-39.6,22.11-79.4h2.42q7.23,0,21.7-1.2,14.475-1.215,32.77-4.43a236.074,236.074,0,0,0,36.78-9.64,154.884,154.884,0,0,0,34.37-16.89,84.733,84.733,0,0,0,25.53-25.73q9.645-15.27,9.65-36.58Q492.259,891.134,482.009,876.459Zm-34.17,65.621a89.877,89.877,0,0,1-29.35,26.73,166.207,166.207,0,0,1-40.8,16.68,239.749,239.749,0,0,1-45.03,7.64q12.06-41.8,25.33-80.2t27.74-66.531a103.5,103.5,0,0,1,35.17,6.83,66.922,66.922,0,0,1,27.34,18.9q10.65,12.465,10.65,32.56Q458.889,926,447.839,942.08Z" transform="translate(-78.136 -76.136)" fill="#d9ecfd" stroke="#fef1f4" stroke-miterlimit="10" stroke-width="2"/>
      <path d="M559.589,916.75a22.3,22.3,0,0,0-12.26-3.22,39.115,39.115,0,0,0-21.71,6.841q-10.455,6.84-10.45,16.479,0,8.04,6.23,11.86a25.98,25.98,0,0,0,13.87,3.82q10.86,0,20.1-7.84t9.25-16.279Q564.619,919.965,559.589,916.75Z" transform="translate(-78.136 -76.136)" fill="#d9ecfd" stroke="#fef1f4" stroke-miterlimit="10" stroke-width="2"/>
      <path d="M830.529,916.75a22.323,22.323,0,0,0-12.26-3.22,39.091,39.091,0,0,0-21.71,6.841q-10.455,6.84-10.45,16.479,0,8.04,6.23,11.86a25.98,25.98,0,0,0,13.87,3.82q10.86,0,20.1-7.84t9.25-16.279Q835.559,919.965,830.529,916.75Z" transform="translate(-78.136 -76.136)" fill="#d9ecfd" stroke="#fef1f4" stroke-miterlimit="10" stroke-width="2"/>
      <path d="M971.429,1052.63a150.56,150.56,0,0,1-25.13,34.97,135.921,135.921,0,0,1-32.16,25.12q-17.085,9.45-33.97,9.45-11.25,0-17.68-4.02a24.225,24.225,0,0,1-9.25-9.65,32.552,32.552,0,0,1-3.42-10.65,69.507,69.507,0,0,1-.6-7.03,57.407,57.407,0,0,1,.2-5.83,24.836,24.836,0,0,1,.6-3.42,151.342,151.342,0,0,0,35.98-8.639,143.935,143.935,0,0,0,32.77-17.091,90.407,90.407,0,0,0,23.71-23.719,50.445,50.445,0,0,0,8.85-28.541q0-16.064-9.45-21.51a39.432,39.432,0,0,0-19.9-5.42q-18.5,0-36.98,10.85a136.741,136.741,0,0,0-33.77,28.34,152.706,152.706,0,0,0-24.32,37.39,98.848,98.848,0,0,0-8.38,27.92c-.01.011-.02.011-.01.02q-8.5,12.345-16.73,19.29-16.08,13.68-29.75,13.67-8.85,0-13.47-4.219t-4.62-17.081q0-13.275,6.23-27.939a225.585,225.585,0,0,1,14.47-28.341q8.235-13.665,14.48-24.119,6.225-10.457,6.23-15.681,0-5.625-3.62-8.65a12.785,12.785,0,0,0-8.44-3.01q-8.85,0-17.69,8.64a97.656,97.656,0,0,0-16.48,22.31,213.754,213.754,0,0,0-13.47,29.15,236.075,236.075,0,0,0-7.43,23.04c-.72,1.15-1.46,2.31-2.22,3.49a206.1,206.1,0,0,1-14.47,19.7,94.826,94.826,0,0,1-15.88,15.48q-8.04,6.03-14.87,6.031-7.23,0-11.46-7.241a56,56,0,0,1-6.23-17.89q-2.01-10.65-3.01-20.7a152.29,152.29,0,0,0-2.21-15.68q13.26-14.865,25.92-26.73a227.451,227.451,0,0,1,22.52-18.9q9.84-7.02,15.07-7.03a14.076,14.076,0,0,0-6.43-8.04q-4.425-2.415-6.83-2.41-5.64,0-20.51,12.26t-32.96,30.35q-4.425-15.675-12.66-24.93-8.25-9.24-24.32-9.24-14.085,0-23.32,6.63a55.941,55.941,0,0,0-15.48,17.09,196.1,196.1,0,0,0-11.25,21.9c-3.36,7.639-9.99,22.6-9.99,22.6-9.84,19.83-18.13,28.13-26.79,35.49q-16.08,13.68-29.75,13.67-8.85,0-13.47-4.219t-4.62-17.081q0-13.275,6.23-27.939a225.585,225.585,0,0,1,14.47-28.341q8.235-13.665,14.48-24.119,6.225-10.457,6.23-15.681,0-5.625-3.62-8.65a12.785,12.785,0,0,0-8.44-3.01q-8.85,0-17.69,8.64a97.364,97.364,0,0,0-16.48,22.31,213.754,213.754,0,0,0-13.47,29.15,227.61,227.61,0,0,0-9.04,29.55q-3.225,14.072-3.22,23.31,0,14.88,8.84,25.33t26.54,10.45q24.915,0,46.63-19.7,16.215-14.715,28.17-38.2c.5-.971,1.04-1.921,1.63-2.831,2.69-4.14,10.82-16.77,14.81-24.09a133.842,133.842,0,0,1,14.88-22.31q7.635-9.045,16.48-9.05t12.06,10.45q3.21,10.47,6.03,30.15-15.675,16.89-29.35,32.97t-22.11,28.34q-8.43,12.255-8.44,17.89a9.83,9.83,0,0,0,1.81,5.22,6.031,6.031,0,0,0,5.43,2.82,8.427,8.427,0,0,0,6.83-3.619q6.84-8.852,19.9-24.721,13.065-15.885,29.15-33.969a145.58,145.58,0,0,0,5.83,23.309,48.789,48.789,0,0,0,11.05,18.7q7.23,7.427,19.7,7.431,15.27,0,29.75-10.851a120.654,120.654,0,0,0,25.38-26.41c-.04.93-.06,1.821-.06,2.69q0,14.88,8.84,25.33t26.54,10.45q24.915,0,46.63-19.7a112.917,112.917,0,0,0,13.16-14.28,45.792,45.792,0,0,0,13.16,25.74q13.875,13.86,39.6,13.87a96.288,96.288,0,0,0,42.41-10.049,130.131,130.131,0,0,0,37.79-28.141,151.4,151.4,0,0,0,27.94-42.21Zm-104.92-11.259a145.745,145.745,0,0,1,17.28-23.521,104.948,104.948,0,0,1,19.7-17.28q10.05-6.644,19.3-6.639,3.615,0,5.22,1.609t1.61,6.03q0,11.265-7.64,22.31a92.409,92.409,0,0,1-19.49,20.3,129.568,129.568,0,0,1-24.73,15.279q-12.87,6.03-23.31,7.24A143.232,143.232,0,0,1,866.509,1041.371Z" transform="translate(-78.136 -76.136)" fill="#d9ecfd" stroke="#fef1f4" stroke-miterlimit="10" stroke-width="2"/>
      <path d="M1331.409,888.01a86.7,86.7,0,0,0-34.37-40.61q-23.73-15.075-63.11-15.07a176.5,176.5,0,0,0-52.26,7.44,160.843,160.843,0,0,0-42.41,19.69q-18.3,12.271-28.55,26.74t-10.25,28.54a24.851,24.851,0,0,0,7.44,18.29q7.44,7.44,24.72,7.44a43.09,43.09,0,0,1-2.81-9.849,59.48,59.48,0,0,1-.8-9.451,61.564,61.564,0,0,1,11.85-37.18q11.865-16.29,32.77-25.73t47.03-9.45q24.915,0,44.22,9.45t30.35,29.75q11.055,20.295,11.06,52.861,0,25.318-8.04,53.06a253.438,253.438,0,0,1-22.92,54.069,242.433,242.433,0,0,1-34.77,47.44,170.158,170.158,0,0,1-43.62,33.77,104.414,104.414,0,0,1-49.85,12.661,108.065,108.065,0,0,1-11.05-.6,38.474,38.474,0,0,1-9.04-1.81q6.015-28.543,15.47-62.92t20.91-70.75q11.445-36.375,24.12-70.75t25.12-62.51q-8.445-5.625-15.28-5.63a20,20,0,0,0-12.66,4.62,47.382,47.382,0,0,0-10.25,11.46,94.062,94.062,0,0,0-7.24,13.27q-2.805,6.435-4.01,9.65-2.82,7.635-8.65,24.721t-13.26,39.8q-7.455,22.71-15.08,47.63t-14.47,48.44q-6.84,23.52-11.46,42.01t-5.83,28.141q9.24,12.463,21.91,16.279a91.95,91.95,0,0,0,26.74,3.82,163.225,163.225,0,0,0,58.08-10.849,210.278,210.278,0,0,0,54.27-30.551,230.169,230.169,0,0,0,45.03-46.23,221,221,0,0,0,30.55-58.09,198.558,198.558,0,0,0,11.05-66.129Q1342.059,913.54,1331.409,888.01Z" transform="translate(-78.136 -76.136)" fill="#d9ecfd" stroke="#fef1f4" stroke-miterlimit="10" stroke-width="2"/>
      <path d="M1785.528,1051.309q-15.659,31.365-36.741,49.65t-41.167,18.29q-11.238,0-16.463-6.83t-5.215-23.32a139.723,139.723,0,0,1,6.224-40.4,380.825,380.825,0,0,1,14.655-40.4h6.9q16.566-.4,34.722-1.58t39.856-3.161V990.541q-14.592,1.575-28.606,2.169t-31.374.589h-13.868q11.271-22.5,23.352-42.41t20.337-34.77q8.25-14.865,8.265-22.92,0-5.625-3.627-8.64a11.835,11.835,0,0,0-7.654-3.01q-6.852,0-15.708,9.04t-18.724,24.72a401.959,401.959,0,0,0-19.735,35.58q-9.873,19.9-18.323,41.21-4.432-.405-8.656-.81t-10.679-1.2v12.46a29.787,29.787,0,0,0,7.454,2.21,55.451,55.451,0,0,1,6.642,1.41,507.946,507.946,0,0,0-15.909,50.65q-1.743,6.855-2.985,13.07a82.359,82.359,0,0,1-12.112,13.66c-8.055,7.1-24.564,13.87-24.564,13.87s.931-4.96,1.2-7.64a88.434,88.434,0,0,0,.411-8.84,110.037,110.037,0,0,0-5.841-35.38q-5.845-17.28-11.681-32.76-5.845-15.465-5.84-27.54a30.409,30.409,0,0,1,1.011-8.84,19.473,19.473,0,0,0,1-5.63,10.02,10.02,0,0,0-2.615-5.63c-1.482-1.61-3.826-2.41-7.052-2.41q-7.244,0-12.683,6.63t-5.44,22.72v3.74a155.631,155.631,0,0,1-18.271,30.75,292.7,292.7,0,0,1-20.678,24.32,17.133,17.133,0,0,1-5.754,3.43l-4.036,1.75a57.355,57.355,0,0,0-5.474,3.06,22.794,22.794,0,0,0-8.032,9.45q-2.607,5.235-3.1,13.94-1.829,2.34-3.727,4.55-12.451,14.475-24.094,22.11-11.658,7.635-20.079,7.64-6.429,0-8.631-4.22a20.9,20.9,0,0,1-2.208-9.85q0-9.645,3.816-22.31a252.72,252.72,0,0,1,8.831-24.73q5.019-12.06,8.83-20.7t3.816-9.85a8.219,8.219,0,0,0-4.415-7.44,42.509,42.509,0,0,0-10.239-4.22,65.867,65.867,0,0,0-9.44-2.01q-4.017,8.85-10.24,21.71t-14.055,26.53q-7.821,13.68-16.063,25.53a124.784,124.784,0,0,1-16.063,19.3q-7.823,7.44-14.655,7.43-6.024,0-8.431-5.22a34.881,34.881,0,0,1-3.017-11.26c-.4-4.02-.6-6.56-.6-7.64q0-12.45,4.815-27.73a229.8,229.8,0,0,1,11.048-28.55q6.219-13.26,10.639-19.69a41.108,41.108,0,0,0-10.239-7.44q-5.829-3.015-8.631-3.02-5.23,0-11.448,9.65a142.91,142.91,0,0,0-12.048,24.12,207.247,207.247,0,0,0-9.44,29.75q-3.61,15.285-3.616,26.53a50.468,50.468,0,0,0,8.641,29.15q8.631,12.66,22.286,12.66,10.024,0,19.071-6.83a94.245,94.245,0,0,0,17.072-17.09,251.351,251.351,0,0,0,14.854-21.1v8.04a96.588,96.588,0,0,0,2.408,17.48,27.076,27.076,0,0,0,7.832,14.07q5.813,5.43,17.471,5.43,15.255,0,31.327-9.85,15.615-9.57,29.36-26.21a68.786,68.786,0,0,0,4.365,15.36,46.085,46.085,0,0,0,17.472,20.9q12.241,8.235,32.326,8.24,18.46,0,33.126-8.04t21.087-24.52a62.638,62.638,0,0,0,33.735-17.09c1.259-1.2,2.468-2.46,3.636-3.76q-.434,4.875-.429,9.19,0,21.315,10.849,31.76,10.833,10.455,28.51,10.45,19.269,0,37.351-11.05,18.055-11.07,33.525-30.35a192.306,192.306,0,0,0,25.9-43.02Zm-209.5,69.166a28.839,28.839,0,0,1-14.87,4.02q-14.88,0-22.52-11.65a44.678,44.678,0,0,1-7.63-24.93q0-9.645,5.62-10.85,7.245,9.645,20.51,18.89a82.285,82.285,0,0,0,29.74,12.87A28.546,28.546,0,0,1,1576.029,1120.475Zm15.07-30.35a30.3,30.3,0,0,1-1,6.64,76.21,76.21,0,0,1-28.54-13.67q-12.465-9.645-18.9-20.5a173.219,173.219,0,0,0,18.09-23.32q9.66-14.475,16.89-26.93,4.41,18.495,8.84,36.18a161.823,161.823,0,0,1,4.83,35.77Q1591.309,1086.32,1591.1,1090.125Z" transform="translate(-78.136 -76.136)" fill="#d9ecfd" stroke="#fef1f4" stroke-miterlimit="10" stroke-width="2"/>
      <path d="M1529.2,1055.04q-1.74.66-3.57,1.56l4.04-1.75C1529.519,1054.92,1529.359,1054.98,1529.2,1055.04Z" transform="translate(-78.136 -76.136)" fill="#d9ecfd" stroke="#fef1f4" stroke-miterlimit="10" stroke-width="2"/>
      <path d="M1525.629,1056.6q1.83-.9,3.57-1.56c.16-.06.32-.12.47-.19" transform="translate(-78.136 -76.136)" fill="#d9ecfd" stroke="#fef1f4" stroke-miterlimit="10" stroke-width="2"/>
    </g>
  </g>
</svg>
