<svg id="Layer_1" data-name="Layer 1" xmlns="http://www.w3.org/2000/svg" viewBox="0 0 479.55 548.59"><path d="M617.49,682.47c-2.26-4.76-4.69-9.45-7-14.22a13.8,13.8,0,0,0-5-6c-5.16-3.3-7.69-8-8-14.16a23.44,23.44,0,0,0-3-10.83c-2.77-4.72-5.38-6-10.74-5.13-1.87.3-3.71.7-5.57,1-4.52.76-8.62,0-12.07-3.27-2.62-2.45-5.39-4.74-7.87-7.32a171,171,0,0,0-39.17-30.41,8.08,8.08,0,0,1-4.25-5,3.38,3.38,0,0,1,.41-3.24c.9-1,2-.48,3.13-.09a43.35,43.35,0,0,0,6.94,2.36c9.83,1.78,19.83,2.5,29.6,4.76,2,.46,4.35.63,5-2.18A4.65,4.65,0,0,0,557.5,583a15.8,15.8,0,0,0-3.71-1.33,13.92,13.92,0,0,1-8.11-4.85c-3.21-4-7.36-6.39-12-8.11a17.73,17.73,0,0,1-8.33-6.52c-1.44-2-3-3.93-4.53-5.79a14.36,14.36,0,0,0-10.1-5.54c-4.82-.4-6-1.75-5.55-6.58a33.36,33.36,0,0,0-2-14.42c-1.56-4.29-.67-5.18,3.71-4.24,2.37.5,4.63,1.65,7.17.74,3.15-1.13,3.83-2.9,1.58-5.42a115,115,0,0,0-9.89-10.1,23.33,23.33,0,0,1-7.92-15.13c-1.11-7.84-2.44-15.65-3.79-23.45-2.87-16.6-11.65-28.18-28-33.89a79.34,79.34,0,0,1-20.22-10A32.31,32.31,0,0,1,434,413.61c-1.63-4.22-3.3-8.43-4.86-12.67-.42-1.14-1.44-2.34-.2-3.71,1.16-.23,2.14.4,3.18.77,8,2.9,15.6,6.69,23.41,10a43.36,43.36,0,0,1,14.08,9.3c14.86,15.12,32,27.49,48.37,40.87a22.55,22.55,0,0,0,11.72,5.26c5.38.65,10.29,2.25,14.45,5.84a6.09,6.09,0,0,0,4.68,1.64,3.45,3.45,0,0,0,2.91-1.47c.71-1.23-.2-2.13-.92-3-1.35-1.58-2.75-3.11-4.12-4.67-.64-.72-1.21-1.53-.57-2.49a2.84,2.84,0,0,1,3-1.12c2.17.33,3,2.18,3.9,3.79,2.54,4.43,6.53,6.08,11.37,6.06,3.94,0,5-1.64,2.7-4.87-6.09-8.42-14.14-14-24.8-14.92-4.32-.38-8.65-.61-13-.89a12.68,12.68,0,0,1-9.65-5.18q-11.73-15.23-23.4-30.5c-.07-.09.07-.34.17-.72,7.62.35,15.24,1.3,22.94,1.12,17.93-.44,35.25-3.54,51.53-11.37,8.57-4.13,16.35-9.43,22.6-16.69,2.56-3,2.15-4.15-1.16-6.22-2.15-1.34-5-1.49-6.91-3.93,2.1-1.91,4.09-3.6,5.93-5.44,6.53-6.45,6.23-8.13-2.29-11.47-9.35-3.67-19.13-5.77-29-7.31-10.44-1.61-20.93-2.65-31.49-3.37a493.22,493.22,0,0,0-63.29-.34c-2.16.13-4.33.19-6.7.29a2.81,2.81,0,0,1,2.16-1.32,297.13,297.13,0,0,0,53.86-22c39.52-21,68.87-51.62,86.66-92.86,7.56-17.52,11.45-35.88,10.48-55.09a73.5,73.5,0,0,0-1.67-12.88c-1.16-5-2-5.52-7.12-4.31-2.71.64-5.37,1.54-8,2.31a7.91,7.91,0,0,1-1.29-4c-.57-3.35-1.07-6.72-1.91-10-2.1-8.29-3.05-8.76-10.78-5.63a75.43,75.43,0,0,0-7.64,3.67c-13,7.06-24.54,16.2-35.65,25.87-21.81,19-41.34,40.25-59.87,62.41-21.47,25.65-41,52.69-57.69,81.71-5.65,9.82-11,19.76-15.82,30-.83,1.77-1.48,3.34-4,3.07-9.46-1-22.33-13.15-17.77-25.46,1.11-3,2.33-6,3.65-8.89,3.49-7.65,4.94-15.74,2.32-23.69-2.35-7.11-1.4-12.47,3.21-18.46,5.42-7.05,4.5-14.6-.79-21.41-8.53-11-18.73-12-29.06-2.7a12.26,12.26,0,0,1-8.55,3.5c-9.53.18-18.69,2.44-27.58,5.7-6.77,2.48-13.42,5.52-18.11,11.18a143,143,0,0,1-14.27,14.43c-6.79,6.2-7.86,17.37-2.68,24.83,1.08,1.55,2.29,3,4.29,3.46s2-2.43,3.84-2.66c2.1,4,4.14,7.85,6.1,11.72s2.09,7.59-.9,11.07a10.81,10.81,0,0,0-1.24,1.89c-2,3.69-1.23,6.06,2.54,7.66,1.37.57,3.28.51,3.85,2.06,2.1,5.67,7.19,9.68,8.38,15.91.84,4.4,2.77,5.49,7.29,5.31A24.21,24.21,0,0,0,336,359c4.4-2.55,8.67-5.35,13.07-7.91,4.09-2.37,4.85-2.24,7.41,1.49,1.71,2.48,3.05,5.2,4.57,7.8s1.08,4.86-.93,7.18c-3.81,4.43-7.45,9-11,13.62-9.17,11.73-19.12,22.86-27.67,35.09-5.3,7.57-3.95,8.8-13.48,2.93a471.17,471.17,0,0,1-41.74-29.13c-8.19-6.35-16.29-10.09-26.92-8.73-6.09.78-11.9,1.54-17.15,4.88s-10.58,6.56-15.81,9.93c-2.54,1.64-5.5,3.27-6.74,5.92-2.85,6.12-7.91,9.66-13.12,13.37-2.88,2-5.39,4.67-8.31,6.77Q160,435.34,142,448.55a25,25,0,0,0-2.2,1.77c-.69.64-1.5,1.4-.61,2.37a1.92,1.92,0,0,0,2.59.11,21.81,21.81,0,0,0,2.47-2.25c1.1-1,2-2.36,3.3-3.05,8.31-4.53,15.73-10.39,23.52-15.68,12.61-8.55,25.75-16.35,37.12-26.64,2-1.8,4-1.8,6.18-.39a20,20,0,0,1,2.74,2c4.38,4.11,9.22,3.71,14.17,1.4a34.8,34.8,0,0,0,8.85-6c1.94-1.79,3.89-3.59,5.93-5.25,4-3.27,4.13-3.25,8.1,0,1.74,1.44,3.47,2.91,5.12,4.46Q277,418,294.72,434.7a115.49,115.49,0,0,0,11.52,10c5.38,3.84,10.86,3.89,16.35.29,1.88-1.24,3.69-2.62,5.47-4,6.88-5.33,12.9-11.6,19.18-17.58,1.55-1.49,2.8-4.42,5.17-3.69s2.2,3.74,2.45,5.92c.86,7.51,5.36,12.24,11.64,15.65a39.53,39.53,0,0,0,5.68,2.54c10.93,3.85,20.82,9.75,30.57,15.84,6.76,4.23,12.83,9.27,17.23,16.11,2,3.17,2.82,6-.07,9.16a31.72,31.72,0,0,0-3.18,4.67C407,504.93,400.37,521.44,398,539.53c-.32,2.43-.81,5.09,1.69,6.68,2,1.3,4,.1,5.75-1.06a7.27,7.27,0,0,1,1-.59c2-.92,3,0,2.89,1.91a63.68,63.68,0,0,1-1.05,6.69c-1.68,9.65-4.46,19.13-5.23,28.92-.57,7.31-1.56,14.66-.31,22,1.22,7.14,5.26,10.38,12.52,10.36A40.09,40.09,0,0,0,425.3,613c14.86-3.88,29.1-9.27,42.34-17.14,3.9-2.31,7.76-4.67,11.73-6.84,3.41-1.87,4.34-1.61,6.38,1.76a79,79,0,0,1,3.89,7.54,46.25,46.25,0,0,0,21.78,22.17q15.9,8,31.75,16.19c16.13,8.28,32.18,16.63,44.52,30.51a30.27,30.27,0,0,0,10.46,7.64c5.62,2.46,10.74,5.46,14.26,10.71a3.25,3.25,0,0,0,4.93.94C619.08,685.36,618.11,683.77,617.49,682.47ZM440.71,369.91a174.2,174.2,0,0,1,25.74-2.22C456.35,376,450.16,378.59,440.71,369.91Zm38.61-3.07c11.84-.44,23.67.08,35.5.26,1.06,0,2.25-.21,3.16.73-.62,1.5-2.14,1.39-3.3,1.74-9,2.67-18,5.26-27.08,7.86a10.22,10.22,0,0,1-3.3.67c-8-.54-16-1.56-24.61-1.58C465,370.8,473,367.08,479.32,366.84Zm-5.86-6.18c4,.39,8,.73,12,1.19s7.8,1,11.7,1.52c-7.82-.51-16.16,2.84-23.74-1.38Zm36.69,23.09c5.86-.06,11.56.84,17.32,1.11,9.77.45,19.52,1.45,29.27,2.39,2.06.2,5.27-.24,5.56,2.5.22,2.13-2.79,2.69-4.55,3.64a40.37,40.37,0,0,1-19.07,4.45,10.17,10.17,0,0,1-6-1.4A158.25,158.25,0,0,0,510.15,383.75Zm12.73,10.17c-11.57,2.68-22.94,4.4-33.4-3.43-5.74-4.29-12.27-7.29-19.33-10.6C489.42,379.72,507.14,382.89,522.88,393.92Zm13.37-11c-.19-2,1.44-2.18,2.42-2.74,4.58-2.58,9.21-5.06,13.83-7.57a7.8,7.8,0,0,1,4.24-1.32,86.45,86.45,0,0,1,24,5.58A76,76,0,0,1,536.25,383Zm-6.41-.71c-1.38.73-3,.48-4.45.31q-14-1.65-28-3.33c-.69-.08-1.52-.08-1.78-1.08.86-1.44,2.5-1.42,3.86-1.83,7.57-2.24,15.21-4.27,22.75-6.63a30.89,30.89,0,0,1,14.47-1.11c4.36.71,8.77,1.18,13.15,1.75l.24,1.23C543.32,375.14,536.6,378.73,529.84,382.25Zm-90-24c10.27.82,20.52-.33,29.6,5.53C459.23,364.91,448.65,368.71,439.82,358.29ZM469,388.71c-4.83-3.18-9.77-6.2-15-9.48,6.67-1.1,22,4.54,28.57,10.39C477.74,391,473.32,391.57,469,388.71Zm35.92,19.64c-6.05-.41-12.27.06-17.13-5.48-3-3.46-6.88-6.2-10.65-9.51,2.73-.7,5.06-1.22,7.35-1.89a4.07,4.07,0,0,1,3.68.82c5.76,4.18,11.6,8.26,16.4,13.59A1.93,1.93,0,0,1,504.89,408.35Zm28.72,0c-6.39.47-12.79.66-19.18,1a6.06,6.06,0,0,1-5.16-1.73c-2.56-2.74-5.17-5.43-7.7-8.07.43-1.49,1.49-1.11,2.34-1.07a64.28,64.28,0,0,0,20.16-1.94c1.28-.37,2.65-.9,3.86-.22a60.7,60.7,0,0,1,13.88,10.09A18.48,18.48,0,0,1,533.61,408.38Zm39.85-12.15c-2.47,1.35-5,2.68-7.54,3.81-4.65,2-9.55,3.4-14.35,5-5.07,1.71-8.72.22-12.19-4.83,9.61-.61,17.72-3.15,25-8.29,2.38-1.68,8-.28,9.74,2C574.88,395,574.31,395.77,573.46,396.23Zm15.22-17.11c3.07,1.19,3.4,2.38,1.22,4.89a51.34,51.34,0,0,1-9,7.64,4.71,4.71,0,0,1-5.29.29c-4.16-2.05-8.38-4-13.33-6.32,7.89-2.15,15.13-4,22-6.87A5.77,5.77,0,0,1,588.68,379.12Zm.48-19.18c3.75,1.35,4.3,2.75,1.48,5.44-8.29,7.9-9.14,9.32-20.59,4.51-2.22-.93-4.41-1.92-7.48-3.27A130.68,130.68,0,0,0,584.79,360,6,6,0,0,1,589.16,359.94Zm-30.33-7.63A166.07,166.07,0,0,1,583,357.85c-15.63,7.49-31,8-47.12,5.54,6.72-3.6,13.43-7.22,20.19-10.74A4.57,4.57,0,0,1,558.83,352.31Zm-22.59-2.68c5,.35,10,.87,16.08,1.75-4.57,3.41-8.89,4.83-12.45,7.39-6.23,4.48-12.83,5.27-20.25,4-7-1.18-14.19-1.36-21.28-2.06-1.22-.12-2.62.15-3.66-.95.71-1.43,2.2-1.3,3.36-1.64,7.38-2.19,14.86-4.07,22.16-6.48A41,41,0,0,1,536.24,349.63ZM478,348.14c10.89-.61,21.78-.27,32.67,0,3.18.08,6.35.27,10.05.44-1.36,1.45-2.89,1.42-4.17,1.81-7.2,2.15-14.53,3.92-21.62,6.42-11.15,3.92-22.15,1.34-33.21.54-.08-.48-.17-1-.25-1.44l11.08-6.6C474.25,348.28,476.13,348.25,478,348.14Zm-11.66.75c-3.74,4.46-9.43,8-13.63,7.78-9.65-.51-19.29-1.47-28.93-2.24A210.14,210.14,0,0,1,466.36,348.89Zm80.56-50.48c-13.77,11.26-29,20.2-45,27.89a18.27,18.27,0,0,1-9.78,1.92c-4.11-.34-8.27,0-12.41,0-2.05,0-4.12.27-6.15-.56-.3-1.87,1.4-2,2.34-2.63,7.92-5.47,15.61-11.19,21.49-19,2.27-3,4.68-6,5.77-9.63a4.72,4.72,0,0,1,4.45-3.62c14.4-1.75,28.82-2.72,43.29-1a9.73,9.73,0,0,1,1.66.71C551,295.2,548.92,296.78,546.92,298.41Zm-30.4-36.73a11,11,0,0,1-2.2.32,23.76,23.76,0,0,1,5.73-5.8q26.82-21.72,52.1-45.23a40.32,40.32,0,0,1,11.3-7.43c3.2-1.41,4.25-.87,4,2.66A61.88,61.88,0,0,1,579.38,233a60.48,60.48,0,0,1-10.3,12.71,10.76,10.76,0,0,1-6.4,3.26A160.8,160.8,0,0,0,516.52,261.68ZM550,256.8a24.35,24.35,0,0,1-2.39,5.09,78,78,0,0,1-22.13,23.8,18.68,18.68,0,0,1-9.28,3.81c-15,1.21-29.22,5.22-43.21,10.44a5,5,0,0,1-4.32.19c4.66-4.13,8.82-7.86,13-11.54,3.25-2.86,6.56-5.65,9.8-8.5,15.55-13.68,34.11-21,54-25.66a15.38,15.38,0,0,1,2.22-.38C549.68,253.91,550.6,255,550,256.8Zm-1.92-54.53c-1.88,9.61-4,19.17-5.77,28.79a11.56,11.56,0,0,1-4,7.19l-44.74,37.18-.88-.56c2.16-4.77,4.28-9.55,6.47-14.31,6.17-13.34,12.39-26.65,18.5-40a20.65,20.65,0,0,1,5.69-7.59c7.12-5.88,14.12-11.9,21.19-17.84a12.82,12.82,0,0,1,4.71-3C549.56,195.83,548.71,199.06,548.09,202.27ZM506,240.46c-5.43,11.8-10.93,23.56-16.29,35.38a22.7,22.7,0,0,1-6,8.07c-8,6.87-15.83,13.91-23.8,20.8-1.19,1-2.18,2.67-4.16,2.39-1.11-1.22-.48-2.56-.32-3.79.95-7.09,2-14.16,2.94-21.25a12.11,12.11,0,0,1,2.84-6.61,620,620,0,0,1,52-53.29c.11-.1.34-.06,1.15-.17C511.55,228.34,508.81,234.41,506,240.46Zm-37.59,63.62c8.81-3.33,17.64-6.6,26.82-8.78,1.55-.37,3.52-1.59,4.74,0,1.37,1.81-.26,3.59-1.22,5.11a69.37,69.37,0,0,1-13.53,15.08,97.53,97.53,0,0,1-15.82,10.83,13.7,13.7,0,0,1-5.8,2.11c-10,.65-19.74,2.72-29.43,5.17a14.21,14.21,0,0,1-2.68-.09c3.68-5,8.29-7.7,12-11.39,2.78-2.79,5.95-5.2,8.85-7.88A49.23,49.23,0,0,1,468.44,304.08Zm118-51.24c-7.61,12.64-17.12,23.77-27.29,34.39-2,2.08-4.08,2.62-7,2.35a190.79,190.79,0,0,0-27.06-.78c5.15-4.13,9.36-7.21,13-10.94,6.13-6.25,11.25-13.15,14.52-21.3,1-2.49,2.31-4.08,5.11-4.54a220,220,0,0,1,29.52-3C588.29,250.83,587.07,251.81,586.45,252.84Zm16.66-35.66a166.38,166.38,0,0,1-9.88,24c-1.83,3.77-4.24,6-8.77,5.57-3.86-.33-7.76,1.17-12.05.22.75-2.94,2.56-4.16,3.84-5.73A59.51,59.51,0,0,0,589.67,206c.25-4.77.46-5.2,5.19-6.75,2.51-.81,5-1.58,7.59-2.24,4.07-1.05,4.86-.4,4.46,3.69A85.12,85.12,0,0,1,603.11,217.18Zm-10.94-46.24c.18-.54.41-1.06.58-1.6,1.83-5.91,4.9-8.3,11.14-9,2.14-.24,3.26.55,3.64,2.53a82.72,82.72,0,0,1,.81,27,4.45,4.45,0,0,1-3.43,4c-2.71.79-5.38,1.73-8.1,2.48a94.86,94.86,0,0,0-20.62,8.15C582.68,193.81,588.37,182.82,592.17,170.94Zm-1.83-2.6a31,31,0,0,1-1.39,4.87c-7.11,20.88-19.42,38.15-36.24,52.3-2.15,1.81-4.31,3.6-6.47,5.39-.09.07-.34,0-1-.13a45.9,45.9,0,0,1,1.3-9.79c1.8-9,3.8-18.06,5.51-27.12a11.17,11.17,0,0,1,4.4-7.5,223.52,223.52,0,0,1,29-18.58,19.88,19.88,0,0,1,2.55-1.22C589.59,166,590.66,166.48,590.34,168.34Zm-15.51-18.72c1.07-3.78,7.31-8.13,11.13-7.79,1.37.13,1.92,1.06,2.29,2.14a64.9,64.9,0,0,1,3,15.44,3.2,3.2,0,0,1-1.76,3.28c-7.32,3.67-14.37,7.84-22.4,12.68,1.18-3.58,1.92-6,2.83-8.45C572,161.29,573.18,155.39,574.83,149.62Zm-37.16,24.2a198.11,198.11,0,0,1,34-25.69c.87,4.91-1.34,8.06-1.83,11.51-.11.74-.39,1.45-.57,2.18-2.6,10.62-7.55,19.29-17.75,24.75-5.22,2.8-9.47,7.39-14.17,11.15-.72.57-1.45,1.46-2.47,1.05-1.3-.52-1.16-1.83-1-2.92.75-6.35,1.55-12.7,2.36-19A4.87,4.87,0,0,1,537.67,173.82Zm-25,23.64c4.82-4.47,9.32-9.28,14-13.89,1.72-1.68,3.59-3.18,6.43-5.68-.86,8.48-.65,15.72-1.9,22.87a6.56,6.56,0,0,1-2.34,3.74q-15.84,14.43-31.69,28.84c-.22.2-.69.12-1.07.17-.74-1.37.12-2.52.54-3.7,1.81-5.14,4-10.18,5.43-15.42A35.57,35.57,0,0,1,512.7,197.46Zm-58.81,69.68c13.21-17.69,27.05-34.85,41.73-51.33,1.11-1.24,2.08-2.67,3.91-3.49.93,1.3.15,2.48-.25,3.6-2.34,6.57-4.74,13.11-7.09,19.68a20.19,20.19,0,0,1-4.71,7.61c-12,12.23-23.7,24.81-34.66,38-.46.55-.88,1.25-2.12,1C449.92,276.89,450.25,272,453.89,267.14Zm-6.52,10.24c.39,5.52.14,10.53-3.66,15.2a521.74,521.74,0,0,0-33.11,45.74A377.52,377.52,0,0,1,447.37,277.38ZM408,349.26c13.33-23.67,29.27-44.93,46.27-65.44l1,.51q-1.68,12.84-3.36,25.67a6,6,0,0,1-2.29,3.77q-20.17,17.7-40.37,35.4C409.15,349.26,408.9,349.2,408,349.26Zm2.58,3.75c1.9-4.15,4.85-5.7,7-7.94,4.66-4.91,10.39-7.53,17-9.3A168.33,168.33,0,0,1,481,330.51c2.81.05,5.62,0,8.43,0,.11.37.23.74.34,1.11A309.13,309.13,0,0,1,410.54,353Zm20.83,11.46c-3.52-2.34-7.21-4.43-11.29-6.92,10.61-2.65,17.63,3.37,26.25,8.2C440.34,367.74,435.76,367.4,431.37,364.47Zm39.26,203.62a43.68,43.68,0,0,1-4.26,1.46A75.46,75.46,0,0,0,447,577.1c-1.81,1-4.24,3-6,1-1.6-1.77.59-3.82,1.68-5.46a50.53,50.53,0,0,0,5.62-12.88c1.58-5,2.1-5.37,6.54-3.12,2.52,1.29,4.11.91,5.82-1.17,1.53-1.86,2.63-4.12,5.32-5.88,3.17,4.52,4.74,9.35,6.66,14C473.49,565.8,472.8,567.29,470.63,568.09Z" transform="translate(-138.77 -138.67)"/></svg>