<?xml version="1.0" encoding="utf-8"?>
<!-- Generator: Adobe Illustrator 25.0.0, SVG Export Plug-In . SVG Version: 6.00 Build 0)  -->
<svg version="1.1" id="Layer_1" xmlns="http://www.w3.org/2000/svg" xmlns:xlink="http://www.w3.org/1999/xlink" x="0px" y="0px"
	 viewBox="0 0 1862.3 1862.3" style="enable-background:new 0 0 1862.3 1862.3;" xml:space="preserve">
<style type="text/css">
	.st0{fill:#FFFFFF;stroke:#D9ECFD;stroke-width:109.6511;stroke-miterlimit:10;}
	.st1{fill:#FEF1F4;stroke:#ACC7E2;stroke-width:1.9351;stroke-miterlimit:10;}
	.st2{fill:#D9ECFD;stroke:#FEF1F4;stroke-width:0.9676;stroke-miterlimit:10;}
	.st3{fill:#ACC7E2;stroke:#FDE1FF;stroke-width:0.9676;stroke-miterlimit:10;}
	.st4{fill:#D9ECFD;stroke:#FEF1F4;stroke-width:1.9351;stroke-miterlimit:10;}
	.st5{fill:#FEFEFE;}
	.st6{fill:#BFE6ED;}
	.st7{fill:#CFEFF5;}
	.st8{fill:#E6F5F7;}
	.st9{fill:#C42D2C;}
	.st10{fill:#D3F5FA;}
	.st11{fill:#D6F7FB;}
	.st12{fill:#D3F6FB;}
	.st13{fill:#D4F7FB;}
	.st14{fill:#CFF3F9;}
	.st15{fill:#D9F8FC;}
	.st16{fill:#D0F5FB;}
	.st17{fill:#D5F7FC;}
	.st18{fill:#D6F6FC;}
	.st19{fill:#D0F4FA;}
	.st20{fill:#E4494A;}
	.st21{fill:#E64B4C;}
	.st22{fill:#CBEFF4;}
	.st23{fill:#E0F7FA;}
	.st24{fill:#D5F5F9;}
	.st25{fill:#EFFCFD;}
	.st26{fill:#CFF2F6;}
	.st27{fill:#DAF2F6;}
	.st28{fill:#D5F2F5;}
	.st29{fill:#C0F3FA;}
	.st30{fill:#D8F7FC;}
	.st31{fill:#D3F5FB;}
	.st32{fill:#FEFDFD;}
	.st33{fill:#D7F6F9;}
	.st34{fill:#D3F5F8;}
	.st35{fill:#CAF2F8;}
	.st36{fill:#D0F2F4;}
	.st37{fill:#DCF1F4;}
	.st38{fill:#D9F0F2;}
	.st39{fill:#D9F4F7;}
	.st40{fill:#DEF0F3;}
	.st41{fill:#E2EDF0;}
	.st42{fill:#E1EFF0;}
	.st43{fill:#DFF2F4;}
	.st44{fill:#BE1615;}
	.st45{fill:#F9F7F7;}
	.st46{fill:#E3EDEF;}
	.st47{fill:#D3F2F6;}
	.st48{fill:#D6F0F3;}
	.st49{fill:#D9ECEF;}
	.st50{fill:#F8FCFC;}
	.st51{fill:#DAEEF1;}
	.st52{fill:#F0F8F8;}
	.st53{fill:#E9F7F8;}
	.st54{fill:#E0E7E9;}
</style>
<g>
	<circle class="st0" cx="935.9" cy="927.1" r="846.1"/>
	<path class="st1" d="M505.3,1385.9c3.8,2.5,7.6,2,10.3-2c7.3-10.9,18-17.2,29.7-22.3c8.3-3.7,15.7-9.1,21.7-15.9
		c25.7-28.9,59.1-46.2,92.6-63.5c22-11.3,44-22.5,66-33.6c20.3-10.2,35.6-25.4,45.3-46.1c2.4-5.4,5.1-10.6,8.1-15.7
		c4.2-7,6.2-7.5,13.3-3.7c8.3,4.5,16.3,9.4,24.4,14.2c27.5,16.4,57.2,27.6,88.1,35.6c6.8,1.9,13.9,2.8,20.9,2.9
		c15.1,0,23.5-6.7,26-21.6c2.6-15.2,0.5-30.5-0.7-45.7c-1.6-20.4-7.4-40.1-10.9-60.2c-0.8-4.6-1.9-9.2-2.2-13.9c-0.3-4,1.9-5.9,6-4
		c0.7,0.4,1.4,0.8,2,1.2c3.7,2.4,7.7,4.9,12,2.2c5.2-3.3,4.2-8.8,3.5-13.9c-4.9-37.6-18.6-72-38.9-103.8c-2.1-3.3-4-6.9-6.6-9.7
		c-6-6.5-4.4-12.5-0.1-19.1c9.2-14.2,21.8-24.7,35.8-33.5c20.2-12.7,40.8-24.9,63.6-33c4.1-1.4,8-3.2,11.8-5.2
		c13.1-7.1,22.4-16.9,24.2-32.6c0.5-4.5,0.3-10.8,5.1-12.3c4.9-1.5,7.5,4.6,10.8,7.7c13.1,12.4,25.6,25.5,39.9,36.6
		c3.7,2.9,7.5,5.8,11.4,8.3c11.4,7.5,22.8,7.4,34-0.6c8.6-6.2,16.2-13.6,24-20.8c24.6-23.1,49.2-46.2,73.8-69.3
		c3.4-3.2,7-6.3,10.6-9.3c8.3-6.9,8.6-6.9,16.9-0.1c4.2,3.4,8.3,7.2,12.3,10.9c5.4,5.1,11.7,9.4,18.4,12.6
		c10.3,4.8,20.4,5.6,29.5-2.9c1.8-1.5,3.7-2.9,5.7-4.1c4.5-2.9,8.7-2.9,12.8,0.8c23.6,21.4,51,37.6,77,55.4
		c16.2,11,31.6,23.2,48.9,32.6c2.7,1.4,4.6,4.2,6.9,6.3c1.6,1.7,3.3,3.3,5.1,4.7c1.7,1.1,3.8,1.5,5.4-0.2c1.8-2,0.1-3.6-1.3-4.9
		c-1.5-1.3-3-2.6-4.6-3.7c-25-18.3-50.1-36.5-75.1-54.7c-6.1-4.4-11.3-9.8-17.3-14.1c-10.9-7.7-21.3-15.1-27.3-27.8
		c-2.6-5.5-8.7-8.9-14-12.3c-10.9-7-22-13.7-32.9-20.7c-10.9-6.9-23-8.5-35.7-10.1c-22.1-2.8-39,5-56,18.2
		c-27.8,21.7-56.8,42-86.8,60.6c-19.8,12.2-17,9.6-28-6.1c-17.8-25.4-38.5-48.6-57.5-73c-7.5-9.6-15.1-19.1-23-28.3
		c-4.2-4.8-5.1-9.5-1.9-14.9c3.2-5.4,6-11.1,9.5-16.2c5.3-7.8,6.9-8,15.4-3.1c9.1,5.3,18,11.1,27.2,16.4c7.2,4.2,14.8,7.2,23.3,7.6
		c9.4,0.4,13.4-1.9,15.2-11c2.5-12.9,13.1-21.3,17.4-33.1c1.2-3.2,5.1-3.1,8-4.3c7.9-3.3,9.4-8.3,5.3-15.9c-0.7-1.4-1.6-2.7-2.6-3.9
		c-6.2-7.2-6-15-1.9-23c4.1-8,8.3-16,12.7-24.4c3.8,0.5,3.6,6.5,8,5.5c4.2-1,6.7-4,8.9-7.2c10.8-15.5,8.6-38.7-5.6-51.6
		c-10.4-9.5-20.6-19.1-29.7-30c-9.7-11.8-23.6-18.1-37.7-23.3c-18.5-6.8-37.5-11.5-57.4-11.9c-7.1-0.1-12.4-2.5-17.8-7.3
		c-21.5-19.4-42.7-17.2-60.4,5.6c-11,14.2-12.9,29.9-1.7,44.5c9.6,12.5,11.6,23.6,6.7,38.4c-5.4,16.5-2.4,33.3,4.8,49.3
		c2.8,6.1,5.3,12.2,7.6,18.5c9.5,25.6-17.3,50.9-37,52.9c-5.3,0.6-6.6-2.7-8.4-6.4c-9.9-21.3-21.1-42-32.9-62.4
		c-34.7-60.4-75.3-116.6-120-169.9c-38.6-46.1-79.2-90.2-124.5-129.8c-23.1-20.1-47.1-39.1-74.1-53.8c-5.1-2.8-10.5-5.4-15.9-7.6
		c-16.1-6.5-18-5.5-22.4,11.7c-1.7,6.8-2.8,13.8-4,20.8c-0.4,2.7-0.5,5.4-2.7,8.3c-5.5-1.6-11-3.5-16.7-4.8
		c-10.6-2.5-12.4-1.3-14.8,9c-1.9,8.8-3.1,17.8-3.5,26.8c-2,40,6.1,78.1,21.8,114.6c37,85.8,98,149.4,180.2,193.1
		c35.8,18.9,73.3,34.2,112,45.8c1.5,0.4,3.1,0.5,4.5,2.7c-4.9-0.2-9.5-0.3-14-0.6c-43.8-2.6-87.8-2.4-131.6,0.7
		c-22,1.5-43.8,3.7-65.5,7c-20.6,3.2-40.9,7.6-60.3,15.2c-17.7,6.9-18.3,10.4-4.8,23.9c3.8,3.8,8,7.3,12.3,11.3
		c-3.9,5.1-9.9,5.4-14.4,8.2c-6.9,4.3-7.7,6.8-2.4,12.9c13,15.1,29.2,26.1,47,34.7c33.8,16.3,69.9,22.7,107.2,23.6
		c16,0.4,31.9-1.6,47.7-2.3c0.2,0.7,0.5,1.3,0.4,1.5c-16.2,21.2-32.4,42.3-48.7,63.4c-4.7,6.4-12.1,10.4-20.1,10.8
		c-9,0.6-18,1-27,1.9c-22.2,2-38.9,13.5-51.6,31c-4.8,6.7-2.6,10.1,5.6,10.1c10.1,0.1,18.4-3.4,23.6-12.6c1.9-3.3,3.6-7.2,8.1-7.9
		c2.4-0.4,4.8,0.1,6.3,2.3c1.3,2,0.2,3.7-1.2,5.2c-2.9,3.2-5.8,6.4-8.6,9.7c-1.5,1.8-3.4,3.6-1.9,6.2c1.3,2.2,3.7,2.8,6.1,3
		c3.6,0.3,7.1-0.9,9.7-3.4c8.7-7.5,18.8-10.8,30-12.1c9.1-1.1,17.2-5.1,24.4-10.9c34-27.8,69.7-53.5,100.6-85
		c8.4-8.3,18.3-14.9,29.3-19.3c16.2-6.9,32.1-14.8,48.7-20.8c2.2-0.8,4.2-2.1,6.6-1.6c2.6,2.8,0.5,5.3-0.4,7.7
		c-3.3,8.8-6.7,17.6-10.1,26.4c-5,12.9-13.5,22.7-24.7,30.7c-12.9,9.2-27.3,15.7-42,20.9c-33.9,11.9-52.2,35.9-58.2,70.5
		c-2.8,16.2-5.6,32.5-7.9,48.8c-1.7,12.6-6.7,23-16.4,31.5c-7.3,6.6-14.2,13.6-20.6,21c-4.7,5.2-3.3,8.9,3.3,11.3
		c5.3,1.9,10-0.5,14.9-1.5c9.1-1.9,11-0.1,7.7,8.8c-3.6,9.6-5,19.8-4.1,30c0.9,10-1.5,12.8-11.6,13.7c-9,0.8-15.5,5-21,11.5
		c-3.3,3.9-6.4,7.9-9.4,12c-4.3,6.2-10.3,10.9-17.3,13.6c-9.7,3.6-18.3,8.6-25,16.9c-4.3,5.2-10.2,8.8-16.9,10.1
		c-2.7,0.6-5.3,1.5-7.7,2.8c-4.9,2.4-6.6,6.7-5.3,11.8c1.4,5.8,6.3,5.5,10.5,4.5c20.3-4.7,41.1-6.2,61.6-9.9
		c4.9-0.9,9.7-3.2,14.4-4.9c2.2-0.8,4.6-1.9,6.5,0.2c1.7,1.9,1.4,4.4,0.8,6.7c-1.3,4.9-4.5,8-8.8,10.5c-30.1,17-57.5,38.3-81.4,63.2
		c-5.2,5.4-10.9,10.1-16.4,15.2c-7.2,6.7-15.7,8.4-25.1,6.8c-3.9-0.6-7.7-1.5-11.6-2.1c-11.1-1.8-16.6,0.8-22.3,10.7
		c-4.1,6.9-5.8,14.7-6.1,22.5c-0.6,12.8-5.9,22.6-16.6,29.4c-4.8,3.1-7.9,7.4-10.4,12.5c-4.7,9.9-9.8,19.7-14.5,29.6
		C503.7,1380.3,501.7,1383.6,505.3,1385.9z M872.6,727.6c-19.7,18-32.5,12.7-53.5-4.6C837.3,723,854,724.8,872.6,727.6z
		 M833.1,741.3c-17.9,0.1-34.5,2.2-51.2,3.3c-2.2,0.1-4.6-0.8-6.9-1.4c-18.8-5.4-37.6-10.8-56.3-16.3c-2.4-0.7-5.6-0.5-6.9-3.6
		c1.9-1.9,4.3-1.5,6.6-1.5c24.6-0.4,49.2-1.5,73.8-0.5C805.4,721.7,822.1,729.5,833.1,741.3L833.1,741.3z M804.3,708.4
		c0.1,0.9,0.1,1.8,0.2,2.8c-15.8,8.8-33.1,1.8-49.4,2.9c8.1-1.1,16.2-2.2,24.3-3.2C787.7,709.9,796,709.2,804.3,708.4L804.3,708.4z
		 M681.3,782.8c-3.8,2.5-8.1,3-12.4,2.9c-13.9-0.1-27.3-2.6-39.7-9.3c-3.7-2-9.9-3.1-9.5-7.6c0.6-5.7,7.3-4.8,11.6-5.2
		c20.3-2,40.5-4,60.9-5c12-0.6,23.8-2.4,36-2.3C711.9,763.9,696.2,772.7,681.3,782.8z M701.7,777.5c32.7-22.9,69.6-29.5,109.7-29.2
		c-14.7,6.9-28.2,13.1-40.2,22C749.4,786.6,725.8,783.1,701.7,777.5L701.7,777.5z M673.7,754.7c-32,5-62.8,1.1-92.6-12.6
		c16.3-6,32.7-10.4,49.9-11.6c3.2-0.2,6.1,1.3,8.8,2.8c9.6,5.2,19.2,10.4,28.8,15.8C670.7,750.2,674.1,750.5,673.7,754.7
		L673.7,754.7z M687.2,753.3c-14-7.3-28-14.8-42-22.3c0.2-0.9,0.3-1.7,0.5-2.6c9.1-1.2,18.3-2.1,27.4-3.6
		c10.1-1.6,20.4-0.9,30.1,2.3c15.7,4.9,31.6,9.1,47.3,13.8c2.8,0.8,6.2,0.8,8,3.8c-0.6,2.1-2.3,2.1-3.7,2.2
		c-19.4,2.3-38.9,4.6-58.3,6.9C693.4,754.2,690.1,754.7,687.2,753.3L687.2,753.3z M874.9,703.4c-18.4,21.7-40.4,13.8-61.6,11.4
		C832.3,702.7,853.6,705.1,874.9,703.4L874.9,703.4z M814,766.7c-9,6-18.2,4.8-28.3,1.8c13.6-12.2,45.5-23.9,59.4-21.6
		C834.3,753.7,824,760,814,766.7L814,766.7z M739.1,807.5c-1.3-2.7-0.3-4,0.7-5.2c10-11.1,22.2-19.6,34.1-28.3
		c2.2-1.6,4.7-2.6,7.7-1.7c4.8,1.4,9.6,2.5,15.3,3.9c-7.8,6.9-15.8,12.6-22.2,19.8C764.7,807.6,751.7,806.6,739.1,807.5L739.1,807.5
		z M679.4,807.6c-5.3-0.4-10.8-0.7-17.1-4.1c9.1-9,18.7-15.3,28.9-21c2.5-1.4,5.4-0.3,8,0.5c13.7,3.9,27.8,4.6,41.9,4
		c1.8-0.1,4-0.9,4.9,2.2c-5.3,5.5-10.7,11.1-16,16.8c-3,3.2-6.7,3.8-10.7,3.6C706,808.9,692.7,808.5,679.4,807.6L679.4,807.6z
		 M596.5,782.3c-1.8-0.9-2.9-2.6-1.3-4.8c3.5-4.7,15.3-7.6,20.3-4.1c15.1,10.7,32,16,52,17.2c-7.2,10.5-14.8,13.6-25.3,10.1
		c-10-3.4-20.2-6.2-29.9-10.5C606.9,787.8,601.7,785.1,596.5,782.3L596.5,782.3z M564.9,746.7c3-1.1,6.1-2.1,9.1-0.8
		c14.3,6.1,29.3,9.8,45.8,14.3c-10.3,4.9-19.1,8.9-27.7,13.2c-3.9,1.9-7.4,2-11-0.6c-6.7-4.8-13.3-9.7-18.7-15.9
		C557.8,751.6,558.5,749.2,564.9,746.7L564.9,746.7z M563.9,706.9c2.9-1.1,6.2-1.1,9.1,0.1c15,5.9,30.4,10.5,46.2,13.8
		c-6.4,2.8-10.9,4.9-15.6,6.8c-23.8,10-25.6,7.1-42.8-9.4C554.9,712.5,556.1,709.6,563.9,706.9L563.9,706.9z M632.7,691.7
		c14.1,7.3,28,14.9,42,22.3c-33.4,5.1-65.5,4.1-98-11.5c17.7-5.7,33.9-8.8,50.3-11.5C628.9,690.6,630.9,690.9,632.7,691.7
		L632.7,691.7z M674,685.2c11.3-0.8,22.6,0.6,33.3,4.3c15.2,5,30.7,8.9,46.1,13.4c2.4,0.7,5.5,0.4,7,3.4c-2.2,2.3-5.1,1.7-7.6,2
		c-14.8,1.5-29.7,1.8-44.3,4.3c-15.4,2.6-29.2,0.9-42.1-8.4c-7.4-5.3-16.4-8.3-25.9-15.4C653.2,687,663.5,685.9,674,685.2L674,685.2
		z M795,682.3c3.9,0.2,7.8,0.3,11.3,2.4c7.7,4.6,15.4,9.1,23,13.7l-0.5,3c-23,1.7-45.9,7-69.1-1.1c-14.7-5.2-30-8.9-45-13.3
		c-2.7-0.7-5.9-0.7-8.7-3.7c7.7-0.3,14.3-0.7,20.9-0.9C749.7,681.7,772.3,681,795,682.3L795,682.3z M907.8,695.4
		c-20,1.6-40.1,3.6-60.2,4.7c-8.7,0.5-20.6-6.9-28.3-16.2C849.9,684.4,878.9,688.9,907.8,695.4L907.8,695.4z M651.4,578.9
		c-4.2-3.4-8.5-6.7-11.8-12.2c2-0.9,2.7-1.4,3.5-1.5c30.1-3.6,60.1-1.5,90,2.1c4.7,0.6,7.8,2.6,9.3,7.5c2.3,7.6,7.3,13.8,12,20
		c12.2,16.2,28.3,28.1,44.7,39.5c1.9,1.3,5.5,1.6,4.9,5.5c-4.2,1.7-8.5,1.2-12.8,1.2c-8.6-0.1-17.3-0.8-25.8-0.1
		c-7,0.6-14.1-0.8-20.4-4C711.7,620.9,680.1,602.3,651.4,578.9L651.4,578.9z M715.3,502.5c-30.7-13.7-62.7-22.2-96-26.4
		c-5.1-0.7-9.8-3.1-13.3-6.8c-8.2-8-15.7-16.5-21.4-26.4c-9.8-17.1-15.5-36.2-16.8-55.8c-0.5-7.3,1.7-8.5,8.3-5.5
		c8.6,3.8,16.6,9,23.5,15.5c35,32.6,71.2,63.9,108.3,94.1c4.1,3.3,8.4,6.5,12,12.1C717.4,502.8,716.2,502.9,715.3,502.5L715.3,502.5
		z M645.6,492.4c-1.2-3.8,0.7-6,4.8-5.7c1.6,0.1,3.1,0.4,4.6,0.8c41.2,9.6,79.9,24.9,112.2,53.4c6.7,5.9,13.7,11.7,20.4,17.7
		c8.7,7.7,17.4,15.4,27.1,24c-4.7,1.7-6.8,0.4-9-0.4c-29.1-10.9-58.8-19.2-89.8-21.7c-7.3-0.6-13.5-3.8-19.3-7.9
		c-18.6-13.1-34.3-30-46-49.5C648.5,499.6,646.9,496.1,645.6,492.4L645.6,492.4z M649.5,379c-1.3-6.7-3-13.4-2.4-21.1
		c4.7,1.5,7.2,4,9.8,6.2c14.7,12.3,29.3,24.9,44.1,37.1c5.1,4.3,9.2,9.7,11.8,15.8c12.7,27.8,25.7,55.5,38.5,83.2
		c4.5,9.9,9,19.8,13.4,29.8l-1.8,1.2c-31-25.8-62-51.6-93-77.3c-4.7-3.9-7.2-8.8-8.4-14.9C657.8,418.8,653.4,398.9,649.5,379
		L649.5,379z M719.3,420c1.7,0.2,2.2,0.1,2.4,0.4c38.2,34.7,74.4,71.8,108.2,110.8c3.3,3.9,5.4,8.7,5.9,13.7
		c1.9,14.8,4.1,29.5,6.1,44.2c0.3,2.6,1.6,5.3-0.7,7.9c-4.1,0.6-6.2-2.8-8.7-5c-16.6-14.3-32.9-29-49.5-43.3
		c-5.3-4.6-9.6-10.3-12.4-16.8c-11.2-24.6-22.6-49-33.9-73.6C731,445.8,725.3,433.2,719.3,420L719.3,420z M848.4,611.8
		c6,5.6,12.6,10.6,18.4,16.4c7.6,7.7,17.2,13.3,24.9,23.7c-3.3,0.1-4.5,0.5-5.6,0.2c-20.1-5.1-40.4-9.4-61.2-10.8
		c-4.4-0.3-8.3-2.2-12.1-4.4c-11.6-6.6-22.8-13.8-32.9-22.5c-10.7-9.3-20.5-19.4-28.1-31.4c-2-3.2-5.4-6.9-2.5-10.6
		c2.5-3.3,6.6-0.8,9.9,0c19.1,4.5,37.4,11.3,55.8,18.3C827.4,595.5,838.8,602.7,848.4,611.8L848.4,611.8z M569.5,484.1
		c-1.3-2.1-3.8-4.2-1.7-7.9c20.6,0.7,41.1,2.7,61.4,6.2c5.8,0.9,8.5,4.3,10.6,9.4c6.8,16.9,17.5,31.3,30.2,44.3
		c7.7,7.8,16.4,14.2,27.1,22.8c-18.8-0.8-37.6-0.3-56.3,1.6c-6.1,0.6-10.4-0.6-14.6-4.9C605.1,533.6,585.4,510.4,569.5,484.1
		L569.5,484.1z M534.9,410c-3.4-11.2-6.7-22.6-7.9-34.4c-0.8-8.5,0.8-9.9,9.3-7.7c5.3,1.4,10.6,3,15.8,4.7c9.8,3.2,10.3,4.1,10.8,14
		c1.4,27.4,10.5,52,27.9,73.4c2.7,3.3,6.4,5.8,8,12c-8.9,2-17-1.2-25-0.5c-9.4,0.8-14.4-3.8-18.2-11.6
		C547.5,443.7,540.2,427.3,534.9,410L534.9,410z M557.6,313.8c7.9,24.7,19.7,47.6,33.3,69.7c-13.6-7.3-28-13-42.9-16.9
		c-5.6-1.6-11.2-3.5-16.8-5.2c-4.2-1.2-6.5-3.9-7.1-8.3c-2.5-18.7-1.9-37.6,1.7-56.1c0.8-4.1,3.1-5.7,7.6-5.2
		c13,1.4,19.3,6.4,23.2,18.7C556.8,311.6,557.3,312.7,557.6,313.8L557.6,313.8z M561.4,308.4c-0.7-3.9,1.6-4.9,4.9-3.7
		c1.8,0.7,3.6,1.6,5.3,2.5c21.1,11.3,41.3,24.2,60.4,38.6c5.4,4.1,7.9,9.1,9.2,15.6c3.5,18.8,7.7,37.6,11.4,56.4
		c1.3,6.7,2.9,13.5,2.7,20.4c-1.4,0.2-2,0.4-2.2,0.3c-4.5-3.7-9-7.5-13.4-11.2c-35-29.4-60.6-65.4-75.4-108.8
		C563.1,315.2,562.1,311.8,561.4,308.4L561.4,308.4z M593.7,269.5c3.4,12,5.8,24.3,10.2,36c1.9,5,3.4,10.1,5.9,17.6
		c-16.7-10.1-31.4-18.7-46.6-26.4c-2.6-1.3-4-4-3.6-6.8c1-10.9,2.6-21.7,6.2-32.1c0.8-2.3,1.9-4.2,4.8-4.5
		C578.5,252.6,591.5,261.6,593.7,269.5L593.7,269.5z M671,319.8c1.7,1.6,2.8,3.8,3.1,6.2c1.7,13.2,3.4,26.4,4.9,39.6
		c0.3,2.2,0.6,5-2.2,6.1c-2.1,0.8-3.6-1-5.1-2.2c-9.8-7.8-18.6-17.4-29.5-23.2c-21.2-11.4-31.5-29.4-36.9-51.5
		c-0.5-1.5-0.9-3-1.2-4.5c-1-7.1-5.6-13.7-3.8-23.9C625.7,281.6,649.4,299.5,671,319.8L671,319.8z M722.9,368.9
		c10.6,9.8,18.1,21.2,22,35.2c3.1,10.9,7.6,21.4,11.3,32.1c0.9,2.5,2.6,4.8,1.1,7.7c-0.8-0.1-1.8,0.1-2.2-0.3
		c-22-20-43.9-40-65.9-60c-2.4-2.2-4.3-4.5-4.9-7.8c-2.6-14.9-2.2-29.9-3.9-47.6c5.9,5.2,9.8,8.3,13.4,11.8
		C703.5,349.6,712.9,359.7,722.9,368.9L722.9,368.9z M851.8,545.3c-2.6,0.5-3.5-1-4.4-2.1c-22.8-27.5-47.1-53.7-72.1-79.1
		c-4.4-4.5-7.7-9.9-9.8-15.8c-4.9-13.7-9.9-27.3-14.7-40.9c-0.8-2.3-2.5-4.8-0.5-7.5c3.8,1.7,5.8,4.7,8.1,7.3
		c30.5,34.3,59.3,70,86.8,106.7C852.8,524,853.5,534.1,851.8,545.3z M935.2,661.9C914,629,891,597.2,866.4,566.8
		c-7.9-9.7-8.4-20.1-7.6-31.6C888.2,574.9,913.8,617.4,935.2,661.9L935.2,661.9z M938,684.4c-28-24.5-56-49.1-83.9-73.6
		c-2.4-2.1-4.3-4.5-4.8-7.8c-2.3-17.8-4.7-35.6-7-53.4l2.2-1.1c35.3,42.7,68.5,86.9,96.2,136.1C938.8,684.5,938.2,684.6,938,684.4
		L938,684.4z M770.6,647.9l0.7-2.3c5.8,0,11.7,0.1,17.5,0c32.7-0.5,64.9,2.4,96.6,10.9c13.8,3.6,25.7,9.1,35.4,19.3
		c4.4,4.7,10.5,7.9,14.5,16.5C878.7,685,823.3,670,770.6,647.9z M892,716.1c-9.1,6.1-18.7,6.8-31.1,2.7c17.9-10,32.5-22.6,54.6-17.1
		C907,706.9,899.3,711.3,892,716.1L892,716.1z M810.4,1139.9c-4.5-1.7-5.9-4.7-4.1-9.2c4-9.7,7.2-19.8,13.8-29.1
		c5.6,3.6,7.9,8.3,11.1,12.2c3.6,4.3,6.9,5.1,12.1,2.5c9.2-4.7,10.3-3.9,13.6,6.5c3,9.3,6.2,18.5,11.7,26.8
		c2.3,3.4,6.8,7.7,3.5,11.4c-3.8,4.2-8.8,0-12.6-2.2c-12.7-7.2-26.2-12.1-40.3-15.7C816.2,1142.1,813.3,1141.1,810.4,1139.9
		L810.4,1139.9z"/>
	<g>
		<path class="st2" d="M1415.3,1123c-0.8,2.2-1.9,4.3-3.4,6.1c-1.4,1.8-3,3.3-4.8,4.7c-1.6,1.2-3.3,2.2-5.2,3
			c1.1-3.1,2.2-6.2,3.1-9.2c0.9-3,1.7-5.6,2.2-7.8c0.4-1.6,0.7-3.2,0.8-4.8c-0.5-0.1-0.9-0.2-1.4-0.3c-0.3,0-0.7-0.1-1-0.1
			c-1.3-0.1-2.5,0.5-3.2,1.6c-0.9,1.5-1.6,3.1-2,4.8c0,0.3-0.1,0.7-0.2,1s-0.2,0.8-0.3,1.2c-1.8,2.6-4,5.1-6.3,7.3
			c-2.2,2-4.1,3-5.6,3c-0.7,0-1.4-0.3-1.8-0.9c-0.5-0.7-0.8-1.6-0.7-2.5c0.1-1.9,0.5-3.8,1.3-5.5c0.9-2.1,2.1-4.1,3.6-5.9
			c1.5-1.8,3.2-3.4,5.2-4.6c1.8-1.2,4-1.8,6.2-1.8c0.7,0,1.4,0.1,2,0.3c0.7,0.2,1.2,0.7,1.7,1.2c0.3-0.2,0.5-0.4,0.7-0.7
			c0.4-0.4,0.6-1,0.6-1.6c0-0.9-0.5-1.7-1.3-2.2c-1.2-0.7-2.6-1-3.9-0.9c-2.6,0-5.2,0.6-7.6,1.7c-2.7,1.2-5.2,2.7-7.4,4.7
			c-2.2,1.9-4.2,4.2-5.6,6.8c-1.2,2.1-2,4.5-2.1,7c-1.1,1.8-2.5,3.4-4.1,4.8c-1.1,1.1-2.6,1.8-4.1,1.9c-0.5,0-1-0.2-1.4-0.5
			c-0.5-0.5-0.7-1.2-0.6-1.8c0-1.3,0.3-2.5,0.8-3.7c0.5-1.3,1.1-2.6,1.6-4c0.5-1.5,0.8-3,0.8-4.6c0-1.9-0.6-3.7-1.7-5.3
			c-1.2-1.6-3.2-2.5-5.2-2.4c-2,0-3.9,0.6-5.5,1.6c-1.9,1.1-3.7,2.5-5.3,4.1c-1.7,1.7-3.3,3.5-4.7,5.4c0.4-1.6,0.8-3.1,1-4.4
			c0.2-1,0.3-1.9,0.4-2.9c0-1.6-1-2.5-2.9-2.5c-0.9,0-1.7,0.2-2.5,0.7c-0.7,0.3-1.2,0.8-1.8,1.3c0,2-0.3,3.9-0.8,5.8
			c-0.3,1.2-0.6,2.3-1,3.4l0,0c-1.4,2.6-3.2,5-5.3,7c-2.2,1.9-4.2,2.8-6.1,2.8c-1,0.1-2-0.2-2.8-0.9c-0.6-0.6-0.9-1.7-0.9-3.5
			c0-2,0.5-3.9,1.3-5.7c0.9-2,1.8-3.9,3-5.8c1.1-1.9,2.1-3.5,3-4.9c0.7-1,1.1-2,1.3-3.2c0-0.7-0.2-1.3-0.7-1.8
			c-0.5-0.4-1.1-0.6-1.7-0.6c-1.4,0.1-2.7,0.7-3.6,1.8c-1.3,1.3-2.5,2.9-3.4,4.6c-1.1,1.9-2,3.9-2.8,6c-0.6,1.6-1.1,3.1-1.5,4.8l0,0
			c-0.5,0.9-1,1.7-1.6,2.5c-1.1,1.8-2.5,3.4-4.1,4.8c-1.1,1.1-2.6,1.8-4.1,1.9c-0.5,0-1-0.2-1.4-0.5c-0.5-0.5-0.7-1.2-0.6-1.8
			c0-1.3,0.3-2.5,0.8-3.7c0.5-1.3,1.1-2.6,1.6-4c0.6-1.5,0.8-3,0.8-4.6c0-1.9-0.6-3.7-1.7-5.3c-1.2-1.6-3.2-2.5-5.2-2.4
			c-2,0-3.9,0.6-5.5,1.6c-1.9,1.1-3.7,2.5-5.3,4.1c-1.7,1.7-3.3,3.5-4.7,5.4c0.4-1.6,0.8-3.1,1-4.4c0.2-1,0.3-1.9,0.4-2.9
			c0-1.6-1-2.5-2.9-2.5c-0.9,0-1.7,0.2-2.5,0.7c-0.7,0.3-1.3,0.8-1.8,1.3c0,2-0.3,3.9-0.8,5.8c-0.2,0.8-0.4,1.6-0.7,2.4
			c-1.6,3.1-3.7,5.8-6.3,8.1c-2.4,1.9-4.2,2.9-5.5,2.9c-0.8,0.1-1.5-0.3-1.9-0.9c-0.4-0.6-0.6-1.3-0.6-2c0-1,0.3-2,0.7-2.9
			c0.5-1,1-2.1,1.6-3c0.6-1,1.2-1.9,1.6-2.8c0.4-0.6,0.6-1.4,0.7-2.1c0-0.6-0.3-1.2-0.8-1.5c-0.5-0.4-1.1-0.7-1.8-0.9
			c-0.4-0.1-0.7-0.2-0.9-0.3c-0.1,0-0.3-0.1-0.3-0.1c-0.3,0-0.5,0.2-0.7,0.4c-1,1.4-2.3,3-3.7,5c-1.4,1.9-2.9,3.8-4.5,5.7
			c-1.4,1.7-2.9,3.3-4.6,4.6c-1.1,1.1-2.6,1.7-4.2,1.8c-1.3,0-1.9-0.9-1.9-2.6c0-1.8,0.4-3.5,1-5.2c0.7-2,1.6-4,2.7-5.9
			c1.1-2,2.4-3.8,3.9-5.5c1.3-1.6,2.9-2.9,4.6-4.1c1.4-1,3-1.5,4.7-1.6c1.4,0,2.4,0.4,2.8,1.3c0.4,0.9,0.7,1.9,0.7,3
			c0,0.5,0,1-0.1,1.6c-0.1,0.5-0.2,1-0.3,1.5c1.3,0.3,2.6,0.1,3.7-0.6c1.1-0.7,1.7-1.9,1.6-3.2c0-1.9-0.9-3.7-2.5-4.8
			c-1.8-1.2-3.9-1.9-6-1.8c-2.3,0-4.6,0.6-6.7,1.6c-2.3,1.1-4.4,2.6-6.3,4.3c-2,1.8-3.7,3.8-5.3,6c-1.4,2-2.6,4.1-3.5,6.4l0,0
			c-0.8,1-1.6,2-2.4,2.9c-1.9,2-4.1,3.8-6.6,5.1c-2.1,1.2-4.5,1.9-6.9,1.9c-1.3,0.1-2.5-0.2-3.6-0.8c-0.8-0.5-1.5-1.1-1.9-2
			c-0.4-0.7-0.6-1.4-0.7-2.2c-0.1-0.5-0.1-1-0.1-1.4c0-0.4,0-0.8,0-1.2c0-0.2,0.1-0.5,0.1-0.7c2.5-0.3,5-0.9,7.4-1.8
			c2.4-0.9,4.6-2,6.7-3.5c1.9-1.3,3.5-2.9,4.8-4.8c1.2-1.7,1.8-3.8,1.8-5.8c0-2.2-0.6-3.7-1.9-4.4c-1.2-0.7-2.6-1.1-4.1-1.1
			c-2.7,0-5.3,0.8-7.6,2.2c-2.6,1.5-4.9,3.5-6.9,5.8c-2,2.3-3.7,4.9-5,7.6c-0.8,1.7-1.4,3.5-1.7,5.3v0c-1.2,2-2.8,3.8-4.5,5.4
			c-1.1,1.1-2.6,1.8-4.2,1.9c-1,0-2-0.5-2.5-1.4c-0.8-1.3-1.1-2.8-1-4.3c0-1.2,0.1-2.4,0.3-3.7c0.2-1.3,0.4-2.7,0.6-4.1
			c2.6-2.1,5-4.4,7.1-7c2.2-2.7,4.3-5.5,6.1-8.5c1.8-2.8,3.3-5.7,4.8-8.7c1.2-2.5,2.3-5.2,3.1-7.8c0.6-1.9,1-3.8,1.1-5.8
			c0-1-0.2-1.9-0.5-2.8c-0.3-0.9-0.7-1.8-1.2-2.6c-0.4-0.7-1.1-1.1-1.8-1.1c-1,0-2.4,0.9-4.1,2.8c-2,2.3-3.8,4.7-5.5,7.3
			c-2,3.1-3.9,6.5-5.9,10.3c-1.9,3.8-3.7,7.7-5.3,11.7c-1.5,3.7-2.8,7.5-3.9,11.4c-0.3,1.2-0.6,2.4-0.8,3.5
			c-1.3,2.3-2.9,4.5-4.7,6.5c-2.3,2.6-5,4.8-8.1,6.5c-2.7,1.6-5.7,2.4-8.8,2.5c-2.5,0.1-5-0.7-6.9-2.3c-1.8-1.6-3.1-3.6-3.8-5.8
			c-0.8-2.4-1.2-5-1.2-7.5c0-3.8,0.6-7.6,1.6-11.3c1.1-4,2.6-7.9,4.5-11.6c1.8-3.6,3.9-7,6.4-10.2c2.1-2.8,4.6-5.2,7.3-7.3
			c2.1-1.7,4.7-2.6,7.4-2.7c1-0.1,2.1,0.2,2.9,0.9c0.6,0.6,0.9,1.5,0.8,2.3c-0.1,1.3-0.4,2.6-0.9,3.8c-0.6,1.5-1.4,3-2.3,4.4
			c-0.9,1.5-1.9,2.9-3,4.3c-1,1.3-2,2.5-2.8,3.4c0.4,0.8,0.9,1.5,1.6,2c0.5,0.3,1.1,0.5,1.7,0.6c1.4-0.1,2.8-0.7,3.7-1.8
			c1.3-1.4,2.4-2.9,3.3-4.6c1-1.9,1.7-3.8,2.3-5.9c0.5-1.8,0.8-3.6,0.9-5.5c0-2.7-0.8-4.7-2.5-5.8c-1.8-1.2-3.9-1.8-6.1-1.7
			c-3.5,0-7,1-10.1,2.7c-3.5,1.9-6.7,4.4-9.5,7.3c-6.2,6.5-10.8,14.4-13.4,23c-1.3,4.2-2,8.6-2,13c0,3.3,0.6,6.6,1.8,9.7
			c1.2,3.1,3.2,5.7,5.8,7.6c3,2.1,6.6,3.1,10.2,3c3.8,0,7.5-0.9,10.9-2.7c3.4-1.9,6.5-4.4,9.1-7.3c1-1.2,2-2.4,3-3.7
			c0,0.1,0,0.3,0,0.4c-0.1,2.1,0.5,4.3,1.5,6.1c1,1.7,2.8,2.6,5.4,2.6c3.2,0,6.2-1.4,9.1-4.2c0.9-0.9,1.8-1.9,2.7-3
			c0.3,2.1,1.2,4,2.7,5.5c1.9,1.9,4.6,2.8,8.1,2.8c3,0,6-0.7,8.7-2.1c2.9-1.4,5.5-3.4,7.7-5.7c0,0.3,0,0.5,0,0.8
			c-0.4,3.6,2.3,6.8,5.9,7.2c0.3,0,0.6,0,0.8,0c2.2,0,4.3-0.9,5.9-2.3c2.2-1.9,4.2-4,6-6.2v0.4c0.1,1.7,0.8,3.3,1.8,4.6
			c1.2,1.5,3.1,2.3,5,2.1c2.2,0,4.3-0.7,6.2-1.9c1.8-1.2,3.4-2.6,4.8-4.2c-0.4,0.8-0.7,1.6-0.9,2.5c0.6,0.8,1.4,1.5,2.4,1.8
			c0.9,0.4,1.9,0.5,3,0.5c1-1.8,2.3-3.7,3.7-5.9c1.4-2.2,2.9-4.3,4.6-6.3c1.5-1.9,3.1-3.6,5-5c1.4-1.2,3.2-1.9,5.1-2
			c1.5-0.1,2.8,1.1,2.9,2.6c0,0.2,0,0.4,0,0.6c0,1.2-0.2,2.4-0.6,3.6c-0.4,1.3-0.8,2.5-1.2,3.7c-0.4,1.1-0.6,2.3-0.6,3.5
			c0,1.5,0.6,3,1.7,4.1c1.4,1.1,3.1,1.7,4.9,1.6c2.2,0,4.2-0.7,6-2c1.8-1.4,3.3-3,4.6-4.9c0,0.2,0,0.3,0,0.4c0,1.9,0.6,3.7,1.8,5.2
			c1.4,1.5,3.4,2.3,5.4,2.1c3.6-0.1,7-1.5,9.5-4c0.5-0.5,1.1-1,1.5-1.6c-0.3,0.6-0.5,1.3-0.7,2c0.6,0.8,1.4,1.5,2.4,1.8
			c0.9,0.4,1.9,0.5,3,0.5c1-1.8,2.3-3.7,3.7-5.9c1.4-2.2,2.9-4.3,4.6-6.3c1.5-1.9,3.1-3.6,5-5c1.4-1.2,3.2-1.9,5.1-2
			c1.5-0.1,2.8,1,2.9,2.5c0,0.2,0,0.4,0,0.7c0,1.2-0.2,2.4-0.6,3.6c-0.4,1.3-0.8,2.5-1.2,3.7c-0.4,1.1-0.6,2.3-0.6,3.5
			c0,1.5,0.6,3,1.7,4.1c1.4,1.1,3.1,1.7,4.9,1.6c2.2,0,4.2-0.7,6-2c1.6-1.2,3-2.7,4.1-4.3c0.2,1.3,0.8,2.6,1.7,3.6
			c1.3,1.5,3.2,2.4,5.2,2.3c2.4-0.1,4.6-0.9,6.4-2.4c2.3-1.7,4.3-3.8,6-6c-0.5,2-1,3.8-1.6,5.5c-0.5,1.7-1.1,3.3-1.7,4.8
			c-1.8,0.9-3.7,1.8-5.6,2.8c-1.9,1-3.7,2-5.4,3.2c-1.5,1.1-2.9,2.4-4,3.9c-1,1.4-1.5,3-1.5,4.7c-0.1,1.6,0.5,3.1,1.8,4
			c1.1,0.8,2.5,1.2,3.8,1.2c2.4,0,4.6-1,6.3-2.7c2.2-2.1,4-4.5,5.5-7.2c1.8-3.2,3.4-6.5,4.8-9.9c2.1-1,4.1-2.1,5.9-3.5
			c2.2-1.5,4.2-3.4,6-5.4c1.8-2,3.2-4.4,4.1-6.9L1415.3,1123z M1226.8,1120.5c1-1.7,2.2-3.3,3.5-4.8c1.2-1.3,2.5-2.5,4-3.5
			c1.2-0.8,2.5-1.3,3.9-1.4c0.4,0,0.8,0.1,1.1,0.3c0.3,0.4,0.4,0.8,0.3,1.2c0,1.6-0.6,3.2-1.6,4.6c-1.1,1.6-2.5,3-4,4.1
			c-1.6,1.2-3.3,2.3-5.1,3.1c-1.5,0.7-3.1,1.2-4.8,1.5C1224.9,1123.9,1225.8,1122.2,1226.8,1120.5L1226.8,1120.5z M1210.1,1108.2
			c1.3-3,2.6-5.9,4-8.7c1.4-2.7,2.8-5.2,4.1-7.3c1-1.7,2.2-3.4,3.4-5.1c1-1.2,1.7-1.8,2.1-1.8v0.2c-0.1,1.5-0.5,3-0.9,4.4
			c-0.7,2.1-1.5,4.2-2.4,6.2c-1,2.3-2.3,4.7-3.7,7.2c-1.4,2.5-2.9,4.9-4.6,7.3c-1.6,2.3-3.4,4.5-5.3,6.6
			C1207.8,1114.2,1208.9,1111.2,1210.1,1108.2z M1388.3,1153.4c-1.7,1.9-3.1,2.8-4.1,2.8c-0.5,0-0.9-0.2-1.1-0.6
			c-0.3-0.5-0.5-1.1-0.5-1.7c0-1.4,0.6-2.7,1.6-3.6c1.2-1.3,2.6-2.4,4.1-3.3c1.7-1,3.6-2.1,5.6-3
			C1391.9,1148.4,1390,1151.5,1388.3,1153.4z"/>
		<path class="st2" d="M1342.8,1095.1c-0.8-0.5-1.6-0.7-2.5-0.7c-1.6,0-3.1,0.5-4.4,1.4c-1.3,0.7-2.1,1.9-2.1,3.4
			c-0.1,1,0.4,1.9,1.3,2.4c0.9,0.5,1.8,0.8,2.8,0.8c1.5,0,3-0.6,4.1-1.6c1.1-0.8,1.8-2,1.9-3.3
			C1343.9,1096.5,1343.5,1095.6,1342.8,1095.1z"/>
		<path class="st2" d="M1470.3,1092.3c-0.6,1.5-1.2,3-1.6,4.4c-0.4,1.2-0.7,2.5-0.7,3.9c-0.1,1,0.3,2,0.9,2.7
			c0.7,0.8,1.7,1.3,2.7,1.4c1.1-1.7,2-3.5,2.9-5.3c1-2.1,1.9-4.3,2.6-6.6c0.7-2.1,1-4.3,1.1-6.5c0.1-2.3-0.7-4.6-2.3-6.2
			c-1.5-1.6-4.2-2.4-8-2.4c-3.4,0-6.8,0.7-9.8,2.1c-2.8,1.3-5.4,3.2-7.6,5.5c-2,2.1-3.6,4.5-4.8,7.2c-1.1,2.3-1.6,4.7-1.7,7.2
			c-0.1,2.3,0.6,4.6,1.9,6.5c1.4,1.9,3,3.5,5,4.8c2.1,1.4,4.2,2.7,6.4,3.8c2.2,1.2,4.4,2.4,6.4,3.7c1.9,1.2,3.6,2.6,5,4.4
			c1.3,1.6,2,3.7,1.9,5.8c0.1,2.3-0.7,4.5-2.3,6.2c-1.6,1.7-3.6,3-5.7,3.7c-2.3,0.8-4.7,1.2-7.2,1.2c-2.5,0.1-4.9-0.4-7.2-1.5
			c-1.8-0.9-3.3-2.2-4.3-3.9c-0.9-1.6-1.4-3.4-1.4-5.2c0-2,0.5-3.9,1.4-5.7c1-2.1,2.4-4.1,4-5.7c-2,0-3.9,0.3-5.7,1
			c-2,0.6-3.7,1.9-4.9,3.5c-1.4,2-2.1,4.5-2,6.9c-0.1,3,0.9,6,2.7,8.4c1.8,2.3,4.3,4,7,5c2.9,1.1,6,1.7,9.1,1.6
			c2.7,0,5.5-0.4,8.1-1.2c2.6-0.8,5-1.9,7.3-3.4c2.1-1.4,3.9-3.3,5.2-5.5c1.3-2.3,2-4.9,1.9-7.6c0.1-2.5-0.6-5.1-1.9-7.2
			c-1.3-2-2.9-3.7-4.9-5.1c-2-1.4-4.1-2.7-6.3-3.9c-2.2-1.2-4.3-2.3-6.3-3.5c-1.8-1-3.5-2.3-4.9-3.8c-1.3-1.4-1.9-3.2-1.9-5.1
			c0.1-1.8,0.5-3.6,1.3-5.3c2-4.2,5.3-7.7,9.5-9.9c2.2-1.2,4.7-1.8,7.2-1.7c1.8,0,2.9,0.3,3.5,0.8c0.6,0.6,0.9,1.4,0.9,2.3
			c0,1.3-0.3,2.6-0.7,3.8C1471.5,1089.3,1470.9,1090.8,1470.3,1092.3z"/>
		<path class="st2" d="M1502.5,1111.1c-0.1-0.1-0.1-0.1-0.2-0.2C1502.4,1111,1502.5,1111.1,1502.5,1111.1c0.2,0.3,0.3,0.8,0.3,1.2
			c0,1.6-0.6,3.2-1.6,4.6c-1.1,1.6-2.5,3-4,4.1c-1.6,1.2-3.3,2.3-5.1,3.1c-1.5,0.7-3.1,1.2-4.7,1.5c0,0,0,0,0,0
			c1.7-0.2,3.3-0.7,4.8-1.5c1.8-0.8,3.5-1.9,5.1-3.1c1.5-1.2,2.9-2.6,4-4.1c1-1.3,1.5-2.9,1.6-4.6
			C1502.9,1111.9,1502.8,1111.5,1502.5,1111.1z M1502.5,1111.1c-0.1-0.1-0.1-0.1-0.2-0.2C1502.4,1111,1502.5,1111.1,1502.5,1111.1
			c0.2,0.3,0.3,0.8,0.3,1.2c0,1.6-0.6,3.2-1.6,4.6c-1.1,1.6-2.5,3-4,4.1c-1.6,1.2-3.3,2.3-5.1,3.1c-1.5,0.7-3.1,1.2-4.7,1.5
			c0,0,0,0,0,0c1.7-0.2,3.3-0.7,4.8-1.5c1.8-0.8,3.5-1.9,5.1-3.1c1.5-1.2,2.9-2.6,4-4.1c1-1.3,1.5-2.9,1.6-4.6
			C1502.9,1111.9,1502.8,1111.5,1502.5,1111.1z"/>
		<path class="st2" d="M1679.4,1122.4c-1.1,2.5-2.7,4.8-4.7,6.7c-1.4,1.3-3,2.3-4.9,2.9l-0.1,0c0,0,0-0.1,0-0.1
			c0.1-0.5,0.2-1,0.2-1.5c0.1-0.6,0.1-1.2,0.1-1.9c0-2.5-0.4-5.1-1.2-7.5c-0.8-2.4-1.6-4.8-2.4-6.9c-0.7-1.9-1.1-3.8-1.2-5.8
			c0-0.6,0-1.3,0.2-1.9c0.1-0.4,0.2-0.8,0.2-1.2c0-0.4-0.2-0.9-0.5-1.2c-0.4-0.4-0.9-0.6-1.4-0.5c-1,0-2,0.6-2.6,1.4
			c-0.7,0.9-1.1,2.5-1.1,4.8v0.9c-1,2.3-2.2,4.5-3.7,6.5c-1.3,1.8-2.7,3.5-4.2,5.2c-0.4,0.3-0.8,0.6-1.2,0.8h0c0,0,0,0,0,0
			c-0.4,0.1-0.7,0.3-1.1,0.5c-0.2,0.1-0.5,0.3-0.8,0.5c-0.7,0.5-1.3,1.2-1.6,2c-0.3,0.6-0.5,1.3-0.5,2c-0.5,0.7-1.1,1.3-1.6,1.9
			c-1.9,2.1-4.1,3.9-6.5,5.3c-2.1,1.3-4.5,2-6.9,2c-1.3,0.1-2.5-0.2-3.6-0.9c-0.8-0.5-1.5-1.2-1.9-2c-0.3-0.7-0.6-1.5-0.7-2.3
			c-0.1-0.7-0.1-1.2-0.1-1.5c0-0.4,0-0.8,0-1.2c0-0.3,0.1-0.5,0.1-0.7c2.5-0.3,5-0.9,7.3-1.8c2.4-0.9,4.6-2.1,6.6-3.6
			c1.9-1.4,3.5-3.1,4.8-5c1.2-1.8,1.8-3.9,1.8-6.1c0-2.3-0.6-3.8-1.9-4.6c-1.2-0.7-2.6-1.1-4-1.2c-2.7,0.1-5.3,0.9-7.5,2.3
			c-2.6,1.6-4.9,3.6-6.9,6c-2,2.4-3.7,5.1-4.9,7.9c-0.8,1.8-1.4,3.8-1.7,5.7c-0.5,0.7-1,1.4-1.6,2.1c-1.8,2.1-3.9,3.9-6.3,5.2
			c-1.9,1.2-4.2,1.8-6.4,1.9c-2.3,0-3.8-0.7-4.6-2c-0.8-1.3-1.2-2.8-1.2-4.4c0-2.1,0.4-4.2,1.2-6.2c0.8-2.2,1.8-4.4,3.1-6.4
			c1.1-1.8,2.5-3.5,4.2-5c1.2-1.1,2.7-1.8,4.3-1.9c0.4-0.1,0.9,0.1,1.2,0.4c0.2,0.3,0.4,0.7,0.3,1.1c0.1,1.4-0.2,2.9-0.9,4.2
			c-0.4,0.9-1,1.6-1.7,2.2c0.5,1,1.4,1.6,2.5,1.6c1.2,0,2.2-0.8,3-2.3c0.7-1.4,1.1-3,1.1-4.6c0-1.5-0.5-3-1.5-4.2
			c-1-1.2-2.7-1.8-4.9-1.8c-2.3,0-4.6,0.7-6.6,1.9c-2.2,1.3-4.2,3-5.8,5.1c-1.8,2.2-3.2,4.6-4.2,7.2c-0.5,1.4-0.9,2.8-1.2,4.2v0
			c-1.2,2.2-2.7,4.2-4.5,5.9c-2.2,1.9-4.2,2.9-6,2.9c-1,0.1-2-0.2-2.7-0.9c-0.6-0.6-0.9-1.8-0.9-3.6c0-2,0.5-4.1,1.3-5.9
			c0.8-2.1,1.8-4.1,2.9-6l2.9-5.1c0.7-1,1.1-2.1,1.3-3.3c0-0.7-0.2-1.4-0.7-1.8c-0.5-0.4-1.1-0.6-1.7-0.6c-1.4,0.1-2.7,0.8-3.6,1.8
			c-1.3,1.4-2.5,3-3.3,4.7c-1.1,2-2,4.1-2.7,6.2c-0.6,1.8-1.2,3.5-1.6,5.4c-0.4,0.5-0.8,1-1.2,1.5c-0.8,0.9-2,1.4-3.1,1.4
			c-0.9,0.1-1.7-0.3-2.3-1c-0.5-0.7-0.9-1.5-1-2.4c-0.4-2.7-0.2-5.4,0.4-8.1c0.3-1,0.8-1.9,1.3-2.8c0.4-0.7,0.7-1.5,0.7-2.3
			c0-0.8-0.3-1.7-0.7-2.4c-0.6-1-1.7-1.5-2.8-1.4c-1.3,0-2.4,0.8-2.9,2c-0.8,1.3-1.2,3.9-1.3,7.8c-0.8,1.9-1.8,3.8-2.8,5.8
			c-1,1.9-2.1,3.8-3.3,5.6c-1,1.5-2.2,3-3.5,4.3c-0.8,0.9-1.9,1.5-3.2,1.7c-0.7,0-1.1-0.4-1.2-1.2c-0.2-1.3-0.3-2.6-0.2-3.9
			c0-1.8,0.1-3.7,0.2-5.6c0.1-1.9,0.2-3.7,0.2-5.5c0.1-1.1-0.1-2.2-0.4-3.3c-0.2-0.5-1-0.8-2.3-0.8c-1.4,0-2.3,0.3-2.6,0.9
			c-0.4,1.1-0.6,2.3-0.5,3.5c-0.1,1.6-0.1,3.1-0.2,4.3c-0.4,0.7-0.9,1.4-1.4,2.1c-1.1,1.5-2.3,2.9-3.6,4.1c-1.3,1.2-2.7,2.3-4.2,3.2
			c-1.2,0.8-2.6,1.2-4.1,1.2c-0.5,0-1-0.1-1.4-0.4c-0.5-0.4-0.7-1-0.6-1.6c0.1-1.3,0.4-2.6,1.1-3.8c0.7-1.5,1.4-3.1,2.1-4.8
			c0.7-1.6,1-3.3,1.1-5c0.1-1.6-0.4-3.2-1.3-4.5c-0.8-1.2-1.8-2.2-3-3c-1.1-0.8-2.2-1.5-3.1-2.1c-0.7-0.4-1.3-1-1.4-1.8
			c0.1-0.3,0.3-0.9,0.5-1.6c0.2-0.5,0.3-1,0.4-1.5c-0.1-0.5-0.2-1.1-0.5-1.6c-0.2-0.7-0.7-1.1-1.4-1.1c-0.8,0-1.7,0.7-2.5,2
			c-0.8,1.2-1.3,2.7-1.3,4.2c0,0.8,0.2,1.7,0.8,2.3c-1,3.1-2.2,6.1-3.6,9.1c-1,2.2-1.9,4-2.6,5.4c-1,1.7-2.2,3.3-3.6,4.7
			c-1.9,2.1-4.1,3.9-6.5,5.3c-2.1,1.3-4.5,2-6.9,2c-1.3,0.1-2.5-0.2-3.6-0.9c-0.8-0.5-1.4-1.2-1.9-2c-0.3-0.7-0.6-1.5-0.7-2.3
			c-0.1-0.7-0.1-1.2-0.1-1.5c0-0.4,0-0.8,0-1.2c0-0.2,0.1-0.5,0.1-0.7c2.5-0.3,5-0.9,7.3-1.8c2.4-0.9,4.6-2.1,6.6-3.6
			c1.9-1.4,3.5-3.1,4.8-5c1.2-1.8,1.8-3.9,1.8-6.1c0-2.3-0.6-3.8-1.9-4.6c-1.2-0.7-2.6-1.1-4-1.2c-2.7,0.1-5.3,0.9-7.5,2.3
			c-2.6,1.6-4.9,3.6-6.9,6c-2,2.4-3.7,5.1-4.9,7.9c-1.2,2.5-1.8,5.2-1.8,8c-0.1,2.7,0.9,5.4,2.8,7.4c1.9,2,4.6,2.9,8,2.9
			c3,0,6-0.7,8.6-2.1c2.9-1.5,5.5-3.5,7.7-6c1.2-1.3,2.3-2.8,3.3-4.3l0,0.1c0.9-1.6,2.1-3.9,3.6-6.9c1.5-3,2.9-6,4-9.1
			c1.1,0.6,2,1.3,2.9,2.2c0.8,0.9,1.3,2.1,1.2,3.3c-0.1,1.6-0.5,3.2-1.2,4.7c-0.8,1.8-1.6,3.6-2.3,5.4c-0.7,1.6-1.1,3.3-1.1,5.1
			c-0.1,1.7,0.6,3.3,1.9,4.5c1.4,1.1,3.1,1.7,4.9,1.7c2.6,0,5.1-0.8,7.3-2.3c2.5-1.6,4.7-3.5,6.5-5.8c0.5-0.6,1-1.2,1.4-1.8
			c0,0.3,0,0.5,0,0.7c-0.1,2.5,0.3,5,1.2,7.4c0.6,1.8,2.3,2.9,4.2,2.9c2-0.1,3.9-1,5.3-2.5c2-1.9,3.7-4,5.2-6.3
			c1.6-2.4,3.1-5,4.5-7.6c0.5,2,1.4,4,2.6,5.7c1,1.4,2.6,2.3,4.4,2.3c1.7-0.1,3.2-0.8,4.5-1.9c0.2-0.2,0.4-0.4,0.7-0.6
			c-0.1,0.8-0.2,1.7-0.2,2.6c0,1.9,0.6,3.8,1.8,5.4c1.3,1.5,3.3,2.4,5.4,2.2c3.4,0,6.5-1.4,9.5-4.2c1.3-1.2,2.4-2.6,3.4-4.1
			c0.1,3.4,1,6,2.7,7.7c1.8,1.9,4.4,2.9,7,2.8c2.9,0,5.8-0.9,8.4-2.3c2.9-1.7,5.5-3.8,7.7-6.4c0.2-0.3,0.5-0.5,0.7-0.8
			c0.3,2.1,1.2,4.1,2.7,5.6c1.9,2,4.6,2.9,8,2.9c3,0,6-0.7,8.6-2.1c2.9-1.5,5.5-3.5,7.7-6c0.2-0.2,0.4-0.5,0.6-0.7
			c0.2,1.1,0.5,2.2,0.9,3.2c0.7,1.8,1.9,3.3,3.5,4.4c2,1.2,4.2,1.9,6.6,1.7c2.4,0,4.7-0.6,6.7-1.7c2-1.2,3.5-3,4.3-5.2h0
			c2.6-0.5,5-1.7,6.8-3.6c2.1-2.2,3.6-4.9,4.5-7.8L1679.4,1122.4z M1628.8,1120.5c1-1.7,2.2-3.3,3.5-4.8c1.2-1.3,2.5-2.5,4-3.5
			c1.2-0.8,2.5-1.3,3.9-1.4c0.4,0,0.8,0.1,1.1,0.3c0.3,0.4,0.4,0.8,0.3,1.2c0,1.6-0.6,3.2-1.6,4.6c-1.1,1.6-2.5,3-4,4.1
			c-1.6,1.2-3.3,2.3-5.1,3.1c-1.5,0.7-3.1,1.2-4.8,1.5C1627,1123.9,1627.8,1122.1,1628.8,1120.5L1628.8,1120.5z M1489.9,1120.5
			c1-1.7,2.2-3.3,3.5-4.8c1.2-1.3,2.5-2.5,4-3.5c1.2-0.8,2.5-1.3,3.9-1.4c0.1,0,0.2,0,0.4,0c0.2,0,0.3,0.1,0.5,0.2
			c0.1,0,0.1,0.1,0.2,0.1c0.3,0.4,0.4,0.8,0.3,1.2c0,1.6-0.6,3.2-1.6,4.6c-1.1,1.6-2.5,3-4,4.1c-1.6,1.2-3.3,2.3-5.1,3.1
			c-1.5,0.7-3.1,1.2-4.7,1.5c0,0,0,0,0,0C1488.1,1123.9,1489,1122.1,1489.9,1120.5L1489.9,1120.5z M1660.4,1136.7
			c-0.9,0.5-2,0.8-3,0.8c-1.9,0.1-3.6-0.8-4.6-2.4c-1-1.5-1.6-3.3-1.6-5.1c0-1.3,0.4-2.1,1.2-2.2c1.2,1.5,2.6,2.8,4.2,3.9
			c1.8,1.3,3.9,2.2,6.1,2.6C1662.1,1135.3,1661.3,1136.1,1660.4,1136.7L1660.4,1136.7z M1663.4,1130.5c0,0.5-0.1,0.9-0.2,1.4
			c-2.1-0.5-4.1-1.5-5.8-2.8c-1.5-1.1-2.8-2.6-3.9-4.2c1.4-1.5,2.6-3.1,3.7-4.8c1.3-2,2.5-3.8,3.5-5.5c0.6,2.5,1.2,5,1.8,7.4
			c0.6,2.4,0.9,4.8,1,7.3C1663.5,1129.6,1663.5,1130,1663.4,1130.5L1663.4,1130.5z"/>
		<path class="st2" d="M1594.2,1095.1c-0.7-0.5-1.6-0.7-2.5-0.7c-1.6,0-3.1,0.5-4.4,1.4c-1.3,0.7-2.1,1.9-2.1,3.4
			c-0.1,1,0.4,1.9,1.3,2.4c0.9,0.5,1.8,0.8,2.8,0.8c1.5,0,3-0.6,4.1-1.6c1.1-0.8,1.8-2,1.9-3.3
			C1595.3,1096.5,1594.9,1095.6,1594.2,1095.1z"/>
	</g>
	<path class="st3" d="M1669.1,1134.5"/>
	<path class="st3" d="M1663.2,1131.8"/>
	<g>
		<path class="st4" d="M425.7,800.5c-6.9-9.7-15.8-17.8-26.1-23.7c-11-6.4-22.8-11.3-35.2-14.4c-12.2-3.2-24.7-4.8-37.3-4.9
			c-11.5,0-23,1.2-34.2,3.5c-10.7,2.2-21.3,5-31.7,8.6c-9.7,3.4-18.2,6.6-25.5,9.7c0,1.8,0.9,3.9,2.7,6.2c1.8,2.4,4,4.5,6.4,6.2
			c2.5,1.8,4.3,2.7,5.6,2.7c2.1,0,5.3-1.2,9.7-3.7c4.4-2.5,10.1-5.3,17.1-8.6c8.1-3.6,16.6-6.3,25.3-8
			c-9.9,21.8-18.7,42.7-26.6,62.6c-7.9,20-15.4,39.9-22.6,59.7c-7.1,19.8-14.2,40.5-21.2,61.8c-7,21.4-14.5,44.4-22.6,69
			c-1,3.4-2.1,7-3.3,10.9c-1.1,3.5-1.7,7.2-1.8,10.9c0,6.5,3.4,11.8,10.3,15.9c6.6,4.1,14.2,6.2,22,6.2c6-20.7,12.5-43.9,19.4-69.4
			c7-25.5,14.1-51.2,21.4-76.8h2.3c4.7,0,11.7-0.4,21-1.2c9.3-0.8,19.9-2.2,31.7-4.3c12.1-2.1,24-5.3,35.6-9.3
			c11.7-4.1,22.9-9.5,33.3-16.3c9.9-6.4,18.4-14.9,24.7-24.9c6.2-9.8,9.3-21.6,9.3-35.4C435.6,821,432.3,809.9,425.7,800.5z
			 M392.6,864c-7.4,10.6-17.1,19.5-28.4,25.9c-12.4,7.1-25.7,12.5-39.5,16.1c-14.3,3.8-28.8,6.3-43.6,7.4
			c7.8-27,15.9-52.8,24.5-77.6s17.5-46.2,26.8-64.4c11.6,0.2,23.2,2.4,34,6.6c10.2,3.8,19.3,10.1,26.5,18.3
			c6.9,8,10.3,18.5,10.3,31.5C403.3,841.5,399.8,853.6,392.6,864L392.6,864z"/>
		<path class="st4" d="M500.8,839.4c-3.6-2.2-7.7-3.2-11.9-3.1c-7.5,0.1-14.8,2.4-21,6.6c-6.7,4.4-10.1,9.7-10.1,15.9
			c0,5.2,2,9,6,11.5c4,2.5,8.7,3.8,13.4,3.7c7,0,13.5-2.5,19.4-7.6s8.9-10.3,9-15.8C505.6,845.3,504,841.5,500.8,839.4z"/>
		<path class="st4" d="M762.9,839.4c-3.6-2.2-7.7-3.2-11.9-3.1c-7.5,0.1-14.8,2.4-21,6.6c-6.7,4.4-10.1,9.7-10.1,15.9
			c0,5.2,2,9,6,11.5c4,2.5,8.7,3.8,13.4,3.7c7,0,13.5-2.5,19.4-7.6s8.9-10.3,9-15.8C767.8,845.3,766.2,841.5,762.9,839.4z"/>
		<path class="st4" d="M899.2,970.9c-6.4,12.4-14.6,23.8-24.3,33.8c-9.1,9.6-19.6,17.8-31.1,24.3c-11,6.1-22,9.1-32.9,9.1
			c-7.3,0-13-1.3-17.1-3.9c-3.8-2.2-6.9-5.4-9-9.3c-1.7-3.2-2.8-6.7-3.3-10.3c-0.3-2.3-0.5-4.5-0.6-6.8c0-1.9,0-3.8,0.2-5.6
			c0.1-1.1,0.3-2.2,0.6-3.3c11.9-1.4,23.6-4.2,34.8-8.4c11.2-4.1,21.9-9.7,31.7-16.5c9-6.2,16.8-13.9,22.9-22.9
			c5.6-8.1,8.6-17.8,8.6-27.6c0-10.4-3-17.3-9.1-20.8c-5.8-3.4-12.5-5.2-19.3-5.2c-11.9,0-23.9,3.5-35.8,10.5
			c-12.3,7.3-23.3,16.6-32.7,27.4c-9.6,10.8-17.5,23-23.5,36.2c-4,8.6-6.8,17.7-8.1,27c0,0,0,0,0,0c-5.5,8-10.9,14.2-16.2,18.7
			c-10.4,8.8-20,13.2-28.8,13.2c-5.7,0-10.1-1.4-13-4.1c-3-2.7-4.5-8.2-4.5-16.5c0-8.6,2-17.6,6-27c4-9.5,8.7-18.6,14-27.4
			c5.3-8.8,10-16.6,14-23.3c4-6.7,6-11.8,6-15.2c0-3.6-1.2-6.4-3.5-8.4c-2.3-1.9-5.2-3-8.2-2.9c-5.7,0-11.4,2.8-17.1,8.4
			c-6.3,6.4-11.7,13.7-15.9,21.6c-5,9.1-9.4,18.5-13,28.2c-2.8,7.3-5.2,14.7-7.2,22.3c-0.7,1.1-1.4,2.2-2.1,3.4
			c-4.3,6.6-9,13-14,19.1c-4.5,5.6-9.7,10.6-15.4,15c-5.2,3.9-10,5.8-14.4,5.8c-4.7,0-8.4-2.3-11.1-7c-3-5.4-5-11.2-6-17.3
			c-1.3-6.9-2.3-13.5-2.9-20c-0.4-5.1-1.2-10.2-2.1-15.2c8.6-9.6,16.9-18.2,25.1-25.9c6.9-6.6,14.1-12.7,21.8-18.3
			c6.3-4.5,11.2-6.8,14.6-6.8c-1-3.3-3.2-6.1-6.2-7.8c-2.9-1.6-5.1-2.3-6.6-2.3c-3.6,0-10.3,4-19.8,11.9
			c-9.6,7.9-20.2,17.7-31.9,29.4c-2.9-10.1-6.9-18.2-12.2-24.1c-5.3-6-13.2-8.9-23.5-8.9c-9.1,0-16.6,2.1-22.6,6.4
			c-6.1,4.4-11.2,10-15,16.5c-4.1,6.8-7.7,13.9-10.9,21.2c-3.3,7.4-9.7,21.9-9.7,21.9c-9.5,19.2-17.5,27.2-25.9,34.3
			c-10.4,8.8-20,13.2-28.8,13.2c-5.7,0-10.1-1.4-13-4.1c-3-2.7-4.5-8.2-4.5-16.5c0-8.6,2-17.6,6-27c4-9.5,8.7-18.6,14-27.4
			c5.3-8.8,10-16.6,14-23.3c4-6.7,6-11.8,6-15.2c0-3.6-1.2-6.4-3.5-8.4c-2.3-1.9-5.2-3-8.2-2.9c-5.7,0-11.4,2.8-17.1,8.4
			c-6.3,6.4-11.7,13.7-15.9,21.6c-5,9.1-9.4,18.5-13,28.2c-3.6,9.3-6.5,18.9-8.7,28.6c-2.1,9.1-3.1,16.6-3.1,22.6
			c0,9.6,2.9,17.8,8.6,24.5c5.7,6.7,14.3,10.1,25.7,10.1c16.1,0,31.1-6.4,45.1-19.1c10.5-9.5,19.5-21.8,27.3-37
			c0.5-0.9,1-1.9,1.6-2.7c2.6-4,10.5-16.2,14.3-23.3c4.1-7.7,8.9-14.9,14.4-21.6c4.9-5.8,10.2-8.8,15.9-8.8c5.7,0,9.6,3.4,11.7,10.1
			c2.1,6.8,4,16.5,5.8,29.2c-10.1,10.9-19.6,21.5-28.4,31.9c-8.8,10.4-16,19.5-21.4,27.4c-5.4,7.9-8.2,13.7-8.2,17.3
			c0.1,1.8,0.7,3.6,1.8,5.1c1.1,1.8,3.1,2.8,5.3,2.7c2.6,0,5.1-1.3,6.6-3.5c4.4-5.7,10.8-13.7,19.3-23.9
			c8.4-10.2,17.8-21.2,28.2-32.9c1.3,7.7,3.1,15.2,5.6,22.6c2.2,6.8,5.8,12.9,10.7,18.1c4.7,4.8,11,7.2,19.1,7.2
			c9.8,0,19.4-3.5,28.8-10.5c9.4-7.2,17.7-15.8,24.6-25.6c0,0.9-0.1,1.8-0.1,2.6c0,9.6,2.9,17.8,8.6,24.5
			c5.7,6.7,14.3,10.1,25.7,10.1c16.1,0,31.1-6.4,45.1-19.1c4.6-4.2,8.9-8.9,12.7-13.8c1.4,9.5,5.9,18.2,12.7,24.9
			c9,8.9,21.7,13.4,38.3,13.4c14.2-0.1,28.3-3.4,41-9.7c13.7-6.8,26.1-16,36.6-27.2c11.2-12,20.4-25.8,27-40.8L899.2,970.9z
			 M797.7,960c4.8-8.1,10.4-15.8,16.7-22.8c5.6-6.3,12-12,19.1-16.7c6.5-4.3,12.7-6.4,18.7-6.4c2.3,0,4,0.5,5.1,1.6
			c1,1,1.6,3,1.6,5.8c0,7.3-2.5,14.5-7.4,21.6c-5.2,7.5-11.6,14.1-18.9,19.6c-7.4,5.8-15.4,10.8-23.9,14.8c-8.3,3.9-15.8,6.2-22.6,7
			C789.1,976,793,967.8,797.7,960L797.7,960z"/>
		<path class="st4" d="M1247.6,811.6c-6.7-16.3-18.3-30-33.3-39.3c-15.3-9.7-35.7-14.6-61.1-14.6c-17.1-0.1-34.2,2.3-50.6,7.2
			c-14.5,4.3-28.4,10.7-41,19.1c-11.8,7.9-21,16.5-27.6,25.9c-6.6,9.3-9.9,18.5-9.9,27.6c-0.1,6.6,2.5,13,7.2,17.7
			c4.8,4.8,12.8,7.2,23.9,7.2c-1.3-3.1-2.2-6.3-2.7-9.5c-0.5-3-0.8-6.1-0.8-9.1c-0.2-12.9,3.8-25.5,11.5-36
			c7.7-10.5,18.2-18.8,31.7-24.9c13.5-6.1,28.7-9.1,45.5-9.1c16.1,0,30.3,3,42.8,9.1c12.5,6.1,22.2,15.7,29.4,28.8
			c7.1,13.1,10.7,30.1,10.7,51.1c0,16.3-2.6,33.4-7.8,51.3c-5.3,18.2-12.8,35.8-22.2,52.3c-9.3,16.6-20.6,32-33.6,45.9
			c-12.2,13.1-26.5,24.2-42.2,32.7c-14.8,8-31.4,12.3-48.2,12.3c-3.6,0-7.1-0.2-10.7-0.6c-3-0.2-5.9-0.8-8.7-1.8
			c3.9-18.4,8.9-38.7,15-60.9c6.1-22.2,12.8-45,20.2-68.5c7.4-23.5,15.2-46.3,23.3-68.5c8.2-22.2,16.3-42.3,24.3-60.5
			c-5.4-3.6-10.4-5.4-14.8-5.4c-4.5,0-8.8,1.6-12.2,4.5c-3.9,3.1-7.2,6.9-9.9,11.1c-2.7,4.1-5,8.4-7,12.8c-1.8,4.2-3.1,7.3-3.9,9.3
			c-1.8,4.9-4.6,12.9-8.4,23.9c-3.8,11-8,23.9-12.8,38.5c-4.8,14.6-9.7,30-14.6,46.1c-4.9,16.1-9.6,31.7-14,46.9
			c-4.4,15.2-8.1,28.7-11.1,40.6c-3,11.9-4.9,21-5.6,27.2c6,8,13,13.3,21.2,15.8c8.4,2.5,17.1,3.7,25.9,3.7
			c19.2-0.1,38.3-3.6,56.2-10.5c18.9-7.2,36.6-17.2,52.5-29.6c16.6-12.8,31.2-27.8,43.6-44.7c12.6-17.2,22.6-36.1,29.6-56.2
			c7.2-20.6,10.8-42.2,10.7-64C1257.9,846.5,1254.4,828.1,1247.6,811.6z"/>
		<path class="st4" d="M1686.9,969.6c-10.1,20.2-22,36.2-35.5,48c-13.6,11.8-26.9,17.7-39.8,17.7c-7.2,0-12.6-2.2-15.9-6.6
			c-3.4-4.4-5.1-11.9-5-22.6c0.1-13.3,2.1-26.4,6-39.1c4-13.3,8.7-26.3,14.2-39.1h6.7c10.7-0.3,21.9-0.8,33.6-1.5
			c11.7-0.8,24.6-1.8,38.6-3.1v-12.6c-9.4,1-18.6,1.7-27.7,2.1c-9,0.4-19.2,0.6-30.4,0.6h-13.4c7.3-14.5,14.8-28.2,22.6-41
			c7.8-12.8,14.4-24.1,19.7-33.6c5.3-9.6,8-17,8-22.2c0-3.6-1.2-6.4-3.5-8.4c-2-1.8-4.7-2.9-7.4-2.9c-4.4,0-9.5,2.9-15.2,8.7
			s-11.8,13.8-18.1,23.9c-6.9,11.1-13.3,22.6-19.1,34.4c-6.4,12.8-12.3,26.1-17.7,39.9c-2.9-0.3-5.7-0.5-8.4-0.8
			c-2.7-0.3-6.2-0.6-10.3-1.2v12.1c2.3,1,4.7,1.7,7.2,2.1c2.2,0.3,4.3,0.8,6.4,1.4c-6,16.1-11.1,32.4-15.4,49
			c-1.1,4.4-2.1,8.6-2.9,12.6c-3.4,4.8-7.3,9.3-11.7,13.2c-7.8,6.9-23.8,13.4-23.8,13.4s0.9-4.8,1.2-7.4c0.3-2.8,0.4-5.7,0.4-8.6
			c0-11.6-1.9-23.2-5.7-34.2c-3.8-11.1-7.5-21.7-11.3-31.7c-3.8-10-5.7-18.9-5.7-26.6c-0.1-2.9,0.2-5.8,1-8.6c0.6-1.8,0.9-3.6,1-5.4
			c-0.2-2-1.1-3.9-2.5-5.4c-1.4-1.6-3.7-2.3-6.8-2.3c-4.7,0-8.8,2.1-12.3,6.4c-3.5,4.3-5.3,11.6-5.3,22v3.6
			c-4.7,10.6-10.7,20.5-17.7,29.8c-6.2,8.2-12.9,16.1-20,23.5c-1.6,1.5-3.5,2.6-5.6,3.3l-3.9,1.7c-1.8,0.9-3.6,1.9-5.3,3
			c-3.4,2.3-6.1,5.4-7.8,9.1c-1.7,3.4-2.7,7.9-3,13.5c-1.2,1.5-2.4,3-3.6,4.4c-8,9.3-15.8,16.5-23.3,21.4c-7.5,4.9-14,7.4-19.4,7.4
			c-4.1,0-6.9-1.4-8.4-4.1c-1.5-3-2.2-6.2-2.1-9.5c0-6.2,1.2-13.4,3.7-21.6c2.4-8.1,5.3-16.1,8.5-23.9c3.2-7.8,6.1-14.5,8.5-20
			c2.5-5.6,3.7-8.7,3.7-9.5c0.1-3-1.6-5.8-4.3-7.2c-3.1-1.8-6.4-3.2-9.9-4.1c-3-0.9-6-1.5-9.1-1.9c-2.6,5.7-5.9,12.7-9.9,21
			c-4,8.3-8.5,16.9-13.6,25.7c-5,8.8-10.2,17.1-15.5,24.7c-4.5,6.7-9.7,13-15.5,18.7c-5,4.8-9.8,7.2-14.2,7.2
			c-3.9,0-6.6-1.7-8.2-5.1c-1.6-3.4-2.6-7.1-2.9-10.9c-0.4-3.9-0.6-6.3-0.6-7.4c0-8,1.6-17,4.7-26.8c2.9-9.4,6.5-18.7,10.7-27.6
			c4-8.6,7.4-14.9,10.3-19.1c-2.9-2.9-6.3-5.3-9.9-7.2c-3.8-1.9-6.5-2.9-8.4-2.9c-3.4,0-7.1,3.1-11.1,9.3
			c-4.6,7.4-8.5,15.2-11.7,23.3c-3.8,9.4-6.8,19-9.1,28.8c-2.3,9.9-3.5,18.4-3.5,25.7c-0.2,10,2.7,19.9,8.4,28.2
			c5.6,8.2,12.8,12.2,21.6,12.2c6.5,0,12.6-2.2,18.5-6.6c6.2-4.8,11.7-10.3,16.5-16.5c5.1-6.6,9.9-13.4,14.4-20.4v7.8
			c0.3,5.7,1,11.4,2.3,16.9c1.1,5.2,3.7,9.9,7.6,13.6c3.7,3.5,9.4,5.3,16.9,5.3c9.8,0,19.9-3.2,30.3-9.5
			c10.1-6.2,19.5-14.6,28.4-25.4c0.8,5.1,2.2,10.1,4.2,14.9c3.5,8.3,9.4,15.3,16.9,20.2c7.9,5.3,18.3,8,31.3,8
			c11.9,0,22.6-2.6,32.1-7.8c9.5-5.2,16.3-13.1,20.4-23.7c12.3-2,23.7-7.8,32.6-16.5c1.2-1.2,2.4-2.4,3.5-3.6
			c-0.3,3.1-0.4,6.1-0.4,8.9c0,13.7,3.5,24,10.5,30.7c7,6.7,16.2,10.1,27.6,10.1c12.4,0,24.5-3.6,36.1-10.7
			c11.6-7.1,22.5-16.9,32.4-29.4c10.1-12.7,18.6-26.7,25.1-41.6L1686.9,969.6z M1484.2,1036.6c-4.4,2.6-9.3,3.9-14.4,3.9
			c-9.6,0-16.9-3.8-21.8-11.3c-4.8-7.1-7.4-15.5-7.4-24.1c0-6.2,1.8-9.7,5.4-10.5c4.7,6.2,11.3,12.3,19.8,18.3
			c8.7,6,18.5,10.3,28.8,12.5C1492.4,1030,1488.7,1033.9,1484.2,1036.6L1484.2,1036.6z M1498.8,1007.2c-0.1,2.2-0.4,4.3-1,6.4
			c-10-2.4-19.4-6.9-27.6-13.2c-8-6.2-14.1-12.8-18.3-19.8c6.5-7,12.3-14.6,17.5-22.6c6.2-9.3,11.7-18,16.3-26.1
			c2.8,11.9,5.7,23.6,8.6,35c2.8,11.3,4.4,22.9,4.7,34.6C1499,1002.9,1499,1004.7,1498.8,1007.2L1498.8,1007.2z"/>
		<path class="st4" d="M1438.9,973.2c-1.1,0.4-2.3,0.9-3.5,1.5l3.9-1.7C1439.2,973.1,1439.1,973.2,1438.9,973.2z"/>
		<path class="st4" d="M1435.5,974.8c1.2-0.6,2.3-1.1,3.5-1.5c0.2-0.1,0.3-0.1,0.5-0.2"/>
	</g>
</g>
<path class="st5" d="M1160.8,493.5c-0.6-0.7-1.4-1.2-2.2-1.5c-2.2-0.9-4.4-1.7-6-2.5c7.3,5,13.9,11.2,17.3,20.1
	c2,5.3,2.3,10.7,1,16.2c-0.4,1.8-0.9,2.1-2.6,1.7c-7.6-1.7-15.4-1.9-23.1-1.6c-11.8,0.5-23.5,2-35.1,4.1
	c-11.7,2.1-23.2,4.7-34.7,7.7c-6.3,1.7-34.4,7.2-42.2,6.8c-7.8-0.3-15.4-1.7-22-6.4c-5.4-3.8-8.7-9.1-9.7-15.7
	c0.1-0.7-0.1-1.4-0.1-2.2c0.4-0.9,1.2-1.2,2-1.5c3.1-3.4,6.9-5.8,9.4-7.2c5.2-2.8,17.1-7.8,22.5-10.3c9.3-4.2,36.6-10.6,41.7-11.7
	c0.1,0,22.7-4.8,31.6-5.6c5.4-0.5,10.8-0.9,16.2-0.8c7.4,0.2,14.8,0.7,22,3.1c0.3,0.1,0.5,0.2,0.8,0
	C1147.5,485.5,1168.1,502,1160.8,493.5z"/>
<path class="st6" d="M1195.4,551.9c0.2,1.3,0.4,2.6,0.6,3.8c0.2,0.5-0.1,1.2,0.3,1.7c0,1.8,0,3.7,0,5.5c-0.5,0.4-0.2,0.9-0.3,1.4
	c-0.2,0.2-0.5,0.5-0.3,0.8c-0.4,3-1.4,5.8-3.1,8.4c-0.2,0.3-0.4,0.6-0.7,0.6c-0.4,0-0.3-0.5-0.5-0.8c-2.1-5-5-9.5-8.5-13.7
	c-4.5-5.5-10.1-9.6-16.5-12.7c-5.9-2.9-12.2-4.7-18.7-5.5c-0.3-0.2-0.5-0.5-0.8-0.3c-5.7-0.7-11.4-0.9-17.1-0.8
	c-4,0.1-7.9,0.6-11.8,0.8c-0.4,0-0.8-0.1-1.1,0.3c-1.6,0.2-3.1,0.4-4.7,0.6c-0.5-0.3-0.8,0.1-1.1,0.3c-0.3,0-0.5,0-0.8,0
	c-0.4-0.2-0.8,0.1-1.1,0.3c-0.7,0.1-1.5,0.2-2.2,0.3c-0.3,0-0.6,0.1-0.8,0.3c-4,0.6-8,1.6-11.9,2.6c-12.2,3.1-24.1,7.1-35.7,11.9
	c-9.6,4-19.1,8.5-27.6,14.6c-3.5,2.5-6.8,5.2-10,8.1c-6,5.4-11.1,11.6-15.5,18.4c-4.9,7.8-8.4,16.2-10.5,25.1
	c-0.3,1.4-0.8,2.7-0.8,4.2c-0.3,0.2-0.3,0.5-0.3,0.8c-0.1,0.9-0.2,1.8-0.3,2.7c-0.2,0.2-0.5,0.5-0.3,0.8c0,1.3-0.4,2.5-0.3,3.8
	c-0.3,0.4-0.5,0.9-0.3,1.4c0.2,1.7-0.3,3.4-0.3,5.2c0,2.2,0.3,4.3,0.3,6.4c0,0.9,0,1.2-1,0.9c-3.9-1-7.8-1.9-11.8-2.9
	c-0.5-0.1-1-0.2-1.5-0.2c-1.5-1.1-2.3-2.7-3.2-4.3c-0.8-2.1-2.3-3.9-3.7-5.7c-0.4-0.5-0.8-1.2-1.2-1.7c-1.9-2.8-3.6-5.6-5.2-8.6
	c-4-7.2-7.5-14.6-10.2-22.3c-0.9-2.6-1.8-5.2-2.4-7.9c0.1-0.5-0.1-0.9-0.3-1.2c-0.7-2.1-1.2-4.3-1.4-6.5c0.3-0.7,0-1.3-0.2-2
	c0-0.1,0-0.3,0-0.4c-0.2-2.9-0.6-5.7-0.5-8.6c0.4-2.1,1.6-3.9,2.6-5.7c2.9-5.3,6.2-10.4,9.8-15.3c0.4-0.5,0.7-1.1,1.3-1.4
	c1.5-1.1,2.4-2.8,3.6-4.1c1.5-1.7,2.9-3.4,4.5-5c0.4-0.4,0.6-0.9,0.9-1.3c2.5-2.3,4.7-4.7,7.1-7.1c1.4-1.3,2.7-2.8,4.4-3.9
	c0.5-0.3,0.8-0.7,1.1-1.2c1.3-1.1,2.9-2,3.9-3.5c0.1-0.1,0.2-0.1,0.3-0.2c0.6,0,0.8-0.4,1.1-0.7c0.6-0.3,1.1-0.7,1.5-1.2
	c0.1-0.1,0.2-0.1,0.3-0.2c0.4-0.1,0.6-0.4,0.8-0.7c0.1-0.1,0.2-0.1,0.3-0.2c0.8-0.3,1.4-0.9,2-1.6c0.8-0.4,1.5-0.9,2-1.5
	c0.1-0.1,0.2-0.2,0.3-0.2c0.7-0.2,1.2-0.7,1.7-1.2c0.1-0.1,0.2-0.2,0.3-0.2c0.1-0.1,0.2-0.1,0.4-0.2c1.2-0.6,1.2-0.6,1.3,0.8
	c0,0.1,0,0.3,0.1,0.4c0.8,5.6,3.3,10.2,7.6,13.9c5.3,4.6,11.6,6.5,18.4,7.4c3.6,0.5,7.2,0.6,10.8,0.5c5.2-0.2,10.3-0.8,15.4-1.7
	c8.1-1.4,15.9-3.8,23.8-5.8c8.4-2.2,16.9-4.1,25.5-5.8c7.4-1.4,14.8-2.7,22.3-3.7c4.2-0.6,8.3-0.9,12.5-1.2
	c5.3-0.4,10.5-0.6,15.8-0.5c5,0.1,9.9,0.6,14.8,1.7c1.3,0.3,1.5-0.3,1.7-1.2c1.1-4.4,1.1-8.9,0-13.3c-2-7.8-6.7-13.7-12.7-18.8
	c-2.2-1.8-4.5-3.5-7-5.2c1-0.1,1.7,0.4,2.3,0.6c1.9,0.7,3.8,1.6,5.7,2.3c1.7,0.6,2.6,2,3.6,3.3c5,5.9,9.9,12,14.3,18.4
	c4.9,6.9,9.3,14.1,12.9,21.8c2.4,5.1,4.4,10.4,5.5,16C1195.1,551.4,1195.1,551.7,1195.4,551.9z"/>
<path class="st6" d="M950.6,788c-1-0.5-2-0.5-3-0.6c-0.3-0.2-0.5-0.5-0.8-0.3c-6.5-1.4-12-4.6-16.6-9.3c-4.7-4.9-7.5-10.7-8.5-17.5
	c-1.2-8.3,0.4-16,5-22.9c4.8-7.1,11.4-11.7,19.7-13.6c0.8-0.2,1.7-0.4,2.5-0.5c0.4,1.3,0,2.6,0.1,3.7c0-0.9-0.1-2.1,0.1-3.3
	c0-0.2,0.2-0.1,0.3-0.1c0.7,1.8,0.4,3.6,0.2,5.5c-0.2,0.7-0.8,0.8-1.4,1c-4.1,1.2-7.6,3.3-10.6,6.4c-6.3,6.4-6.4,16.9-0.2,23.4
	c4.8,5,10.7,7.4,17.6,7.5c6.9,0.1,13-2.1,17.9-7.1c6.7-6.9,6.6-17.3-0.2-24.1c-2.1-2.2-4.5-3.9-7.3-5c-0.5-0.2-1-0.4-1.5-0.7
	c-0.2-0.2-0.2-0.5,0-0.8c0.7-1.3,1.3-2.6,2-3.9c0.1-0.2,0.3-0.5,0.6-0.4c0.1,0.7,0.8,0.8,1.3,1.1c6.1,3,10.8,7.4,14.1,13.3
	c1.4,2.5,2.5,5.3,3.1,8.1c-0.3,0.5,0.1,0.8,0.3,1.1c0,0.2,0,0.4,0,0.5c0,0.3,0,0.6,0.3,0.8c0.1,2.1,0.4,4.1,0.3,6.2
	c-0.3,7.9-3,14.8-8.2,20.7c-4.1,4.5-9,7.7-14.8,9.4c-1.8,0.6-3.7,1-5.6,1.2c-0.7,0-1.3-0.2-1.9,0.3C953.9,788,952.2,788,950.6,788z"
	/>
<path class="st7" d="M955.5,788c0.5-0.9,1.2-0.6,1.9-0.3c-0.1,0.1-0.2,0.2-0.3,0.3C956.6,788,956.1,788,955.5,788z"/>
<path class="st8" d="M1196.2,557.4c-0.5-0.5-0.4-1.1-0.3-1.7c0.1,0,0.2,0,0.3,0C1196.2,556.3,1196.2,556.8,1196.2,557.4z"/>
<path class="st9" d="M966.8,725.2c-0.9,1.6-1.8,3.2-2.7,4.9c-0.1,1.1-1,1.7-1.6,2.4c-1.9,2-3.8,3.9-6.7,4.4c-0.8-0.2-1.6-0.1-2.5,0
	c-0.7-0.1-1.2-0.4-1.6-0.9c-1.6-1.9-2.3-4.2-2.1-6.7c0-1.9-0.1-3.8-0.1-5.8c-0.1-0.1-0.1-0.1-0.1-0.2c0-0.1,0-0.1,0.1-0.1
	c1.8-11.1,0.4-22.1-1.4-33.1c-3.5-21.3-9-42-16.2-62.3c-4.4-12.4-9.5-24.6-13.8-37.1c-2.6-7.7-5.2-15.5-6.6-23.5
	c-0.2-1.1-0.1-2.2,0.3-3.2c1.2-3.1,2.3-6.3,3.7-9.3c2.5-5.8,5-11.6,7.9-17.2c4.2-8.2,8.6-16.3,13.5-24.1c3.8-6.1,7.8-12,12-17.7
	c0.7-0.9,1.5-1.7,2.1-2.7c7.5-9.4,15.2-18.6,24.1-26.7c2.5-2.3,4.9-4.5,7.6-6.6c0.5,0.7,0.1,1.3-0.1,1.9
	c-4.8,14.4-9.6,28.8-14.4,43.2c-0.3,0.8-0.6,1.6-0.8,2.5c0.4,0.2,0.6,0,0.8-0.1c3.6-1.9,7.4-3.5,11-5.3c1.9-0.9,3.5-2,4.7-3.7
	c0.3-0.5,0.8-0.9,1.2-1.3c0.2-0.3,0.5-0.7,0.9-0.4c0.4,0.3,0.1,0.7-0.1,1c-0.2,0.5-0.5,0.9-0.8,1.4c0.7-0.2,1.3-0.5,1.9-0.8
	c5.9-3,11.9-5.7,17.8-8.7c0.5-0.3,1.3-0.9,1.7-0.4c0.5,0.7-0.5,1-0.9,1.4c-5.6,5-11,10.2-16.1,15.6c-6.1,6.5-11.9,13.2-16.8,20.7
	c-3.3,5-6.1,10.1-7.7,15.9c-1,3.6-1.4,7.3-0.3,11c0.1,0.4,0.1,0.7,0.1,1.1c-0.1,0.3-0.3,0.7-0.6,0.8c-5.3,6.9-10.1,14.2-13.7,22.1
	c0,3.2,0.2,6.4,0.3,9.6c0.3,1.7,0.3,3.4,0.6,5.1c1.4,8.6,4.4,16.7,7.7,24.8c1.9,4.7,4.8,8.8,7.7,12.8c1.3,1.8,2.5,3.7,3.8,5.5
	c0.4,0.7,0.8,1.3,1.4,1.9c1.1,1.8,2.5,3.4,3.5,5.3c1,1.5,2,2.9,3.1,4.4c-0.2,7.9-0.5,15.8-1.2,23.6c-1.2,15.5-3.2,30.9-7.4,45.9
	C969,719.4,967.9,722.3,966.8,725.2z"/>
<path class="st10" d="M992.7,637.6c-0.5-1-0.4-1.3,0.3-1.4C992.9,636.6,992.8,637.1,992.7,637.6z"/>
<path class="st11" d="M1116.9,541.4c0.2-0.7,0.6-0.6,1.1-0.3C1117.7,541.5,1117.3,541.4,1116.9,541.4z"/>
<path class="st12" d="M1109.2,542.5c0.3-0.4,0.6-0.8,1.1-0.3C1110,542.4,1109.6,542.6,1109.2,542.5z"/>
<path class="st13" d="M993.8,628.7c-0.4-0.5-0.3-0.7,0.3-0.8C994.1,628.2,994.1,628.5,993.8,628.7z"/>
<path class="st14" d="M993.2,632.3c-0.3-0.2-0.3-0.5-0.2-0.8c0.1-0.2,0.3,0,0.5,0C993.4,631.8,993.3,632,993.2,632.3z"/>
<path class="st15" d="M985.8,750.2c-0.6-0.1-0.7-0.4-0.3-0.8C985.9,749.6,985.8,749.9,985.8,750.2z"/>
<path class="st16" d="M1146.9,541.1c0.4-0.4,0.7-0.3,0.8,0.3C1147.5,541.3,1147.2,541.2,1146.9,541.1z"/>
<path class="st17" d="M1111.1,542.2c0.3-0.4,0.6-0.8,1.1-0.3C1111.9,542,1111.5,542.1,1111.1,542.2z"/>
<path class="st18" d="M1106.2,543.1c0.2-0.3,0.4-0.8,0.8-0.3C1106.8,543.1,1106.5,543.1,1106.2,543.1z"/>
<path class="st16" d="M1195.7,565.1c-0.4-0.4-0.3-0.7,0.3-0.8C1195.9,564.5,1195.8,564.8,1195.7,565.1z"/>
<path class="st19" d="M985.5,748.8c-0.4-0.3-0.8-0.6-0.3-1.1C985.4,748.1,985.4,748.5,985.5,748.8z"/>
<path class="st20" d="M964.4,554.7c-0.3-1.6-0.7-3.2-0.8-4.8c-0.2-4.2,0.8-8.2,2.4-12c2.9-6.9,7-13,11.5-18.8
	c6.3-8.1,13.3-15.5,20.7-22.6c2.6-2.5,5.1-4.9,7.9-7.2c0.1-0.1,0.1-0.2,0.4-0.6c-7.5,3.7-14.8,7.2-22.1,10.8c0.2-1.2,1.1-2,1.3-3.1
	c-0.4,0.4-0.8,0.8-1.1,1.2c-2.4,3.7-6.6,4.8-10.2,6.7c-2.1,1.1-4.3,2.1-6.4,3.1c-0.4,0.2-0.8,0.4-1.3,0.6c-0.1-0.6,0.1-1,0.3-1.4
	c5-15.2,10.1-30.3,15.2-45.5c0.2-0.5,0.4-1,0.4-1.6c14.2-11.9,30.2-19.8,48.6-22.9c16.9-2.9,33.3-0.9,49.6,4
	c9.5,2.8,18.1,7.5,26.5,12.5c10.3,6.1,20.4,12.5,29.6,20.2c3.7,3.1,7.2,6.3,9.9,10.3c0.7,1,1.4,2,1.7,3.5c-2.9-1.1-5.8-1.8-8.7-2.3
	c-7.3-1.2-14.6-1.5-21.9-1.2c-11.9,0.5-23.6,2.3-35.3,4.8c-0.5,0.1-1.1,0.3-1.6,0.4c-0.8,0.9-1.9,0.7-2.9,1
	c-0.7,0.2-1.4,0.3-2.1,0.5c-0.1,0-0.3,0.1-0.4,0.1c-0.7,0.1-1.3,0.3-1.9,0.5c-0.2,0.1-0.4,0.1-0.6,0.1c-0.6,0.1-1.2,0.3-1.8,0.5
	c-2.7,0.6-5.4,1.4-8.1,2.2c-2.3,0.6-4.6,1.3-6.9,2c-0.2,0.1-0.4,0.1-0.6,0.2c-1.1,0.2-2.2,0.7-3.3,1c-0.1,0-0.2,0.1-0.4,0.1
	c-0.6,0.1-1.2,0.3-1.8,0.5c-0.6,0.2-1.2,0.4-1.8,0.6c-0.2,0.1-0.5,0.2-0.7,0.3c-0.6,0.2-1.2,0.3-1.8,0.5c-0.4,0.1-0.7,0.3-1.1,0.4
	c-0.5,0.1-0.8,0.3-1.3,0.5c-1.3,0.4-2.7,0.9-4,1.4c-0.8,0.2-1.5,0.5-2.2,0.8c-0.2,0.1-0.4,0.1-0.6,0.2c-4.2,1.3-8.4,2.9-12.3,5.1
	c-1.2,0.5-2.4,1.2-3.6,1.8c-4.8,2.5-9.3,5.3-13.9,8.1c-1.1,0.7-2.2,1.4-3.4,2c-0.6,0.4-1.2,0.8-1.9,1.2c-0.4,0.6-0.9,1.1-1.7,1.2
	l0,0c-0.5,0.7-1.2,1.1-1.9,1.4l0,0c-0.6,0.8-1.5,1.2-2.3,1.8c-0.6,0.6-1.2,1.2-2.1,1.5l0,0c-0.4,0.3-0.6,0.8-1.1,0.8l0,0
	c-0.5,0.4-0.8,1.1-1.5,1.3c-0.5,0.3-0.7,0.9-1.3,0.9c-0.1,0-0.1,0-0.1,0.1c-1.1,1.5-2.8,2.4-4.1,3.6c-1.6,1.2-2.8,2.9-4.5,4
	c-0.4,0.2-0.7,0.6-1,1c-2.2,2.4-4.5,4.7-6.9,6.9c-2.7,3.3-5.6,6.3-8.1,9.7C964.7,554.6,964.6,554.7,964.4,554.7z"/>
<path class="st6" d="M1003.4,519.1c5.5-3.9,11.2-7.3,17.2-10.4c1.4-0.3,2.7-1,3.9-1.8c3.5-1.7,7.1-3.1,10.7-4.4
	c0.5-0.2,0.9-0.4,1.3-0.7c0.1,0,0.3,0,0.4,0c0.7-0.2,1.4-0.4,2.1-0.7c1.5-0.5,3.1-1,4.6-1.6c0.5,0.4,0.5-0.4,0.8-0.4
	c0.6,0.1,1-0.2,1.4-0.5c0.6,0,1.2,0,1.6-0.5c0.2-0.1,0.3-0.2,0.5-0.2c0.8,0.2,1.5-0.3,2.2-0.6c0.6-0.1,1.2-0.1,1.6-0.6l0,0
	c1.3-0.1,2.5-0.5,3.6-1.2c0.1,0,0.2-0.1,0.3-0.1c1.4,0,2.6-0.6,3.8-0.9c0.4-0.1,0.9-0.5,1.1,0.3c-11.1,3.3-21.9,7.4-32.5,12.1
	c-8,3.5-15.7,7.4-23.4,11.6C1004.4,518.8,1004,519.1,1003.4,519.1z"/>
<path class="st21" d="M950.8,492.9c-0.5,1.5-1.7,2.6-2.7,3.9c-5.9,8.1-11.3,16.6-16.3,25.2c-3.7,6.4-7.2,12.9-10.4,19.5
	c-1.8,3.7-3.7,7.5-5.2,11.4c-0.2,0.6-0.4,1.3-1,1.7c0.9-2.8,2.1-5.5,3.3-8.1c8-18.1,17.6-35.2,29.8-50.8
	C949.2,494.7,949.8,493.6,950.8,492.9z"/>
<path class="st22" d="M1072.8,490.8c0.2,0,0.3-0.1,0.5-0.1c0.7-0.2,1.4-0.1,2-0.5c0.1,0,0.2,0,0.3,0c0.4,0.2,1.1-0.6,1.4,0.3
	c-3.5,0.9-6.9,1.8-10.4,2.7c-1.8,0.5-3.5,0.9-5.3,1.4c-0.5,0-0.4-0.3-0.1-0.4c0.5-0.4,1.2-0.3,1.7-0.7c2.7-0.9,5.4-1.7,8.2-2.2
	C1071.7,491.1,1072.3,491.2,1072.8,490.8z"/>
<path class="st23" d="M1095.7,486.9c1.6-0.7,3.4-0.6,5.1-0.8c8.5-1,17-1.3,25.5-1.1c0.1,0.1,0.1,0.1,0.1,0.2c0,0.1-0.1,0.1-0.1,0.1
	c-2.2,0-4.3,0-6.5,0c-5.7,0-11.3,0.4-16.9,1c-2.4,0.3-4.8,0.5-7.2,0.9C1095.6,487.1,1095.6,487,1095.7,486.9
	C1095.6,486.9,1095.7,486.9,1095.7,486.9z"/>
<path class="st24" d="M1095.7,486.9c0,0.1,0,0.2,0,0.3c-3.7,0.4-7.3,1.1-10.9,1.8c-2.1,0.4-4.1,0.8-6.2,1.3
	c-0.2-0.1-0.4-0.2-0.3-0.5c0.9-0.4,1.9-0.4,2.8-0.6c3-0.5,6.1-1.1,9.1-1.5C1092,487.3,1093.8,486.8,1095.7,486.9z"/>
<path class="st25" d="M1126.3,485.2c0-0.1,0-0.2,0-0.3c4.1-0.2,8.2,0.4,12.4,0.8C1134.5,485.8,1130.4,485.1,1126.3,485.2z"/>
<path class="st26" d="M1062.9,493.5c0.3,0.8-0.4,0.3-0.7,0.5c-0.3,0.2-0.7,0.3-1,0.4c0,0,0,0.1,0,0.1c0,0,0.1,0.1,0.1,0.1
	c-0.1,0.2-0.3,0.3-0.6,0.2c-1-0.5-1.8,0.3-2.6,0.4c-0.6,0.1-1.3,0.2-1.9,0.6c-0.2,0.2-0.4-0.1-0.4-0.4
	C1058.1,494.7,1060.5,493.9,1062.9,493.5z"/>
<path class="st27" d="M1081.1,489.1c-0.8,0.6-1.9,0.2-2.7,0.8c-0.3,0.3-0.8,0.2-1.1,0.5c-0.1,0-0.2,0-0.3,0c-0.3-0.7-1,0.3-1.4-0.3
	c1.7-0.6,3.5-0.9,5.2-1.3C1080.9,489,1081,489,1081.1,489.1z"/>
<path class="st28" d="M999.8,521.5c0.5-0.5,1.1-0.9,1.7-1.2c0.3,0.7,0.3,1.4,0.3,2.1C1001.6,521.8,1001.1,521.6,999.8,521.5z"/>
<path class="st29" d="M949.4,723.2c0,0.1,0,0.2,0,0.3c-0.5,1.2,0,2.5-0.5,3.8c0-1.3,0-2.7,0-4C949.1,723.2,949.2,723.2,949.4,723.2z
	"/>
<path class="st22" d="M1077.3,490.4c0.2-0.5,0.6-0.6,1.1-0.5c0.1,0.1,0.2,0.2,0.3,0.3C1078.2,490.3,1077.7,490.4,1077.3,490.4z"/>
<path class="st30" d="M1195.4,551.9c-0.6-0.1-0.7-0.4-0.3-0.8C1195.4,551.3,1195.4,551.6,1195.4,551.9z"/>
<path class="st31" d="M946.7,787.1c0.4-0.4,0.7-0.3,0.8,0.3C947.3,787.3,947,787.2,946.7,787.1z"/>
<path class="st32" d="M970.5,635.6c-7.7-9.3-13.2-19.7-16.6-31.3c-1.5-5.1-2.8-10.1-3.3-15.4c-0.1-0.5,0-1,0-1.5
	c-0.1-0.3-0.1-0.6,0-0.9c0.1-0.3,0.3-0.5,0.4,0c0,0.1,0,0.2,0,0.3c0.1,0.5,0.5,1,0.3,1.7c0.5,2.3,0.9,4.6,1.4,6.9
	c0.2,0.2,0.4,0.5,0.3,0.8c2.7,9.9,6.7,19.2,11.5,28.1c2,3.7,4,7.3,6.3,10.7C970.9,635.4,970.9,635.6,970.5,635.6z"/>
<path class="st33" d="M972.9,544.7c3.9-4.1,8-8.2,12.4-11.8c0.1-0.1,0.2-0.1,0.3,0c0,0.5-0.3,0.8-0.6,1c-4.1,3.2-7.4,7-11.1,10.6
	c-0.3,0.3-0.5,0.5-0.9,0.5C972.7,544.9,972.7,544.8,972.9,544.7z"/>
<path class="st34" d="M972.9,544.7c0,0.1,0,0.2,0,0.3c-0.1,0.6-0.4,1.1-0.9,1.5c-2.7,2.7-5.1,5.7-7.4,8.7c-0.2,0.2-0.2,0.6-0.6,0.2
	c0.1-0.2,0.2-0.5,0.3-0.7C967.1,551.2,969.9,547.9,972.9,544.7z"/>
<path class="st35" d="M950.8,586.6c-0.6,0.1-0.1,0.6-0.3,0.8c-0.4-3.3-0.3-6.6-0.1-9.9c0.1,0.2,0.2,0.3,0.2,0.5
	c0,2.5,0.1,5.1,0.6,7.6C951.2,585.9,951.2,586.3,950.8,586.6z"/>
<path class="st36" d="M975.4,642.5c-1.2-1.7-2.4-3.4-3.6-5.1c-0.1-0.2-0.2-0.4,0-0.6c1.5,1.6,2.5,3.6,3.8,5.4
	C975.6,642.2,975.4,642.4,975.4,642.5z"/>
<path class="st37" d="M985.6,532.9c-0.1,0-0.2,0-0.3,0c1.3-1.3,2.7-2.4,4.2-3.5C988.7,531.1,987,531.9,985.6,532.9z"/>
<path class="st38" d="M995.5,524.6c0.7-0.7,1.5-1.3,2.4-1.7c-0.3,1.1-1.1,1.5-2.2,1.7C995.7,524.7,995.6,524.7,995.5,524.6z"/>
<path class="st39" d="M995.5,524.6c0.1,0,0.2,0,0.2,0c-0.5,0.9-1,1.7-2.2,1.6C994,525.5,994.8,525.1,995.5,524.6z"/>
<path class="st28" d="M997.9,522.9c0.5-0.6,1.2-1,1.9-1.4C999.5,522.5,999,523.1,997.9,522.9z"/>
<path class="st40" d="M990.8,528.3c0.5-0.5,0.9-1,1.6-1.2c-0.3,0.8-0.6,1.5-1.6,1.4C990.7,528.4,990.7,528.4,990.8,528.3
	C990.7,528.3,990.8,528.3,990.8,528.3z"/>
<path class="st41" d="M971.8,636.7c0,0.2,0,0.4,0,0.6c-0.5-0.5-0.9-1.1-1.3-1.7c0.1-0.2,0.1-0.3,0.2-0.5
	C971,635.6,971.4,636.2,971.8,636.7z"/>
<path class="st42" d="M990.8,528.3c0,0.1,0,0.1,0,0.2c-0.1,0.7-0.4,1.2-1.2,0.8C990,528.9,990.4,528.6,990.8,528.3z"/>
<path class="st43" d="M992.4,527c0.3-0.4,0.6-0.7,1.1-0.8C993.2,526.6,993.3,527.5,992.4,527z"/>
<path class="st35" d="M951.1,588.5c-0.1-0.5-0.4-1.1-0.3-1.7C951.3,587.4,951.7,587.9,951.1,588.5z"/>
<path class="st19" d="M952.8,596.2c-0.1-0.3-0.2-0.6-0.3-0.8C953.1,595.5,953.2,595.8,952.8,596.2z"/>
<path class="st5" d="M949.5,729.3c0.4,1.4,0.4,2.9,1,4.2c0.6,1.3,1.3,2.6,2.8,3.2c0.8,0.1,1.6,0,2.4,0c2.9-0.7,4.9-2.8,6.8-4.8
	c0.5-0.6,1-1.2,1.5-1.8c6.5,1.9,13,8,14.1,15.3c1,7-1.6,12.5-6.9,16.9c-8.6,7.2-22.8,7.2-31.7-0.1c-6.6-5.4-8.9-13.7-5.2-21.5
	c2.1-4.4,5.7-7.6,10.1-9.7C946.1,730.2,947.8,729.6,949.5,729.3z"/>
<path class="st44" d="M955.8,736.7c-0.8,0.4-1.6,0.4-2.4,0C954.2,736.3,955,736.3,955.8,736.7z"/>
<path class="st45" d="M1036.5,501.8c0,0.4-0.3,0.5-0.6,0.7c-3.8,1.5-7.7,3-11.5,4.6c-0.1,0.1-0.3,0.1-0.4,0
	C1027.9,504.7,1032.2,503.1,1036.5,501.8z"/>
<path class="st46" d="M1043.7,499.5c-0.7,0.8-1.8,0.8-2.7,1.1c-0.5,0.2-1.1,0.4-1.7,0.5c-0.2-0.1-0.2-0.2,0-0.4
	c1.3-0.6,2.6-1.1,4-1.4C1043.4,499.4,1043.5,499.4,1043.7,499.5z"/>
<path class="st26" d="M1024,507c0.1,0,0.2,0,0.4,0c-1.1,1.1-2.3,1.7-3.8,1.7C1021.7,508.1,1022.8,507.5,1024,507z"/>
<path class="st26" d="M1055.5,495.6c-0.5,0.8-2.5,1.5-3.6,1.2C1053,496.2,1054.2,495.9,1055.5,495.6z"/>
<path class="st47" d="M1050.3,497.3c-0.8,0.8-1.7,1-2.2,0.5c0.6-0.3,1.2-0.5,1.9-0.6C1050.1,497.2,1050.2,497.2,1050.3,497.3z"/>
<path class="st48" d="M1050.3,497.3c-0.1,0-0.2,0-0.3,0c0.6-0.3,1.2-0.5,1.9-0.6C1051.5,497.4,1051,497.6,1050.3,497.3z"/>
<path class="st49" d="M1047.5,498.1c-0.3,0.9-1,0.8-1.7,0.6c-0.1,0.1-0.2,0.1-0.3,0C1046.2,498.4,1046.8,498.1,1047.5,498.1z"/>
<path class="st50" d="M1039.2,500.8c0,0.1,0,0.2,0,0.4c-0.8,0.1-1.4,0.7-2.3,0.5C1037.6,501.1,1038.4,501,1039.2,500.8z"/>
<path class="st51" d="M1045.6,498.7c0.1,0,0.2,0,0.3,0c-0.3,0.6-0.7,0.9-1.4,0.5c-0.1-0.1-0.1-0.1-0.1-0.2c0-0.1,0.1-0.1,0.1-0.1
	C1044.8,498.9,1045.2,498.8,1045.6,498.7z"/>
<path class="st52" d="M1075.3,490.2c-0.6,0.6-1.3,0.5-2,0.5C1073.9,490.4,1074.6,490.2,1075.3,490.2z"/>
<path class="st53" d="M1072.8,490.8c-0.4,0.7-1.1,0.4-1.7,0.5C1071.6,490.9,1072.2,490.9,1072.8,490.8z"/>
<path class="st54" d="M1044.5,499c0,0.1,0,0.2,0,0.2c-0.3,0.2-0.4,0.6-0.8,0.3c-0.1,0-0.3,0-0.4-0.1
	C1043.6,499.2,1044,499.1,1044.5,499z"/>
<line class="st5" x1="1137.7" y1="485.7" x2="1150.7" y2="488.6"/>
</svg>
